  0
SECTION
  2
HEADER
  9
$ACADVER
  1
AC1009
  9
$ANGDIR
  70
0
  9
$CECOLOR
  62
256
  9
$CELTYPE
  6
BYLAYER
  9
$EXTMIN
  10
-51.176
  20
-74.574
  9
$EXTMAX
  10
-5.8395
  20
56.457
  9
$FILLMODE
  70
1
  9
$MIRRTEXT
  70
0
  0
ENDSEC
  0
SECTION
  2
TABLES
  0
TABLE
  2
LAYER
  70
17
  0
LAYER
  2
Верхний
  70
64
  62
5
  6
CONTINUOUS
  0
ENDTAB
  0
ENDSEC
  0
SECTION
  2
ENTITIES
  0
POLYLINE
  8
Верхний
  6
CONTINUOUS
  66
1
  70
0
  40
0.0
  41
0.0
  0
VERTEX
  8
Верхний
  10
-40.9183
  20
40.5935
  42
0
  0
VERTEX
  8
Верхний
  10
-40.9183
  20
39.7515
  42
0
  0
VERTEX
  8
Верхний
  10
-41.5947
  20
39.1562
  42
0
  0
VERTEX
  8
Верхний
  10
-42.5515
  20
39.1562
  42
0
  0
VERTEX
  8
Верхний
  10
-43.2279
  20
39.7515
  42
0
  0
VERTEX
  8
Верхний
  10
-43.2279
  20
40.5935
  42
0
  0
VERTEX
  8
Верхний
  10
-42.5515
  20
41.1888
  42
0
  0
VERTEX
  8
Верхний
  10
-41.5947
  20
41.1888
  42
0
  0
VERTEX
  8
Верхний
  10
-40.9183
  20
40.5935
  42
0
  0
SEQEND
  0
POLYLINE
  8
Верхний
  6
CONTINUOUS
  66
1
  70
0
  40
0.0
  41
0.0
  0
VERTEX
  8
Верхний
  10
-40.8395
  20
43.0935
  42
0
  0
VERTEX
  8
Верхний
  10
-40.8395
  20
42.2515
  42
0
  0
VERTEX
  8
Верхний
  10
-41.516
  20
41.6562
  42
0
  0
VERTEX
  8
Верхний
  10
-42.4727
  20
41.6562
  42
0
  0
VERTEX
  8
Верхний
  10
-43.1492
  20
42.2515
  42
0
  0
VERTEX
  8
Верхний
  10
-43.1492
  20
43.0935
  42
0
  0
VERTEX
  8
Верхний
  10
-42.4727
  20
43.6888
  42
0
  0
VERTEX
  8
Верхний
  10
-41.516
  20
43.6888
  42
0
  0
VERTEX
  8
Верхний
  10
-40.8395
  20
43.0935
  42
0
  0
SEQEND
  0
POLYLINE
  8
Верхний
  6
CONTINUOUS
  66
1
  70
0
  40
0.0
  41
0.0
  0
VERTEX
  8
Верхний
  10
-40.8395
  20
38.0935
  42
0
  0
VERTEX
  8
Верхний
  10
-40.8395
  20
37.2515
  42
0
  0
VERTEX
  8
Верхний
  10
-41.516
  20
36.6562
  42
0
  0
VERTEX
  8
Верхний
  10
-42.4727
  20
36.6562
  42
0
  0
VERTEX
  8
Верхний
  10
-43.1492
  20
37.2515
  42
0
  0
VERTEX
  8
Верхний
  10
-43.1492
  20
38.0935
  42
0
  0
VERTEX
  8
Верхний
  10
-42.4727
  20
38.6888
  42
0
  0
VERTEX
  8
Верхний
  10
-41.516
  20
38.6888
  42
0
  0
VERTEX
  8
Верхний
  10
-40.8395
  20
38.0935
  42
0
  0
SEQEND
  0
POLYLINE
  8
Верхний
  6
CONTINUOUS
  66
1
  70
0
  40
0.0
  41
0.0
  0
VERTEX
  8
Верхний
  10
-20.8395
  20
40.5935
  42
0
  0
VERTEX
  8
Верхний
  10
-20.8395
  20
39.7515
  42
0
  0
VERTEX
  8
Верхний
  10
-21.516
  20
39.1562
  42
0
  0
VERTEX
  8
Верхний
  10
-22.4727
  20
39.1562
  42
0
  0
VERTEX
  8
Верхний
  10
-23.1492
  20
39.7515
  42
0
  0
VERTEX
  8
Верхний
  10
-23.1492
  20
40.5935
  42
0
  0
VERTEX
  8
Верхний
  10
-22.4727
  20
41.1888
  42
0
  0
VERTEX
  8
Верхний
  10
-21.516
  20
41.1888
  42
0
  0
VERTEX
  8
Верхний
  10
-20.8395
  20
40.5935
  42
0
  0
SEQEND
  0
POLYLINE
  8
Верхний
  6
CONTINUOUS
  66
1
  70
0
  40
0.0
  41
0.0
  0
VERTEX
  8
Верхний
  10
-5.8395
  20
40.5935
  42
0
  0
VERTEX
  8
Верхний
  10
-5.8395
  20
39.7515
  42
0
  0
VERTEX
  8
Верхний
  10
-6.516
  20
39.1562
  42
0
  0
VERTEX
  8
Верхний
  10
-7.4727
  20
39.1562
  42
0
  0
VERTEX
  8
Верхний
  10
-8.1492
  20
39.7515
  42
0
  0
VERTEX
  8
Верхний
  10
-8.1492
  20
40.5935
  42
0
  0
VERTEX
  8
Верхний
  10
-7.4727
  20
41.1888
  42
0
  0
VERTEX
  8
Верхний
  10
-6.516
  20
41.1888
  42
0
  0
VERTEX
  8
Верхний
  10
-5.8395
  20
40.5935
  42
0
  0
SEQEND
  0
POLYLINE
  8
Верхний
  6
CONTINUOUS
  66
1
  70
0
  40
0.0
  41
0.0
  0
VERTEX
  8
Верхний
  10
-10.9114
  20
54.8779
  42
0
  0
VERTEX
  8
Верхний
  10
-10.9114
  20
54.036
  42
0
  0
VERTEX
  8
Верхний
  10
-11.5879
  20
53.4407
  42
0
  0
VERTEX
  8
Верхний
  10
-12.5446
  20
53.4407
  42
0
  0
VERTEX
  8
Верхний
  10
-13.2211
  20
54.036
  42
0
  0
VERTEX
  8
Верхний
  10
-13.2211
  20
54.8779
  42
0
  0
VERTEX
  8
Верхний
  10
-12.5446
  20
55.4732
  42
0
  0
VERTEX
  8
Верхний
  10
-11.5879
  20
55.4732
  42
0
  0
VERTEX
  8
Верхний
  10
-10.9114
  20
54.8779
  42
0
  0
SEQEND
  0
POLYLINE
  8
Верхний
  6
CONTINUOUS
  66
1
  70
0
  40
0.0
  41
0.0
  0
VERTEX
  8
Верхний
  10
-10.9114
  20
49.8779
  42
0
  0
VERTEX
  8
Верхний
  10
-10.9114
  20
49.036
  42
0
  0
VERTEX
  8
Верхний
  10
-11.5879
  20
48.4407
  42
0
  0
VERTEX
  8
Верхний
  10
-12.5446
  20
48.4407
  42
0
  0
VERTEX
  8
Верхний
  10
-13.2211
  20
49.036
  42
0
  0
VERTEX
  8
Верхний
  10
-13.2211
  20
49.8779
  42
0
  0
VERTEX
  8
Верхний
  10
-12.5446
  20
50.4732
  42
0
  0
VERTEX
  8
Верхний
  10
-11.5879
  20
50.4732
  42
0
  0
VERTEX
  8
Верхний
  10
-10.9114
  20
49.8779
  42
0
  0
SEQEND
  0
POLYLINE
  8
Верхний
  6
CONTINUOUS
  66
1
  70
0
  40
0.0
  41
0.0
  0
VERTEX
  8
Верхний
  10
-30.9114
  20
52.3779
  42
0
  0
VERTEX
  8
Верхний
  10
-30.9114
  20
51.536
  42
0
  0
VERTEX
  8
Верхний
  10
-31.5879
  20
50.9407
  42
0
  0
VERTEX
  8
Верхний
  10
-32.5446
  20
50.9407
  42
0
  0
VERTEX
  8
Верхний
  10
-33.2211
  20
51.536
  42
0
  0
VERTEX
  8
Верхний
  10
-33.2211
  20
52.3779
  42
0
  0
VERTEX
  8
Верхний
  10
-32.5446
  20
52.9732
  42
0
  0
VERTEX
  8
Верхний
  10
-31.5879
  20
52.9732
  42
0
  0
VERTEX
  8
Верхний
  10
-30.9114
  20
52.3779
  42
0
  0
SEQEND
  0
POLYLINE
  8
Верхний
  6
CONTINUOUS
  66
1
  70
0
  40
0.0
  41
0.0
  0
VERTEX
  8
Верхний
  10
-40.9114
  20
52.3779
  42
0
  0
VERTEX
  8
Верхний
  10
-40.9114
  20
51.536
  42
0
  0
VERTEX
  8
Верхний
  10
-41.5879
  20
50.9407
  42
0
  0
VERTEX
  8
Верхний
  10
-42.5446
  20
50.9407
  42
0
  0
VERTEX
  8
Верхний
  10
-43.2211
  20
51.536
  42
0
  0
VERTEX
  8
Верхний
  10
-43.2211
  20
52.3779
  42
0
  0
VERTEX
  8
Верхний
  10
-42.5446
  20
52.9732
  42
0
  0
VERTEX
  8
Верхний
  10
-41.5879
  20
52.9732
  42
0
  0
VERTEX
  8
Верхний
  10
-40.9114
  20
52.3779
  42
0
  0
SEQEND
  0
POLYLINE
  8
Верхний
  6
CONTINUOUS
  66
1
  70
0
  40
0.0
  41
0.0
  0
VERTEX
  8
Верхний
  10
-40.9514
  20
49.8779
  42
0
  0
VERTEX
  8
Верхний
  10
-40.9514
  20
49.036
  42
0
  0
VERTEX
  8
Верхний
  10
-41.6279
  20
48.4407
  42
0
  0
VERTEX
  8
Верхний
  10
-42.5846
  20
48.4407
  42
0
  0
VERTEX
  8
Верхний
  10
-43.2611
  20
49.036
  42
0
  0
VERTEX
  8
Верхний
  10
-43.2611
  20
49.8779
  42
0
  0
VERTEX
  8
Верхний
  10
-42.5846
  20
50.4732
  42
0
  0
VERTEX
  8
Верхний
  10
-41.6279
  20
50.4732
  42
0
  0
VERTEX
  8
Верхний
  10
-40.9514
  20
49.8779
  42
0
  0
SEQEND
  0
POLYLINE
  8
Верхний
  6
CONTINUOUS
  66
1
  70
0
  40
0.0
  41
0.0
  0
VERTEX
  8
Верхний
  10
-40.9514
  20
54.8779
  42
0
  0
VERTEX
  8
Верхний
  10
-40.9514
  20
54.036
  42
0
  0
VERTEX
  8
Верхний
  10
-41.6279
  20
53.4407
  42
0
  0
VERTEX
  8
Верхний
  10
-42.5846
  20
53.4407
  42
0
  0
VERTEX
  8
Верхний
  10
-43.2611
  20
54.036
  42
0
  0
VERTEX
  8
Верхний
  10
-43.2611
  20
54.8779
  42
0
  0
VERTEX
  8
Верхний
  10
-42.5846
  20
55.4732
  42
0
  0
VERTEX
  8
Верхний
  10
-41.6279
  20
55.4732
  42
0
  0
VERTEX
  8
Верхний
  10
-40.9514
  20
54.8779
  42
0
  0
SEQEND
  0
POLYLINE
  8
Верхний
  6
CONTINUOUS
  66
1
  70
0
  40
0.0
  41
0.0
  0
VERTEX
  8
Верхний
  10
-10.9084
  20
52.3779
  42
0
  0
VERTEX
  8
Верхний
  10
-10.9084
  20
51.536
  42
0
  0
VERTEX
  8
Верхний
  10
-11.5849
  20
50.9407
  42
0
  0
VERTEX
  8
Верхний
  10
-12.5416
  20
50.9407
  42
0
  0
VERTEX
  8
Верхний
  10
-13.2181
  20
51.536
  42
0
  0
VERTEX
  8
Верхний
  10
-13.2181
  20
52.3779
  42
0
  0
VERTEX
  8
Верхний
  10
-12.5416
  20
52.9732
  42
0
  0
VERTEX
  8
Верхний
  10
-11.5849
  20
52.9732
  42
0
  0
VERTEX
  8
Верхний
  10
-10.9084
  20
52.3779
  42
0
  0
SEQEND
  0
POLYLINE
  8
Верхний
  6
CONTINUOUS
  66
1
  70
0
  40
0.0
  41
0.0
  0
VERTEX
  8
Верхний
  10
-17.4749
  20
-55.6781
  42
0
  0
VERTEX
  8
Верхний
  10
-17.4749
  20
-56.52
  42
0
  0
VERTEX
  8
Верхний
  10
-18.1785
  20
-57.1153
  42
0
  0
VERTEX
  8
Верхний
  10
-19.1735
  20
-57.1153
  42
0
  0
VERTEX
  8
Верхний
  10
-19.877
  20
-56.52
  42
0
  0
VERTEX
  8
Верхний
  10
-19.877
  20
-55.6781
  42
0
  0
VERTEX
  8
Верхний
  10
-19.1735
  20
-55.0828
  42
0
  0
VERTEX
  8
Верхний
  10
-18.1785
  20
-55.0828
  42
0
  0
VERTEX
  8
Верхний
  10
-17.4749
  20
-55.6781
  42
0
  0
SEQEND
  0
POLYLINE
  8
Верхний
  6
CONTINUOUS
  66
1
  70
0
  40
0.0
  41
0.0
  0
VERTEX
  8
Верхний
  10
-17.4749
  20
-60.6781
  42
0
  0
VERTEX
  8
Верхний
  10
-17.4749
  20
-61.52
  42
0
  0
VERTEX
  8
Верхний
  10
-18.1785
  20
-62.1153
  42
0
  0
VERTEX
  8
Верхний
  10
-19.1735
  20
-62.1153
  42
0
  0
VERTEX
  8
Верхний
  10
-19.877
  20
-61.52
  42
0
  0
VERTEX
  8
Верхний
  10
-19.877
  20
-60.6781
  42
0
  0
VERTEX
  8
Верхний
  10
-19.1735
  20
-60.0828
  42
0
  0
VERTEX
  8
Верхний
  10
-18.1785
  20
-60.0828
  42
0
  0
VERTEX
  8
Верхний
  10
-17.4749
  20
-60.6781
  42
0
  0
SEQEND
  0
POLYLINE
  8
Верхний
  6
CONTINUOUS
  66
1
  70
0
  40
0.0
  41
0.0
  0
VERTEX
  8
Верхний
  10
-37.4749
  20
-58.1781
  42
0
  0
VERTEX
  8
Верхний
  10
-37.4749
  20
-59.02
  42
0
  0
VERTEX
  8
Верхний
  10
-38.1785
  20
-59.6153
  42
0
  0
VERTEX
  8
Верхний
  10
-39.1735
  20
-59.6153
  42
0
  0
VERTEX
  8
Верхний
  10
-39.877
  20
-59.02
  42
0
  0
VERTEX
  8
Верхний
  10
-39.877
  20
-58.1781
  42
0
  0
VERTEX
  8
Верхний
  10
-39.1735
  20
-57.5828
  42
0
  0
VERTEX
  8
Верхний
  10
-38.1785
  20
-57.5828
  42
0
  0
VERTEX
  8
Верхний
  10
-37.4749
  20
-58.1781
  42
0
  0
SEQEND
  0
POLYLINE
  8
Верхний
  6
CONTINUOUS
  66
1
  70
0
  40
0.0
  41
0.0
  0
VERTEX
  8
Верхний
  10
-47.4749
  20
-58.1781
  42
0
  0
VERTEX
  8
Верхний
  10
-47.4749
  20
-59.02
  42
0
  0
VERTEX
  8
Верхний
  10
-48.1785
  20
-59.6153
  42
0
  0
VERTEX
  8
Верхний
  10
-49.1735
  20
-59.6153
  42
0
  0
VERTEX
  8
Верхний
  10
-49.877
  20
-59.02
  42
0
  0
VERTEX
  8
Верхний
  10
-49.877
  20
-58.1781
  42
0
  0
VERTEX
  8
Верхний
  10
-49.1735
  20
-57.5828
  42
0
  0
VERTEX
  8
Верхний
  10
-48.1785
  20
-57.5828
  42
0
  0
VERTEX
  8
Верхний
  10
-47.4749
  20
-58.1781
  42
0
  0
SEQEND
  0
POLYLINE
  8
Верхний
  6
CONTINUOUS
  66
1
  70
0
  40
0.0
  41
0.0
  0
VERTEX
  8
Верхний
  10
-44.9749
  20
-60.6781
  42
0
  0
VERTEX
  8
Верхний
  10
-44.9749
  20
-61.52
  42
0
  0
VERTEX
  8
Верхний
  10
-45.6785
  20
-62.1153
  42
0
  0
VERTEX
  8
Верхний
  10
-46.6735
  20
-62.1153
  42
0
  0
VERTEX
  8
Верхний
  10
-47.377
  20
-61.52
  42
0
  0
VERTEX
  8
Верхний
  10
-47.377
  20
-60.6781
  42
0
  0
VERTEX
  8
Верхний
  10
-46.6735
  20
-60.0828
  42
0
  0
VERTEX
  8
Верхний
  10
-45.6785
  20
-60.0828
  42
0
  0
VERTEX
  8
Верхний
  10
-44.9749
  20
-60.6781
  42
0
  0
SEQEND
  0
POLYLINE
  8
Верхний
  6
CONTINUOUS
  66
1
  70
0
  40
0.0
  41
0.0
  0
VERTEX
  8
Верхний
  10
-44.9749
  20
-55.6781
  42
0
  0
VERTEX
  8
Верхний
  10
-44.9749
  20
-56.52
  42
0
  0
VERTEX
  8
Верхний
  10
-45.6785
  20
-57.1153
  42
0
  0
VERTEX
  8
Верхний
  10
-46.6735
  20
-57.1153
  42
0
  0
VERTEX
  8
Верхний
  10
-47.377
  20
-56.52
  42
0
  0
VERTEX
  8
Верхний
  10
-47.377
  20
-55.6781
  42
0
  0
VERTEX
  8
Верхний
  10
-46.6735
  20
-55.0828
  42
0
  0
VERTEX
  8
Верхний
  10
-45.6785
  20
-55.0828
  42
0
  0
VERTEX
  8
Верхний
  10
-44.9749
  20
-55.6781
  42
0
  0
SEQEND
  0
POLYLINE
  8
Верхний
  6
CONTINUOUS
  66
1
  70
0
  40
0.0
  41
0.0
  0
VERTEX
  8
Верхний
  10
-17.4749
  20
-67.1531
  42
0
  0
VERTEX
  8
Верхний
  10
-17.4749
  20
-67.995
  42
0
  0
VERTEX
  8
Верхний
  10
-18.1785
  20
-68.5903
  42
0
  0
VERTEX
  8
Верхний
  10
-19.1735
  20
-68.5903
  42
0
  0
VERTEX
  8
Верхний
  10
-19.877
  20
-67.995
  42
0
  0
VERTEX
  8
Верхний
  10
-19.877
  20
-67.1531
  42
0
  0
VERTEX
  8
Верхний
  10
-19.1735
  20
-66.5578
  42
0
  0
VERTEX
  8
Верхний
  10
-18.1785
  20
-66.5578
  42
0
  0
VERTEX
  8
Верхний
  10
-17.4749
  20
-67.1531
  42
0
  0
SEQEND
  0
POLYLINE
  8
Верхний
  6
CONTINUOUS
  66
1
  70
0
  40
0.0
  41
0.0
  0
VERTEX
  8
Верхний
  10
-17.4749
  20
-72.1531
  42
0
  0
VERTEX
  8
Верхний
  10
-17.4749
  20
-72.995
  42
0
  0
VERTEX
  8
Верхний
  10
-18.1785
  20
-73.5903
  42
0
  0
VERTEX
  8
Верхний
  10
-19.1735
  20
-73.5903
  42
0
  0
VERTEX
  8
Верхний
  10
-19.877
  20
-72.995
  42
0
  0
VERTEX
  8
Верхний
  10
-19.877
  20
-72.1531
  42
0
  0
VERTEX
  8
Верхний
  10
-19.1735
  20
-71.5578
  42
0
  0
VERTEX
  8
Верхний
  10
-18.1785
  20
-71.5578
  42
0
  0
VERTEX
  8
Верхний
  10
-17.4749
  20
-72.1531
  42
0
  0
SEQEND
  0
POLYLINE
  8
Верхний
  6
CONTINUOUS
  66
1
  70
0
  40
0.0
  41
0.0
  0
VERTEX
  8
Верхний
  10
-37.4749
  20
-69.6531
  42
0
  0
VERTEX
  8
Верхний
  10
-37.4749
  20
-70.495
  42
0
  0
VERTEX
  8
Верхний
  10
-38.1785
  20
-71.0903
  42
0
  0
VERTEX
  8
Верхний
  10
-39.1735
  20
-71.0903
  42
0
  0
VERTEX
  8
Верхний
  10
-39.877
  20
-70.495
  42
0
  0
VERTEX
  8
Верхний
  10
-39.877
  20
-69.6531
  42
0
  0
VERTEX
  8
Верхний
  10
-39.1735
  20
-69.0578
  42
0
  0
VERTEX
  8
Верхний
  10
-38.1785
  20
-69.0578
  42
0
  0
VERTEX
  8
Верхний
  10
-37.4749
  20
-69.6531
  42
0
  0
SEQEND
  0
POLYLINE
  8
Верхний
  6
CONTINUOUS
  66
1
  70
0
  40
0.0
  41
0.0
  0
VERTEX
  8
Верхний
  10
-47.4749
  20
-69.6531
  42
0
  0
VERTEX
  8
Верхний
  10
-47.4749
  20
-70.495
  42
0
  0
VERTEX
  8
Верхний
  10
-48.1785
  20
-71.0903
  42
0
  0
VERTEX
  8
Верхний
  10
-49.1735
  20
-71.0903
  42
0
  0
VERTEX
  8
Верхний
  10
-49.877
  20
-70.495
  42
0
  0
VERTEX
  8
Верхний
  10
-49.877
  20
-69.6531
  42
0
  0
VERTEX
  8
Верхний
  10
-49.1735
  20
-69.0578
  42
0
  0
VERTEX
  8
Верхний
  10
-48.1785
  20
-69.0578
  42
0
  0
VERTEX
  8
Верхний
  10
-47.4749
  20
-69.6531
  42
0
  0
SEQEND
  0
POLYLINE
  8
Верхний
  6
CONTINUOUS
  66
1
  70
0
  40
0.0
  41
0.0
  0
VERTEX
  8
Верхний
  10
-44.9749
  20
-72.1531
  42
0
  0
VERTEX
  8
Верхний
  10
-44.9749
  20
-72.995
  42
0
  0
VERTEX
  8
Верхний
  10
-45.6785
  20
-73.5903
  42
0
  0
VERTEX
  8
Верхний
  10
-46.6735
  20
-73.5903
  42
0
  0
VERTEX
  8
Верхний
  10
-47.377
  20
-72.995
  42
0
  0
VERTEX
  8
Верхний
  10
-47.377
  20
-72.1531
  42
0
  0
VERTEX
  8
Верхний
  10
-46.6735
  20
-71.5578
  42
0
  0
VERTEX
  8
Верхний
  10
-45.6785
  20
-71.5578
  42
0
  0
VERTEX
  8
Верхний
  10
-44.9749
  20
-72.1531
  42
0
  0
SEQEND
  0
POLYLINE
  8
Верхний
  6
CONTINUOUS
  66
1
  70
0
  40
0.0
  41
0.0
  0
VERTEX
  8
Верхний
  10
-44.9749
  20
-67.1531
  42
0
  0
VERTEX
  8
Верхний
  10
-44.9749
  20
-67.995
  42
0
  0
VERTEX
  8
Верхний
  10
-45.6785
  20
-68.5903
  42
0
  0
VERTEX
  8
Верхний
  10
-46.6735
  20
-68.5903
  42
0
  0
VERTEX
  8
Верхний
  10
-47.377
  20
-67.995
  42
0
  0
VERTEX
  8
Верхний
  10
-47.377
  20
-67.1531
  42
0
  0
VERTEX
  8
Верхний
  10
-46.6735
  20
-66.5578
  42
0
  0
VERTEX
  8
Верхний
  10
-45.6785
  20
-66.5578
  42
0
  0
VERTEX
  8
Верхний
  10
-44.9749
  20
-67.1531
  42
0
  0
SEQEND
  0
ENDSEC
  0
EOF
