G04 DipTrace 2.4.0.2*
%INMemoryBrd-TopMask.gbr*%
%MOMM*%
%ADD57C,3.0*%
%ADD65R,1.7X1.7*%
%ADD66C,1.7*%
%ADD67C,3.5*%
%ADD74C,1.9*%
%ADD75R,1.9X1.9*%
%ADD76R,0.7X1.7*%
%ADD78R,0.835X2.384*%
%ADD82R,1.05X1.05*%
%ADD84R,0.8X0.8*%
%ADD86C,3.2*%
%ADD88C,1.7*%
%ADD89C,2.7*%
%ADD90C,2.3*%
%ADD91C,1.47*%
%ADD93C,1.47*%
%ADD95C,1.85*%
%ADD97C,1.419*%
%ADD99R,1.55X1.2*%
%ADD101R,1.8X1.4*%
%ADD103R,2.3X2.3*%
%ADD104R,0.6X2.0*%
%ADD106R,2.2X0.8*%
%ADD114R,0.6X2.25*%
%ADD116R,1.8X0.5*%
%ADD118R,0.5X1.8*%
%ADD122C,2.2*%
%ADD124R,1.876X1.419*%
%ADD126R,2.486X2.588*%
%ADD128R,1.5X1.7*%
%ADD130R,2.588X2.486*%
%ADD132R,1.7X1.5*%
%ADD134C,4.01*%
%FSLAX53Y53*%
G04*
G71*
G90*
G75*
G01*
%LNTopMask*%
%LPD*%
D134*
X67632Y107006D3*
X62552D3*
D132*
X148286Y50004D3*
Y48104D3*
X98272Y107327D3*
Y109227D3*
X95893Y107324D3*
Y109224D3*
X93511Y107324D3*
Y109224D3*
D130*
X83509Y108753D3*
Y102784D3*
X89225Y108594D3*
Y102625D3*
D132*
X73030Y105578D3*
Y107478D3*
D130*
X32227Y114151D3*
Y108182D3*
D132*
X28417Y110182D3*
Y112082D3*
D126*
X43023Y98433D3*
X37054D3*
D128*
X92241Y41436D3*
X90341D3*
D124*
X36673Y193376D3*
Y195789D3*
D132*
X45723Y193217D3*
Y195117D3*
X43500Y193217D3*
Y195117D3*
X41277Y193217D3*
Y195117D3*
G36*
X33477Y81057D2*
X34680Y82259D1*
X35740Y81198D1*
X34538Y79996D1*
X33477Y81057D1*
G37*
G36*
X34821Y79713D2*
X36023Y80915D1*
X37084Y79855D1*
X35882Y78653D1*
X34821Y79713D1*
G37*
D132*
X45246Y77947D3*
Y76047D3*
G36*
X29985Y77881D2*
X31187Y79084D1*
X32247Y78023D1*
X31045Y76821D1*
X29985Y77881D1*
G37*
G36*
X31328Y76538D2*
X32530Y77740D1*
X33591Y76679D1*
X32389Y75477D1*
X31328Y76538D1*
G37*
D132*
X271965Y121137D3*
Y123037D3*
X249252Y121320D3*
Y123220D3*
D128*
X38578Y103514D3*
X40478D3*
X111928Y41436D3*
X110028D3*
D132*
X164798Y63346D3*
Y65246D3*
X202894Y121323D3*
Y123223D3*
X225446Y121295D3*
Y123195D3*
X174006Y47628D3*
Y49528D3*
X175755Y85348D3*
Y83448D3*
X170829Y37942D3*
Y39842D3*
X167019Y38101D3*
Y40001D3*
X162889Y38103D3*
Y40003D3*
X142411Y38102D3*
Y40002D3*
X159716Y38101D3*
Y40001D3*
X139236Y38102D3*
Y40002D3*
X156224Y38101D3*
Y40001D3*
X136061Y38102D3*
Y40002D3*
X152414Y38101D3*
Y40001D3*
X132885Y38102D3*
Y40002D3*
X148918Y38104D3*
Y40004D3*
X129710Y38102D3*
Y40002D3*
X145584Y38104D3*
Y40004D3*
X126535Y38102D3*
Y40002D3*
X123359Y38102D3*
Y40002D3*
X120184Y38102D3*
Y40002D3*
X228463Y19050D3*
Y20950D3*
X116530Y21434D3*
Y23334D3*
X226081Y19050D3*
Y20950D3*
X113992Y21431D3*
Y23331D3*
X223541Y19050D3*
Y20950D3*
X111452Y21431D3*
Y23331D3*
X221001Y19050D3*
Y20950D3*
X108912Y21431D3*
Y23331D3*
X218461Y19050D3*
Y20950D3*
X106530Y21431D3*
Y23331D3*
X215920Y19050D3*
Y20950D3*
X103829Y21434D3*
Y23334D3*
X213380Y19050D3*
Y20950D3*
X101291Y21431D3*
Y23331D3*
X210840Y19050D3*
Y20950D3*
X98751Y21431D3*
Y23331D3*
X208141Y19050D3*
Y20950D3*
X96210Y21431D3*
Y23331D3*
X205759Y19050D3*
Y20950D3*
X93670Y21431D3*
Y23331D3*
X203219Y19050D3*
Y20950D3*
X91130Y21431D3*
Y23331D3*
X200679Y19050D3*
Y20950D3*
X88590Y21431D3*
Y23331D3*
X198139Y19050D3*
Y20950D3*
X86047Y21434D3*
Y23334D3*
X195598Y19050D3*
Y20950D3*
X83509Y21431D3*
Y23331D3*
X193058Y19050D3*
Y20950D3*
X81127Y21431D3*
Y23331D3*
X190518Y19050D3*
Y20950D3*
X78587Y21431D3*
Y23331D3*
D122*
X35561Y141935D3*
Y139395D3*
G36*
X37490Y107330D2*
X36490D1*
Y105730D1*
X37490D1*
Y107330D1*
G37*
G36*
X41970Y116930D2*
X36570D1*
Y110730D1*
X41970D1*
Y116930D1*
G37*
G36*
X42050Y107330D2*
X41050D1*
Y105730D1*
X42050D1*
Y107330D1*
G37*
D65*
X160511Y75253D3*
D66*
X157971D3*
X155431D3*
X152891D3*
X150351D3*
X147811D3*
X145271D3*
Y67633D3*
X147811D3*
X150351D3*
X152891D3*
X155431D3*
X157971D3*
X160511D3*
D65*
Y60805D3*
D66*
X157971D3*
X155431D3*
X152891D3*
X150351D3*
X147811D3*
X145271D3*
Y53185D3*
X147811D3*
X150351D3*
X152891D3*
X155431D3*
X157971D3*
X160511D3*
D65*
X183850Y60805D3*
D66*
X181309D3*
X178769D3*
X176230D3*
X173690D3*
X171149D3*
X168609D3*
Y53185D3*
X171149D3*
X173690D3*
X176230D3*
X178769D3*
X181309D3*
X183850D3*
D118*
X61292Y79093D3*
X60792D3*
X60292D3*
X59792D3*
X59292D3*
X58792D3*
X58292D3*
X57792D3*
X57292D3*
X56792D3*
X56292D3*
X55792D3*
X55292D3*
X54792D3*
X54292D3*
X53792D3*
X53292D3*
X52792D3*
X52292D3*
X51792D3*
X51292D3*
X50792D3*
X50292D3*
X49792D3*
X49292D3*
D116*
X47497Y77288D3*
Y76788D3*
Y76288D3*
Y75788D3*
Y75288D3*
Y74788D3*
Y74288D3*
Y73788D3*
Y73288D3*
Y72788D3*
Y72288D3*
Y71788D3*
Y71288D3*
Y70788D3*
Y70288D3*
Y69788D3*
Y69288D3*
Y68788D3*
Y68288D3*
Y67788D3*
Y67288D3*
Y66788D3*
Y66288D3*
Y65788D3*
Y65288D3*
D118*
X49302Y63493D3*
X49802D3*
X50302D3*
X50802D3*
X51302D3*
X51802D3*
X52302D3*
X52802D3*
X53302D3*
X53802D3*
X54302D3*
X54802D3*
X55302D3*
X55802D3*
X56302D3*
X56802D3*
X57302D3*
X57802D3*
X58302D3*
X58802D3*
X59302D3*
X59802D3*
X60302D3*
X60802D3*
X61302D3*
D116*
X63097Y65298D3*
Y65798D3*
Y66298D3*
Y66798D3*
Y67298D3*
Y67798D3*
Y68298D3*
Y68798D3*
Y69298D3*
Y69798D3*
Y70298D3*
Y70798D3*
Y71298D3*
Y71798D3*
Y72298D3*
Y72798D3*
Y73298D3*
Y73798D3*
Y74298D3*
Y74798D3*
Y75298D3*
Y75798D3*
Y76298D3*
Y76798D3*
Y77298D3*
D114*
X37943Y183375D3*
X38593D3*
X39243D3*
X39893D3*
X40543D3*
X41193D3*
X41843D3*
X42493D3*
X43143D3*
X43793D3*
X44443D3*
X45093D3*
X45743D3*
X46393D3*
Y190175D3*
X45743D3*
X45093D3*
X44443D3*
X43793D3*
X43143D3*
X42493D3*
X41843D3*
X41193D3*
X40543D3*
X39893D3*
X39243D3*
X38593D3*
X37943D3*
D106*
X33021Y67632D3*
Y66362D3*
Y65092D3*
Y63822D3*
X38421D3*
Y65092D3*
Y66362D3*
Y67632D3*
D65*
X117175Y45560D3*
D66*
Y48100D3*
Y50640D3*
Y53180D3*
Y55720D3*
Y58260D3*
Y60800D3*
Y63340D3*
Y65880D3*
Y68420D3*
Y70960D3*
Y73500D3*
Y76040D3*
Y78580D3*
Y81120D3*
Y83660D3*
X107015D3*
Y81120D3*
Y78580D3*
Y76040D3*
Y73500D3*
Y70960D3*
Y68420D3*
Y65880D3*
Y63340D3*
Y60800D3*
Y58260D3*
Y55720D3*
Y53180D3*
Y50640D3*
Y48100D3*
Y45560D3*
D65*
X86692Y45438D3*
D66*
Y47978D3*
Y50518D3*
Y53058D3*
Y55598D3*
Y58138D3*
Y60678D3*
Y63218D3*
Y65758D3*
Y68298D3*
Y70838D3*
Y73378D3*
Y75918D3*
Y78458D3*
Y80998D3*
Y83538D3*
X76532D3*
Y80998D3*
Y78458D3*
Y75918D3*
Y73378D3*
Y70838D3*
Y68298D3*
Y65758D3*
Y63218D3*
Y60678D3*
Y58138D3*
Y55598D3*
Y53058D3*
Y50518D3*
Y47978D3*
Y45438D3*
D65*
X290844Y121003D3*
D66*
X288304D3*
X285764D3*
X283224D3*
X280684D3*
X278144D3*
X275604D3*
Y113383D3*
X278144D3*
X280684D3*
X283224D3*
X285764D3*
X288304D3*
X290844D3*
D65*
Y133068D3*
D66*
X288304D3*
X285764D3*
X283224D3*
X280684D3*
X278144D3*
X275604D3*
X273064D3*
Y125448D3*
X275604D3*
X278144D3*
X280684D3*
X283224D3*
X285764D3*
X288304D3*
X290844D3*
D65*
X267349Y121003D3*
D66*
X264809D3*
X262269D3*
X259729D3*
X257189D3*
X254649D3*
X252109D3*
Y113383D3*
X254649D3*
X257189D3*
X259729D3*
X262269D3*
X264809D3*
X267349D3*
D65*
Y133068D3*
D66*
X264809D3*
X262269D3*
X259729D3*
X257189D3*
X254649D3*
X252109D3*
X249569D3*
Y125448D3*
X252109D3*
X254649D3*
X257189D3*
X259729D3*
X262269D3*
X264809D3*
X267349D3*
D65*
X243854Y121003D3*
D66*
X241314D3*
X238774D3*
X236234D3*
X233694D3*
X231154D3*
X228614D3*
Y113383D3*
X231154D3*
X233694D3*
X236234D3*
X238774D3*
X241314D3*
X243854D3*
D65*
Y133068D3*
D66*
X241314D3*
X238774D3*
X236234D3*
X233694D3*
X231154D3*
X228614D3*
X226074D3*
Y125448D3*
X228614D3*
X231154D3*
X233694D3*
X236234D3*
X238774D3*
X241314D3*
X243854D3*
D65*
X220359Y121003D3*
D66*
X217819D3*
X215279D3*
X212739D3*
X210199D3*
X207659D3*
X205119D3*
Y113383D3*
X207659D3*
X210199D3*
X212739D3*
X215279D3*
X217819D3*
X220359D3*
D65*
Y133068D3*
D66*
X217819D3*
X215279D3*
X212739D3*
X210199D3*
X207659D3*
X205119D3*
X202579D3*
Y125448D3*
X205119D3*
X207659D3*
X210199D3*
X212739D3*
X215279D3*
X217819D3*
X220359D3*
D65*
X183372Y75254D3*
D66*
X180832D3*
X178292D3*
X175752D3*
X173212D3*
X170672D3*
X168132D3*
Y67634D3*
X170672D3*
X173212D3*
X175752D3*
X178292D3*
X180832D3*
X183372D3*
D65*
X130507Y168310D3*
D66*
X127967D3*
X125427D3*
X122887D3*
X120347D3*
X117807D3*
X115267D3*
X112727D3*
Y160690D3*
X115267D3*
X117807D3*
X120347D3*
X122887D3*
X125427D3*
X127967D3*
X130507D3*
D65*
X289574Y168628D3*
D66*
X287034D3*
X284494D3*
X281954D3*
X279414D3*
X276874D3*
X274334D3*
X271794D3*
Y161008D3*
X274334D3*
X276874D3*
X279414D3*
X281954D3*
X284494D3*
X287034D3*
X289574D3*
D104*
X156859Y159717D3*
X157509D3*
X158159D3*
X158809D3*
X159459D3*
X160109D3*
X160759D3*
X161409D3*
X162059D3*
X162709D3*
X163359D3*
X164009D3*
X164659D3*
X165309D3*
Y166917D3*
X164659D3*
X164009D3*
X163359D3*
X162709D3*
X162059D3*
X161409D3*
X160759D3*
X160109D3*
X159459D3*
X158809D3*
X158159D3*
X157509D3*
X156859D3*
D65*
X108282Y168310D3*
D66*
X105742D3*
X103202D3*
X100662D3*
X98122D3*
X95582D3*
X93042D3*
X90502D3*
Y160690D3*
X93042D3*
X95582D3*
X98122D3*
X100662D3*
X103202D3*
X105742D3*
X108282D3*
D65*
X267667Y168628D3*
D66*
X265127D3*
X262587D3*
X260047D3*
X257507D3*
X254967D3*
X252427D3*
X249887D3*
Y161008D3*
X252427D3*
X254967D3*
X257507D3*
X260047D3*
X262587D3*
X265127D3*
X267667D3*
D65*
X85739Y168310D3*
D66*
X83199D3*
X80659D3*
X78119D3*
X75579D3*
X73039D3*
X70499D3*
X67959D3*
Y160690D3*
X70499D3*
X73039D3*
X75579D3*
X78119D3*
X80659D3*
X83199D3*
X85739D3*
D65*
X245759Y168628D3*
D66*
X243219D3*
X240679D3*
X238139D3*
X235599D3*
X233059D3*
X230519D3*
X227979D3*
Y161008D3*
X230519D3*
X233059D3*
X235599D3*
X238139D3*
X240679D3*
X243219D3*
X245759D3*
D65*
X63197Y168310D3*
D66*
X60657D3*
X58117D3*
X55577D3*
X53037D3*
X50497D3*
X47957D3*
X45417D3*
Y160690D3*
X47957D3*
X50497D3*
X53037D3*
X55577D3*
X58117D3*
X60657D3*
X63197D3*
D65*
X223464Y168576D3*
D66*
X220924D3*
X218384D3*
X215844D3*
X213304D3*
X210764D3*
X208224D3*
X205684D3*
Y160956D3*
X208224D3*
X210764D3*
X213304D3*
X215844D3*
X218384D3*
X220924D3*
X223464D3*
D122*
X35721Y174644D3*
Y172104D3*
D103*
X13124Y145038D3*
D90*
Y147578D3*
Y150118D3*
Y152658D3*
Y155198D3*
Y157738D3*
Y160278D3*
Y162818D3*
Y165358D3*
Y167898D3*
Y170438D3*
Y172978D3*
Y175518D3*
Y178058D3*
Y180598D3*
Y183138D3*
D103*
X104564D3*
D90*
X102024D3*
X99484D3*
X96944D3*
X94404D3*
X91864D3*
X89324D3*
X86784D3*
X84244D3*
X81704D3*
X79164D3*
X76624D3*
X74084D3*
X71544D3*
X69004D3*
X66464D3*
D67*
X38524Y58738D3*
Y157738D3*
X137524Y58738D3*
Y157738D3*
D103*
X172192Y145038D3*
D90*
Y147578D3*
Y150118D3*
Y152658D3*
Y155198D3*
Y157738D3*
Y160278D3*
Y162818D3*
Y165358D3*
Y167898D3*
Y170438D3*
Y172978D3*
Y175518D3*
Y178058D3*
Y180598D3*
Y183138D3*
D103*
X263632D3*
D90*
X261092D3*
X258552D3*
X256012D3*
X253472D3*
X250932D3*
X248392D3*
X245852D3*
X243312D3*
X240772D3*
X238232D3*
X235692D3*
X233152D3*
X230612D3*
X228072D3*
X225532D3*
D67*
X197592Y58738D3*
Y157738D3*
X296592Y58738D3*
Y157738D3*
D57*
X13810Y205601D3*
X321183D3*
Y13810D3*
X13810D3*
X156065D3*
Y205601D3*
D122*
X53979Y142583D3*
Y140043D3*
Y137503D3*
X56519D3*
Y140043D3*
Y142583D3*
D101*
X78428Y107959D3*
Y104959D3*
D99*
X76091Y105780D3*
Y107280D3*
D101*
X39054Y196075D3*
Y193075D3*
D122*
X38260Y141935D3*
Y139395D3*
X32704Y141935D3*
Y139395D3*
D97*
X35403Y73824D3*
X38815Y77237D3*
D132*
X152729Y47784D3*
Y45884D3*
D128*
X152572Y50009D3*
X150672D3*
X40483Y174485D3*
X42383D3*
D132*
X38102Y179248D3*
Y177348D3*
X40483Y179248D3*
Y177348D3*
X35721Y179248D3*
Y177348D3*
X43023Y77947D3*
Y76047D3*
D128*
X24286Y131136D3*
X22386D3*
X24286Y133835D3*
X22386D3*
X168931Y49533D3*
X170831D3*
D132*
X175755Y78749D3*
Y80649D3*
D95*
X30481Y168608D3*
Y158058D3*
X153684Y171148D3*
Y160598D3*
D132*
X163209Y22067D3*
Y23967D3*
X160669Y22067D3*
Y23967D3*
X158129Y22067D3*
Y23967D3*
X142888Y22066D3*
Y23966D3*
X155589Y22067D3*
Y23967D3*
X140347Y22066D3*
Y23966D3*
X153049Y22067D3*
Y23967D3*
X137807Y22066D3*
Y23966D3*
X150509Y22067D3*
Y23967D3*
X135267Y22066D3*
Y23966D3*
X147968Y22066D3*
Y23966D3*
X132727Y22066D3*
Y23966D3*
X145428Y22066D3*
Y23966D3*
X130186Y22066D3*
Y23966D3*
X127646Y22066D3*
Y23966D3*
X125106Y22066D3*
Y23966D3*
X62232Y33971D3*
Y32071D3*
X51121Y33969D3*
Y32069D3*
X39848Y33969D3*
Y32069D3*
X28573Y33971D3*
Y32071D3*
X59691Y33971D3*
Y32071D3*
X48580Y33969D3*
Y32069D3*
X37308Y33969D3*
Y32069D3*
X26035Y33969D3*
Y32069D3*
X57310Y33971D3*
Y32071D3*
X46037Y33971D3*
Y32071D3*
X34926Y33969D3*
Y32069D3*
X23495Y33969D3*
Y32069D3*
X54772Y33969D3*
Y32069D3*
X43500Y33969D3*
Y32069D3*
X32227Y33969D3*
Y32069D3*
X20955Y33969D3*
Y32069D3*
D93*
X228614Y23689D3*
D91*
Y16069D3*
D93*
X116583Y26032D3*
D91*
Y18412D3*
D93*
X226074Y23689D3*
D91*
Y16069D3*
D93*
X114043Y26032D3*
D91*
Y18412D3*
D93*
X223534Y23689D3*
D91*
Y16069D3*
D93*
X111503Y26032D3*
D91*
Y18412D3*
D93*
X220994Y23689D3*
D91*
Y16069D3*
D93*
X108963Y26032D3*
D91*
Y18412D3*
D93*
X218603Y23654D3*
D91*
Y16034D3*
D93*
X106572Y25997D3*
D91*
Y18377D3*
D93*
X215914Y23689D3*
D91*
Y16069D3*
D93*
X103883Y26032D3*
D91*
Y18412D3*
D93*
X213374Y23689D3*
D91*
Y16069D3*
D93*
X101343Y26032D3*
D91*
Y18412D3*
D93*
X210834Y23689D3*
D91*
Y16069D3*
D93*
X98803Y26032D3*
D91*
Y18412D3*
D93*
X208294Y23689D3*
D91*
Y16069D3*
D93*
X96263Y26032D3*
D91*
Y18412D3*
D93*
X205754Y23689D3*
D91*
Y16069D3*
D93*
X93723Y26032D3*
D91*
Y18412D3*
D93*
X203214Y23689D3*
D91*
Y16069D3*
D93*
X91183Y26032D3*
D91*
Y18412D3*
D93*
X200674Y23689D3*
D91*
Y16069D3*
D93*
X88643Y26032D3*
D91*
Y18412D3*
D93*
X198134Y23689D3*
D91*
Y16069D3*
D93*
X86103Y26032D3*
D91*
Y18412D3*
D93*
X195594Y23689D3*
D91*
Y16069D3*
D93*
X83563Y26032D3*
D91*
Y18412D3*
D93*
X193054Y23689D3*
D91*
Y16069D3*
D93*
X81023Y26032D3*
D91*
Y18412D3*
D93*
X190514Y23689D3*
D91*
Y16069D3*
D93*
X78483Y26032D3*
D91*
Y18412D3*
D89*
X60647Y133203D3*
Y137703D3*
X67147D3*
Y133203D3*
D106*
X116222Y28097D3*
Y29367D3*
Y30637D3*
Y31907D3*
Y33177D3*
Y34447D3*
Y35717D3*
Y36987D3*
Y38257D3*
Y39527D3*
X106822D3*
Y38257D3*
Y36987D3*
Y35717D3*
Y34447D3*
Y33177D3*
Y31907D3*
Y30637D3*
Y29367D3*
Y28097D3*
X228614Y27023D3*
Y28293D3*
Y29563D3*
Y30833D3*
Y32103D3*
Y33373D3*
Y34643D3*
Y35913D3*
Y37183D3*
Y38453D3*
X219214D3*
Y37183D3*
Y35913D3*
Y34643D3*
Y33373D3*
Y32103D3*
Y30833D3*
Y29563D3*
Y28293D3*
Y27023D3*
X96220Y28097D3*
Y29367D3*
Y30637D3*
Y31907D3*
Y33177D3*
Y34447D3*
Y35717D3*
Y36987D3*
Y38257D3*
Y39527D3*
X86820D3*
Y38257D3*
Y36987D3*
Y35717D3*
Y34447D3*
Y33177D3*
Y31907D3*
Y30637D3*
Y29367D3*
Y28097D3*
X208294Y27023D3*
Y28293D3*
Y29563D3*
Y30833D3*
Y32103D3*
Y33373D3*
Y34643D3*
Y35913D3*
Y37183D3*
Y38453D3*
X198894D3*
Y37183D3*
Y35913D3*
Y34643D3*
Y33373D3*
Y32103D3*
Y30833D3*
Y29563D3*
Y28293D3*
Y27023D3*
D88*
X42388Y201473D3*
X39888D3*
X42388Y203473D3*
X39888D3*
D86*
X47164Y206124D3*
X35099D3*
D84*
X150667Y45881D3*
Y48081D3*
D82*
X48421Y186550D3*
X50421Y185600D3*
Y187500D3*
D84*
X16827Y130028D3*
Y132228D3*
X19526Y130028D3*
Y132228D3*
X16827Y134314D3*
Y136514D3*
X19526Y134314D3*
Y136514D3*
D78*
X62393Y28576D3*
X61123D3*
X59853D3*
X58583D3*
X57313D3*
X56043D3*
X54773D3*
X53503D3*
Y22988D3*
X54773D3*
X56043D3*
X57313D3*
X58583D3*
X59853D3*
X61123D3*
X62393D3*
X51120Y28607D3*
X49850D3*
X48580D3*
X47310D3*
X46040D3*
X44770D3*
X43500D3*
X42230D3*
Y23019D3*
X43500D3*
X44770D3*
X46040D3*
X47310D3*
X48580D3*
X49850D3*
X51120D3*
X39848Y28576D3*
X38578D3*
X37308D3*
X36038D3*
X34768D3*
X33498D3*
X32228D3*
X30958D3*
Y22988D3*
X32228D3*
X33498D3*
X34768D3*
X36038D3*
X37308D3*
X38578D3*
X39848D3*
X28576Y28576D3*
X27306D3*
X26036D3*
X24766D3*
X23496D3*
X22226D3*
X20956D3*
X19686D3*
Y22988D3*
X20956D3*
X22226D3*
X23496D3*
X24766D3*
X26036D3*
X27306D3*
X28576D3*
D76*
X167654Y27782D3*
X169323Y27812D3*
X167654Y34349D3*
X169353Y34348D3*
X164479Y27941D3*
X166148Y27970D3*
X164479Y34507D3*
X166178Y34506D3*
X161304Y27941D3*
X162973Y27970D3*
X161304Y34507D3*
X163003Y34506D3*
X142253Y27941D3*
X143922Y27970D3*
X142253Y34507D3*
X143952Y34506D3*
X158129Y27941D3*
X159798Y27970D3*
X158129Y34507D3*
X159828Y34506D3*
X139077Y27941D3*
X140746Y27970D3*
X139077Y34507D3*
X140776Y34506D3*
X154954Y27941D3*
X156623Y27970D3*
X154954Y34507D3*
X156653Y34506D3*
X135902Y27941D3*
X137571Y27970D3*
X135902Y34507D3*
X137601Y34506D3*
X151779Y27941D3*
X153448Y27970D3*
X151779Y34507D3*
X153478Y34506D3*
X132727Y27941D3*
X134396Y27970D3*
X132727Y34507D3*
X134426Y34506D3*
X148603Y27941D3*
X150272Y27970D3*
X148603Y34507D3*
X150302Y34506D3*
X129551Y27941D3*
X131220Y27970D3*
X129551Y34507D3*
X131250Y34506D3*
X145428Y27941D3*
X147097Y27970D3*
X145428Y34507D3*
X147127Y34506D3*
X126376Y27941D3*
X128045Y27970D3*
X126376Y34507D3*
X128075Y34506D3*
X123201Y27941D3*
X124870Y27970D3*
X123201Y34507D3*
X124900Y34506D3*
X120025Y27941D3*
X121694Y27970D3*
X120025Y34507D3*
X121724Y34506D3*
D84*
X172734Y37647D3*
Y39847D3*
X168924Y37806D3*
Y40006D3*
X164796Y37806D3*
Y40006D3*
X140824Y37784D3*
Y39984D3*
X157959Y37953D3*
Y40153D3*
X137648Y37943D3*
Y40143D3*
X154319Y38123D3*
Y40323D3*
X134473Y37943D3*
Y40143D3*
X150509Y37783D3*
Y39983D3*
X131298Y37943D3*
Y40143D3*
X147174Y37784D3*
Y39984D3*
X128122Y37943D3*
Y40143D3*
X143999Y37784D3*
Y39984D3*
X124947Y37943D3*
Y40143D3*
X121772Y37943D3*
Y40143D3*
X118596Y37943D3*
Y40143D3*
D75*
X163209Y18892D3*
D74*
X160669D3*
X158129D3*
X155589D3*
X153049D3*
X150509D3*
X147969D3*
X145429D3*
X142889D3*
X140349D3*
X137809D3*
X135269D3*
X132729D3*
X130189D3*
X127649D3*
X125109D3*
D75*
X60011Y17938D3*
D74*
X57471D3*
X54931D3*
X52392D3*
X49852D3*
X47312D3*
X44772D3*
X42232D3*
X39691D3*
X37151D3*
X34611D3*
X32071D3*
X29531D3*
X26992D3*
X24452D3*
X21912D3*
D75*
X13175Y130345D3*
D74*
Y132885D3*
Y135425D3*
Y137965D3*
D75*
X228614Y12894D3*
D74*
X226074D3*
X223534D3*
X220994D3*
X218454D3*
X215914D3*
X213374D3*
X210834D3*
X208294D3*
X205754D3*
X203214D3*
X200674D3*
X198134D3*
X195594D3*
X193054D3*
X190514D3*
D75*
X116583Y15237D3*
D74*
X114043D3*
X111503D3*
X108963D3*
X106423D3*
X103883D3*
X101343D3*
X98803D3*
X96263D3*
X93723D3*
X91183D3*
X88643D3*
X86103D3*
X83563D3*
X81023D3*
X78483D3*
M02*
