G04 DipTrace 2.4.0.2*
%INMemoryBrd-Bottom.gbr*%
%MOMM*%
%ADD10C,0.25*%
%ADD14C,0.5*%
%ADD15C,0.35*%
%ADD16C,1.0*%
%ADD17C,0.3*%
%ADD18C,0.7*%
%ADD19C,0.6*%
%ADD21C,1.5*%
%ADD22C,0.75*%
%ADD23C,2.0*%
%ADD25C,1.65*%
%ADD26C,0.635*%
%ADD27C,0.33*%
%ADD29C,3.81*%
%ADD30R,1.5X1.3*%
%ADD32R,1.3X1.5*%
%ADD36R,1.5X1.5*%
%ADD37C,1.5*%
%ADD43R,0.6X1.1*%
%ADD44R,1.0X2.5*%
%ADD45R,2.5X1.0*%
%ADD47R,0.4X1.8*%
%ADD48R,2.1X2.1*%
%ADD49C,2.1*%
%ADD52C,1.219*%
%ADD53C,1.65*%
%ADD54C,1.27*%
%ADD55C,1.27*%
%ADD56C,2.5*%
%ADD57C,3.0*%
%ADD59R,0.6X0.6*%
%ADD61R,2.184X0.635*%
%ADD65R,1.7X1.7*%
%ADD66C,1.7*%
%FSLAX53Y53*%
G04*
G71*
G90*
G75*
G01*
%LNBottom*%
%LPD*%
X32227Y123677D2*
D16*
X34087D1*
D14*
X36002Y123836D1*
X36673D1*
Y119902D1*
X36590Y119819D1*
D16*
Y123248D1*
X36161Y123677D1*
X36002Y123836D1*
X34087Y123677D2*
X36161D1*
X22545Y124627D2*
D14*
X26668D1*
X26671Y124630D1*
X31275D1*
X32227Y123677D1*
X32868Y95893D2*
Y98116D1*
X32706Y98277D1*
X30484D1*
X30481Y98279D1*
X26907Y98510D2*
Y99862D1*
X27782D1*
X29211Y98433D1*
X30327D1*
X30481Y98279D1*
X288304Y121003D2*
D15*
Y122273D1*
X289574Y123543D1*
Y131798D1*
X288304Y133068D1*
X22145Y98516D2*
D10*
Y100258D1*
X22701Y100815D1*
Y102708D1*
X22590Y102819D1*
X25007Y98510D2*
Y100256D1*
X24607Y100656D1*
Y102803D1*
X24590Y102819D1*
X216549Y29563D2*
D15*
X214004D1*
X216549Y32103D2*
X214004D1*
X189244Y33373D2*
X190514D1*
X191784Y34643D1*
Y88618D1*
X211469Y108303D1*
Y119733D1*
X212739Y121003D1*
X189244Y30833D2*
X191149D1*
X192419Y32103D1*
Y87983D1*
X216549Y112113D1*
Y117193D1*
X220359Y121003D1*
X202897Y35913D2*
X203849D1*
X204167Y36230D1*
Y98460D1*
X217184Y111478D1*
X232107D1*
X232424Y111795D1*
Y111478D1*
X202897Y33373D2*
X204484D1*
X204802Y33690D1*
Y97825D1*
X217502Y110525D1*
X233694D1*
Y113383D1*
X202897Y30833D2*
X204484D1*
X205437Y31785D1*
Y97190D1*
X217819Y109573D1*
X234964D1*
Y119733D1*
X236234Y121003D1*
X202897Y28293D2*
X204484D1*
X206072Y29880D1*
Y96555D1*
X218137Y108620D1*
X236552D1*
X240044Y112113D1*
Y117193D1*
X243854Y121003D1*
X216549Y38453D2*
X217184D1*
X217819Y39088D1*
Y106398D1*
X219306Y107885D1*
X255501D1*
X255919Y108303D1*
Y111478D1*
X216549Y35913D2*
X217819D1*
X218454Y36548D1*
Y105445D1*
X220042Y107033D1*
X255919D1*
X257189Y108303D1*
Y113383D1*
X216549Y33373D2*
X217819D1*
X219089Y34643D1*
Y104493D1*
X220677Y106080D1*
X256237D1*
X258459Y108303D1*
Y119733D1*
X259729Y121003D1*
X216549Y30833D2*
X218454D1*
X219724Y32103D1*
Y103540D1*
X221312Y105128D1*
X256554D1*
X263539Y112113D1*
Y117193D1*
X267349Y121003D1*
X230202Y35913D2*
X231154D1*
X231472Y36230D1*
Y102270D1*
X233377Y104175D1*
X275287D1*
X279414Y108303D1*
Y111478D1*
X230202Y33373D2*
X231789D1*
X232107Y33690D1*
Y101635D1*
X233694Y103223D1*
X275604D1*
X280684Y108303D1*
Y113383D1*
X230202Y30833D2*
X232424D1*
X232742Y31150D1*
Y101000D1*
X234189Y102448D1*
X276099D1*
X281954Y108303D1*
Y119733D1*
X283224Y121003D1*
X230202Y28293D2*
X232424D1*
X233377Y29245D1*
Y100365D1*
X234690Y101678D1*
X276600D1*
X287034Y112113D1*
Y117193D1*
X290844Y121003D1*
X60641Y75412D2*
D17*
X61917Y74137D1*
X147811Y60805D2*
D14*
Y65093D1*
X149080Y66362D1*
Y73984D1*
X147811Y75253D1*
Y60805D2*
D15*
Y57470D1*
X149715Y55566D1*
X152255D1*
X152572Y55249D1*
X163527D2*
X169086D1*
X171149Y53185D1*
X173690D1*
X155431Y60805D2*
D14*
Y62394D1*
X156700Y63663D1*
Y75412D1*
X155272D1*
X155431Y75253D1*
X157971Y60805D2*
D15*
Y57312D1*
X158764Y56519D1*
X165433D1*
X166311Y57397D1*
X168216D1*
X169878Y59059D1*
Y61758D1*
X170513Y62393D1*
X172102D1*
X173690Y60805D1*
X176230D2*
X173690D1*
X181309D2*
Y61916D1*
X180357Y62869D1*
X177023D1*
X176229Y62075D1*
Y60806D1*
X176230Y60805D1*
X23753Y159876D2*
D10*
Y148663D1*
X26353Y146063D1*
X29370D1*
X29846Y146539D1*
X173212Y75254D2*
D18*
X170672D1*
X159241Y57789D2*
D15*
Y64616D1*
X160193Y65568D1*
X161781D1*
X163420Y67207D1*
Y73738D1*
X166595Y76914D1*
X169012D1*
X170672Y75254D1*
X280684Y121003D2*
Y122273D1*
X279414Y123543D1*
Y126718D1*
X275604Y130528D1*
Y133068D1*
Y113383D2*
Y115923D1*
X276874Y117193D1*
Y124178D1*
X275604Y125448D1*
X283224Y113383D2*
Y115923D1*
X287034Y119733D1*
Y124178D1*
X288304Y125448D1*
X264809Y121003D2*
Y122273D1*
X266079Y123543D1*
Y131798D1*
X264809Y133068D1*
X257189Y121003D2*
Y122908D1*
X255919Y124178D1*
Y126083D1*
X252109Y129893D1*
Y133068D1*
Y113383D2*
Y114653D1*
X253379Y115923D1*
Y124178D1*
X252109Y125448D1*
X259729Y113383D2*
Y114653D1*
X263539Y118463D1*
Y124178D1*
X264809Y125448D1*
X230202Y34643D2*
X227657D1*
X230202Y32103D2*
X227657D1*
X230202Y29563D2*
X227657D1*
X230202Y27023D2*
X227662D1*
X227659Y27025D1*
X189244Y38453D2*
X189879D1*
X190514Y39088D1*
Y89888D1*
X208929Y108303D1*
Y111478D1*
X241314Y121003D2*
Y122273D1*
X242584Y123543D1*
Y131798D1*
X241314Y133068D1*
X228614D2*
Y129893D1*
X232424Y126083D1*
Y122273D1*
X233694Y121003D1*
X228614Y113383D2*
Y114653D1*
X229884Y115923D1*
Y124178D1*
X228614Y125448D1*
X236234Y113383D2*
Y115288D1*
X240044Y119098D1*
Y124178D1*
X241314Y125448D1*
X217819Y133068D2*
Y127988D1*
X219089Y126718D1*
Y124178D1*
X217819Y122908D1*
Y121003D1*
X205119Y133068D2*
Y129893D1*
X208929Y126083D1*
Y122273D1*
X210199Y121003D1*
X205119Y125448D2*
Y124178D1*
X206389Y122908D1*
Y114653D1*
X205119Y113383D1*
X212739D2*
Y116558D1*
X214009Y117828D1*
X215279D1*
X216549Y119098D1*
Y124178D1*
X217819Y125448D1*
X216549Y34643D2*
X214004D1*
X216549Y37183D2*
X214004D1*
X202897Y27023D2*
X200352D1*
X202897Y34643D2*
X200352D1*
X202897Y32103D2*
X200352D1*
X202897Y29563D2*
X200352D1*
X189244D2*
X186387D1*
X186384Y29565D1*
Y32105D2*
X189242D1*
X189244Y32103D1*
Y34643D2*
X186387D1*
X186384Y34645D1*
Y37185D2*
D17*
X189242D1*
X189244Y37183D1*
Y35913D2*
D15*
X190514D1*
X191149Y36548D1*
Y89253D1*
X210199Y108303D1*
Y113383D1*
X60012Y20025D2*
D14*
X60011Y17938D1*
X60012Y14917D1*
X57471Y20025D2*
Y17939D1*
Y17938D1*
Y14917D1*
X54931D2*
Y17938D1*
Y20025D1*
X52391D2*
Y17939D1*
X52392Y17938D1*
Y14893D1*
X52391Y14892D1*
X49850Y14917D2*
Y17937D1*
X49852Y17938D1*
Y20024D1*
X49850Y20025D1*
X47310D2*
Y17940D1*
X47312Y17938D1*
Y14918D1*
X47310Y14917D1*
X44770Y20025D2*
Y17940D1*
X44772Y17938D1*
Y14918D1*
X44770Y14917D1*
X42230Y20025D2*
Y17940D1*
X42232Y17938D1*
Y14918D1*
X42230Y14917D1*
X39689Y20025D2*
Y17940D1*
X39691Y17938D1*
Y14919D1*
X39689Y14917D1*
X37149Y20025D2*
Y17941D1*
X37151Y17938D1*
Y14919D1*
X37149Y14917D1*
X34609Y20025D2*
Y17941D1*
X34611Y17938D1*
Y14919D1*
X34609Y14917D1*
X32069Y20025D2*
Y17941D1*
X32071Y17938D1*
Y14920D1*
X32069Y14917D1*
X29528Y20025D2*
Y17942D1*
X29531Y17938D1*
Y14920D1*
X29528Y14917D1*
X26988Y20025D2*
Y17942D1*
X26992Y17938D1*
Y14920D1*
X26988Y14917D1*
X24448D2*
Y17935D1*
X24452Y17938D1*
Y20021D1*
X24448Y20025D1*
X21908D2*
Y17942D1*
X21912Y17938D1*
Y14921D1*
X21908Y14917D1*
X22590Y119819D2*
Y122682D1*
X22545Y122727D1*
X21908Y22225D2*
Y23019D1*
X22066Y23178D1*
X24507D1*
X27042D1*
X29621D1*
X32069D1*
X34510D1*
X37045D1*
X39689D1*
X41144D1*
X42230D1*
X44717D1*
X44819D1*
X47385D1*
X49850D1*
X52350D1*
X54931D1*
X57471D1*
X59694D1*
X59853Y23019D1*
Y22384D1*
X60012Y22225D1*
X57471D2*
Y23178D1*
X54931Y22225D2*
Y23178D1*
X52391Y22225D2*
X52350Y23178D1*
X49850Y22225D2*
Y23178D1*
X47310Y22225D2*
Y23103D1*
X47385Y23178D1*
X44770Y22225D2*
X44819Y23178D1*
X42230Y22225D2*
Y23178D1*
X44770Y22225D2*
Y23125D1*
X44717Y23178D1*
X39689Y22225D2*
Y23178D1*
X37149Y22225D2*
Y23074D1*
X37045Y23178D1*
X34609Y22225D2*
Y23079D1*
X34510Y23178D1*
X32069Y22225D2*
Y23178D1*
X29528Y22225D2*
Y23085D1*
X29621Y23178D1*
X26988Y22225D2*
Y23124D1*
X27042Y23178D1*
X24448Y22225D2*
Y23119D1*
X24507Y23178D1*
X26590Y119819D2*
Y122649D1*
X26671Y122730D1*
X30590Y102819D2*
Y100289D1*
X30481Y100179D1*
X34590Y102819D2*
Y100357D1*
X34768Y100179D1*
X32590Y102819D2*
Y100293D1*
X32706Y100177D1*
X156700Y56519D2*
D15*
Y61758D1*
X157494Y62552D1*
Y64775D1*
X159082Y66362D1*
X161305D1*
X162416Y67474D1*
Y77793D1*
X166544Y81921D1*
X173688D1*
X24403Y159876D2*
D10*
X24448Y159921D1*
Y148921D1*
X26829Y146539D1*
X28576D1*
X29846Y147809D1*
X30798D1*
X31326Y147282D1*
X31910Y146698D1*
X157812D1*
X158923Y147809D1*
X157335Y147651D2*
X157177D1*
X156859Y147333D1*
X33339D1*
X32762Y147910D1*
X32227Y148445D1*
X29687D1*
X28258Y147016D1*
X27306D1*
X25053Y149268D1*
Y159876D1*
X23753Y167076D2*
Y165016D1*
X23813Y164956D1*
X25400Y145587D2*
X33815D1*
X34291Y146063D1*
X158606D1*
X159876Y147333D1*
Y149080D1*
X36197Y65092D2*
D17*
X34609D1*
X33974Y65727D1*
X33339D1*
X33180Y65886D1*
X33177Y63819D2*
X40004D1*
X40483Y64298D1*
X115313Y23469D2*
D14*
X116560D1*
X116583Y23492D1*
Y26032D1*
X114043D2*
Y23492D1*
X112795D1*
X112773Y23469D1*
X111503Y26032D2*
Y23492D1*
X109938D1*
X109915Y23469D1*
X108963Y26032D2*
Y23492D1*
X107715D1*
X107693Y23469D1*
X106572Y25997D2*
Y23641D1*
X106423Y23492D1*
X105175D1*
X105153Y23469D1*
X103883Y26032D2*
Y23492D1*
X102635D1*
X102613Y23469D1*
X101343Y26032D2*
Y23492D1*
X100095D1*
X100073Y23469D1*
X98803Y26032D2*
Y23492D1*
X97555D1*
X97533Y23469D1*
X96263Y26032D2*
Y23492D1*
X95015D1*
X94993Y23469D1*
X93723Y26032D2*
Y23492D1*
X92475D1*
X92453Y23469D1*
X91183Y26032D2*
Y23492D1*
X89935D1*
X89913Y23469D1*
X88643Y26032D2*
Y23492D1*
X87395D1*
X87373Y23469D1*
X86103Y26032D2*
Y23492D1*
X84855D1*
X84833Y23469D1*
X83563Y26032D2*
Y23492D1*
X82293D1*
X81023Y26032D2*
Y23492D1*
X79775D1*
X79753Y23469D1*
X78483Y26032D2*
Y23492D1*
X77213D1*
X227344Y21126D2*
X228592D1*
X228614Y21149D1*
Y23689D1*
X235790Y28293D2*
D17*
X237504D1*
X226074Y23689D2*
D14*
Y21149D1*
X224827D1*
X224804Y21126D1*
X237504Y30833D2*
D17*
X235790D1*
X223534Y23689D2*
D14*
Y21149D1*
X221969D1*
X221947Y21126D1*
X235790Y33373D2*
D17*
X237504D1*
X220994Y23689D2*
D14*
Y21149D1*
X219747D1*
X219724Y21126D1*
X237504Y35913D2*
D17*
X235790D1*
X218603Y23654D2*
D14*
Y21298D1*
X218454Y21149D1*
X217207D1*
X217184Y21126D1*
X222137Y30833D2*
D17*
X223534D1*
X215914Y23689D2*
D14*
Y21149D1*
X214667D1*
X214644Y21126D1*
X223534Y33373D2*
D17*
X222137D1*
X213374Y23689D2*
D14*
Y21149D1*
X212127D1*
X212104Y21126D1*
X222137Y35913D2*
D17*
X223534D1*
X210834Y23689D2*
D14*
Y21149D1*
X209587D1*
X209564Y21126D1*
X223534Y38453D2*
D17*
X222137D1*
X208294Y23689D2*
D14*
Y21149D1*
X207047D1*
X207024Y21126D1*
X208485Y28293D2*
D17*
X210199D1*
X205754Y23689D2*
D14*
Y21149D1*
X204507D1*
X204484Y21126D1*
X208485Y30833D2*
D15*
X210199D1*
X203214Y23689D2*
D14*
Y21149D1*
X201967D1*
X201944Y21126D1*
X208485Y33373D2*
D17*
X210199D1*
X200674Y23689D2*
D14*
Y21149D1*
X199427D1*
X199404Y21126D1*
X208485Y35913D2*
D17*
X210199D1*
X198134Y23689D2*
D14*
Y21149D1*
X196887D1*
X196864Y21126D1*
X194832Y30833D2*
D17*
X196547D1*
X195594Y23689D2*
D14*
Y21149D1*
X194324D1*
X194832Y33373D2*
D17*
X196864D1*
X193054Y23689D2*
D14*
Y21149D1*
X191807D1*
X191784Y21126D1*
X194832Y35913D2*
D17*
X196864D1*
X190514Y23689D2*
D14*
Y21149D1*
X189244D1*
X194832Y38453D2*
D17*
X196864D1*
X25703Y167076D2*
Y168593D1*
X25877Y168767D1*
X30322D1*
X30481Y168608D1*
X22453Y167076D2*
Y177430D1*
X16827Y183056D1*
X13206D1*
X13124Y183138D1*
X83199Y168310D2*
D15*
Y182093D1*
X84244Y183138D1*
X243312D2*
Y168720D1*
X243219Y168628D1*
X105742Y160690D2*
Y159881D1*
X104784Y158923D1*
X89225D1*
X88590Y159558D1*
Y181332D1*
X86784Y183138D1*
X265127Y161008D2*
Y163063D1*
X264027Y164162D1*
X254183D1*
X251167Y167179D1*
Y169402D1*
X249579Y170989D1*
Y176229D1*
X89324Y183138D2*
Y165651D1*
X93194Y161781D1*
Y160842D1*
X93042Y160690D1*
X252427Y161008D2*
Y163220D1*
X248150Y167497D1*
Y182896D1*
X248392Y183138D1*
X91864D2*
Y169488D1*
X93042Y168310D1*
X250932Y183138D2*
Y172177D1*
X252278Y170831D1*
Y168776D1*
X252427Y168628D1*
X94404Y183138D2*
Y172954D1*
X96845Y170513D1*
X103539D1*
X105742Y168310D1*
X253472Y183138D2*
Y176146D1*
X258470Y171148D1*
X262606D1*
X265127Y168628D1*
X104564Y183138D2*
Y178354D1*
X105419Y177499D1*
X120502D1*
X128281Y169719D1*
Y168625D1*
X127967Y168310D1*
X263632Y183138D2*
Y180275D1*
X265932Y177975D1*
X281491D1*
X287048Y172418D1*
Y168642D1*
X287034Y168628D1*
X102024Y183138D2*
Y178036D1*
X103831Y176229D1*
X113198D1*
X115262Y174165D1*
Y168314D1*
X115267Y168310D1*
X261092Y183138D2*
Y180593D1*
X265456Y176229D1*
X271806D1*
X274347Y173688D1*
Y168640D1*
X274334Y168628D1*
X99484Y183138D2*
Y176607D1*
X101132Y174959D1*
X112246D1*
X113992Y173212D1*
Y161965D1*
X115267Y160690D1*
X274334Y161008D2*
Y161952D1*
X269266Y167020D1*
Y170672D1*
X258946Y180992D1*
Y182743D1*
X258552Y183138D1*
X127967Y160690D2*
Y159082D1*
X111611D1*
X110817Y159876D1*
Y169719D1*
X106689Y173847D1*
X98751D1*
X97163Y175435D1*
Y182919D1*
X96944Y183138D1*
X287034Y161008D2*
Y162430D1*
X285301Y164162D1*
X282444D1*
X279586Y167020D1*
X270695D1*
X270219Y167497D1*
Y172895D1*
X268948Y174165D1*
X60657Y160690D2*
Y159251D1*
X60012Y158606D1*
X47945D1*
X46675Y159876D1*
Y161940D1*
X44158Y164457D1*
X43659D1*
Y169878D1*
X52708Y178928D1*
X64775D1*
X66521Y180674D1*
Y183081D1*
X66464Y183138D1*
X220924Y160956D2*
Y162810D1*
X220207Y163527D1*
X211316D1*
X209570Y161781D1*
Y159558D1*
X209093Y159082D1*
X204330D1*
X202902Y160511D1*
Y170196D1*
X207188Y174482D1*
X220525D1*
X225605Y179563D1*
Y183064D1*
X225532Y183138D1*
X69004D2*
Y179664D1*
X67315Y177975D1*
X54772D1*
X46675Y169878D1*
Y165591D1*
X47957Y164310D1*
Y160690D1*
X228072Y183138D2*
Y178695D1*
X222906Y173530D1*
X207506D1*
X204172Y170196D1*
Y166385D1*
X207982Y162575D1*
Y161199D1*
X208224Y160956D1*
X71544Y183138D2*
Y178076D1*
X70490Y177023D1*
X56669D1*
X47957Y168310D1*
X208224Y168576D2*
Y169644D1*
X210999Y172418D1*
X224653D1*
X230686Y178451D1*
Y183064D1*
X230612Y183138D1*
X60657Y168310D2*
Y172746D1*
X64139Y176229D1*
X72554D1*
X74142Y177816D1*
Y183080D1*
X74084Y183138D1*
X220924Y168576D2*
Y169960D1*
X222271Y171307D1*
X226081D1*
X233226Y178451D1*
Y183063D1*
X233152Y183138D1*
X83199Y160690D2*
Y159407D1*
X82556Y158764D1*
X67156D1*
X66045Y159876D1*
Y174165D1*
X67315Y175435D1*
X75888D1*
X76523Y176070D1*
Y183037D1*
X76624Y183138D1*
X243219Y161008D2*
Y163219D1*
X242117Y164321D1*
X236242D1*
X234337Y166226D1*
Y169878D1*
X234655Y170196D1*
X239894D1*
X241958Y172260D1*
Y178134D1*
X70499Y160690D2*
Y165265D1*
X69061Y166703D1*
Y166861D1*
X69220Y167020D1*
Y170513D1*
X70331Y171624D1*
X74618D1*
X79064Y176070D1*
Y183037D1*
X79164Y183138D1*
X238232D2*
Y173931D1*
X236719Y172418D1*
X230844D1*
X229257Y170831D1*
Y162270D1*
X230519Y161008D1*
X70499Y168310D2*
Y169728D1*
X71284Y170513D1*
X75094D1*
X81604Y177023D1*
Y183037D1*
X81704Y183138D1*
X230519Y168628D2*
Y170029D1*
X231797Y171307D1*
X238942D1*
X240529Y172895D1*
Y182895D1*
X240772Y183138D1*
X228614Y12894D2*
D14*
Y16069D1*
X116583Y15237D2*
Y18412D1*
X226074Y16069D2*
Y12894D1*
X114043Y18412D2*
Y15237D1*
X223534Y12894D2*
Y16069D1*
X111503Y15237D2*
Y18412D1*
X220994Y16069D2*
Y12894D1*
X108963Y18412D2*
Y15237D1*
X218454Y12894D2*
Y15885D1*
X218603Y16034D1*
X106423Y15237D2*
Y18228D1*
X106572Y18377D1*
X215914Y16069D2*
Y12894D1*
X103883Y18412D2*
Y15237D1*
X213374Y12894D2*
Y16069D1*
X101343Y15237D2*
Y18412D1*
X210834Y16069D2*
Y12894D1*
X98803Y18412D2*
Y15237D1*
X208294Y12894D2*
Y16069D1*
X96263Y15237D2*
Y18412D1*
X205754Y16069D2*
Y12894D1*
X93723Y18412D2*
Y15237D1*
X203214Y16069D2*
Y12894D1*
X91183Y18412D2*
Y15237D1*
X200674Y12894D2*
Y16069D1*
X88643Y15237D2*
Y18412D1*
X198134Y16069D2*
Y12894D1*
X86103Y18412D2*
Y15237D1*
X195594Y12894D2*
Y16069D1*
X83563Y15237D2*
Y18412D1*
X193054Y16069D2*
Y12894D1*
X81023Y18412D2*
Y15237D1*
X190514Y12894D2*
Y16069D1*
X78483Y15237D2*
Y18412D1*
X22453Y159876D2*
D17*
Y149466D1*
X17938Y144952D1*
X13210D1*
X13124Y145038D1*
X21803Y159876D2*
Y151357D1*
X17938Y147492D1*
X13210D1*
X13124Y147578D1*
X21153Y159876D2*
Y152929D1*
X18415Y150191D1*
X13197D1*
X13124Y150118D1*
X20503Y159876D2*
Y154502D1*
X18732Y152731D1*
X13198D1*
X13124Y152658D1*
X19853Y159876D2*
Y156392D1*
X18891Y155430D1*
X13357D1*
X13124Y155198D1*
X19203Y159876D2*
Y157965D1*
X18732Y157494D1*
X13367D1*
X13124Y157738D1*
X18553Y159876D2*
Y158426D1*
X18415Y158288D1*
X16986D1*
X14763Y160511D1*
X13357D1*
X13124Y160278D1*
X17903Y159876D2*
Y162293D1*
X17462Y162734D1*
X13208D1*
X13124Y162818D1*
X17903Y167076D2*
Y165715D1*
X17621Y165433D1*
X13199D1*
X13124Y165358D1*
X18553Y167076D2*
Y168628D1*
X18097Y169084D1*
X14311D1*
X13124Y167898D1*
X19203Y167076D2*
Y169090D1*
X17938Y170354D1*
X13207D1*
X13124Y170438D1*
X19853Y167076D2*
Y170662D1*
X17462Y173053D1*
X13200D1*
X13124Y172978D1*
X20503Y167076D2*
Y172235D1*
X17462Y175276D1*
X13366D1*
X13124Y175518D1*
X21153Y167076D2*
Y174443D1*
X17462Y178134D1*
X13200D1*
X13124Y178058D1*
X21803Y167076D2*
Y175539D1*
X16827Y180515D1*
X13206D1*
X13124Y180598D1*
X189244Y18949D2*
D14*
Y20038D1*
X191784D1*
X194365D1*
X196864D1*
X199462D1*
X201989D1*
X204587D1*
X207107D1*
X209612D1*
X212216D1*
X214601D1*
X217331D1*
X219724D1*
X221947D1*
X224804D1*
X227185D1*
X227344Y19879D1*
Y18926D1*
X224804D2*
Y20038D1*
X221947Y18926D2*
Y20038D1*
X219724Y18926D2*
Y20038D1*
X191784Y18926D2*
Y20038D1*
X194324Y18949D2*
X194365Y20038D1*
X196864Y18926D2*
Y20038D1*
X199404Y18926D2*
Y19979D1*
X199462Y20038D1*
X201944Y18926D2*
X201989Y20038D1*
X204484Y18926D2*
Y19935D1*
X204587Y20038D1*
X207024Y18926D2*
Y19954D1*
X207107Y20038D1*
X209564Y18926D2*
X209612Y20038D1*
X212104Y18926D2*
Y19926D1*
X212216Y20038D1*
X214644Y18926D2*
X214601Y20038D1*
X217184Y18926D2*
Y19891D1*
X217331Y20038D1*
X77213Y21292D2*
Y22381D1*
X79753D1*
X82334D1*
X84833D1*
X87431D1*
X89958D1*
X92556D1*
X95076D1*
X97581D1*
X100185D1*
X102570D1*
X105300D1*
X107693D1*
X109915D1*
X112773D1*
X115154D1*
X115313Y22222D1*
Y21269D1*
X112773D2*
Y22381D1*
X109915Y21269D2*
Y22381D1*
X107693Y21269D2*
Y22381D1*
X79753Y21269D2*
Y22381D1*
X82293Y21292D2*
X82334Y22381D1*
X84833Y21269D2*
Y22381D1*
X87373Y21269D2*
Y22322D1*
X87431Y22381D1*
X89913Y21269D2*
X89958Y22381D1*
X92453Y21269D2*
Y22278D1*
X92556Y22381D1*
X94993Y21269D2*
Y22297D1*
X95076Y22381D1*
X97533Y21269D2*
X97581Y22381D1*
X100073Y21269D2*
Y22269D1*
X100185Y22381D1*
X102613Y21269D2*
X102570Y22381D1*
X105153Y21269D2*
Y22234D1*
X105300Y22381D1*
X225759Y27025D2*
D15*
Y29560D1*
X225757Y29563D1*
Y32103D1*
Y34643D1*
X222137D2*
D3*
X212104Y37183D2*
Y34643D1*
Y32103D1*
Y29563D1*
Y34643D2*
D3*
Y32103D2*
D3*
X198452Y27023D2*
Y29563D1*
Y32103D1*
Y34643D1*
X184484Y29565D2*
Y32105D1*
Y34645D1*
Y37185D1*
X235790Y34643D2*
X234329D1*
X234012Y34325D1*
Y32103D1*
Y29563D1*
Y27023D1*
X235790D1*
Y29563D2*
X234012D1*
X235790Y32103D2*
X234012D1*
Y27023D2*
D14*
Y26035D1*
X229257D1*
X228974Y25753D1*
X225657D1*
X220337D1*
X218937D1*
X212055D1*
X206786D1*
X199087D1*
X198452D1*
X193334D1*
X190324D1*
X189883Y26194D1*
X184799D1*
Y29250D1*
X184484Y29565D1*
X198452Y27023D2*
Y25753D1*
X212104Y29563D2*
D15*
X212055Y27658D1*
D14*
Y25753D1*
X193334D2*
D15*
Y29563D1*
Y32103D1*
Y34643D1*
Y36827D1*
X193689Y37183D1*
X194832D1*
Y34643D2*
X193334D1*
X194832Y32103D2*
X193334D1*
X194832Y29563D2*
X193334D1*
X206786Y25753D2*
Y27023D1*
Y29563D1*
Y32051D1*
Y34088D1*
X207342Y34643D1*
X208485D1*
Y32103D2*
X206838D1*
X206786Y32051D1*
X208485Y29563D2*
X206786D1*
X208485Y27023D2*
X206786D1*
X220337Y25753D2*
Y29563D1*
Y32103D1*
Y34643D1*
Y36525D1*
X220994Y37183D1*
X222137D1*
Y34643D2*
X220337D1*
X222137Y32103D2*
X220337D1*
X222137Y29563D2*
X220337D1*
X225759Y27025D2*
Y25855D1*
X225657Y25753D1*
X220359Y125448D2*
D18*
Y124495D1*
X223534Y121320D1*
Y116558D1*
X220359Y113383D1*
X243854Y125448D2*
Y125130D1*
X246077Y122908D1*
Y115605D1*
X243854Y113383D1*
X267349Y125448D2*
Y124813D1*
X269889Y122273D1*
Y115923D1*
X267349Y113383D1*
X290844Y125448D2*
Y124813D1*
X293067Y122590D1*
Y115605D1*
X290844Y113383D1*
X49544Y74788D2*
D17*
X48492Y73736D1*
X42459D1*
X36355Y67632D1*
X57164Y72266D2*
Y74489D1*
X49544Y74788D2*
D16*
X53830D1*
D17*
X56865D1*
X57164Y74489D1*
X53830Y72425D2*
D16*
Y74788D1*
X53354Y69568D2*
D17*
Y67985D1*
X53515Y67824D1*
X57164Y72266D2*
Y71001D1*
X57645Y70520D1*
X57164Y74489D2*
Y75605D1*
X57477Y75918D1*
X51925Y74801D2*
X49544Y74788D1*
X25053Y167076D2*
Y163498D1*
X23103Y161548D1*
Y159876D1*
X26353Y167076D2*
Y164798D1*
X25053Y163498D1*
X63197Y160690D2*
D18*
Y159390D1*
X64775Y157812D1*
X85885D1*
X108282D1*
X130663D1*
Y160534D1*
X130507Y160690D1*
X108282D2*
Y157812D1*
X85739Y160690D2*
Y157958D1*
X85885Y157812D1*
X31277Y63819D2*
D14*
Y65883D1*
X31280Y65886D1*
X36355Y67632D2*
X31592D1*
X31116Y67156D1*
Y66050D1*
X31280Y65886D1*
X160511Y53185D2*
X165749D1*
X168925Y50009D1*
X183691D1*
X184008Y49692D1*
D16*
Y37661D1*
D14*
X184484Y37185D1*
X76532Y50518D2*
X75444D1*
X74936Y50009D1*
Y47034D1*
X76532Y45438D1*
X223464Y160956D2*
D18*
Y162652D1*
X221477Y164639D1*
X211634D1*
X211316Y164956D1*
X232188Y163530D2*
Y162913D1*
X230552D1*
X276093Y163533D2*
Y162913D1*
X278157D1*
X44770Y116532D2*
D16*
Y115032D1*
D23*
Y113198D1*
X46358Y111611D1*
X62234D1*
X148921Y153049D2*
Y150191D1*
X56519D1*
X36355D1*
X33497Y153049D1*
Y163498D1*
D16*
X25053D1*
X42383Y176546D2*
D14*
X34450D1*
X33497Y175594D1*
Y163498D1*
X90341Y38456D2*
Y46675D1*
X109388Y38062D2*
X107523D1*
X106054Y39531D1*
Y44598D1*
X107015Y45560D1*
X21195Y95816D2*
D19*
Y94916D1*
D18*
Y94464D1*
X49544Y74788D2*
D16*
X45394D1*
X42865Y77317D1*
Y96687D1*
X53830Y72425D2*
Y70044D1*
X53354Y69568D1*
X51310D1*
X48898Y67156D1*
Y64775D1*
X49850Y63822D1*
X62393D1*
X67791Y58424D1*
X68625D1*
X76532Y50518D1*
Y45438D2*
Y26520D1*
X75571Y25559D1*
Y22934D1*
X76647Y21858D1*
D19*
X77213Y21292D1*
X184799Y26194D2*
D16*
Y20799D1*
X186231Y19367D1*
X188826D1*
D19*
X189244Y18949D1*
X119231Y32227D2*
D18*
X118596D1*
X115262Y28893D1*
X111293D1*
X109864Y30322D1*
Y37585D1*
X109388Y38062D1*
X148921Y153049D2*
X154795D1*
X158088Y156342D1*
Y164039D1*
X177023Y71601D2*
X182262D1*
X183532Y70331D1*
Y67793D1*
X183372Y67634D1*
X108602Y30637D2*
D15*
X104792D1*
X101617Y33812D1*
Y70325D1*
X104475Y73182D1*
X104792Y32542D2*
Y33495D1*
X102252Y36035D1*
Y69690D1*
X103205Y70642D1*
X104475Y35082D2*
X104157D1*
X102887Y36352D1*
Y67467D1*
X103522Y68102D1*
X103840Y37622D2*
Y65562D1*
X114310Y30322D2*
Y30962D1*
X111777Y33495D1*
Y57942D1*
X117175Y63340D1*
X114317Y32860D2*
X113682D1*
X112730Y33812D1*
Y56355D1*
X117175Y60800D1*
X113682Y35717D2*
X113365D1*
Y54450D1*
X117175Y58260D1*
X114317Y38257D2*
Y52862D1*
X117175Y55720D1*
X51449Y59725D2*
D10*
X51883D1*
X52232Y59376D1*
X62910D1*
X64149Y58138D1*
X88600Y30637D2*
D15*
X81297D1*
X78122Y33812D1*
Y56547D1*
X76532Y58138D1*
X51438Y61123D2*
D10*
X52232D1*
X53502Y59853D1*
X63028D1*
X63822Y60647D1*
Y60488D1*
X85107Y33177D2*
D15*
X80345D1*
X78757Y34765D1*
Y58452D1*
X76532Y60678D1*
X50497Y66075D2*
D10*
X72563D1*
X74785Y68298D1*
X84472Y35717D2*
D15*
X82567D1*
X80345Y37940D1*
Y64484D1*
X76532Y68298D1*
X52402Y65123D2*
D10*
X63197D1*
X65102Y63218D1*
X79710Y35400D2*
D15*
Y60039D1*
X76532Y63218D1*
X51767Y58455D2*
D10*
X54900D1*
X94632Y30320D2*
D15*
X92092D1*
X84790Y37622D1*
Y51156D1*
X86692Y53058D1*
X51925Y57185D2*
D10*
X63832D1*
X65419Y55598D1*
X93997Y32860D2*
D15*
Y56672D1*
X53302Y55598D2*
D10*
X56529D1*
X97807Y35717D2*
D15*
Y34447D1*
X94950Y31590D1*
X93045D1*
X88917Y35717D1*
Y50322D1*
X88600Y50640D1*
X86813D1*
X86692Y50518D1*
X97807Y38257D2*
X95902D1*
X94950Y39210D1*
Y48417D1*
X95585Y49052D1*
X40801Y137172D2*
D10*
Y137807D1*
X36038D1*
X35561Y138283D1*
Y139395D1*
X40801Y137807D2*
D15*
Y137966D1*
X42865Y140030D1*
X53965D1*
X53979Y140043D1*
X64784Y78616D2*
D10*
X64943D1*
Y72901D1*
X68277Y69568D1*
X77167D1*
X80024Y72425D1*
Y76711D1*
X80659Y77346D1*
X89549D1*
X91930Y74965D1*
X117175Y76040D2*
D14*
X124278D1*
X130189Y81950D1*
Y103858D1*
X131433Y105101D1*
X154001D1*
X182550D1*
X190832Y113383D1*
X196229Y118780D1*
Y137513D1*
X198452Y139735D1*
X273382D1*
X283224Y149578D1*
X292114Y158468D1*
Y162595D1*
X288304Y166405D1*
X284177D1*
X281954Y168628D1*
X65895Y77029D2*
D10*
Y73378D1*
X67324Y71949D1*
X77008D1*
X79230Y74171D1*
Y79410D1*
X79707Y79886D1*
X89708D1*
X92407Y77188D1*
X117175Y78580D2*
D14*
Y78458D1*
X124474D1*
X128602Y82585D1*
Y104175D1*
X130798Y106371D1*
X152890D1*
X181915D1*
X189879Y114335D1*
X195277Y119733D1*
Y137830D1*
X198134Y140688D1*
X272429D1*
X283224Y151483D1*
X291162Y159420D1*
Y161960D1*
X287987Y165135D1*
X282907D1*
X279414Y168628D1*
X68753Y83696D2*
D10*
Y75124D1*
X69705Y74171D1*
X74627D1*
X75103Y74648D1*
X77325D1*
X78595Y75918D1*
Y81791D1*
X79230Y82426D1*
X89867D1*
X92565Y79728D1*
X117175Y81120D2*
D14*
X124913D1*
X127332Y83538D1*
Y104810D1*
X130163Y107642D1*
X151937D1*
X181280D1*
X188927Y115288D1*
X194324Y120685D1*
Y138148D1*
X197817Y141640D1*
X265762D1*
X279414Y155293D1*
X283224Y159103D1*
Y161960D1*
X282589Y162595D1*
X280367D1*
X279414Y161643D1*
Y161008D1*
X107015Y83660D2*
X114118D1*
X115902Y85443D1*
X120982D1*
X126062Y90523D1*
Y105763D1*
X129528Y109229D1*
X150826D1*
X180963D1*
X187974Y116240D1*
X193372Y121638D1*
Y138465D1*
X197499Y142593D1*
X264809D1*
X279414Y157198D1*
X281954Y159738D1*
Y161008D1*
X107015Y81120D2*
X105937D1*
X105424Y81633D1*
Y85443D1*
X106694Y86713D1*
X120347D1*
X124474Y90840D1*
Y108303D1*
X131618Y115446D1*
X147175D1*
X181783D1*
X191149Y124813D1*
X192419Y126083D1*
Y138783D1*
X197182Y143545D1*
X254967D1*
X259729Y148308D1*
X270219Y158797D1*
Y162416D1*
X265932Y166703D1*
X261972D1*
X260047Y168628D1*
X257507D2*
Y167825D1*
X260216Y165115D1*
X266091D1*
X269254Y161952D1*
Y159738D1*
X259094Y149578D1*
X254014Y144498D1*
X196864D1*
X191467Y139100D1*
Y127035D1*
X190197Y125765D1*
X180989Y116558D1*
X146064D1*
X130824D1*
X122887Y108620D1*
Y91158D1*
X119712Y87983D1*
X106377D1*
X104154Y85760D1*
Y79410D1*
X105107Y78458D1*
X106893D1*
X107015Y78580D1*
X257507Y161008D2*
Y162278D1*
X257824Y162595D1*
X260523D1*
X261317Y161801D1*
Y159420D1*
X256554Y154658D1*
X247347Y145450D1*
X196547D1*
X190514Y139418D1*
Y127988D1*
X188927Y126400D1*
X180354Y117828D1*
X144953D1*
X130189D1*
X121617Y109255D1*
Y91475D1*
X119077Y88935D1*
X105742D1*
X103202Y86395D1*
Y78140D1*
X105424Y75918D1*
X106893D1*
X107015Y76040D1*
Y73500D2*
X106413D1*
X105265Y74648D1*
X104630D1*
X101773Y77505D1*
Y87030D1*
X104948Y90205D1*
X118283D1*
X120505Y92428D1*
Y110208D1*
X129395Y119098D1*
X144000D1*
X179719D1*
X187974Y127353D1*
X189562Y128940D1*
Y139735D1*
X196229Y146403D1*
X246394D1*
X256554Y156563D1*
X260047Y160055D1*
Y161008D1*
X71134Y76076D2*
D10*
X74309D1*
X75420Y77188D1*
X77643D1*
X86692Y75918D2*
D14*
X87803D1*
X90343Y73378D1*
X97963D1*
X100503Y75918D1*
Y87348D1*
X104313Y91158D1*
X117648D1*
X119553Y93063D1*
Y112113D1*
X132888Y125448D1*
X142889D1*
X182577D1*
X183212Y126083D1*
X188609Y131480D1*
Y140053D1*
X195912Y147355D1*
X236552D1*
X240044Y150848D1*
X248140Y158944D1*
Y164183D1*
X245600Y166723D1*
X240044D1*
X238139Y168628D1*
X72087Y79728D2*
D10*
X77643D1*
X86692Y78458D2*
D14*
X89549D1*
X92089Y75918D1*
X98757D1*
X99709Y76870D1*
Y87665D1*
X104154Y92110D1*
X116854D1*
X118759Y94015D1*
Y112430D1*
X133205Y126876D1*
X141778D1*
X181783D1*
X182259Y127353D1*
X187657Y132750D1*
Y140370D1*
X195594Y148308D1*
X235599D1*
X239409Y152118D1*
X247347Y160055D1*
Y163548D1*
X245124Y165770D1*
X238457D1*
X235599Y168628D1*
X73674Y82268D2*
D10*
X77643D1*
X86692Y80998D2*
D14*
X89708D1*
X92248Y78458D1*
X98122D1*
X98757Y79093D1*
Y87983D1*
X103837Y93063D1*
X116219D1*
X117807Y94650D1*
Y113065D1*
X132888Y128146D1*
X139397D1*
X180830D1*
X181307Y128623D1*
X186704Y134020D1*
Y140688D1*
X195277Y149260D1*
X228932D1*
X235599Y155928D1*
X239409Y159738D1*
Y161960D1*
X238774Y162595D1*
X236234D1*
X235599Y161960D1*
Y161008D1*
X76532Y83538D2*
Y84173D1*
X77802Y85443D1*
X96852D1*
X97487Y86078D1*
Y88300D1*
X103202Y94015D1*
X115267D1*
X116537Y95285D1*
Y113383D1*
X132570Y129416D1*
X140667D1*
X180195D1*
X185752Y134973D1*
Y141005D1*
X194959Y150213D1*
X227691D1*
X235290Y157812D1*
X235766D1*
X238306Y160352D1*
Y161008D1*
X238139D1*
X76532Y80998D2*
X73039D1*
X72563Y81474D1*
Y84649D1*
X74468Y86554D1*
X95740D1*
X96375Y87189D1*
Y89253D1*
X102249Y95126D1*
X114632D1*
X115584Y96079D1*
Y115923D1*
X135428Y135766D1*
X138285D1*
X179243D1*
X183212Y139735D1*
X194642Y151165D1*
X212422D1*
X214644Y153388D1*
X219444Y158188D1*
X224524D1*
X226074Y159738D1*
Y164341D1*
X223852Y166564D1*
X217857D1*
X215844Y168576D1*
X213304D2*
Y166475D1*
X214188Y165591D1*
X222125D1*
X224804Y162913D1*
Y160373D1*
X223534Y159103D1*
X218454D1*
X214009Y154658D1*
X211469Y152118D1*
X193689D1*
X181942Y140370D1*
X178608Y137036D1*
X137174D1*
X134952D1*
X114473Y116558D1*
Y97031D1*
X113679Y96238D1*
X101932D1*
X95264Y89570D1*
Y87983D1*
X94629Y87348D1*
X73833D1*
X70817Y84331D1*
Y78934D1*
X71293Y78458D1*
X76532D1*
Y75918D2*
X75262D1*
X74309Y74965D1*
X70340D1*
X69864Y75441D1*
Y84808D1*
X73357Y88300D1*
X92883D1*
X101773Y97190D1*
X112568D1*
X113362Y97984D1*
Y117351D1*
X134634Y138624D1*
X134952D1*
Y138465D1*
X178132D1*
X181307Y141640D1*
X192737Y153070D1*
X210517D1*
X212739Y155293D1*
X217184Y159738D1*
Y161643D1*
X216411Y162416D1*
X213856D1*
X213380Y161940D1*
Y160956D1*
X213304D1*
X215844D2*
Y160462D1*
X213374Y157991D1*
X209384Y154001D1*
X191763D1*
X180037Y142275D1*
X177973Y140211D1*
X136063D1*
X134316D1*
X112250Y118145D1*
Y98936D1*
X111774Y98460D1*
X101455D1*
X92407Y89411D1*
X72404D1*
X67483Y84490D1*
Y75124D1*
X69229Y73378D1*
X76532D1*
X212739Y125448D2*
D15*
Y129893D1*
X214009Y131163D1*
X213374Y157833D2*
Y157991D1*
X150351Y67633D2*
D14*
Y64932D1*
X152890Y62393D1*
Y60806D1*
X152891Y60805D1*
X176229Y89542D2*
X176705D1*
X199091Y111928D1*
X206205D1*
X207659Y113383D1*
X290209Y136878D2*
D15*
X267349D1*
X243854D1*
X220359D1*
X208929Y129258D2*
X211469D1*
X231789D2*
X240679D1*
X255284D2*
X264174D1*
X199592Y125448D2*
D14*
X197186Y123042D1*
X196233Y99227D2*
Y97639D1*
X189565Y90971D1*
Y54137D1*
X186707Y51279D1*
X178136D1*
X176230Y53185D1*
X54772Y61599D2*
D10*
X54137D1*
X53661Y62075D1*
X29528D1*
X23178Y68426D1*
Y95733D1*
X23095Y95816D1*
X55725Y60805D2*
Y61917D1*
X55090Y62552D1*
X29846D1*
X25877Y66521D1*
Y95890D1*
X25957Y95810D1*
X228614Y18949D2*
D14*
Y17815D1*
X227438D1*
X226074D1*
X223429D1*
X221056D1*
X219734D1*
X218403D1*
X215989D1*
X213425D1*
X212080D1*
X210940D1*
X208366D1*
X205797D1*
X204377D1*
X203246D1*
X200767D1*
X198134D1*
X196871D1*
X195594D1*
X193054D1*
X190990D1*
X190831Y17975D1*
X190514Y18291D1*
Y18949D1*
X193054D2*
Y17815D1*
X195594Y18949D2*
Y17815D1*
X198134Y18949D2*
Y17815D1*
X200674Y18949D2*
Y17908D1*
X200767Y17815D1*
X203214Y18949D2*
X203246Y17815D1*
X205754Y18949D2*
X205797Y17815D1*
X208294Y18949D2*
Y17887D1*
X208366Y17815D1*
X210834Y18949D2*
Y17921D1*
X210940Y17815D1*
X213374Y18949D2*
Y17866D1*
X213425Y17815D1*
X215914Y18949D2*
Y17890D1*
X215989Y17815D1*
X218454Y18949D2*
Y17867D1*
X218403Y17815D1*
X220994Y18949D2*
Y17878D1*
X221056Y17815D1*
X223534Y18949D2*
Y17920D1*
X223429Y17815D1*
X226074Y18949D2*
Y17815D1*
X116583Y21292D2*
Y20158D1*
X114043D1*
X111398D1*
X109025D1*
X107663D1*
X106371D1*
X103957D1*
X101394D1*
X100048D1*
X98909D1*
X96335D1*
X93765D1*
X92496D1*
X91215D1*
X88736D1*
X86103D1*
X84760D1*
X83563D1*
X81023D1*
X78959D1*
X78483Y20634D1*
Y21292D1*
X81023D2*
Y20158D1*
X83563Y21292D2*
Y20158D1*
X86103Y21292D2*
Y20158D1*
X88643Y21292D2*
Y20251D1*
X88736Y20158D1*
X91183Y21292D2*
X91215Y20158D1*
X93723Y21292D2*
X93765Y20158D1*
X96263Y21292D2*
Y20230D1*
X96335Y20158D1*
X98803Y21292D2*
Y20264D1*
X98909Y20158D1*
X101343Y21292D2*
Y20209D1*
X101394Y20158D1*
X103883Y21292D2*
Y20233D1*
X103957Y20158D1*
X106423Y21292D2*
Y20210D1*
X106371Y20158D1*
X108963Y21292D2*
Y20221D1*
X109025Y20158D1*
X111503Y21292D2*
Y20263D1*
X111398Y20158D1*
X114043Y21292D2*
Y20158D1*
X202579Y133068D2*
D22*
Y135608D1*
X226074D1*
X249569D1*
X273476D1*
X296559D1*
Y145768D1*
X304814Y154023D1*
Y167993D1*
X273064Y133068D2*
Y135196D1*
X273476Y135608D1*
X249569Y133068D2*
Y135608D1*
X226074Y133068D2*
Y135608D1*
X228614Y121003D2*
X226074D1*
X224169Y122908D1*
Y131163D1*
X226074Y133068D1*
X205119Y121003D2*
X201944D1*
X200674Y122273D1*
Y131163D1*
X202579Y133068D1*
X252109Y121003D2*
X248934D1*
X247664Y122273D1*
Y131163D1*
X249569Y133068D1*
X275604Y121003D2*
X273064D1*
X271159Y122908D1*
Y131163D1*
X273064Y133068D1*
X55577Y69726D2*
D17*
Y67985D1*
X55415Y67824D1*
X59545Y70520D2*
Y71473D1*
X58752Y72266D1*
X55577Y75918D2*
Y77029D1*
X55418Y77188D1*
X51925Y72901D2*
X50814D1*
Y73242D1*
X34926Y66362D2*
X45862D1*
X50497Y70996D1*
Y72925D1*
X50814Y73242D1*
X26353Y159876D2*
Y158764D1*
X26988Y158129D1*
X30410D1*
X30481Y158058D1*
X67959Y168310D2*
D18*
X67950Y173847D1*
X90502Y168310D2*
Y173847D1*
X112727Y168310D2*
Y172573D1*
X111452Y173847D1*
X21908Y13017D2*
D14*
X24448D1*
X26988D1*
X29528D1*
X32069D1*
X34609D1*
X37149D1*
X39689D1*
X42230D1*
X44770D1*
X47310D1*
X50009D1*
X50327Y13334D1*
X49533D1*
X49850Y13017D1*
X52366D1*
X52391Y12992D1*
X54907D1*
X54931Y13017D1*
X57471D1*
X60012D1*
X63346Y12699D2*
D10*
X60329D1*
X60012Y13017D1*
X145271Y60805D2*
D14*
Y65411D1*
X146539Y66680D1*
Y73985D1*
X145271Y75253D1*
X86692Y83538D2*
D18*
X96239D1*
X97004Y84303D1*
X107015Y70960D2*
X109222D1*
X109705Y71443D1*
Y76190D1*
X117175Y83660D1*
X46993Y78428D2*
D17*
X47151D1*
X49692Y75888D1*
X55418D1*
Y77188D1*
X61917Y72237D2*
D14*
X58752Y72266D1*
X21195Y98516D2*
D10*
Y97716D1*
X21749Y97163D1*
X23139D1*
X24898D1*
X26671D1*
X26829Y97004D1*
Y95888D1*
X26907Y95810D1*
X25007D2*
Y97054D1*
X24898Y97163D1*
X23095Y98516D2*
Y97207D1*
X23139Y97163D1*
X36590Y102819D2*
D14*
Y95893D1*
X34768D1*
X76532Y70838D2*
D10*
X73378D1*
X73348Y70808D1*
X162889Y41436D2*
D17*
X159717D1*
X156220D1*
X152448D1*
X148918D1*
X145624D1*
X142253D1*
X139290D1*
X136061D1*
X132976D1*
X129710D1*
X126546D1*
X123359D1*
X120184D1*
X162889D2*
D14*
X167019D1*
X170672D1*
X170989Y41118D1*
Y41436D1*
X190831Y17975D2*
X169243D1*
Y17145D1*
X168290Y16192D1*
X122724D1*
X118758Y20158D1*
X116583D1*
X205684Y168576D2*
D18*
Y167254D1*
X207982Y164956D1*
X209416D1*
X232188Y165430D2*
Y165836D1*
X231936Y166088D1*
X230527D1*
X276093Y165433D2*
Y166088D1*
X277998D1*
X153684Y160598D2*
D16*
X146452D1*
X143364Y163686D1*
Y189406D1*
X147333Y193376D1*
X110817Y39531D2*
D14*
X109229D1*
X107959Y40801D1*
X36514Y100679D2*
D16*
Y99544D1*
X36990Y99068D1*
Y95893D1*
X34768D1*
X36514Y100679D2*
Y102743D1*
X36590Y102819D1*
X26671Y97163D2*
D18*
X27941D1*
X31275Y93829D1*
X37149D1*
Y95893D1*
X34768D1*
X24607Y127487D2*
D16*
Y131615D1*
X18257Y137965D1*
X13175D1*
X46993Y78428D2*
X45881D1*
X45087Y79222D1*
Y92082D1*
X34450D2*
X33021D1*
X31275Y93829D1*
X123359Y41436D2*
D18*
Y31434D1*
X124788Y30005D1*
X115580Y41277D2*
X120025D1*
X120184Y41436D1*
X145271Y60805D2*
D16*
X144952D1*
X143046Y58900D1*
Y44013D1*
X145624Y41436D1*
X117175Y83660D2*
X125256D1*
X203219Y38578D2*
D15*
X199250D1*
X196551Y41277D1*
X228463Y41436D2*
X221318D1*
X214174Y41595D2*
X207823D1*
X146857Y93670D2*
D23*
Y92903D1*
Y81286D1*
X143682Y78111D1*
Y76842D1*
X144033Y76491D1*
D21*
X145271Y75253D1*
X62552Y107006D2*
D23*
X60012D1*
X45087Y92082D1*
X146857Y92903D2*
X177019D1*
X203882Y119765D1*
D21*
X205119Y121003D1*
X162892Y144317D2*
D16*
Y145817D1*
D23*
Y166068D1*
X160511Y168449D1*
X159461D1*
X156859D1*
X153684Y165274D1*
Y162423D1*
D25*
Y160598D1*
X175123Y71601D2*
D18*
X169561D1*
X168132Y73030D1*
Y75253D1*
Y75254D1*
X168609Y60805D2*
D16*
X166544D1*
X165115Y62234D1*
Y72237D1*
X168132Y75254D1*
X34768Y98279D2*
D14*
Y95893D1*
X56519Y137503D2*
X66947D1*
X67147Y137703D1*
X60647D1*
X24403Y167076D2*
D15*
Y169674D1*
X24607Y169878D1*
X26670D1*
X158764Y168925D2*
X158984D1*
X159461Y168449D1*
X137172Y90177D2*
D10*
Y81763D1*
X129710Y74301D1*
X136220Y91289D2*
Y82080D1*
X128440Y74301D1*
X135108Y90177D2*
Y82239D1*
X127170Y74300D1*
X134156Y91289D2*
Y82556D1*
X125900Y74301D1*
X133203Y90177D2*
Y82874D1*
X124630Y74301D1*
X131457Y90177D2*
Y82398D1*
X123359Y74301D1*
X61917Y55090D2*
Y47151D1*
X60964Y53820D2*
X60805D1*
Y48263D1*
X59853Y55090D2*
Y49374D1*
X58741Y56201D2*
Y50486D1*
X45417Y160690D2*
D15*
Y159229D1*
X48422Y156224D1*
X71194D1*
X94216D1*
X113516D1*
X46675Y127487D2*
D10*
X46834D1*
Y136220D1*
X50486Y77288D2*
Y77158D1*
X46040Y81604D1*
Y88590D1*
X52391Y94940D1*
X96528D1*
X100656Y99068D1*
X109864D1*
X111134Y100338D1*
Y118596D1*
X133997Y141459D1*
X177499D1*
X190835Y154795D1*
X207664D1*
X210840Y157971D1*
X47945Y126376D2*
Y135267D1*
X27782Y147968D2*
X27306D1*
X25718Y149556D1*
Y159861D1*
X25703Y159876D1*
X27782Y147968D2*
X28893Y149080D1*
X33656D1*
X34768Y147968D1*
X156065D1*
X157177Y149080D1*
X155272Y79857D2*
Y78270D1*
X154160Y77158D1*
Y54455D1*
X152891Y53185D1*
X120978Y66203D2*
D15*
X139395D1*
X145110Y71919D1*
X157971Y73189D2*
X160193D1*
X160511Y73507D1*
Y75253D1*
X38260Y139395D2*
X41277D1*
X44452Y142570D1*
X53965D1*
X53979Y142583D1*
X39372Y136855D2*
D10*
X33497D1*
X32862Y137490D1*
Y139236D1*
X32704Y139395D1*
X56519Y140043D2*
D15*
X57961D1*
X58424Y140506D1*
Y143682D1*
X57312Y144793D1*
X32386D1*
X30481Y142888D1*
Y141618D1*
X32704Y139395D1*
X138125Y91289D2*
D10*
Y80810D1*
X131615Y74301D1*
X139077Y90177D2*
Y80492D1*
X132885Y74301D1*
X52708Y77000D2*
Y86049D1*
X140030Y91289D2*
Y80175D1*
X134156Y74301D1*
X63504Y83827D2*
X60488D1*
X53343Y90971D1*
X63663Y82398D2*
X60011D1*
X52867Y89542D1*
X56360Y80651D2*
Y80810D1*
X56677Y81127D1*
Y84938D1*
X53661Y87954D1*
X47310D1*
X55725Y81763D2*
Y85097D1*
X53502Y87319D1*
X48422D1*
X47786Y86684D1*
X160511Y60805D2*
D14*
Y62711D1*
X162416Y64616D1*
X88587Y29367D2*
X98592D1*
X108592D2*
X98592D1*
X118120Y28097D2*
Y27782D1*
X110177D1*
X108592Y29367D1*
X171149Y60805D2*
D15*
X171148D1*
Y59218D1*
X168290Y56360D1*
X167020D1*
X174323Y41277D2*
Y36514D1*
X173371Y35561D1*
X133679D1*
X126215Y28097D1*
X118120D1*
X199409Y24448D2*
X199567D1*
X199885Y24765D1*
X209570D1*
X220048D1*
X230209D1*
X199409Y24448D2*
X199091D1*
X198615Y24924D1*
X189248D1*
X188771Y39905D2*
Y42547D1*
X188612Y57154D2*
X179087D1*
Y60488D1*
X178769Y60805D1*
X107015Y65880D2*
X114462D1*
X115739Y67156D1*
X138760D1*
X144952Y73348D1*
X152731D2*
X152890Y73507D1*
Y75252D1*
X152891Y75253D1*
X43182Y130980D2*
D10*
Y137648D1*
X53979Y137503D2*
D15*
X43327D1*
X43182Y137648D1*
X60647Y133203D2*
D14*
X67147D1*
X53979Y137503D2*
Y134632D1*
X55407Y133203D1*
X67147D1*
D16*
X32227Y123677D3*
D3*
X26907Y99862D3*
X232424Y111478D3*
X255919D3*
X279414D3*
X60641Y75412D3*
X152572Y55249D3*
X163527D3*
X29846Y146539D3*
X159241Y57789D3*
X208929Y111478D3*
X41144Y23178D3*
X156700Y56519D3*
X173688Y81921D3*
X158923Y147809D3*
X31326Y147282D3*
X157335Y147651D3*
X32762Y147910D3*
X23813Y164956D3*
X25400Y145587D3*
X159876Y149080D3*
X36197Y65092D3*
X40483Y64298D3*
X237504Y28293D3*
Y30833D3*
Y33373D3*
Y35913D3*
X223534Y30833D3*
Y33373D3*
Y35913D3*
Y38453D3*
X210199Y28293D3*
Y30833D3*
Y33373D3*
Y35913D3*
X196547Y30833D3*
X196864Y33373D3*
Y35913D3*
Y38453D3*
X249579Y176229D3*
X268948Y174165D3*
X241958Y178134D3*
X199087Y25753D3*
X218937D3*
X49544Y74788D3*
X36355Y67632D3*
X57164Y72266D3*
Y74489D3*
X49544Y74788D3*
X53830Y72425D3*
X53354Y69568D3*
X57164Y72266D3*
X49544Y74788D3*
X184008Y49692D3*
X230552Y162913D3*
X278157D3*
X62234Y111611D3*
X148921Y153049D3*
X42383Y176546D3*
X90341Y38456D3*
Y46675D3*
X109388Y38062D3*
X21195Y94464D3*
X42865Y96687D3*
X49544Y74788D3*
X53830Y72425D3*
X53354Y69568D3*
D3*
X119231Y32227D3*
X109388Y38062D3*
X148921Y153049D3*
X158088Y164039D3*
X56519Y150191D3*
X108602Y30637D3*
X104475Y73182D3*
X104792Y32542D3*
X103205Y70642D3*
X104475Y35082D3*
X103522Y68102D3*
X103840Y37622D3*
Y65562D3*
X114310Y30322D3*
X114317Y32860D3*
X113682Y35717D3*
X114317Y38257D3*
X51449Y59725D3*
X64149Y58138D3*
X88600Y30637D3*
X51438Y61123D3*
X63822Y60488D3*
X85107Y33177D3*
X50497Y66075D3*
X74785Y68298D3*
X84472Y35717D3*
X52402Y65123D3*
X65102Y63218D3*
X79710Y35400D3*
X51767Y58455D3*
X54900D3*
X94632Y30320D3*
X51925Y57185D3*
X65419Y55598D3*
X93997Y32860D3*
Y56672D3*
X53302Y55598D3*
X56529D3*
X97807Y35717D3*
Y38257D3*
X95585Y49052D3*
X40801Y137172D3*
X64784Y78616D3*
X91930Y74965D3*
X154001Y105101D3*
X283224Y149578D3*
X190832Y113383D3*
X65895Y77029D3*
X92407Y77188D3*
X283224Y151483D3*
X189879Y114335D3*
X152890Y106371D3*
D3*
X68753Y83696D3*
X92565Y79728D3*
X151937Y107642D3*
X279414Y155293D3*
X188927Y115288D3*
X150826Y109229D3*
X279414Y157198D3*
X187974Y116240D3*
X147175Y115446D3*
X259729Y148308D3*
X191149Y124813D3*
X146064Y116558D3*
X259094Y149578D3*
X190197Y125765D3*
X144953Y117828D3*
X256554Y154658D3*
X188927Y126400D3*
X144000Y119098D3*
X256554Y156563D3*
X187974Y127353D3*
X71134Y76076D3*
X77643Y77188D3*
X142889Y125448D3*
X240044Y150848D3*
X183212Y126083D3*
X72087Y79728D3*
X77643D3*
X141778Y126876D3*
X239409Y152118D3*
X182259Y127353D3*
X73674Y82268D3*
X77643D3*
X139397Y128146D3*
X235599Y155928D3*
X181307Y128623D3*
X140667Y129416D3*
X235290Y157812D3*
X180195Y129416D3*
X138285Y135766D3*
X214644Y153388D3*
X183212Y139735D3*
X137174Y137036D3*
X214009Y154658D3*
X181942Y140370D3*
X134952Y138624D3*
X212739Y155293D3*
X181307Y141640D3*
X136063Y140211D3*
X214009Y131163D3*
X213374Y157833D3*
X180037Y142275D3*
X176229Y89542D3*
X290209Y136878D3*
X220359D3*
X243854D3*
X267349D3*
X208929Y129258D3*
X211469D3*
X231789D3*
X240679D3*
X255284D3*
X264174D3*
X199592Y125448D3*
X197186Y123042D3*
X196233Y99227D3*
X54772Y61599D3*
X55725Y60805D3*
X304814Y167993D3*
X55577Y69726D3*
X58752Y72266D3*
X55418Y77188D3*
X50814Y73242D3*
X34926Y66362D3*
X304814Y167993D3*
X67950Y173847D3*
X90502D3*
X111452D3*
X227438Y17815D3*
X219734D3*
X212080D3*
X204377D3*
X196871D3*
X84760Y20158D3*
X92496D3*
X100048D3*
X107663D3*
X63346Y12699D3*
X97004Y84303D3*
X46993Y78428D3*
X58752Y72266D3*
X73348Y70808D3*
X162889Y41436D3*
X120184D3*
X123359D3*
X126546D3*
X129710D3*
X132976D3*
X136061D3*
X139290D3*
X142253D3*
X145624D3*
X148918D3*
X170989D3*
X162889D3*
X167019D3*
X159717D3*
X156220D3*
X152448D3*
X169243Y17975D3*
X230527Y166088D3*
X277998D3*
X147333Y193376D3*
X110817Y39531D3*
X107959Y40801D3*
X36514Y100679D3*
D3*
X24607Y127487D3*
X45087Y92082D3*
X34450D3*
X46993Y78428D3*
X124788Y30005D3*
X115580Y41277D3*
X125256Y83660D3*
X203219Y38578D3*
X196551Y41277D3*
X169243Y17975D3*
X228463Y41436D3*
X221318D3*
X214174Y41595D3*
X207823D3*
X146857Y93670D3*
X26670Y169878D3*
X158764Y168925D3*
X137172Y90177D3*
X129710Y74301D3*
X136220Y91289D3*
X128440Y74301D3*
X135108Y90177D3*
X127170Y74300D3*
X134156Y91289D3*
X125900Y74301D3*
X133203Y90177D3*
X124630Y74301D3*
X131457Y90177D3*
X123359Y74301D3*
X61917Y55090D3*
Y47151D3*
X60964Y53820D3*
X60805Y48263D3*
X59853Y55090D3*
Y49374D3*
X58741Y56201D3*
Y50486D3*
X113516Y156224D3*
X94216D3*
X71194D3*
X46675Y127487D3*
X46834Y136220D3*
X50486Y77288D3*
X210840Y157971D3*
X47945Y126376D3*
Y135267D3*
X27782Y147968D3*
X157177Y149080D3*
X27782Y147968D3*
X155272Y79857D3*
X120978Y66203D3*
X145110Y71919D3*
X157971Y73189D3*
X39372Y136855D3*
X138125Y91289D3*
X131615Y74301D3*
X139077Y90177D3*
X132885Y74301D3*
X52708Y77000D3*
Y86049D3*
X140030Y91289D3*
X134156Y74301D3*
X63504Y83827D3*
X53343Y90971D3*
X63663Y82398D3*
X52867Y89542D3*
X56360Y80651D3*
X47310Y87954D3*
X55725Y81763D3*
X47786Y86684D3*
X162416Y64616D3*
X88587Y29367D3*
X98592D3*
X108592D3*
X118120Y28097D3*
X108592Y29367D3*
X167020Y56360D3*
X174323Y41277D3*
X118120Y28097D3*
X199409Y24448D3*
X230209Y24765D3*
X220048D3*
X209570D3*
X189248Y24924D3*
X188771Y39905D3*
Y42547D3*
X188612Y57154D3*
X199409Y24448D3*
X144952Y73348D3*
X152731D3*
X43182Y130980D3*
Y137648D3*
X148921Y150350D3*
Y151620D3*
X44770Y113833D3*
Y115104D3*
Y116532D3*
X162892Y144317D3*
X11381Y208097D2*
D26*
X12390D1*
X15236D2*
X154640D1*
X157486D2*
X319760D1*
X322605D2*
X323768D1*
X16019Y207465D2*
X153856D1*
X158279D2*
X318976D1*
X323389D2*
X323768D1*
X16436Y206833D2*
X153439D1*
X158686D2*
X318559D1*
X16654Y206202D2*
X153221D1*
X158904D2*
X318341D1*
X16714Y205570D2*
X153162D1*
X158974D2*
X318281D1*
X16635Y204938D2*
X40836D1*
X43950D2*
X153241D1*
X158894D2*
X318351D1*
X16406Y204307D2*
X40409D1*
X44366D2*
X153469D1*
X158656D2*
X318589D1*
X15970Y203675D2*
X40241D1*
X44535D2*
X153906D1*
X158220D2*
X319026D1*
X323340D2*
X323768D1*
X11381Y203043D2*
X12509D1*
X15117D2*
X38445D1*
X44495D2*
X154759D1*
X157367D2*
X319879D1*
X322486D2*
X323768D1*
X11381Y202412D2*
X37959D1*
X44327D2*
X323768D1*
X11381Y201780D2*
X37750D1*
X44525D2*
X323768D1*
X11381Y201148D2*
X37760D1*
X44515D2*
X323768D1*
X11381Y200517D2*
X37959D1*
X44317D2*
X323768D1*
X11381Y199885D2*
X38465D1*
X43811D2*
X323768D1*
X11381Y199253D2*
X323768D1*
X11381Y198622D2*
X323768D1*
X11381Y197990D2*
X323768D1*
X11381Y197358D2*
X323768D1*
X11381Y196727D2*
X323768D1*
X11381Y196095D2*
X323768D1*
X11381Y195463D2*
X323768D1*
X11381Y194832D2*
X323768D1*
X11381Y194200D2*
X323768D1*
X11381Y193568D2*
X323768D1*
X11381Y192937D2*
X323768D1*
X11381Y192305D2*
X323768D1*
X11381Y191673D2*
X323768D1*
X11381Y191042D2*
X323768D1*
X11381Y190410D2*
X323768D1*
X11381Y189778D2*
X323768D1*
X11381Y189147D2*
X323768D1*
X11381Y188515D2*
X323768D1*
X11381Y187883D2*
X323768D1*
X11381Y187252D2*
X323768D1*
X11381Y186620D2*
X323768D1*
X11381Y185988D2*
X323768D1*
X11381Y185357D2*
X12162D1*
X14085D2*
X65502D1*
X67425D2*
X68042D1*
X69965D2*
X70582D1*
X72505D2*
X73122D1*
X75045D2*
X75662D1*
X77585D2*
X78202D1*
X80125D2*
X80742D1*
X82665D2*
X83282D1*
X85205D2*
X85822D1*
X87745D2*
X88362D1*
X90285D2*
X90902D1*
X92825D2*
X93442D1*
X95365D2*
X95982D1*
X97905D2*
X98522D1*
X100445D2*
X101062D1*
X107023D2*
X171229D1*
X173152D2*
X224569D1*
X226492D2*
X227109D1*
X229032D2*
X229649D1*
X231572D2*
X232189D1*
X234112D2*
X234729D1*
X236652D2*
X237269D1*
X239192D2*
X239809D1*
X241732D2*
X242349D1*
X244272D2*
X244889D1*
X246812D2*
X247429D1*
X249352D2*
X249969D1*
X251892D2*
X252509D1*
X254432D2*
X255049D1*
X256972D2*
X257589D1*
X259512D2*
X260129D1*
X266090D2*
X323768D1*
X14978Y184725D2*
X64609D1*
X107023D2*
X170336D1*
X174045D2*
X223676D1*
X266090D2*
X323768D1*
X17964Y184093D2*
X64212D1*
X107023D2*
X169940D1*
X174452D2*
X223280D1*
X266090D2*
X323768D1*
X18599Y183462D2*
X64033D1*
X107023D2*
X169761D1*
X174621D2*
X223101D1*
X266090D2*
X323768D1*
X19224Y182830D2*
X64023D1*
X107023D2*
X169751D1*
X174631D2*
X223091D1*
X266090D2*
X323768D1*
X19859Y182198D2*
X64202D1*
X107023D2*
X169930D1*
X174452D2*
X223270D1*
X266090D2*
X323768D1*
X20494Y181567D2*
X64599D1*
X107023D2*
X169940D1*
X174442D2*
X223666D1*
X266090D2*
X323768D1*
X21119Y180935D2*
X64569D1*
X107023D2*
X169761D1*
X174621D2*
X224024D1*
X266090D2*
X323768D1*
X21754Y180303D2*
X52008D1*
X106150D2*
X169751D1*
X174631D2*
X224024D1*
X265813D2*
X323768D1*
X22389Y179672D2*
X51244D1*
X106150D2*
X169920D1*
X174462D2*
X223508D1*
X266448D2*
X323768D1*
X23014Y179040D2*
X50609D1*
X106150D2*
X169949D1*
X174432D2*
X222873D1*
X282640D2*
X323768D1*
X23639Y178408D2*
X49984D1*
X121807D2*
X169761D1*
X174621D2*
X222238D1*
X283265D2*
X323768D1*
X23967Y177777D2*
X33375D1*
X43821D2*
X49349D1*
X122432D2*
X169751D1*
X174631D2*
X221613D1*
X283900D2*
X323768D1*
X24007Y177145D2*
X32730D1*
X44188D2*
X48714D1*
X123067D2*
X169920D1*
X174462D2*
X220978D1*
X284535D2*
X323768D1*
X24007Y176513D2*
X32135D1*
X44287D2*
X48089D1*
X123692D2*
X169949D1*
X174432D2*
X220343D1*
X285160D2*
X323768D1*
X24007Y175882D2*
X31867D1*
X44168D2*
X47454D1*
X124327D2*
X169761D1*
X174621D2*
X206541D1*
X285795D2*
X323768D1*
X24007Y175250D2*
X31837D1*
X43761D2*
X46819D1*
X124962D2*
X169751D1*
X174631D2*
X205748D1*
X286430D2*
X323768D1*
X24007Y174618D2*
X31837D1*
X38125D2*
X46194D1*
X125587D2*
X169910D1*
X174472D2*
X205113D1*
X270793D2*
X271199D1*
X287055D2*
X323768D1*
X24007Y173987D2*
X31837D1*
X38036D2*
X45559D1*
X126222D2*
X169959D1*
X174422D2*
X204487D1*
X271339D2*
X271837D1*
X287690D2*
X323768D1*
X24007Y173355D2*
X31837D1*
X37768D2*
X44924D1*
X67623D2*
X74144D1*
X109394D2*
X111639D1*
X126857D2*
X169761D1*
X174621D2*
X203852D1*
X271726D2*
X272472D1*
X288305D2*
X323768D1*
X24007Y172723D2*
X31837D1*
X38046D2*
X44299D1*
X67623D2*
X69223D1*
X110019D2*
X112274D1*
X127482D2*
X152130D1*
X155233D2*
X169751D1*
X174631D2*
X203217D1*
X271795D2*
X272770D1*
X288593D2*
X323768D1*
X24007Y172092D2*
X31837D1*
X38125D2*
X43664D1*
X67623D2*
X68588D1*
X110654D2*
X112412D1*
X128117D2*
X151673D1*
X155700D2*
X169910D1*
X174482D2*
X202592D1*
X271795D2*
X272770D1*
X288633D2*
X323768D1*
X24007Y171460D2*
X31837D1*
X38036D2*
X43029D1*
X67623D2*
X67967D1*
X111289D2*
X112412D1*
X128752D2*
X151475D1*
X155888D2*
X169969D1*
X174422D2*
X201957D1*
X271795D2*
X272770D1*
X288633D2*
X323768D1*
X24007Y170828D2*
X31837D1*
X37748D2*
X42414D1*
X111914D2*
X112412D1*
X129377D2*
X151475D1*
X155888D2*
X169771D1*
X174611D2*
X201461D1*
X271795D2*
X272770D1*
X288633D2*
X323768D1*
X24007Y170197D2*
X25388D1*
X37143D2*
X42116D1*
X132661D2*
X151673D1*
X155700D2*
X169751D1*
X174631D2*
X201322D1*
X227177D2*
X227675D1*
X271795D2*
X272770D1*
X291729D2*
X323768D1*
X24007Y169565D2*
X24505D1*
X35149D2*
X42076D1*
X132661D2*
X152140D1*
X155223D2*
X169900D1*
X174482D2*
X201322D1*
X225619D2*
X227675D1*
X271795D2*
X272403D1*
X291729D2*
X323768D1*
X35149Y168933D2*
X42076D1*
X132661D2*
X169969D1*
X174412D2*
X201322D1*
X225619D2*
X227675D1*
X271795D2*
X272194D1*
X291729D2*
X323768D1*
X35149Y168302D2*
X42076D1*
X132661D2*
X169771D1*
X174611D2*
X201322D1*
X225619D2*
X227675D1*
X291729D2*
X323768D1*
X35149Y167670D2*
X42076D1*
X132661D2*
X169751D1*
X174640D2*
X201322D1*
X225619D2*
X227675D1*
X291729D2*
X323768D1*
X35149Y167038D2*
X42076D1*
X90910D2*
X91319D1*
X132661D2*
X169900D1*
X174492D2*
X201322D1*
X225689D2*
X227675D1*
X291729D2*
X323768D1*
X35149Y166407D2*
X42076D1*
X90910D2*
X92112D1*
X93976D2*
X94652D1*
X96516D2*
X97192D1*
X99056D2*
X99732D1*
X101596D2*
X102272D1*
X104136D2*
X104812D1*
X116201D2*
X116877D1*
X118741D2*
X119417D1*
X121281D2*
X121957D1*
X123821D2*
X124497D1*
X126361D2*
X127037D1*
X132661D2*
X169979D1*
X174402D2*
X201322D1*
X226324D2*
X227675D1*
X290617D2*
X323768D1*
X35149Y165775D2*
X42076D1*
X91406D2*
X109237D1*
X115576D2*
X157408D1*
X158765D2*
X169771D1*
X174611D2*
X201322D1*
X226959D2*
X227675D1*
X291252D2*
X323768D1*
X35228Y165143D2*
X42076D1*
X92041D2*
X109237D1*
X115576D2*
X156555D1*
X159629D2*
X169741D1*
X174640D2*
X201322D1*
X291877D2*
X323768D1*
X35675Y164512D2*
X42076D1*
X92676D2*
X109237D1*
X115576D2*
X156247D1*
X159936D2*
X169890D1*
X174492D2*
X201322D1*
X292512D2*
X323768D1*
X35873Y163880D2*
X42195D1*
X93301D2*
X109237D1*
X115576D2*
X156188D1*
X159986D2*
X169989D1*
X174402D2*
X201322D1*
X293147D2*
X323768D1*
X35903Y163248D2*
X42682D1*
X93936D2*
X109237D1*
X115576D2*
X156337D1*
X159847D2*
X169771D1*
X174611D2*
X201322D1*
X293634D2*
X323768D1*
X35903Y162617D2*
X43793D1*
X96466D2*
X97242D1*
X99006D2*
X99782D1*
X101546D2*
X102322D1*
X104086D2*
X104862D1*
X106626D2*
X107402D1*
X116151D2*
X116927D1*
X118691D2*
X119467D1*
X121231D2*
X122007D1*
X123771D2*
X124547D1*
X126311D2*
X127087D1*
X128851D2*
X129627D1*
X131391D2*
X156337D1*
X159847D2*
X169741D1*
X174640D2*
X201322D1*
X293772D2*
X323768D1*
X35903Y161985D2*
X43713D1*
X132215D2*
X156337D1*
X159847D2*
X169890D1*
X174502D2*
X201322D1*
X293772D2*
X323768D1*
X27955Y161353D2*
X31093D1*
X35903D2*
X43366D1*
X132552D2*
X156337D1*
X159847D2*
X169989D1*
X174392D2*
X201322D1*
X293772D2*
X323768D1*
X27955Y160722D2*
X31093D1*
X35903D2*
X37651D1*
X39395D2*
X43257D1*
X132661D2*
X136652D1*
X138396D2*
X156337D1*
X159847D2*
X169781D1*
X174611D2*
X196719D1*
X198463D2*
X201322D1*
X293772D2*
X295719D1*
X297463D2*
X323768D1*
X27955Y160090D2*
X31093D1*
X35903D2*
X36451D1*
X40596D2*
X43346D1*
X132572D2*
X135451D1*
X139596D2*
X156337D1*
X159847D2*
X169741D1*
X174640D2*
X195518D1*
X199663D2*
X201382D1*
X293772D2*
X294519D1*
X298664D2*
X323768D1*
X27955Y159458D2*
X31093D1*
X41162D2*
X43664D1*
X132423D2*
X134895D1*
X140162D2*
X156337D1*
X159847D2*
X169880D1*
X174502D2*
X194962D1*
X200229D2*
X201749D1*
X299229D2*
X323768D1*
X27955Y158827D2*
X31093D1*
X41479D2*
X43892D1*
X132423D2*
X134568D1*
X140479D2*
X156337D1*
X159847D2*
X169999D1*
X174383D2*
X194635D1*
X200547D2*
X202374D1*
X299547D2*
X323768D1*
X27955Y158195D2*
X31093D1*
X41648D2*
X44239D1*
X132423D2*
X134399D1*
X140648D2*
X156337D1*
X159847D2*
X169781D1*
X174601D2*
X194466D1*
X200715D2*
X203009D1*
X299716D2*
X323768D1*
X27251Y157563D2*
X31093D1*
X41677D2*
X44874D1*
X132403D2*
X134370D1*
X140678D2*
X156337D1*
X159847D2*
X169741D1*
X174640D2*
X194437D1*
X200745D2*
X208297D1*
X299745D2*
X323768D1*
X27251Y156932D2*
X31093D1*
X41568D2*
X45499D1*
X132175D2*
X134479D1*
X140569D2*
X156218D1*
X159847D2*
X169880D1*
X174512D2*
X194546D1*
X200636D2*
X207662D1*
X292889D2*
X293546D1*
X299636D2*
X323768D1*
X27251Y156300D2*
X31093D1*
X41330D2*
X46134D1*
X131490D2*
X134727D1*
X140321D2*
X155592D1*
X159847D2*
X170009D1*
X174383D2*
X194794D1*
X200398D2*
X207027D1*
X292264D2*
X293794D1*
X299388D2*
X323768D1*
X27251Y155668D2*
X31093D1*
X40884D2*
X46769D1*
X115337D2*
X135163D1*
X139884D2*
X154957D1*
X159708D2*
X169781D1*
X174601D2*
X189565D1*
X291629D2*
X294231D1*
X298952D2*
X323768D1*
X27251Y155037D2*
X31093D1*
X35903D2*
X36957D1*
X40090D2*
X47414D1*
X114990D2*
X135957D1*
X139090D2*
X147615D1*
X150223D2*
X154322D1*
X159242D2*
X169741D1*
X174640D2*
X188940D1*
X290994D2*
X295025D1*
X298158D2*
X323768D1*
X27251Y154405D2*
X31093D1*
X35903D2*
X70840D1*
X71552D2*
X93859D1*
X94571D2*
X113157D1*
X113869D2*
X146951D1*
X158607D2*
X169870D1*
X174512D2*
X188305D1*
X290369D2*
X323768D1*
X27251Y153773D2*
X31093D1*
X36151D2*
X146633D1*
X157982D2*
X170009D1*
X174373D2*
X187670D1*
X289734D2*
X323768D1*
X27251Y153142D2*
X31093D1*
X36776D2*
X146514D1*
X157347D2*
X169781D1*
X174601D2*
X187045D1*
X289099D2*
X323768D1*
X27251Y152510D2*
X31152D1*
X156712D2*
X169741D1*
X174640D2*
X186410D1*
X288474D2*
X323768D1*
X27251Y151878D2*
X31400D1*
X156087D2*
X169870D1*
X174521D2*
X185775D1*
X287839D2*
X323768D1*
X27251Y151247D2*
X31926D1*
X151324D2*
X170019D1*
X174363D2*
X185150D1*
X287204D2*
X323768D1*
X27251Y150615D2*
X32551D1*
X151324D2*
X156098D1*
X158259D2*
X158797D1*
X160958D2*
X169791D1*
X174591D2*
X184515D1*
X286579D2*
X323768D1*
X151314Y149983D2*
X155503D1*
X161544D2*
X169741D1*
X174640D2*
X183880D1*
X285944D2*
X323768D1*
X161762Y149352D2*
X169860D1*
X174521D2*
X183255D1*
X285309D2*
X323768D1*
X161742Y148720D2*
X170029D1*
X174353D2*
X182620D1*
X284922D2*
X323768D1*
X161494Y148088D2*
X169791D1*
X174591D2*
X181985D1*
X284376D2*
X323768D1*
X161405Y147457D2*
X169741D1*
X174640D2*
X181360D1*
X283414D2*
X323768D1*
X21983Y146825D2*
X23453D1*
X161315D2*
X169731D1*
X174650D2*
X180725D1*
X282789D2*
X323768D1*
X21357Y146193D2*
X23602D1*
X160879D2*
X169731D1*
X174650D2*
X180100D1*
X282154D2*
X323768D1*
X20722Y145562D2*
X23493D1*
X160244D2*
X169731D1*
X174650D2*
X179465D1*
X281529D2*
X323768D1*
X20087Y144930D2*
X23612D1*
X159599D2*
X169731D1*
X174650D2*
X178830D1*
X280894D2*
X323768D1*
X19462Y144298D2*
X24018D1*
X59874D2*
X169731D1*
X174650D2*
X178204D1*
X280259D2*
X323768D1*
X18758Y143667D2*
X29118D1*
X60003D2*
X169731D1*
X174650D2*
X177569D1*
X279634D2*
X323768D1*
X15583Y143035D2*
X28910D1*
X60003D2*
X169731D1*
X174650D2*
X176934D1*
X278999D2*
X323768D1*
X11381Y142403D2*
X28900D1*
X60003D2*
X132802D1*
X278364D2*
X323768D1*
X11381Y141772D2*
X28900D1*
X60003D2*
X132167D1*
X277739D2*
X323768D1*
X11381Y141140D2*
X28979D1*
X60003D2*
X131542D1*
X277104D2*
X323768D1*
X11381Y140508D2*
X29376D1*
X60003D2*
X130907D1*
X276469D2*
X323768D1*
X11381Y139877D2*
X30011D1*
X59864D2*
X130272D1*
X275844D2*
X323768D1*
X11381Y139245D2*
X30299D1*
X59368D2*
X129647D1*
X275209D2*
X323768D1*
X11381Y138613D2*
X30428D1*
X58535D2*
X129012D1*
X274574D2*
X289528D1*
X290895D2*
X323768D1*
X11381Y137982D2*
X30775D1*
X57691D2*
X128377D1*
X199019D2*
X218825D1*
X291748D2*
X323768D1*
X11381Y137350D2*
X12063D1*
X14293D2*
X31341D1*
X56382D2*
X127752D1*
X198384D2*
X218517D1*
X292056D2*
X323768D1*
X15007Y136718D2*
X31549D1*
X56253D2*
X127117D1*
X197887D2*
X218457D1*
X292106D2*
X323768D1*
X15325Y136087D2*
X32125D1*
X55905D2*
X126482D1*
X197887D2*
X218636D1*
X291937D2*
X323768D1*
X15434Y135455D2*
X32988D1*
X44714D2*
X45093D1*
X49843D2*
X52326D1*
X55638D2*
X59301D1*
X61997D2*
X65800D1*
X68496D2*
X125857D1*
X197887D2*
X219122D1*
X291441D2*
X323768D1*
X15345Y134823D2*
X41650D1*
X44714D2*
X45301D1*
X49794D2*
X52326D1*
X56104D2*
X58557D1*
X62732D2*
X65055D1*
X69230D2*
X125222D1*
X197887D2*
X203922D1*
X222514D2*
X227417D1*
X246009D2*
X250912D1*
X269504D2*
X274407D1*
X292999D2*
X323768D1*
X15047Y134192D2*
X41650D1*
X44714D2*
X45301D1*
X49506D2*
X52385D1*
X69608D2*
X124587D1*
X197887D2*
X203287D1*
X222514D2*
X226782D1*
X246009D2*
X250277D1*
X269504D2*
X273772D1*
X292999D2*
X323768D1*
X15325Y133560D2*
X41650D1*
X44714D2*
X45301D1*
X49476D2*
X52732D1*
X69776D2*
X123962D1*
X197887D2*
X203019D1*
X222514D2*
X226514D1*
X246009D2*
X250009D1*
X269504D2*
X273504D1*
X292999D2*
X323768D1*
X15434Y132928D2*
X41650D1*
X44714D2*
X45301D1*
X49476D2*
X53367D1*
X69786D2*
X123327D1*
X197887D2*
X202969D1*
X222514D2*
X226464D1*
X246009D2*
X249959D1*
X269504D2*
X273454D1*
X292999D2*
X323768D1*
X15434Y132297D2*
X41650D1*
X44714D2*
X45301D1*
X49476D2*
X54002D1*
X69637D2*
X122692D1*
X197887D2*
X203108D1*
X222514D2*
X226603D1*
X246009D2*
X250098D1*
X269504D2*
X273593D1*
X292999D2*
X323768D1*
X15434Y131665D2*
X41412D1*
X44952D2*
X45301D1*
X49476D2*
X54925D1*
X69300D2*
X122066D1*
X197887D2*
X203505D1*
X222514D2*
X227000D1*
X246009D2*
X250495D1*
X269504D2*
X273990D1*
X292999D2*
X323768D1*
X15434Y131033D2*
X41273D1*
X49476D2*
X59162D1*
X62126D2*
X65661D1*
X68625D2*
X121431D1*
X197887D2*
X203535D1*
X222514D2*
X227030D1*
X246009D2*
X250525D1*
X269504D2*
X274020D1*
X292999D2*
X323768D1*
X15434Y130402D2*
X41372D1*
X49476D2*
X120796D1*
X197887D2*
X203535D1*
X219398D2*
X227030D1*
X244163D2*
X250525D1*
X267658D2*
X274030D1*
X291153D2*
X323768D1*
X15434Y129770D2*
X41729D1*
X44634D2*
X45301D1*
X49476D2*
X120171D1*
X197887D2*
X203545D1*
X219398D2*
X227040D1*
X244163D2*
X250535D1*
X267658D2*
X274228D1*
X291153D2*
X323768D1*
X15434Y129138D2*
X45301D1*
X49476D2*
X119536D1*
X197887D2*
X203743D1*
X219398D2*
X227238D1*
X244163D2*
X250733D1*
X267658D2*
X274784D1*
X291153D2*
X323768D1*
X15434Y128507D2*
X45073D1*
X49476D2*
X118901D1*
X197887D2*
X204299D1*
X219507D2*
X227794D1*
X244163D2*
X251289D1*
X267658D2*
X275419D1*
X291153D2*
X323768D1*
X11381Y127875D2*
X44815D1*
X49476D2*
X118276D1*
X197887D2*
X204924D1*
X220142D2*
X228419D1*
X244163D2*
X251914D1*
X267658D2*
X276044D1*
X291153D2*
X323768D1*
X11381Y127243D2*
X44785D1*
X49635D2*
X117641D1*
X197887D2*
X199120D1*
X200070D2*
X201441D1*
X221502D2*
X224936D1*
X244997D2*
X248431D1*
X268492D2*
X271926D1*
X291987D2*
X323768D1*
X11381Y126612D2*
X20387D1*
X28829D2*
X44993D1*
X49833D2*
X117006D1*
X222166D2*
X224272D1*
X245661D2*
X247767D1*
X269156D2*
X271262D1*
X292651D2*
X323768D1*
X11381Y125980D2*
X20387D1*
X32182D2*
X45549D1*
X49803D2*
X116381D1*
X222444D2*
X223984D1*
X245939D2*
X247479D1*
X269434D2*
X270974D1*
X292929D2*
X323768D1*
X11381Y125348D2*
X20387D1*
X37232D2*
X46353D1*
X49536D2*
X115746D1*
X222514D2*
X223924D1*
X246098D2*
X247419D1*
X269504D2*
X270914D1*
X292999D2*
X323768D1*
X38066Y124717D2*
X47077D1*
X48811D2*
X115111D1*
X222593D2*
X224053D1*
X246723D2*
X247548D1*
X269900D2*
X271043D1*
X293395D2*
X323768D1*
X38314Y124085D2*
X114486D1*
X223228D2*
X224421D1*
X247358D2*
X247916D1*
X270535D2*
X271411D1*
X294030D2*
X323768D1*
X38483Y123453D2*
X113851D1*
X199912D2*
X201878D1*
X203275D2*
X203723D1*
X223853D2*
X225373D1*
X226770D2*
X227913D1*
X247745D2*
X248868D1*
X250265D2*
X251408D1*
X271160D2*
X272363D1*
X273760D2*
X274903D1*
X294586D2*
X323768D1*
X38493Y122822D2*
X113216D1*
X199286D2*
X204269D1*
X224488D2*
X228300D1*
X247834D2*
X251795D1*
X271557D2*
X275290D1*
X294804D2*
X323768D1*
X38493Y122190D2*
X112591D1*
X198880D2*
X204805D1*
X225054D2*
X228300D1*
X247834D2*
X251795D1*
X271647D2*
X275290D1*
X294824D2*
X323768D1*
X38493Y121558D2*
X111956D1*
X198344D2*
X204805D1*
X225272D2*
X228300D1*
X247834D2*
X251795D1*
X271647D2*
X275290D1*
X294824D2*
X323768D1*
X38493Y120927D2*
X111321D1*
X197887D2*
X204805D1*
X225292D2*
X228300D1*
X247834D2*
X251795D1*
X271647D2*
X275290D1*
X294824D2*
X323768D1*
X38493Y120295D2*
X110696D1*
X197887D2*
X204805D1*
X225292D2*
X228300D1*
X247834D2*
X251795D1*
X271647D2*
X275290D1*
X294824D2*
X323768D1*
X38493Y119663D2*
X110061D1*
X197887D2*
X204805D1*
X225292D2*
X228300D1*
X247834D2*
X251795D1*
X271647D2*
X275290D1*
X294824D2*
X323768D1*
X38493Y119032D2*
X109674D1*
X197887D2*
X204805D1*
X225292D2*
X228300D1*
X247834D2*
X251795D1*
X271647D2*
X275290D1*
X294824D2*
X323768D1*
X38493Y118400D2*
X109605D1*
X197838D2*
X204805D1*
X225292D2*
X228300D1*
X247834D2*
X251795D1*
X271647D2*
X275290D1*
X294824D2*
X323768D1*
X40745Y117768D2*
X43336D1*
X46202D2*
X109605D1*
X197520D2*
X204805D1*
X225292D2*
X228300D1*
X247834D2*
X251795D1*
X271647D2*
X275240D1*
X294824D2*
X323768D1*
X40745Y117137D2*
X42969D1*
X46579D2*
X109605D1*
X196905D2*
X204805D1*
X225292D2*
X228300D1*
X247834D2*
X251795D1*
X271647D2*
X274605D1*
X294824D2*
X323768D1*
X40745Y116505D2*
X42860D1*
X46678D2*
X109605D1*
X196270D2*
X204805D1*
X225292D2*
X228260D1*
X247834D2*
X251755D1*
X271647D2*
X274139D1*
X294824D2*
X323768D1*
X40745Y115873D2*
X42523D1*
X47015D2*
X109605D1*
X195635D2*
X204805D1*
X225143D2*
X227625D1*
X247834D2*
X251120D1*
X271647D2*
X274020D1*
X294824D2*
X323768D1*
X40745Y115242D2*
X42374D1*
X47164D2*
X109605D1*
X195010D2*
X204091D1*
X224677D2*
X227149D1*
X247794D2*
X250644D1*
X271498D2*
X274020D1*
X294784D2*
X323768D1*
X40745Y114610D2*
X42364D1*
X47174D2*
X109605D1*
X194375D2*
X203356D1*
X224042D2*
X226851D1*
X247507D2*
X250346D1*
X271032D2*
X273841D1*
X294497D2*
X323768D1*
X40745Y113978D2*
X42364D1*
X47363D2*
X109605D1*
X193740D2*
X203049D1*
X223416D2*
X226544D1*
X246911D2*
X250039D1*
X270406D2*
X273534D1*
X293901D2*
X323768D1*
X40745Y113347D2*
X42364D1*
X63873D2*
X109605D1*
X193115D2*
X198306D1*
X222781D2*
X226455D1*
X246276D2*
X249950D1*
X269771D2*
X273445D1*
X293266D2*
X323768D1*
X40745Y112715D2*
X42414D1*
X64359D2*
X109605D1*
X192609D2*
X197562D1*
X245899D2*
X250059D1*
X269394D2*
X273554D1*
X292889D2*
X323768D1*
X40745Y112083D2*
X42642D1*
X64597D2*
X109605D1*
X192202D2*
X196927D1*
X245562D2*
X250406D1*
X269057D2*
X273901D1*
X292552D2*
X323768D1*
X40745Y111452D2*
X43138D1*
X64637D2*
X109605D1*
X191220D2*
X196302D1*
X242189D2*
X242984D1*
X244729D2*
X251239D1*
X252984D2*
X253779D1*
X265684D2*
X266479D1*
X268224D2*
X274734D1*
X276479D2*
X277274D1*
X289179D2*
X289974D1*
X291719D2*
X323768D1*
X40745Y110820D2*
X43773D1*
X64508D2*
X109605D1*
X190585D2*
X195667D1*
X240958D2*
X254137D1*
X264453D2*
X277632D1*
X287948D2*
X323768D1*
X40745Y110188D2*
X44408D1*
X64160D2*
X66921D1*
X68347D2*
X109605D1*
X189950D2*
X195032D1*
X199663D2*
X207345D1*
X240333D2*
X254335D1*
X263828D2*
X277830D1*
X287323D2*
X323768D1*
X40745Y109557D2*
X45172D1*
X63426D2*
X65561D1*
X69707D2*
X109605D1*
X189325D2*
X194407D1*
X199038D2*
X207345D1*
X239698D2*
X254335D1*
X263193D2*
X277830D1*
X286688D2*
X323768D1*
X40745Y108925D2*
X64946D1*
X70312D2*
X109605D1*
X188690D2*
X193772D1*
X198403D2*
X207345D1*
X262558D2*
X277830D1*
X286053D2*
X323768D1*
X40745Y108293D2*
X64589D1*
X70679D2*
X109605D1*
X188055D2*
X193137D1*
X197768D2*
X206710D1*
X261933D2*
X277195D1*
X285428D2*
X323768D1*
X40745Y107662D2*
X64391D1*
X70878D2*
X109605D1*
X187430D2*
X192512D1*
X197143D2*
X206075D1*
X261298D2*
X276560D1*
X284793D2*
X323768D1*
X40745Y107030D2*
X64321D1*
X70947D2*
X109605D1*
X186795D2*
X191877D1*
X196508D2*
X205450D1*
X260663D2*
X275935D1*
X284158D2*
X323768D1*
X40745Y106398D2*
X64381D1*
X70887D2*
X109605D1*
X186160D2*
X191242D1*
X195873D2*
X204815D1*
X260038D2*
X275300D1*
X283533D2*
X323768D1*
X40745Y105767D2*
X64569D1*
X70699D2*
X109605D1*
X185535D2*
X190617D1*
X195248D2*
X204180D1*
X259403D2*
X274665D1*
X282898D2*
X323768D1*
X40745Y105135D2*
X64916D1*
X70352D2*
X109605D1*
X184900D2*
X189982D1*
X194613D2*
X203555D1*
X282263D2*
X323768D1*
X40745Y104503D2*
X65502D1*
X69766D2*
X109605D1*
X184265D2*
X189347D1*
X193978D2*
X202920D1*
X281638D2*
X323768D1*
X38493Y103872D2*
X66722D1*
X68546D2*
X109605D1*
X183630D2*
X188722D1*
X193353D2*
X202285D1*
X281003D2*
X323768D1*
X38493Y103240D2*
X109605D1*
X131887D2*
X188087D1*
X192718D2*
X201660D1*
X280368D2*
X323768D1*
X38493Y102608D2*
X109605D1*
X131847D2*
X187452D1*
X192083D2*
X201025D1*
X279743D2*
X323768D1*
X38493Y101977D2*
X109605D1*
X131847D2*
X186827D1*
X191458D2*
X200390D1*
X279108D2*
X323768D1*
X38493Y101345D2*
X109605D1*
X131847D2*
X186192D1*
X190823D2*
X199765D1*
X278473D2*
X323768D1*
X38493Y100713D2*
X109366D1*
X131847D2*
X185557D1*
X190188D2*
X195082D1*
X197381D2*
X199130D1*
X277848D2*
X323768D1*
X36925Y100082D2*
X99534D1*
X131847D2*
X184931D1*
X189563D2*
X194536D1*
X197927D2*
X198495D1*
X235303D2*
X323768D1*
X36925Y99450D2*
X98899D1*
X131847D2*
X184296D1*
X188928D2*
X194337D1*
X234956D2*
X323768D1*
X36925Y98818D2*
X98264D1*
X131847D2*
X183661D1*
X188293D2*
X194377D1*
X234956D2*
X323768D1*
X11381Y98187D2*
X19484D1*
X36925D2*
X41729D1*
X43999D2*
X97639D1*
X131847D2*
X183036D1*
X187668D2*
X194466D1*
X234956D2*
X323768D1*
X11381Y97555D2*
X19484D1*
X36925D2*
X41173D1*
X44555D2*
X97004D1*
X131847D2*
X182401D1*
X187033D2*
X193831D1*
X234956D2*
X323768D1*
X11381Y96923D2*
X19484D1*
X36925D2*
X40975D1*
X44753D2*
X96369D1*
X131847D2*
X181766D1*
X186398D2*
X193206D1*
X234956D2*
X323768D1*
X11381Y96292D2*
X19484D1*
X36925D2*
X40955D1*
X44773D2*
X51760D1*
X131847D2*
X181141D1*
X185773D2*
X192571D1*
X234956D2*
X323768D1*
X11381Y95660D2*
X19484D1*
X28610D2*
X30815D1*
X36826D2*
X40955D1*
X44773D2*
X50976D1*
X131847D2*
X180506D1*
X185138D2*
X191936D1*
X234956D2*
X323768D1*
X11381Y95028D2*
X19375D1*
X28610D2*
X30815D1*
X36826D2*
X40955D1*
X44773D2*
X50341D1*
X131847D2*
X179871D1*
X184503D2*
X191311D1*
X234956D2*
X323768D1*
X11381Y94397D2*
X19286D1*
X28610D2*
X30815D1*
X36826D2*
X40955D1*
X44773D2*
X49706D1*
X131847D2*
X179246D1*
X183878D2*
X190676D1*
X234956D2*
X323768D1*
X11381Y93765D2*
X19425D1*
X27410D2*
X40955D1*
X44773D2*
X49081D1*
X131847D2*
X178611D1*
X183243D2*
X190041D1*
X234956D2*
X323768D1*
X11381Y93133D2*
X19861D1*
X27410D2*
X40955D1*
X44773D2*
X48446D1*
X131847D2*
X177976D1*
X182608D2*
X189416D1*
X234956D2*
X323768D1*
X11381Y92502D2*
X21647D1*
X27410D2*
X40955D1*
X44773D2*
X47811D1*
X131847D2*
X132703D1*
X141482D2*
X177351D1*
X181983D2*
X188781D1*
X234956D2*
X323768D1*
X11381Y91870D2*
X21647D1*
X27410D2*
X40955D1*
X44773D2*
X47186D1*
X141839D2*
X176716D1*
X181348D2*
X188186D1*
X234956D2*
X323768D1*
X11381Y91238D2*
X21647D1*
X27410D2*
X40955D1*
X44773D2*
X46551D1*
X141938D2*
X175446D1*
X180713D2*
X187928D1*
X234956D2*
X323768D1*
X11381Y90607D2*
X21647D1*
X27410D2*
X40955D1*
X44773D2*
X45916D1*
X141809D2*
X174662D1*
X180088D2*
X187908D1*
X234956D2*
X323768D1*
X11381Y89975D2*
X21647D1*
X27410D2*
X40955D1*
X44773D2*
X45291D1*
X141561D2*
X174375D1*
X179453D2*
X187908D1*
X234956D2*
X323768D1*
X11381Y89343D2*
X21647D1*
X27410D2*
X40955D1*
X141561D2*
X174335D1*
X178818D2*
X187908D1*
X234956D2*
X323768D1*
X11381Y88712D2*
X21647D1*
X27410D2*
X40955D1*
X141561D2*
X174523D1*
X178193D2*
X187908D1*
X234956D2*
X323768D1*
X11381Y88080D2*
X21647D1*
X27410D2*
X40955D1*
X141561D2*
X175039D1*
X177419D2*
X187908D1*
X234956D2*
X323768D1*
X11381Y87448D2*
X21647D1*
X27410D2*
X40955D1*
X125299D2*
X125678D1*
X141561D2*
X187908D1*
X234956D2*
X323768D1*
X11381Y86817D2*
X21647D1*
X27410D2*
X40955D1*
X124674D2*
X125678D1*
X141561D2*
X187908D1*
X234956D2*
X323768D1*
X11381Y86185D2*
X21647D1*
X27410D2*
X40955D1*
X124039D2*
X125678D1*
X141561D2*
X187908D1*
X234956D2*
X323768D1*
X11381Y85553D2*
X21647D1*
X27410D2*
X40955D1*
X123404D2*
X125678D1*
X141561D2*
X187908D1*
X234956D2*
X323768D1*
X11381Y84922D2*
X21647D1*
X27410D2*
X40955D1*
X122779D2*
X125678D1*
X141561D2*
X187908D1*
X234956D2*
X323768D1*
X11381Y84290D2*
X21647D1*
X27410D2*
X40955D1*
X122144D2*
X125678D1*
X141561D2*
X187908D1*
X234956D2*
X323768D1*
X11381Y83658D2*
X21647D1*
X27410D2*
X40955D1*
X116429D2*
X125132D1*
X141561D2*
X173015D1*
X174363D2*
X187908D1*
X234956D2*
X323768D1*
X11381Y83027D2*
X21647D1*
X27410D2*
X40955D1*
X115804D2*
X116252D1*
X118096D2*
X124507D1*
X141561D2*
X165445D1*
X175226D2*
X187908D1*
X234956D2*
X323768D1*
X11381Y82395D2*
X21647D1*
X27410D2*
X40955D1*
X141561D2*
X164810D1*
X175533D2*
X187908D1*
X234956D2*
X323768D1*
X11381Y81763D2*
X21647D1*
X27410D2*
X40955D1*
X109067D2*
X115121D1*
X141561D2*
X164175D1*
X175583D2*
X187908D1*
X234956D2*
X323768D1*
X11381Y81132D2*
X21647D1*
X27410D2*
X40955D1*
X109166D2*
X115022D1*
X141561D2*
X153876D1*
X156662D2*
X163540D1*
X175414D2*
X187908D1*
X234956D2*
X323768D1*
X11381Y80500D2*
X21647D1*
X27410D2*
X40955D1*
X109077D2*
X115111D1*
X141561D2*
X153479D1*
X157059D2*
X162915D1*
X174928D2*
X187908D1*
X234956D2*
X323768D1*
X11381Y79868D2*
X21647D1*
X27410D2*
X40955D1*
X108759D2*
X115439D1*
X141531D2*
X153370D1*
X157178D2*
X162280D1*
X166703D2*
X187908D1*
X234956D2*
X323768D1*
X11381Y79237D2*
X21647D1*
X27410D2*
X40955D1*
X109067D2*
X115121D1*
X141224D2*
X153469D1*
X157069D2*
X161655D1*
X166068D2*
X187908D1*
X234956D2*
X323768D1*
X11381Y78605D2*
X21647D1*
X27410D2*
X37363D1*
X40269D2*
X40955D1*
X109166D2*
X115022D1*
X140599D2*
X153469D1*
X156801D2*
X161069D1*
X165433D2*
X187908D1*
X234956D2*
X323768D1*
X11381Y77973D2*
X21647D1*
X27410D2*
X36947D1*
X109077D2*
X115111D1*
X139964D2*
X152874D1*
X156771D2*
X160841D1*
X164808D2*
X165445D1*
X170166D2*
X187908D1*
X234956D2*
X323768D1*
X11381Y77342D2*
X21647D1*
X27410D2*
X36798D1*
X108769D2*
X115429D1*
X139338D2*
X147625D1*
X147995D2*
X150165D1*
X150535D2*
X152636D1*
X156474D2*
X157785D1*
X164173D2*
X164810D1*
X170870D2*
X173015D1*
X173405D2*
X175555D1*
X175945D2*
X178095D1*
X178485D2*
X180635D1*
X185525D2*
X187908D1*
X234956D2*
X323768D1*
X11381Y76710D2*
X21647D1*
X27410D2*
X36867D1*
X109057D2*
X115131D1*
X138703D2*
X146246D1*
X185525D2*
X187908D1*
X234956D2*
X323768D1*
X11381Y76078D2*
X21647D1*
X27410D2*
X37185D1*
X40447D2*
X41441D1*
X109166D2*
X115022D1*
X138068D2*
X145829D1*
X185525D2*
X187908D1*
X234956D2*
X323768D1*
X11381Y75447D2*
X21647D1*
X27410D2*
X34258D1*
X36548D2*
X37969D1*
X39653D2*
X42066D1*
X109087D2*
X115101D1*
X137443D2*
X145661D1*
X185525D2*
X187908D1*
X234956D2*
X323768D1*
X11381Y74815D2*
X21647D1*
X27410D2*
X33653D1*
X37143D2*
X41362D1*
X108779D2*
X115419D1*
X136808D2*
X143776D1*
X166703D2*
X168560D1*
X185525D2*
X187908D1*
X234956D2*
X323768D1*
X11381Y74183D2*
X21647D1*
X27410D2*
X33424D1*
X37381D2*
X40737D1*
X109057D2*
X115131D1*
X119217D2*
X121461D1*
X136173D2*
X143250D1*
X166078D2*
X168808D1*
X185525D2*
X187908D1*
X234956D2*
X323768D1*
X11381Y73552D2*
X21647D1*
X27410D2*
X33405D1*
X37401D2*
X40102D1*
X109166D2*
X115022D1*
X119326D2*
X121610D1*
X135905D2*
X142942D1*
X165443D2*
X169394D1*
X185525D2*
X187908D1*
X234956D2*
X323768D1*
X11381Y72920D2*
X21647D1*
X27410D2*
X33613D1*
X37193D2*
X39467D1*
X109087D2*
X115101D1*
X119247D2*
X122076D1*
X135439D2*
X142317D1*
X164996D2*
X173065D1*
X183382D2*
X187908D1*
X234956D2*
X323768D1*
X11381Y72288D2*
X21647D1*
X27410D2*
X34139D1*
X36667D2*
X38842D1*
X48920D2*
X49766D1*
X108789D2*
X115409D1*
X118949D2*
X141682D1*
X164996D2*
X173065D1*
X184037D2*
X187908D1*
X234956D2*
X323768D1*
X11381Y71657D2*
X21647D1*
X27410D2*
X38207D1*
X42551D2*
X49766D1*
X105574D2*
X105963D1*
X108075D2*
X115141D1*
X119207D2*
X141047D1*
X164996D2*
X173065D1*
X184662D2*
X187908D1*
X234956D2*
X323768D1*
X11381Y71025D2*
X21647D1*
X27410D2*
X37572D1*
X41925D2*
X49766D1*
X64071D2*
X64678D1*
X105068D2*
X115022D1*
X119326D2*
X140422D1*
X164996D2*
X173065D1*
X185138D2*
X187908D1*
X234956D2*
X323768D1*
X11381Y70393D2*
X21647D1*
X27410D2*
X36947D1*
X41290D2*
X49468D1*
X64071D2*
X65313D1*
X105098D2*
X106261D1*
X107777D2*
X115101D1*
X119257D2*
X139787D1*
X164996D2*
X173065D1*
X185287D2*
X187908D1*
X234956D2*
X323768D1*
X11381Y69762D2*
X21647D1*
X27410D2*
X36312D1*
X40655D2*
X48833D1*
X61601D2*
X65948D1*
X104890D2*
X105348D1*
X108680D2*
X115399D1*
X118959D2*
X139152D1*
X164996D2*
X173065D1*
X185287D2*
X187908D1*
X234956D2*
X323768D1*
X11381Y69130D2*
X21647D1*
X27410D2*
X30984D1*
X40030D2*
X48198D1*
X61601D2*
X66573D1*
X109047D2*
X115141D1*
X119207D2*
X138527D1*
X164996D2*
X166606D1*
X185287D2*
X187908D1*
X234956D2*
X323768D1*
X11381Y68498D2*
X21647D1*
X27410D2*
X30140D1*
X39395D2*
X47573D1*
X61601D2*
X67208D1*
X109166D2*
X114972D1*
X164996D2*
X166159D1*
X185336D2*
X187908D1*
X234956D2*
X323768D1*
X11381Y67867D2*
X21756D1*
X27410D2*
X29227D1*
X38760D2*
X47136D1*
X57473D2*
X72219D1*
X109097D2*
X114238D1*
X164996D2*
X165991D1*
X185515D2*
X187908D1*
X234956D2*
X323768D1*
X11381Y67235D2*
X22233D1*
X27410D2*
X29227D1*
X38215D2*
X46998D1*
X142633D2*
X143150D1*
X164996D2*
X166010D1*
X185485D2*
X187908D1*
X234956D2*
X323768D1*
X11381Y66603D2*
X22858D1*
X27936D2*
X29227D1*
X37947D2*
X46988D1*
X142007D2*
X143389D1*
X164877D2*
X166249D1*
X185257D2*
X187908D1*
X234956D2*
X323768D1*
X11381Y65972D2*
X23493D1*
X28561D2*
X29227D1*
X37877D2*
X39645D1*
X41320D2*
X46988D1*
X141372D2*
X143934D1*
X164391D2*
X166794D1*
X184711D2*
X187908D1*
X234956D2*
X323768D1*
X11381Y65340D2*
X24128D1*
X38086D2*
X38901D1*
X42064D2*
X46988D1*
X140737D2*
X146177D1*
X164173D2*
X187908D1*
X234956D2*
X323768D1*
X11381Y64708D2*
X24753D1*
X42342D2*
X46998D1*
X118969D2*
X119834D1*
X139715D2*
X146157D1*
X164322D2*
X187908D1*
X234956D2*
X323768D1*
X11381Y64077D2*
X25388D1*
X42372D2*
X47127D1*
X119197D2*
X146157D1*
X164242D2*
X176041D1*
X181338D2*
X187908D1*
X234956D2*
X323768D1*
X11381Y63445D2*
X26023D1*
X119326D2*
X146157D1*
X163905D2*
X169354D1*
X173261D2*
X175387D1*
X181993D2*
X187908D1*
X234956D2*
X323768D1*
X11381Y62813D2*
X26648D1*
X119267D2*
X146157D1*
X162933D2*
X168729D1*
X174343D2*
X174841D1*
X186001D2*
X187908D1*
X234956D2*
X323768D1*
X11381Y62182D2*
X27283D1*
X118979D2*
X146157D1*
X162665D2*
X168362D1*
X186001D2*
X187908D1*
X234956D2*
X323768D1*
X11381Y61550D2*
X27918D1*
X119187D2*
X136175D1*
X138872D2*
X145790D1*
X162665D2*
X168292D1*
X186001D2*
X187908D1*
X234956D2*
X295243D1*
X297940D2*
X323768D1*
X11381Y60918D2*
X28563D1*
X119326D2*
X135272D1*
X139785D2*
X145661D1*
X162665D2*
X168292D1*
X186001D2*
X187908D1*
X234956D2*
X294340D1*
X298852D2*
X323768D1*
X11381Y60287D2*
X35786D1*
X41261D2*
X49627D1*
X119267D2*
X134786D1*
X140261D2*
X145720D1*
X162665D2*
X168292D1*
X186001D2*
X187908D1*
X234956D2*
X293854D1*
X299329D2*
X323768D1*
X11381Y59655D2*
X35508D1*
X41539D2*
X49547D1*
X118989D2*
X134508D1*
X140539D2*
X145998D1*
X162665D2*
X168263D1*
X186001D2*
X187908D1*
X234956D2*
X293576D1*
X299607D2*
X323768D1*
X11381Y59023D2*
X35379D1*
X41668D2*
X49686D1*
X119187D2*
X134380D1*
X140668D2*
X146226D1*
X162665D2*
X167638D1*
X186001D2*
X187908D1*
X234956D2*
X293447D1*
X299735D2*
X323768D1*
X11381Y58392D2*
X35389D1*
X41658D2*
X49865D1*
X119326D2*
X134389D1*
X140658D2*
X146226D1*
X161048D2*
X165098D1*
X234956D2*
X293457D1*
X299726D2*
X323768D1*
X11381Y57760D2*
X35528D1*
X41519D2*
X49994D1*
X119267D2*
X134528D1*
X140519D2*
X146226D1*
X234956D2*
X293596D1*
X299587D2*
X323768D1*
X11381Y57128D2*
X35816D1*
X41231D2*
X50024D1*
X118999D2*
X134816D1*
X140231D2*
X146266D1*
X234956D2*
X293884D1*
X299299D2*
X323768D1*
X11381Y56497D2*
X36332D1*
X40715D2*
X50153D1*
X67087D2*
X67883D1*
X119177D2*
X135332D1*
X139715D2*
X146583D1*
X234956D2*
X294400D1*
X298783D2*
X323768D1*
X11381Y55865D2*
X37314D1*
X39733D2*
X50579D1*
X67306D2*
X68518D1*
X119326D2*
X136314D1*
X138733D2*
X147208D1*
X234956D2*
X295382D1*
X297801D2*
X323768D1*
X11381Y55233D2*
X51433D1*
X67286D2*
X69143D1*
X119276D2*
X144778D1*
X145768D2*
X147318D1*
X234956D2*
X323768D1*
X11381Y54602D2*
X51691D1*
X67028D2*
X69778D1*
X119009D2*
X143666D1*
X234956D2*
X323768D1*
X11381Y53970D2*
X52375D1*
X54229D2*
X55600D1*
X63446D2*
X64490D1*
X66343D2*
X70413D1*
X119177D2*
X143270D1*
X234956D2*
X323768D1*
X11381Y53338D2*
X57207D1*
X63446D2*
X71038D1*
X119326D2*
X143121D1*
X234956D2*
X323768D1*
X11381Y52707D2*
X57207D1*
X63446D2*
X71673D1*
X119276D2*
X143170D1*
X234956D2*
X323768D1*
X11381Y52075D2*
X57207D1*
X63446D2*
X72308D1*
X119018D2*
X143438D1*
X234956D2*
X323768D1*
X11381Y51443D2*
X57108D1*
X63446D2*
X72933D1*
X119167D2*
X144043D1*
X161732D2*
X165177D1*
X234956D2*
X323768D1*
X11381Y50812D2*
X56860D1*
X63446D2*
X73499D1*
X119326D2*
X165812D1*
X234956D2*
X323768D1*
X11381Y50180D2*
X56860D1*
X63446D2*
X73291D1*
X119276D2*
X166437D1*
X234956D2*
X323768D1*
X11381Y49548D2*
X57088D1*
X63446D2*
X73281D1*
X119028D2*
X167072D1*
X234956D2*
X323768D1*
X11381Y48917D2*
X57713D1*
X63446D2*
X73281D1*
X119167D2*
X167697D1*
X234956D2*
X323768D1*
X11381Y48285D2*
X58299D1*
X63446D2*
X73281D1*
X119326D2*
X182104D1*
X234956D2*
X323768D1*
X11381Y47653D2*
X59003D1*
X63754D2*
X73281D1*
X119286D2*
X182104D1*
X234956D2*
X323768D1*
X11381Y47022D2*
X59380D1*
X63823D2*
X73281D1*
X119326D2*
X182104D1*
X234956D2*
X323768D1*
X11381Y46390D2*
X60174D1*
X63654D2*
X73420D1*
X119326D2*
X182104D1*
X234956D2*
X323768D1*
X11381Y45758D2*
X60650D1*
X63188D2*
X73896D1*
X119326D2*
X182104D1*
X234956D2*
X323768D1*
X11381Y45127D2*
X74402D1*
X119326D2*
X182104D1*
X234956D2*
X323768D1*
X11381Y44495D2*
X74600D1*
X119326D2*
X182104D1*
X234956D2*
X323768D1*
X11381Y43863D2*
X74630D1*
X119326D2*
X182104D1*
X234956D2*
X323768D1*
X11381Y43232D2*
X74630D1*
X115903D2*
X182104D1*
X234956D2*
X323768D1*
X11381Y42600D2*
X74630D1*
X115903D2*
X172976D1*
X175672D2*
X182104D1*
X234956D2*
X323768D1*
X11381Y41968D2*
X74630D1*
X115903D2*
X172549D1*
X176099D2*
X182104D1*
X234956D2*
X323768D1*
X11381Y41337D2*
X74630D1*
X115903D2*
X172420D1*
X176228D2*
X182104D1*
X234956D2*
X323768D1*
X11381Y40705D2*
X74630D1*
X115903D2*
X172509D1*
X176139D2*
X182104D1*
X234956D2*
X323768D1*
X11381Y40073D2*
X74630D1*
X115903D2*
X172737D1*
X175901D2*
X182104D1*
X234956D2*
X323768D1*
X11381Y39442D2*
X74630D1*
X115903D2*
X172737D1*
X175901D2*
X182104D1*
X234956D2*
X323768D1*
X11381Y38810D2*
X74630D1*
X116141D2*
X172737D1*
X175901D2*
X182104D1*
X234956D2*
X323768D1*
X11381Y38178D2*
X74630D1*
X116220D2*
X172737D1*
X175901D2*
X182104D1*
X234956D2*
X323768D1*
X11381Y37547D2*
X74630D1*
X116082D2*
X172737D1*
X175901D2*
X182104D1*
X238418D2*
X323768D1*
X11381Y36915D2*
X74630D1*
X115645D2*
X132931D1*
X175901D2*
X182262D1*
X239113D2*
X323768D1*
X11381Y36283D2*
X74630D1*
X115496D2*
X132187D1*
X175891D2*
X182431D1*
X239371D2*
X323768D1*
X11381Y35652D2*
X74630D1*
X115585D2*
X131562D1*
X175633D2*
X182431D1*
X239391D2*
X323768D1*
X11381Y35020D2*
X74630D1*
X115457D2*
X130927D1*
X175037D2*
X182431D1*
X239182D2*
X323768D1*
X11381Y34388D2*
X74630D1*
X115407D2*
X130292D1*
X174392D2*
X182431D1*
X239103D2*
X323768D1*
X11381Y33757D2*
X74630D1*
X115992D2*
X117810D1*
X120318D2*
X129667D1*
X134080D2*
X182431D1*
X239371D2*
X323768D1*
X11381Y33125D2*
X74630D1*
X116201D2*
X117036D1*
X120904D2*
X129032D1*
X133455D2*
X182431D1*
X239391D2*
X323768D1*
X11381Y32493D2*
X74630D1*
X121122D2*
X128407D1*
X132820D2*
X182431D1*
X239182D2*
X323768D1*
X11381Y31862D2*
X74630D1*
X121102D2*
X127772D1*
X132185D2*
X182431D1*
X239093D2*
X323768D1*
X11381Y31230D2*
X74630D1*
X120844D2*
X127137D1*
X131560D2*
X182431D1*
X239371D2*
X323768D1*
X11381Y30598D2*
X74630D1*
X120159D2*
X126511D1*
X130925D2*
X182431D1*
X239391D2*
X323768D1*
X11381Y29967D2*
X74630D1*
X118790D2*
X125876D1*
X130290D2*
X182431D1*
X239192D2*
X323768D1*
X11381Y29335D2*
X74630D1*
X129665D2*
X182431D1*
X239083D2*
X323768D1*
X11381Y28703D2*
X74630D1*
X129030D2*
X182431D1*
X239361D2*
X323768D1*
X11381Y28072D2*
X74630D1*
X128395D2*
X182431D1*
X239401D2*
X323768D1*
X11381Y27440D2*
X74630D1*
X127770D2*
X183146D1*
X239202D2*
X323768D1*
X11381Y26808D2*
X74154D1*
X127085D2*
X182997D1*
X238656D2*
X323768D1*
X11381Y26177D2*
X73767D1*
X118622D2*
X182897D1*
X238289D2*
X323768D1*
X11381Y25545D2*
X73668D1*
X118562D2*
X182897D1*
X238289D2*
X323768D1*
X11381Y24913D2*
X40459D1*
X41826D2*
X73668D1*
X118284D2*
X182897D1*
X235204D2*
X323768D1*
X11381Y24282D2*
X20853D1*
X60906D2*
X73668D1*
X118284D2*
X182897D1*
X232048D2*
X323768D1*
X11381Y23650D2*
X20199D1*
X61720D2*
X73668D1*
X118284D2*
X182897D1*
X231741D2*
X323768D1*
X11381Y23018D2*
X20199D1*
X61720D2*
X73668D1*
X118284D2*
X182897D1*
X230858D2*
X323768D1*
X11381Y22387D2*
X20199D1*
X61720D2*
X73747D1*
X118284D2*
X182897D1*
X230322D2*
X323768D1*
X11381Y21755D2*
X20199D1*
X61720D2*
X74094D1*
X118284D2*
X182897D1*
X230322D2*
X323768D1*
X11381Y21123D2*
X20199D1*
X61720D2*
X74709D1*
X118284D2*
X182897D1*
X230322D2*
X323768D1*
X11381Y20492D2*
X20199D1*
X61720D2*
X75344D1*
X118284D2*
X123545D1*
X165463D2*
X182917D1*
X230322D2*
X323768D1*
X11381Y19860D2*
X20199D1*
X62265D2*
X75503D1*
X118284D2*
X123078D1*
X165463D2*
X183146D1*
X230322D2*
X323768D1*
X11381Y19228D2*
X20080D1*
X62265D2*
X76614D1*
X118443D2*
X122880D1*
X165463D2*
X183701D1*
X230322D2*
X323768D1*
X11381Y18597D2*
X19752D1*
X62265D2*
X76446D1*
X118612D2*
X122870D1*
X165463D2*
X184336D1*
X230322D2*
X323768D1*
X11381Y17965D2*
X19653D1*
X62265D2*
X76495D1*
X118572D2*
X123059D1*
X165463D2*
X184971D1*
X230322D2*
X323768D1*
X11381Y17333D2*
X19742D1*
X62265D2*
X76763D1*
X118840D2*
X123505D1*
X165463D2*
X187541D1*
X230322D2*
X323768D1*
X11381Y16702D2*
X19752D1*
X62265D2*
X76793D1*
X118840D2*
X160950D1*
X165463D2*
X188573D1*
X230550D2*
X323768D1*
X11381Y16070D2*
X12023D1*
X15603D2*
X19752D1*
X62265D2*
X76396D1*
X118840D2*
X154273D1*
X157853D2*
X188474D1*
X230659D2*
X319393D1*
X322973D2*
X323768D1*
X16208Y15438D2*
X19752D1*
X62166D2*
X76237D1*
X118840D2*
X153668D1*
X158458D2*
X188573D1*
X230550D2*
X318787D1*
X16535Y14807D2*
X19752D1*
X62166D2*
X76267D1*
X118840D2*
X153340D1*
X158795D2*
X188861D1*
X230868D2*
X318460D1*
X16694Y14175D2*
X19752D1*
X62166D2*
X76505D1*
X118840D2*
X153181D1*
X158944D2*
X188672D1*
X230868D2*
X318301D1*
X16704Y13543D2*
X19752D1*
X62166D2*
X77031D1*
X118840D2*
X153172D1*
X158954D2*
X188355D1*
X230868D2*
X318291D1*
X16575Y12912D2*
X19752D1*
X62166D2*
X153301D1*
X158825D2*
X188255D1*
X230868D2*
X318420D1*
X16268Y12280D2*
X19752D1*
X62166D2*
X153608D1*
X158527D2*
X188345D1*
X230868D2*
X318728D1*
X15722Y11648D2*
X19752D1*
X62166D2*
X154154D1*
X157972D2*
X188642D1*
X230868D2*
X319274D1*
X70865Y106689D2*
X70742Y106068D1*
X70500Y105481D1*
X70149Y104953D1*
X69702Y104504D1*
X69177Y104149D1*
X68592Y103904D1*
X67971Y103776D1*
X67337Y103772D1*
X66714Y103891D1*
X66127Y104129D1*
X65596Y104476D1*
X65143Y104920D1*
X64785Y105443D1*
X64536Y106026D1*
X64404Y106646D1*
X64396Y107280D1*
X64511Y107904D1*
X64745Y108493D1*
X65088Y109026D1*
X65529Y109481D1*
X66050Y109843D1*
X66631Y110096D1*
X67250Y110232D1*
X67884Y110245D1*
X68508Y110134D1*
X69099Y109904D1*
X69634Y109564D1*
X70093Y109126D1*
X70458Y108608D1*
X70715Y108028D1*
X70855Y107410D1*
X70880Y107006D1*
X70865Y106689D1*
X36761Y96285D2*
Y93800D1*
X30875D1*
Y96290D1*
X30613Y96294D1*
X28555Y96287D1*
X28549Y95227D1*
Y93917D1*
X27345D1*
Y67127D1*
X29279Y65195D1*
X29284Y65912D1*
X29287Y67979D1*
X29753D1*
X30011Y68302D1*
X30466Y68759D1*
X30711Y68959D1*
X30991Y69108D1*
X31295Y69197D1*
X31592Y69225D1*
X35432D1*
X35629Y69326D1*
X36057Y69444D1*
X41404Y74792D1*
X41650Y74991D1*
X41933Y75133D1*
X42223Y75210D1*
X42295Y75281D1*
X41562Y76014D1*
X41357Y76257D1*
X41198Y76531D1*
X41088Y76828D1*
X41023Y77242D1*
X41022Y96687D1*
X41049Y97003D1*
X41130Y97309D1*
X41263Y97597D1*
X41442Y97858D1*
X41664Y98085D1*
X41922Y98270D1*
X42207Y98408D1*
X42512Y98495D1*
X42827Y98529D1*
X43144Y98508D1*
X43452Y98433D1*
X43743Y98307D1*
X44007Y98132D1*
X44238Y97915D1*
X44429Y97661D1*
X44573Y97379D1*
X44666Y97076D1*
X44708Y96687D1*
X44707Y89205D1*
X44891Y89503D1*
X45900Y90525D1*
X51353Y95978D1*
X51600Y96177D1*
X51883Y96318D1*
X52225Y96399D1*
X53661Y96408D1*
X95918D1*
X99618Y100106D1*
X99865Y100305D1*
X100149Y100446D1*
X100490Y100527D1*
X101926Y100536D1*
X109258D1*
X109661Y100941D1*
X109666Y104783D1*
Y118596D1*
X109701Y118911D1*
X109802Y119212D1*
X109986Y119510D1*
X110994Y120532D1*
X132959Y142497D1*
X133206Y142695D1*
X133490Y142836D1*
X133831Y142917D1*
X135267Y142927D1*
X169805D1*
X169799Y145502D1*
X169809Y147431D1*
X169801Y147680D1*
X169835Y147996D1*
X169911Y148304D1*
X170027Y148599D1*
X170167Y148850D1*
X169948Y149285D1*
X169858Y149590D1*
X169808Y149903D1*
X169801Y150220D1*
X169835Y150536D1*
X169911Y150844D1*
X170027Y151139D1*
X170167Y151390D1*
X169948Y151825D1*
X169858Y152130D1*
X169808Y152443D1*
X169801Y152760D1*
X169835Y153076D1*
X169911Y153384D1*
X170027Y153679D1*
X170167Y153930D1*
X169948Y154365D1*
X169858Y154670D1*
X169808Y154983D1*
X169801Y155300D1*
X169835Y155616D1*
X169911Y155924D1*
X170027Y156219D1*
X170167Y156470D1*
X169948Y156905D1*
X169858Y157210D1*
X169808Y157523D1*
X169801Y157840D1*
X169835Y158156D1*
X169911Y158464D1*
X170027Y158759D1*
X170167Y159010D1*
X169948Y159445D1*
X169858Y159750D1*
X169808Y160063D1*
X169801Y160380D1*
X169835Y160696D1*
X169911Y161004D1*
X170027Y161299D1*
X170167Y161550D1*
X169948Y161985D1*
X169858Y162290D1*
X169808Y162603D1*
X169801Y162920D1*
X169835Y163236D1*
X169911Y163544D1*
X170027Y163839D1*
X170167Y164090D1*
X169948Y164525D1*
X169858Y164830D1*
X169808Y165143D1*
X169801Y165460D1*
X169835Y165776D1*
X169911Y166084D1*
X170027Y166379D1*
X170167Y166630D1*
X169948Y167065D1*
X169858Y167370D1*
X169808Y167683D1*
X169801Y168000D1*
X169835Y168316D1*
X169911Y168624D1*
X170027Y168919D1*
X170167Y169170D1*
X169948Y169605D1*
X169858Y169910D1*
X169808Y170223D1*
X169801Y170540D1*
X169835Y170856D1*
X169911Y171164D1*
X170027Y171459D1*
X170167Y171710D1*
X169948Y172145D1*
X169858Y172450D1*
X169808Y172763D1*
X169801Y173080D1*
X169835Y173396D1*
X169911Y173704D1*
X170027Y173999D1*
X170167Y174250D1*
X169948Y174685D1*
X169858Y174990D1*
X169808Y175303D1*
X169801Y175620D1*
X169835Y175936D1*
X169911Y176244D1*
X170027Y176539D1*
X170167Y176790D1*
X169948Y177225D1*
X169858Y177530D1*
X169808Y177843D1*
X169801Y178160D1*
X169835Y178476D1*
X169911Y178784D1*
X170027Y179079D1*
X170167Y179330D1*
X169948Y179765D1*
X169858Y180070D1*
X169808Y180383D1*
X169801Y180700D1*
X169835Y181016D1*
X169911Y181324D1*
X170027Y181619D1*
X170167Y181870D1*
X169948Y182305D1*
X169858Y182610D1*
X169808Y182923D1*
X169801Y183240D1*
X169835Y183556D1*
X169911Y183864D1*
X170027Y184159D1*
X170182Y184436D1*
X170371Y184691D1*
X170592Y184918D1*
X170842Y185114D1*
X171115Y185275D1*
X171408Y185399D1*
X171713Y185482D1*
X172028Y185525D1*
X172345Y185526D1*
X172660Y185484D1*
X172966Y185402D1*
X173259Y185279D1*
X173533Y185119D1*
X173783Y184925D1*
X174006Y184698D1*
X174196Y184445D1*
X174351Y184168D1*
X174469Y183873D1*
X174546Y183565D1*
X174584Y183138D1*
X174563Y182821D1*
X174501Y182510D1*
X174397Y182210D1*
X174216Y181869D1*
X174351Y181628D1*
X174469Y181333D1*
X174546Y181025D1*
X174584Y180598D1*
X174563Y180281D1*
X174501Y179970D1*
X174397Y179670D1*
X174216Y179329D1*
X174351Y179088D1*
X174469Y178793D1*
X174546Y178485D1*
X174584Y178058D1*
X174563Y177741D1*
X174501Y177430D1*
X174397Y177130D1*
X174216Y176789D1*
X174351Y176548D1*
X174469Y176253D1*
X174546Y175945D1*
X174584Y175518D1*
X174563Y175201D1*
X174501Y174890D1*
X174397Y174590D1*
X174216Y174249D1*
X174351Y174008D1*
X174469Y173713D1*
X174546Y173405D1*
X174584Y172978D1*
X174563Y172661D1*
X174501Y172350D1*
X174397Y172050D1*
X174216Y171709D1*
X174351Y171468D1*
X174469Y171173D1*
X174546Y170865D1*
X174584Y170438D1*
X174563Y170121D1*
X174501Y169810D1*
X174397Y169510D1*
X174216Y169169D1*
X174351Y168928D1*
X174469Y168633D1*
X174546Y168325D1*
X174584Y167898D1*
X174563Y167581D1*
X174501Y167270D1*
X174397Y166970D1*
X174216Y166629D1*
X174351Y166388D1*
X174469Y166093D1*
X174546Y165785D1*
X174584Y165358D1*
X174563Y165041D1*
X174501Y164730D1*
X174397Y164430D1*
X174216Y164089D1*
X174351Y163848D1*
X174469Y163553D1*
X174546Y163245D1*
X174584Y162818D1*
X174563Y162501D1*
X174501Y162190D1*
X174397Y161890D1*
X174216Y161549D1*
X174351Y161308D1*
X174469Y161013D1*
X174546Y160705D1*
X174584Y160278D1*
X174563Y159961D1*
X174501Y159650D1*
X174397Y159350D1*
X174216Y159009D1*
X174351Y158768D1*
X174469Y158473D1*
X174546Y158165D1*
X174584Y157738D1*
X174563Y157421D1*
X174501Y157110D1*
X174397Y156810D1*
X174216Y156469D1*
X174351Y156228D1*
X174469Y155933D1*
X174546Y155625D1*
X174584Y155198D1*
X174563Y154881D1*
X174501Y154570D1*
X174397Y154270D1*
X174216Y153929D1*
X174351Y153688D1*
X174469Y153393D1*
X174546Y153085D1*
X174584Y152658D1*
X174563Y152341D1*
X174501Y152030D1*
X174397Y151730D1*
X174216Y151389D1*
X174351Y151148D1*
X174469Y150853D1*
X174546Y150545D1*
X174584Y150118D1*
X174563Y149801D1*
X174501Y149490D1*
X174397Y149190D1*
X174216Y148849D1*
X174351Y148608D1*
X174469Y148313D1*
X174546Y148005D1*
X174584Y147578D1*
Y142936D1*
X175589Y142927D1*
X176889D1*
X189797Y155833D1*
X190044Y156032D1*
X190328Y156173D1*
X190669Y156254D1*
X192105Y156263D1*
X194873D1*
X194708Y156619D1*
X194608Y156921D1*
X194540Y157231D1*
X194505Y157546D1*
X194501Y157864D1*
X194530Y158180D1*
X194592Y158491D1*
X194685Y158794D1*
X194808Y159087D1*
X194961Y159365D1*
X195142Y159626D1*
X195348Y159867D1*
X195578Y160086D1*
X195829Y160279D1*
X196099Y160447D1*
X196385Y160585D1*
X196683Y160694D1*
X196990Y160772D1*
X197304Y160817D1*
X197622Y160830D1*
X197938Y160811D1*
X198251Y160759D1*
X198558Y160676D1*
X198854Y160561D1*
X199136Y160417D1*
X199403Y160245D1*
X199650Y160046D1*
X199876Y159823D1*
X200078Y159578D1*
X200253Y159313D1*
X200400Y159032D1*
X200518Y158738D1*
X200605Y158432D1*
X200661Y158120D1*
X200684Y157738D1*
X200668Y157421D1*
X200619Y157107D1*
X200539Y156800D1*
X200308Y156263D1*
X207057D1*
X208359Y157566D1*
X204330Y157564D1*
X204015Y157597D1*
X203714Y157695D1*
X203508Y157806D1*
X203257Y158009D1*
X201828Y159437D1*
X201629Y159684D1*
X201485Y159966D1*
X201418Y160190D1*
X201384Y160511D1*
Y170196D1*
X201417Y170511D1*
X201514Y170812D1*
X201625Y171017D1*
X201828Y171269D1*
X206115Y175556D1*
X206361Y175755D1*
X206643Y175899D1*
X206867Y175966D1*
X207188Y176000D1*
X219900Y176005D1*
X224087Y180198D1*
Y181240D1*
X223786Y181501D1*
X223585Y181746D1*
X223418Y182016D1*
X223288Y182305D1*
X223198Y182610D1*
X223148Y182923D1*
X223141Y183240D1*
X223175Y183556D1*
X223251Y183864D1*
X223367Y184159D1*
X223522Y184436D1*
X223711Y184691D1*
X223932Y184918D1*
X224182Y185114D1*
X224455Y185275D1*
X224748Y185399D1*
X225053Y185482D1*
X225368Y185525D1*
X225685Y185526D1*
X226000Y185484D1*
X226306Y185402D1*
X226599Y185279D1*
X226796Y185164D1*
X227288Y185399D1*
X227593Y185482D1*
X227908Y185525D1*
X228225Y185526D1*
X228540Y185484D1*
X228846Y185402D1*
X229139Y185279D1*
X229336Y185164D1*
X229828Y185399D1*
X230133Y185482D1*
X230448Y185525D1*
X230765Y185526D1*
X231080Y185484D1*
X231386Y185402D1*
X231679Y185279D1*
X231876Y185164D1*
X232368Y185399D1*
X232673Y185482D1*
X232988Y185525D1*
X233305Y185526D1*
X233620Y185484D1*
X233926Y185402D1*
X234219Y185279D1*
X234416Y185164D1*
X234908Y185399D1*
X235213Y185482D1*
X235528Y185525D1*
X235845Y185526D1*
X236160Y185484D1*
X236466Y185402D1*
X236759Y185279D1*
X236956Y185164D1*
X237448Y185399D1*
X237753Y185482D1*
X238068Y185525D1*
X238385Y185526D1*
X238700Y185484D1*
X239006Y185402D1*
X239299Y185279D1*
X239496Y185164D1*
X239988Y185399D1*
X240293Y185482D1*
X240608Y185525D1*
X240925Y185526D1*
X241240Y185484D1*
X241546Y185402D1*
X241839Y185279D1*
X242036Y185164D1*
X242528Y185399D1*
X242833Y185482D1*
X243148Y185525D1*
X243465Y185526D1*
X243780Y185484D1*
X244086Y185402D1*
X244379Y185279D1*
X244576Y185164D1*
X245068Y185399D1*
X245373Y185482D1*
X245688Y185525D1*
X246005Y185526D1*
X246320Y185484D1*
X246626Y185402D1*
X246919Y185279D1*
X247116Y185164D1*
X247608Y185399D1*
X247913Y185482D1*
X248228Y185525D1*
X248545Y185526D1*
X248860Y185484D1*
X249166Y185402D1*
X249459Y185279D1*
X249656Y185164D1*
X250148Y185399D1*
X250453Y185482D1*
X250768Y185525D1*
X251085Y185526D1*
X251400Y185484D1*
X251706Y185402D1*
X251999Y185279D1*
X252196Y185164D1*
X252688Y185399D1*
X252993Y185482D1*
X253308Y185525D1*
X253625Y185526D1*
X253940Y185484D1*
X254246Y185402D1*
X254539Y185279D1*
X254736Y185164D1*
X255228Y185399D1*
X255533Y185482D1*
X255848Y185525D1*
X256165Y185526D1*
X256480Y185484D1*
X256786Y185402D1*
X257079Y185279D1*
X257276Y185164D1*
X257768Y185399D1*
X258073Y185482D1*
X258388Y185525D1*
X258705Y185526D1*
X259020Y185484D1*
X259326Y185402D1*
X259619Y185279D1*
X259816Y185164D1*
X260308Y185399D1*
X260613Y185482D1*
X260928Y185525D1*
X264096Y185531D1*
X266024D1*
Y180745D1*
X265300D1*
X266564Y179490D1*
X281491Y179493D1*
X281806Y179460D1*
X282108Y179362D1*
X282313Y179251D1*
X282564Y179048D1*
X288121Y173492D1*
X288321Y173245D1*
X288465Y172963D1*
X288531Y172739D1*
X288566Y172418D1*
Y170722D1*
X291667Y170721D1*
Y166535D1*
X290427D1*
X293240Y163722D1*
X293441Y163476D1*
X293589Y163196D1*
X293679Y162892D1*
X293707Y162595D1*
Y158855D1*
X293961Y159365D1*
X294142Y159626D1*
X294348Y159867D1*
X294578Y160086D1*
X294829Y160279D1*
X295099Y160447D1*
X295385Y160585D1*
X295683Y160694D1*
X295990Y160772D1*
X296304Y160817D1*
X296622Y160830D1*
X296938Y160811D1*
X297251Y160759D1*
X297558Y160676D1*
X297854Y160561D1*
X298136Y160417D1*
X298403Y160245D1*
X298650Y160046D1*
X298876Y159823D1*
X299078Y159578D1*
X299253Y159313D1*
X299400Y159032D1*
X299518Y158738D1*
X299605Y158432D1*
X299661Y158120D1*
X299684Y157738D1*
X299668Y157421D1*
X299619Y157107D1*
X299539Y156800D1*
X299427Y156503D1*
X299286Y156219D1*
X299116Y155951D1*
X298920Y155702D1*
X298699Y155474D1*
X298456Y155270D1*
X298193Y155092D1*
X297913Y154942D1*
X297620Y154821D1*
X297316Y154731D1*
X297004Y154672D1*
X296687Y154646D1*
X296370Y154653D1*
X296055Y154692D1*
X295746Y154763D1*
X295445Y154865D1*
X295157Y154998D1*
X294884Y155159D1*
X294629Y155348D1*
X294394Y155561D1*
X294182Y155798D1*
X293996Y156055D1*
X293838Y156330D1*
X293708Y156619D1*
X293608Y156921D1*
X293540Y157231D1*
X293503Y157695D1*
X293431Y157571D1*
X293240Y157341D1*
X285011Y149112D1*
X284826Y148667D1*
X284646Y148406D1*
X284424Y148179D1*
X284167Y147994D1*
X283882Y147856D1*
X283701Y147804D1*
X274508Y138609D1*
X274254Y138403D1*
X275922Y138396D1*
X289167D1*
X289482Y138571D1*
X289783Y138671D1*
X290097Y138717D1*
X290414Y138709D1*
X290725Y138647D1*
X291021Y138532D1*
X291292Y138369D1*
X291532Y138161D1*
X291732Y137915D1*
X291888Y137639D1*
X291993Y137340D1*
X292052Y136878D1*
X292025Y136562D1*
X291944Y136255D1*
X291811Y135967D1*
X291631Y135706D1*
X291409Y135479D1*
X291152Y135294D1*
X290875Y135160D1*
X292937Y135161D1*
Y130975D1*
X291101D1*
X291092Y129575D1*
Y127521D1*
X291450Y127451D1*
X291746Y127336D1*
X292021Y127178D1*
X292269Y126981D1*
X292484Y126748D1*
X292662Y126485D1*
X292798Y126198D1*
X292889Y125894D1*
X292937Y125448D1*
X292914Y125141D1*
X294264Y123787D1*
X294466Y123543D1*
X294619Y123265D1*
X294718Y122964D1*
X294759Y122590D1*
Y115605D1*
X294730Y115290D1*
X294642Y114985D1*
X294498Y114702D1*
X294264Y114408D1*
X292910Y113054D1*
X292841Y112757D1*
X292724Y112463D1*
X292563Y112189D1*
X292363Y111943D1*
X292128Y111730D1*
X291864Y111555D1*
X291576Y111422D1*
X291271Y111334D1*
X290956Y111293D1*
X290639Y111300D1*
X290327Y111355D1*
X290026Y111456D1*
X289745Y111602D1*
X289576Y111724D1*
X289324Y111555D1*
X289036Y111422D1*
X288731Y111334D1*
X288307Y111295D1*
X288107Y111039D1*
X277673Y100605D1*
X277427Y100405D1*
X277144Y100261D1*
X276921Y100195D1*
X276600Y100160D1*
X235314Y100156D1*
X234894Y99730D1*
Y37570D1*
X236698Y37573D1*
X237078Y37706D1*
X237392Y37752D1*
X237709Y37744D1*
X238020Y37682D1*
X238316Y37567D1*
X238587Y37404D1*
X238827Y37196D1*
X239027Y36950D1*
X239183Y36674D1*
X239288Y36375D1*
X239347Y35913D1*
X239320Y35597D1*
X239239Y35290D1*
X239106Y35002D1*
X238836Y34649D1*
X239027Y34410D1*
X239183Y34134D1*
X239288Y33835D1*
X239347Y33373D1*
X239320Y33057D1*
X239239Y32750D1*
X239106Y32462D1*
X238836Y32109D1*
X239027Y31870D1*
X239183Y31594D1*
X239288Y31295D1*
X239347Y30833D1*
X239320Y30517D1*
X239239Y30210D1*
X239106Y29922D1*
X238836Y29569D1*
X239027Y29330D1*
X239183Y29054D1*
X239288Y28755D1*
X239347Y28293D1*
X239320Y27977D1*
X239239Y27670D1*
X239106Y27382D1*
X238926Y27121D1*
X238704Y26894D1*
X238447Y26709D1*
X238224Y26601D1*
X238225Y25362D1*
X235456D1*
X235328Y25139D1*
X235124Y24896D1*
X234877Y24698D1*
X234595Y24553D1*
X234252Y24461D1*
X233694Y24443D1*
X232017D1*
X231944Y24143D1*
X231812Y23855D1*
X231632Y23593D1*
X231410Y23367D1*
X231152Y23182D1*
X230867Y23044D1*
X230454Y22945D1*
X230256Y22597D1*
X230247Y19506D1*
X230257Y19449D1*
Y17306D1*
X230156D1*
X230346Y17025D1*
X230476Y16736D1*
X230559Y16429D1*
X230592Y16069D1*
X230567Y15753D1*
X230491Y15445D1*
X230330Y15094D1*
X230807Y15087D1*
Y11326D1*
X232932Y11317D1*
X319818D1*
X319433Y11569D1*
X319194Y11778D1*
X318980Y12013D1*
X318794Y12269D1*
X318637Y12545D1*
X318512Y12837D1*
X318420Y13141D1*
X318362Y13453D1*
X318340Y13769D1*
X318353Y14086D1*
X318402Y14400D1*
X318485Y14706D1*
X318601Y15001D1*
X318750Y15282D1*
X318929Y15543D1*
X319136Y15784D1*
X319369Y16000D1*
X319624Y16188D1*
X319899Y16347D1*
X320190Y16474D1*
X320493Y16568D1*
X320804Y16628D1*
X321121Y16653D1*
X321438Y16642D1*
X321752Y16596D1*
X322059Y16515D1*
X322355Y16400D1*
X322636Y16254D1*
X322899Y16076D1*
X323141Y15871D1*
X323359Y15640D1*
X323549Y15386D1*
X323710Y15112D1*
X323835Y14832D1*
X323834Y204586D1*
X323594Y204094D1*
X323411Y203835D1*
X323200Y203598D1*
X322964Y203385D1*
X322706Y203200D1*
X322429Y203046D1*
X322137Y202923D1*
X321832Y202833D1*
X321520Y202778D1*
X321203Y202758D1*
X320886Y202773D1*
X320573Y202824D1*
X320267Y202909D1*
X319973Y203028D1*
X319694Y203179D1*
X319433Y203360D1*
X319194Y203569D1*
X318980Y203803D1*
X318794Y204059D1*
X318637Y204335D1*
X318512Y204627D1*
X318420Y204931D1*
X318362Y205243D1*
X318340Y205559D1*
X318353Y205876D1*
X318402Y206190D1*
X318485Y206496D1*
X318601Y206791D1*
X318750Y207072D1*
X318929Y207334D1*
X319136Y207574D1*
X319369Y207790D1*
X319624Y207978D1*
X319899Y208137D1*
X320190Y208264D1*
X320493Y208358D1*
X320804Y208418D1*
X321121Y208443D1*
X321438Y208432D1*
X321752Y208386D1*
X322059Y208305D1*
X322355Y208191D1*
X322636Y208044D1*
X322899Y207867D1*
X323141Y207661D1*
X323359Y207430D1*
X323549Y207176D1*
X323710Y206903D1*
X323835Y206622D1*
X323834Y208728D1*
X11317D1*
Y206972D1*
X11557Y207334D1*
X11764Y207574D1*
X11997Y207790D1*
X12252Y207978D1*
X12527Y208137D1*
X12817Y208264D1*
X13121Y208358D1*
X13432Y208418D1*
X13749Y208443D1*
X14066Y208432D1*
X14380Y208386D1*
X14687Y208305D1*
X14983Y208191D1*
X15264Y208044D1*
X15527Y207867D1*
X15769Y207661D1*
X15986Y207430D1*
X16177Y207176D1*
X16338Y206903D1*
X16467Y206613D1*
X16563Y206310D1*
X16625Y205999D1*
X16653Y205601D1*
X16636Y205284D1*
X16583Y204971D1*
X16495Y204666D1*
X16374Y204372D1*
X16221Y204094D1*
X16039Y203835D1*
X15828Y203598D1*
X15592Y203385D1*
X15334Y203200D1*
X15057Y203046D1*
X14765Y202923D1*
X14460Y202833D1*
X14148Y202778D1*
X13831Y202758D1*
X13514Y202773D1*
X13201Y202824D1*
X12895Y202909D1*
X12601Y203028D1*
X12322Y203179D1*
X12061Y203360D1*
X11822Y203569D1*
X11608Y203803D1*
X11318Y204240D1*
X11317Y184708D1*
X11525Y184918D1*
X11775Y185114D1*
X12048Y185275D1*
X12340Y185399D1*
X12646Y185482D1*
X12960Y185525D1*
X13278Y185526D1*
X13592Y185484D1*
X13899Y185402D1*
X14191Y185279D1*
X14465Y185119D1*
X14716Y184925D1*
X15051Y184548D1*
X16827Y184549D1*
X17142Y184515D1*
X17443Y184416D1*
X17696Y184270D1*
X18107Y183887D1*
X23509Y178485D1*
X23708Y178239D1*
X23850Y177956D1*
X23926Y177674D1*
X23946Y177112D1*
Y169323D1*
X23996Y169309D1*
X24130Y169319D1*
X24398D1*
X24576Y169572D1*
X24943Y169932D1*
X25219Y170107D1*
X25526Y170218D1*
X25877Y170260D1*
X29081D1*
X29236Y170383D1*
X29508Y170545D1*
X29802Y170667D1*
X30109Y170744D1*
X30425Y170775D1*
X30742Y170760D1*
X31053Y170699D1*
X31352Y170593D1*
X31632Y170445D1*
X31909Y170236D1*
X31905Y175594D1*
X31936Y175909D1*
X32029Y176212D1*
X32181Y176490D1*
X32371Y176720D1*
X33324Y177673D1*
X33569Y177873D1*
X33849Y178021D1*
X34153Y178111D1*
X34450Y178139D1*
X41465D1*
X41657Y178240D1*
X41958Y178339D1*
X42272Y178386D1*
X42589Y178378D1*
X42899Y178315D1*
X43195Y178201D1*
X43467Y178037D1*
X43706Y177829D1*
X43907Y177584D1*
X44062Y177307D1*
X44168Y177008D1*
X44226Y176546D1*
X44199Y176230D1*
X44118Y175924D1*
X43986Y175636D1*
X43806Y175374D1*
X43584Y175148D1*
X43326Y174963D1*
X43041Y174825D1*
X42736Y174737D1*
X42421Y174704D1*
X42104Y174725D1*
X41796Y174799D1*
X41464Y174953D1*
X38048D1*
X38064Y174644D1*
X38042Y174327D1*
X37978Y174017D1*
X37873Y173717D1*
X37688Y173378D1*
X37824Y173136D1*
X37945Y172842D1*
X38024Y172535D1*
X38064Y172104D1*
X38042Y171787D1*
X37978Y171477D1*
X37873Y171177D1*
X37728Y170895D1*
X37546Y170635D1*
X37331Y170402D1*
X37086Y170200D1*
X36817Y170033D1*
X36527Y169904D1*
X36222Y169815D1*
X35908Y169768D1*
X35591Y169765D1*
X35276Y169804D1*
X35094Y169852D1*
X35090Y165205D1*
X35286Y165011D1*
X35474Y164755D1*
X35626Y164477D1*
X35739Y164180D1*
X35810Y163871D1*
X35840Y163498D1*
Y159281D1*
X36074Y159626D1*
X36281Y159867D1*
X36511Y160086D1*
X36762Y160279D1*
X37032Y160447D1*
X37317Y160585D1*
X37615Y160694D1*
X37923Y160772D1*
X38237Y160817D1*
X38554Y160830D1*
X38871Y160811D1*
X39184Y160759D1*
X39490Y160676D1*
X39786Y160561D1*
X40069Y160417D1*
X40335Y160245D1*
X40583Y160046D1*
X40808Y159823D1*
X41010Y159578D1*
X41185Y159313D1*
X41333Y159032D1*
X41451Y158738D1*
X41538Y158432D1*
X41593Y158120D1*
X41617Y157738D1*
X41601Y157421D1*
X41552Y157107D1*
X41471Y156800D1*
X41360Y156503D1*
X41218Y156219D1*
X41049Y155951D1*
X40852Y155702D1*
X40631Y155474D1*
X40388Y155270D1*
X40125Y155092D1*
X39846Y154942D1*
X39552Y154821D1*
X39248Y154731D1*
X38936Y154672D1*
X38620Y154646D1*
X38303Y154653D1*
X37988Y154692D1*
X37678Y154763D1*
X37378Y154865D1*
X37090Y154998D1*
X36816Y155159D1*
X36561Y155348D1*
X36326Y155561D1*
X36115Y155798D1*
X35845Y156201D1*
X35840Y154022D1*
X37322Y152538D1*
X61281Y152534D1*
X146579D1*
X146599Y153365D1*
X146663Y153676D1*
X146769Y153975D1*
X146914Y154257D1*
X147095Y154518D1*
X147311Y154751D1*
X147555Y154953D1*
X147825Y155120D1*
X148115Y155249D1*
X148420Y155337D1*
X148733Y155384D1*
X149051Y155388D1*
X149365Y155349D1*
X149672Y155268D1*
X149965Y155146D1*
X150239Y154986D1*
X150537Y154740D1*
X154090Y154742D1*
X156397Y157045D1*
X156395Y163317D1*
X156287Y163649D1*
X156247Y163964D1*
X156261Y164281D1*
X156330Y164590D1*
X156450Y164884D1*
X156619Y165152D1*
X156832Y165387D1*
X157082Y165583D1*
X157361Y165732D1*
X157662Y165832D1*
X157976Y165878D1*
X158293Y165870D1*
X158604Y165808D1*
X158900Y165693D1*
X159171Y165530D1*
X159411Y165322D1*
X159611Y165076D1*
X159767Y164799D1*
X159872Y164500D1*
X159931Y164039D1*
X159904Y163723D1*
X159777Y163317D1*
X159781Y156342D1*
X159751Y156026D1*
X159663Y155721D1*
X159520Y155439D1*
X159285Y155145D1*
X155992Y151852D1*
X155748Y151650D1*
X155470Y151496D1*
X155169Y151398D1*
X154795Y151356D1*
X151273D1*
X151264Y150191D1*
X151242Y149874D1*
X151136Y149431D1*
X155368Y149436D1*
X155418Y149631D1*
X155539Y149925D1*
X155708Y150193D1*
X155921Y150428D1*
X156170Y150624D1*
X156450Y150773D1*
X156751Y150873D1*
X157065Y150919D1*
X157382Y150911D1*
X157693Y150849D1*
X157988Y150734D1*
X158260Y150570D1*
X158518Y150340D1*
X158869Y150624D1*
X159149Y150773D1*
X159450Y150873D1*
X159764Y150919D1*
X160081Y150911D1*
X160392Y150849D1*
X160687Y150734D1*
X160959Y150570D1*
X161199Y150363D1*
X161399Y150117D1*
X161554Y149840D1*
X161660Y149541D1*
X161719Y149080D1*
X161691Y148764D1*
X161610Y148457D1*
X161478Y148169D1*
X161349Y147981D1*
X161344Y147333D1*
X161309Y147018D1*
X161208Y146718D1*
X161025Y146419D1*
X160016Y145397D1*
X159644Y145025D1*
X159397Y144826D1*
X159113Y144686D1*
X158772Y144605D1*
X157336Y144595D1*
X59635D1*
X59808Y144304D1*
X59907Y144003D1*
X59942Y143682D1*
Y140506D1*
X59909Y140191D1*
X59811Y139890D1*
X59700Y139684D1*
X59497Y139433D1*
X59034Y138970D1*
X58788Y138771D1*
X58574Y138656D1*
X58344Y138575D1*
X58129Y138341D1*
X57884Y138139D1*
X57614Y137972D1*
X57325Y137843D1*
X57020Y137755D1*
X56706Y137708D1*
X56320Y137713D1*
X56300Y137187D1*
X56236Y136876D1*
X56131Y136577D1*
X55986Y136295D1*
X55804Y136035D1*
X55566Y135782D1*
X55572Y135291D1*
X56066Y134797D1*
X58592Y134796D1*
X59033Y135233D1*
X59293Y135415D1*
X59574Y135563D1*
X59870Y135677D1*
X60178Y135753D1*
X60493Y135791D1*
X60810D1*
X61125Y135751D1*
X61433Y135674D1*
X61729Y135559D1*
X62008Y135409D1*
X62268Y135227D1*
X62503Y135013D1*
X62710Y134796D1*
X65101D1*
X65297Y135021D1*
X65533Y135233D1*
X65793Y135415D1*
X66074Y135563D1*
X66370Y135677D1*
X66678Y135753D1*
X66993Y135791D1*
X67310D1*
X67625Y135751D1*
X67933Y135674D1*
X68229Y135559D1*
X68508Y135409D1*
X68768Y135227D1*
X69003Y135013D1*
X69210Y134773D1*
X69386Y134509D1*
X69529Y134226D1*
X69636Y133927D1*
X69706Y133618D1*
X69739Y133203D1*
X69720Y132886D1*
X69662Y132574D1*
X69566Y132272D1*
X69435Y131983D1*
X69268Y131713D1*
X69071Y131465D1*
X68844Y131243D1*
X68592Y131050D1*
X68318Y130890D1*
X68027Y130764D1*
X67722Y130675D1*
X67409Y130623D1*
X67092Y130611D1*
X66776Y130637D1*
X66465Y130701D1*
X66165Y130803D1*
X65879Y130941D1*
X65612Y131113D1*
X65368Y131316D1*
X65110Y131603D1*
X62692Y131610D1*
X62344Y131243D1*
X62092Y131050D1*
X61818Y130890D1*
X61527Y130764D1*
X61222Y130675D1*
X60909Y130623D1*
X60592Y130611D1*
X60276Y130637D1*
X59965Y130701D1*
X59665Y130803D1*
X59379Y130941D1*
X59112Y131113D1*
X58868Y131316D1*
X58610Y131603D1*
X56669Y131610D1*
X55407D1*
X55092Y131642D1*
X54789Y131735D1*
X54511Y131886D1*
X54281Y132077D1*
X52852Y133505D1*
X52652Y133751D1*
X52503Y134031D1*
X52414Y134335D1*
X52386Y134632D1*
Y135792D1*
X52074Y135985D1*
X49643D1*
X49729Y135729D1*
X49788Y135267D1*
X49761Y134951D1*
X49680Y134644D1*
X49547Y134356D1*
X49418Y134169D1*
X49413Y127498D1*
X49624Y127137D1*
X49729Y126838D1*
X49788Y126376D1*
X49761Y126060D1*
X49680Y125753D1*
X49547Y125465D1*
X49368Y125204D1*
X49146Y124978D1*
X48888Y124793D1*
X48603Y124654D1*
X48298Y124567D1*
X47983Y124533D1*
X47666Y124554D1*
X47358Y124629D1*
X47067Y124756D1*
X46802Y124930D1*
X46572Y125147D1*
X46381Y125401D1*
X46234Y125693D1*
X45797Y125867D1*
X45532Y126042D1*
X45301Y126259D1*
X45111Y126513D1*
X44967Y126795D1*
X44874Y127098D1*
X44834Y127413D1*
X44848Y127729D1*
X44917Y128039D1*
X45037Y128332D1*
X45206Y128601D1*
X45373Y128784D1*
X45366Y133520D1*
Y135097D1*
X45126Y135527D1*
X45033Y135830D1*
X45014Y135978D1*
X44642Y135985D1*
X44650Y133203D1*
Y132102D1*
X44861Y131741D1*
X44966Y131442D1*
X45025Y130980D1*
X44998Y130664D1*
X44917Y130358D1*
X44784Y130070D1*
X44605Y129808D1*
X44383Y129582D1*
X44125Y129397D1*
X43840Y129259D1*
X43535Y129171D1*
X43220Y129138D1*
X42903Y129159D1*
X42595Y129233D1*
X42304Y129360D1*
X42039Y129534D1*
X41809Y129752D1*
X41618Y130005D1*
X41474Y130288D1*
X41381Y130591D1*
X41341Y130906D1*
X41355Y131222D1*
X41424Y131532D1*
X41544Y131825D1*
X41720Y132101D1*
X41714Y135574D1*
X41458Y135450D1*
X41153Y135363D1*
X40838Y135330D1*
X40454Y135367D1*
X40315Y135271D1*
X40029Y135133D1*
X39724Y135046D1*
X39409Y135012D1*
X39093Y135033D1*
X38785Y135108D1*
X38494Y135234D1*
X38254Y135392D1*
X33497Y135387D1*
X33182Y135421D1*
X32882Y135522D1*
X32584Y135706D1*
X31824Y136452D1*
X31626Y136699D1*
X31485Y136982D1*
X31386Y137458D1*
X31136Y137654D1*
X30915Y137882D1*
X30727Y138137D1*
X30575Y138416D1*
X30462Y138712D1*
X30391Y139021D1*
X30361Y139337D1*
X30372Y139585D1*
X29408Y140545D1*
X29208Y140791D1*
X29064Y141073D1*
X28997Y141297D1*
X28963Y141618D1*
Y142888D1*
X28996Y143203D1*
X29094Y143504D1*
X29205Y143710D1*
X29569Y144122D1*
X26522Y144119D1*
X26058Y143865D1*
X25753Y143778D1*
X25438Y143744D1*
X25121Y143765D1*
X24813Y143840D1*
X24522Y143966D1*
X24258Y144141D1*
X24027Y144358D1*
X23836Y144612D1*
X23692Y144894D1*
X23599Y145198D1*
X23559Y145512D1*
X23573Y145829D1*
X23642Y146138D1*
X23821Y146524D1*
X22719Y147621D1*
X18994Y143896D1*
X18747Y143697D1*
X18464Y143554D1*
X18182Y143479D1*
X17621Y143459D1*
X15507D1*
X15517Y142645D1*
X11320D1*
X11317Y136587D1*
X11597Y136948D1*
X11834Y137160D1*
X12098Y137335D1*
X12385Y137471D1*
X12688Y137563D1*
X13002Y137611D1*
X13319Y137613D1*
X13633Y137570D1*
X13938Y137481D1*
X14226Y137350D1*
X14493Y137178D1*
X14732Y136969D1*
X14939Y136729D1*
X15108Y136461D1*
X15238Y136171D1*
X15324Y135866D1*
X15368Y135425D1*
X15345Y135109D1*
X15277Y134799D1*
X15165Y134502D1*
X14957Y134154D1*
X15108Y133921D1*
X15238Y133631D1*
X15324Y133326D1*
X15368Y132885D1*
X15339Y132540D1*
X15368Y132538D1*
Y128152D1*
X11310D1*
X11317Y126496D1*
Y124978D1*
X12381Y124987D1*
X20448D1*
X20452Y126620D1*
X28763Y126622D1*
Y126216D1*
X31275Y126222D1*
X31590Y126191D1*
X31893Y126098D1*
X32171Y125946D1*
X32401Y125756D1*
X32633Y125524D1*
X35247Y125520D1*
X35556Y125624D1*
X35851Y125672D1*
X36150Y125673D1*
X36445Y125624D1*
X36729Y125529D1*
X36988Y125397D1*
X37291Y125304D1*
X37570Y125152D1*
X37812Y124949D1*
X38010Y124701D1*
X38155Y124419D1*
X38257Y124034D1*
X38367Y123737D1*
X38431Y123322D1*
X38433Y118156D1*
X40683Y118162D1*
X40673Y114476D1*
X40683Y114257D1*
X40673Y112476D1*
X40683Y112257D1*
X40673Y110476D1*
X40683Y110257D1*
X40673Y108476D1*
X40683Y108257D1*
X40673Y106476D1*
X40683Y106257D1*
Y104476D1*
X38431D1*
X38433Y100226D1*
X36859D1*
X36861Y96287D1*
X36759D1*
X64010Y71759D2*
Y70244D1*
X61539D1*
X61538Y68427D1*
X57406D1*
X57408Y67542D1*
X71958Y67543D1*
X72514Y68102D1*
X68277Y68100D1*
X67962Y68134D1*
X67661Y68235D1*
X67363Y68419D1*
X66341Y69428D1*
X64006Y71762D1*
X50047Y70909D2*
X49832D1*
Y72938D1*
X49548Y72681D1*
X49301Y72482D1*
X49018Y72339D1*
X48736Y72263D1*
X48175Y72243D1*
X43066Y72232D1*
X38171Y67316D1*
X38090Y67010D1*
X37957Y66722D1*
X37778Y66460D1*
X37604Y66284D1*
X37720Y66130D1*
X37875Y65853D1*
X37981Y65554D1*
X38022Y65310D1*
X38942Y65312D1*
X39227Y65647D1*
X39477Y65842D1*
X39757Y65992D1*
X40058Y66091D1*
X40371Y66138D1*
X40688Y66130D1*
X40999Y66067D1*
X41295Y65953D1*
X41567Y65789D1*
X41806Y65581D1*
X42006Y65336D1*
X42162Y65059D1*
X42267Y64760D1*
X42326Y64298D1*
X42301Y64012D1*
X45086Y64020D1*
X47219D1*
X47096Y64385D1*
X47055Y64775D1*
Y67156D1*
X47082Y67472D1*
X47163Y67779D1*
X47296Y68067D1*
X47543Y68405D1*
X50014Y70877D1*
X173130Y69725D2*
Y73162D1*
X172695Y73225D1*
X172394Y73327D1*
X171992Y73560D1*
X171892Y73561D1*
X171692Y73426D1*
X171404Y73293D1*
X171099Y73205D1*
X170784Y73164D1*
X170467Y73171D1*
X170155Y73225D1*
X169854Y73327D1*
X169573Y73473D1*
X169316Y73659D1*
X169091Y73882D1*
X168902Y74137D1*
X168753Y74417D1*
X168649Y74717D1*
X168591Y75029D1*
X168586Y75197D1*
X168377Y75396D1*
X167220Y75391D1*
X164938Y73103D1*
Y67207D1*
X164905Y66892D1*
X164807Y66591D1*
X164696Y66385D1*
X164493Y66134D1*
X163967Y65608D1*
X164095Y65377D1*
X164200Y65078D1*
X164259Y64616D1*
X164232Y64300D1*
X164151Y63993D1*
X164018Y63705D1*
X163838Y63444D1*
X163616Y63217D1*
X163359Y63032D1*
X163074Y62894D1*
X162892Y62842D1*
X162609Y62556D1*
X162604Y58712D1*
X160828D1*
X160919Y58550D1*
X161025Y58251D1*
X161059Y58045D1*
X163209Y58037D1*
X164808Y58041D1*
X165238Y58471D1*
X165484Y58670D1*
X165767Y58814D1*
X165990Y58881D1*
X166311Y58915D1*
X167592Y58920D1*
X168360Y59694D1*
Y61758D1*
X168393Y62073D1*
X168491Y62375D1*
X168602Y62580D1*
X168805Y62831D1*
X169440Y63466D1*
X169686Y63666D1*
X169968Y63810D1*
X170192Y63877D1*
X170513Y63911D1*
X172102D1*
X172417Y63878D1*
X172718Y63780D1*
X172924Y63669D1*
X173175Y63466D1*
X173743Y62898D1*
X173986Y62877D1*
X174296Y62809D1*
X174591Y62694D1*
X174789Y62580D1*
X174953Y62897D1*
X175155Y63149D1*
X175949Y63943D1*
X176195Y64142D1*
X176478Y64286D1*
X176701Y64353D1*
X177023Y64387D1*
X180357D1*
X180672Y64354D1*
X180973Y64256D1*
X181179Y64145D1*
X181430Y63943D1*
X182389Y62982D1*
X182709Y62898D1*
X185942D1*
Y58712D1*
X181757D1*
Y58762D1*
X181422Y58715D1*
X181105Y58722D1*
X180792Y58777D1*
X180595Y58844D1*
X180674Y58672D1*
X187570D1*
X187886Y58847D1*
X187971Y58875D1*
X187972Y90971D1*
X188004Y91286D1*
X188097Y91589D1*
X188249Y91868D1*
X188439Y92097D1*
X194634Y98292D1*
X194525Y98535D1*
X194432Y98838D1*
X194392Y99152D1*
X194406Y99469D1*
X194475Y99779D1*
X194596Y100072D1*
X194765Y100340D1*
X194977Y100575D1*
X195227Y100771D1*
X195507Y100920D1*
X195808Y101020D1*
X196121Y101066D1*
X196438Y101058D1*
X196749Y100996D1*
X197045Y100881D1*
X197317Y100718D1*
X197556Y100510D1*
X197757Y100264D1*
X197912Y99988D1*
X198039Y99562D1*
X207411Y108938D1*
Y110436D1*
X207253Y110724D1*
X207086Y110601D1*
X206805Y110453D1*
X206501Y110363D1*
X206205Y110335D1*
X199745D1*
X180910Y91494D1*
X177831Y88416D1*
X177529Y88180D1*
X177172Y87959D1*
X176886Y87820D1*
X176581Y87733D1*
X176266Y87700D1*
X175950Y87720D1*
X175641Y87795D1*
X175351Y87922D1*
X175086Y88096D1*
X174855Y88314D1*
X174665Y88567D1*
X174521Y88850D1*
X174427Y89153D1*
X174387Y89467D1*
X174402Y89784D1*
X174470Y90094D1*
X174591Y90387D1*
X174760Y90655D1*
X174973Y90891D1*
X175222Y91086D1*
X175502Y91236D1*
X175803Y91335D1*
X176117Y91382D1*
X176285Y91377D1*
X197965Y113055D1*
X198210Y113255D1*
X198490Y113403D1*
X198794Y113493D1*
X199091Y113521D1*
X203030D1*
X203066Y113790D1*
X203151Y114096D1*
X203282Y114385D1*
X203454Y114651D1*
X203665Y114888D1*
X203909Y115090D1*
X204181Y115254D1*
X204475Y115374D1*
X204872Y115456D1*
X204867Y122283D1*
X204046Y123104D1*
X203846Y123351D1*
X203731Y123565D1*
X203599Y123620D1*
X203311Y123487D1*
X203006Y123399D1*
X202691Y123358D1*
X202374Y123365D1*
X202062Y123420D1*
X201761Y123521D1*
X201480Y123667D1*
X201223Y123853D1*
X200921Y124180D1*
X200792Y124049D1*
X200535Y123864D1*
X200249Y123726D1*
X200068Y123674D1*
X198971Y122574D1*
X198788Y122131D1*
X198608Y121870D1*
X198386Y121644D1*
X198129Y121458D1*
X197815Y121312D1*
X197822Y118780D1*
X197790Y118465D1*
X197697Y118162D1*
X197546Y117883D1*
X197355Y117654D1*
X192620Y112918D1*
X192434Y112472D1*
X192254Y112211D1*
X192032Y111984D1*
X191774Y111799D1*
X191489Y111661D1*
X191308Y111609D1*
X183676Y103975D1*
X183431Y103774D1*
X183151Y103626D1*
X182847Y103536D1*
X182550Y103508D1*
X154918D1*
X154659Y103380D1*
X154354Y103292D1*
X154039Y103259D1*
X153722Y103280D1*
X153414Y103354D1*
X153082Y103508D1*
X132084D1*
X131780Y103196D1*
X131782Y91981D1*
X131973Y91946D1*
X132328Y91796D1*
X132397Y91840D1*
X132518Y92134D1*
X132687Y92402D1*
X132899Y92637D1*
X133149Y92832D1*
X133429Y92982D1*
X133730Y93082D1*
X134044Y93128D1*
X134361Y93120D1*
X134672Y93058D1*
X134967Y92943D1*
X135179Y92815D1*
X135493Y92982D1*
X135794Y93082D1*
X136108Y93128D1*
X136425Y93120D1*
X136736Y93058D1*
X137031Y92943D1*
X137159Y92866D1*
X137398Y92982D1*
X137699Y93082D1*
X138013Y93128D1*
X138330Y93120D1*
X138641Y93058D1*
X138936Y92943D1*
X139064Y92866D1*
X139303Y92982D1*
X139604Y93082D1*
X139918Y93128D1*
X140235Y93120D1*
X140546Y93058D1*
X140842Y92943D1*
X141113Y92779D1*
X141353Y92572D1*
X141553Y92326D1*
X141708Y92049D1*
X141814Y91750D1*
X141873Y91289D1*
X141846Y90973D1*
X141764Y90666D1*
X141632Y90378D1*
X141503Y90190D1*
X141498Y82399D1*
Y80175D1*
X141464Y79860D1*
X141363Y79559D1*
X141179Y79261D1*
X140170Y78239D1*
X135981Y74050D1*
X135890Y73678D1*
X135758Y73390D1*
X135578Y73129D1*
X135356Y72902D1*
X135098Y72717D1*
X134813Y72579D1*
X134508Y72492D1*
X134193Y72458D1*
X133876Y72479D1*
X133523Y72573D1*
X133238Y72492D1*
X132923Y72458D1*
X132606Y72479D1*
X132253Y72573D1*
X131968Y72492D1*
X131653Y72458D1*
X131336Y72479D1*
X131028Y72554D1*
X130663Y72729D1*
X130368Y72579D1*
X130063Y72492D1*
X129747Y72458D1*
X129431Y72479D1*
X129077Y72573D1*
X128793Y72492D1*
X128477Y72458D1*
X128161Y72479D1*
X127807Y72573D1*
X127522Y72492D1*
X127207Y72458D1*
X126891Y72479D1*
X126537Y72573D1*
X126252Y72492D1*
X125937Y72458D1*
X125621Y72479D1*
X125267Y72573D1*
X124982Y72492D1*
X124667Y72458D1*
X124350Y72479D1*
X123997Y72573D1*
X123712Y72492D1*
X123397Y72458D1*
X123080Y72479D1*
X122772Y72554D1*
X122481Y72680D1*
X122217Y72855D1*
X121986Y73072D1*
X121795Y73326D1*
X121651Y73608D1*
X121558Y73911D1*
X121518Y74226D1*
X121528Y74454D1*
X119050Y74447D1*
X119220Y73946D1*
X119268Y73500D1*
X119244Y73183D1*
X119172Y72874D1*
X119055Y72580D1*
X118838Y72237D1*
X118993Y71997D1*
X119129Y71710D1*
X119220Y71406D1*
X119268Y70960D1*
X119244Y70643D1*
X119172Y70334D1*
X119055Y70040D1*
X118838Y69697D1*
X118993Y69457D1*
X119129Y69170D1*
X119220Y68866D1*
X119246Y68680D1*
X126534Y68674D1*
X138135Y68678D1*
X143138Y73681D1*
X143193Y73900D1*
X143314Y74193D1*
X143483Y74461D1*
X143696Y74696D1*
X143945Y74892D1*
X144225Y75041D1*
X144526Y75141D1*
X144840Y75187D1*
X145157Y75179D1*
X145468Y75117D1*
X145730Y75028D1*
X145720Y75346D1*
X145758Y75660D1*
X145843Y75966D1*
X145973Y76255D1*
X146146Y76521D1*
X146357Y76758D1*
X146601Y76961D1*
X146873Y77124D1*
X147166Y77244D1*
X147475Y77319D1*
X147791Y77346D1*
X148107Y77325D1*
X148417Y77256D1*
X148713Y77142D1*
X149073Y76916D1*
X149413Y77124D1*
X149706Y77244D1*
X150015Y77319D1*
X150331Y77346D1*
X150647Y77325D1*
X150957Y77256D1*
X151253Y77142D1*
X151613Y76916D1*
X151953Y77124D1*
X152246Y77244D1*
X152703Y77332D1*
X152827Y77774D1*
X153011Y78072D1*
X153747Y78821D1*
X153564Y79165D1*
X153470Y79468D1*
X153430Y79783D1*
X153445Y80099D1*
X153513Y80409D1*
X153634Y80702D1*
X153803Y80971D1*
X154015Y81206D1*
X154265Y81401D1*
X154545Y81551D1*
X154846Y81650D1*
X155160Y81697D1*
X155477Y81689D1*
X155788Y81627D1*
X156083Y81512D1*
X156355Y81348D1*
X156594Y81140D1*
X156795Y80895D1*
X156950Y80618D1*
X157056Y80319D1*
X157114Y79857D1*
X157087Y79541D1*
X157006Y79235D1*
X156874Y78947D1*
X156744Y78759D1*
X156739Y78270D1*
X156705Y77955D1*
X156604Y77654D1*
X156420Y77356D1*
X156260Y77183D1*
X156565Y77008D1*
X156748Y77003D1*
X157326Y77244D1*
X157635Y77319D1*
X157951Y77346D1*
X158412Y77293D1*
X158418Y77346D1*
X160908D1*
X160898Y77793D1*
X160931Y78109D1*
X161029Y78410D1*
X161140Y78615D1*
X161343Y78867D1*
X165471Y82995D1*
X165717Y83194D1*
X165999Y83338D1*
X166223Y83405D1*
X166544Y83439D1*
X172646D1*
X172962Y83615D1*
X173263Y83714D1*
X173577Y83761D1*
X173894Y83753D1*
X174204Y83690D1*
X174500Y83576D1*
X174772Y83412D1*
X175011Y83204D1*
X175212Y82959D1*
X175367Y82682D1*
X175473Y82383D1*
X175531Y81921D1*
X175504Y81605D1*
X175423Y81299D1*
X175291Y81011D1*
X175111Y80749D1*
X174889Y80523D1*
X174631Y80338D1*
X174346Y80200D1*
X174041Y80112D1*
X173726Y80079D1*
X173409Y80100D1*
X173101Y80174D1*
X172810Y80301D1*
X172653Y80405D1*
X167168Y80399D1*
X163934Y77158D1*
Y76394D1*
X165522Y77987D1*
X165768Y78186D1*
X166051Y78330D1*
X166274Y78397D1*
X166595Y78431D1*
X169012D1*
X169327Y78398D1*
X169629Y78301D1*
X169834Y78190D1*
X170085Y77987D1*
X170724Y77348D1*
X170968Y77325D1*
X171278Y77257D1*
X171574Y77142D1*
X171903Y76941D1*
X172002Y76961D1*
X172274Y77124D1*
X172568Y77245D1*
X172876Y77319D1*
X173192Y77346D1*
X173508Y77325D1*
X173818Y77257D1*
X174114Y77142D1*
X174474Y76916D1*
X174814Y77124D1*
X175108Y77245D1*
X175416Y77319D1*
X175732Y77346D1*
X176048Y77325D1*
X176358Y77257D1*
X176654Y77142D1*
X177014Y76916D1*
X177354Y77124D1*
X177648Y77245D1*
X177956Y77319D1*
X178272Y77346D1*
X178588Y77325D1*
X178898Y77257D1*
X179194Y77142D1*
X179554Y76916D1*
X179894Y77124D1*
X180188Y77245D1*
X180496Y77319D1*
X180812Y77346D1*
X181274Y77293D1*
X181279Y77346D1*
X185465D1*
Y73161D1*
X182915D1*
X183279Y72955D1*
X183908Y72350D1*
X184729Y71528D1*
X184931Y71284D1*
X185084Y71007D1*
X185183Y70705D1*
X185225Y70331D1*
Y68615D1*
X185326Y68384D1*
X185417Y68080D1*
X185465Y67634D1*
X185441Y67317D1*
X185369Y67008D1*
X185252Y66714D1*
X185091Y66440D1*
X184891Y66194D1*
X184656Y65981D1*
X184392Y65806D1*
X184104Y65673D1*
X183799Y65585D1*
X183484Y65544D1*
X183167Y65551D1*
X182855Y65605D1*
X182554Y65707D1*
X182273Y65853D1*
X182104Y65975D1*
X181852Y65806D1*
X181564Y65673D1*
X181259Y65585D1*
X180944Y65544D1*
X180627Y65551D1*
X180315Y65605D1*
X180014Y65707D1*
X179733Y65853D1*
X179564Y65975D1*
X179312Y65806D1*
X179024Y65673D1*
X178719Y65585D1*
X178404Y65544D1*
X178087Y65551D1*
X177775Y65605D1*
X177474Y65707D1*
X177193Y65853D1*
X177024Y65975D1*
X176772Y65806D1*
X176484Y65673D1*
X176179Y65585D1*
X175864Y65544D1*
X175547Y65551D1*
X175235Y65605D1*
X174934Y65707D1*
X174653Y65853D1*
X174484Y65975D1*
X174232Y65806D1*
X173944Y65673D1*
X173639Y65585D1*
X173324Y65544D1*
X173007Y65551D1*
X172695Y65605D1*
X172394Y65707D1*
X172113Y65853D1*
X171944Y65975D1*
X171692Y65806D1*
X171404Y65673D1*
X171099Y65585D1*
X170784Y65544D1*
X170467Y65551D1*
X170155Y65605D1*
X169854Y65707D1*
X169573Y65853D1*
X169404Y65975D1*
X169152Y65806D1*
X168864Y65673D1*
X168559Y65585D1*
X168244Y65544D1*
X167927Y65551D1*
X167615Y65605D1*
X167314Y65707D1*
X167033Y65853D1*
X166776Y66039D1*
X166551Y66262D1*
X166362Y66517D1*
X166213Y66797D1*
X166109Y67097D1*
X166051Y67409D1*
X166041Y67726D1*
X166079Y68041D1*
X166164Y68346D1*
X166295Y68636D1*
X166467Y68902D1*
X166678Y69139D1*
X166922Y69341D1*
X167194Y69504D1*
X167488Y69625D1*
X167796Y69699D1*
X168112Y69726D1*
X168428Y69705D1*
X168738Y69637D1*
X169034Y69522D1*
X169394Y69296D1*
X169734Y69504D1*
X170028Y69625D1*
X170336Y69699D1*
X170652Y69726D1*
X170968Y69705D1*
X171278Y69637D1*
X171574Y69522D1*
X171934Y69296D1*
X172274Y69504D1*
X172568Y69625D1*
X172876Y69699D1*
X173123Y69720D1*
X62103Y15009D2*
X62104Y11317D1*
X154699D1*
X154316Y11569D1*
X154077Y11778D1*
X153863Y12013D1*
X153676Y12269D1*
X153520Y12545D1*
X153394Y12837D1*
X153302Y13141D1*
X153245Y13453D1*
X153223Y13769D1*
X153236Y14086D1*
X153284Y14400D1*
X153367Y14706D1*
X153484Y15001D1*
X153633Y15282D1*
X153812Y15543D1*
X154019Y15784D1*
X154252Y16000D1*
X154507Y16188D1*
X154782Y16347D1*
X155072Y16474D1*
X155375Y16568D1*
X155687Y16628D1*
X156003Y16653D1*
X156321Y16642D1*
X156635Y16596D1*
X156941Y16515D1*
X157237Y16400D1*
X157519Y16254D1*
X157782Y16076D1*
X158024Y15871D1*
X158241Y15640D1*
X158432Y15386D1*
X158593Y15112D1*
X158722Y14823D1*
X158818Y14520D1*
X158880Y14209D1*
X158908Y13810D1*
X158891Y13494D1*
X158838Y13181D1*
X158750Y12876D1*
X158629Y12582D1*
X158476Y12304D1*
X158294Y12045D1*
X158083Y11807D1*
X157847Y11595D1*
X157425Y11318D1*
X188989Y11317D1*
X188809Y11515D1*
X188628Y11775D1*
X188486Y12059D1*
X188387Y12360D1*
X188332Y12673D1*
X188323Y12990D1*
X188360Y13305D1*
X188442Y13611D1*
X188567Y13903D1*
X188733Y14173D1*
X188917Y14394D1*
X188921Y14888D1*
X188702Y15276D1*
X188599Y15575D1*
X188544Y15888D1*
X188541Y16205D1*
X188588Y16519D1*
X188685Y16821D1*
X188828Y17103D1*
X188974Y17304D1*
X187601Y17306D1*
Y17534D1*
X186921Y17524D1*
X186231D1*
X185915Y17552D1*
X185608Y17633D1*
X185320Y17765D1*
X184982Y18012D1*
X183496Y19496D1*
X183292Y19739D1*
X183132Y20013D1*
X183022Y20310D1*
X182958Y20725D1*
X182956Y26194D1*
X182983Y26510D1*
X183064Y26817D1*
X183206Y27147D1*
Y27474D1*
X182491Y27472D1*
X182501Y31658D1*
X182491Y31917D1*
X182501Y34198D1*
X182491Y34457D1*
Y36610D1*
X182300Y36969D1*
X182207Y37272D1*
X182165Y37661D1*
Y48426D1*
X181468Y48416D1*
X168925D1*
X168610Y48448D1*
X168307Y48541D1*
X168029Y48693D1*
X167799Y48883D1*
X165084Y51598D1*
X161870Y51592D1*
X161530Y51358D1*
X161243Y51225D1*
X160938Y51136D1*
X160623Y51095D1*
X160306Y51102D1*
X159994Y51157D1*
X159693Y51259D1*
X159411Y51404D1*
X159243Y51527D1*
X158990Y51358D1*
X158703Y51225D1*
X158398Y51136D1*
X158083Y51095D1*
X157766Y51102D1*
X157454Y51157D1*
X157153Y51259D1*
X156871Y51404D1*
X156703Y51527D1*
X156450Y51358D1*
X156163Y51225D1*
X155858Y51136D1*
X155543Y51095D1*
X155226Y51102D1*
X154914Y51157D1*
X154613Y51259D1*
X154331Y51404D1*
X154163Y51527D1*
X153910Y51358D1*
X153623Y51225D1*
X153318Y51136D1*
X153003Y51095D1*
X152686Y51102D1*
X152374Y51157D1*
X152073Y51259D1*
X151791Y51404D1*
X151623Y51527D1*
X151370Y51358D1*
X151083Y51225D1*
X150778Y51136D1*
X150463Y51095D1*
X150146Y51102D1*
X149834Y51157D1*
X149533Y51259D1*
X149251Y51404D1*
X149083Y51527D1*
X148830Y51358D1*
X148543Y51225D1*
X148238Y51136D1*
X147923Y51095D1*
X147606Y51102D1*
X147294Y51157D1*
X146993Y51259D1*
X146711Y51404D1*
X146543Y51527D1*
X146290Y51358D1*
X146003Y51225D1*
X145698Y51136D1*
X145383Y51095D1*
X145066Y51102D1*
X144754Y51157D1*
X144453Y51259D1*
X144171Y51404D1*
X143915Y51591D1*
X143690Y51814D1*
X143501Y52069D1*
X143352Y52349D1*
X143248Y52649D1*
X143190Y52961D1*
X143180Y53278D1*
X143218Y53593D1*
X143303Y53898D1*
X143433Y54187D1*
X143606Y54454D1*
X143817Y54691D1*
X144061Y54893D1*
X144333Y55056D1*
X144626Y55177D1*
X144935Y55251D1*
X145251Y55278D1*
X145567Y55257D1*
X145877Y55189D1*
X146173Y55074D1*
X146533Y54848D1*
X146873Y55056D1*
X147166Y55177D1*
X147475Y55251D1*
X147860Y55274D1*
X146737Y56397D1*
X146538Y56643D1*
X146394Y56925D1*
X146327Y57149D1*
X146293Y57470D1*
Y59365D1*
X146041Y59689D1*
X145892Y59969D1*
X145788Y60269D1*
X145730Y60581D1*
X145720Y60898D1*
X145758Y61213D1*
X145843Y61518D1*
X145973Y61807D1*
X146218Y62155D1*
Y65093D1*
X146249Y65409D1*
X146371Y65772D1*
X146290Y65805D1*
X146003Y65672D1*
X145698Y65584D1*
X145383Y65543D1*
X145066Y65550D1*
X144754Y65605D1*
X144453Y65707D1*
X144171Y65852D1*
X143915Y66039D1*
X143690Y66262D1*
X143501Y66517D1*
X143352Y66797D1*
X143248Y67097D1*
X143190Y67408D1*
X143195Y67853D1*
X140468Y65130D1*
X140222Y64931D1*
X139940Y64787D1*
X139716Y64720D1*
X139395Y64686D1*
X122022D1*
X121635Y64482D1*
X121331Y64395D1*
X121015Y64361D1*
X120699Y64382D1*
X120391Y64457D1*
X120100Y64583D1*
X119835Y64758D1*
X119604Y64975D1*
X119414Y65229D1*
X119250Y65577D1*
X119172Y65254D1*
X119055Y64960D1*
X118838Y64617D1*
X118993Y64377D1*
X119129Y64090D1*
X119220Y63786D1*
X119268Y63340D1*
X119244Y63023D1*
X119172Y62714D1*
X119055Y62420D1*
X118838Y62077D1*
X118993Y61837D1*
X119129Y61550D1*
X119220Y61246D1*
X119268Y60800D1*
X119244Y60483D1*
X119172Y60174D1*
X119055Y59880D1*
X118838Y59537D1*
X118993Y59297D1*
X119129Y59010D1*
X119220Y58706D1*
X119268Y58260D1*
X119244Y57943D1*
X119172Y57634D1*
X119055Y57340D1*
X118838Y56997D1*
X118993Y56757D1*
X119129Y56470D1*
X119220Y56166D1*
X119268Y55720D1*
X119244Y55403D1*
X119172Y55094D1*
X119055Y54800D1*
X118838Y54457D1*
X118993Y54217D1*
X119129Y53930D1*
X119220Y53626D1*
X119268Y53180D1*
X119244Y52863D1*
X119172Y52554D1*
X119055Y52260D1*
X118838Y51917D1*
X118993Y51677D1*
X119129Y51390D1*
X119220Y51086D1*
X119268Y50640D1*
X119244Y50323D1*
X119172Y50014D1*
X119055Y49720D1*
X118838Y49377D1*
X118993Y49137D1*
X119129Y48850D1*
X119220Y48546D1*
X119268Y48100D1*
X119215Y47658D1*
X119268Y47652D1*
Y43467D1*
X115845D1*
X115835Y42067D1*
X115841Y39294D1*
X115996Y39018D1*
X116102Y38719D1*
X116160Y38257D1*
X116133Y37941D1*
X116052Y37635D1*
X115920Y37346D1*
X115740Y37085D1*
X115518Y36859D1*
X115251Y36669D1*
X115361Y36478D1*
X115467Y36179D1*
X115525Y35717D1*
X115498Y35401D1*
X115417Y35095D1*
X115285Y34806D1*
X115098Y34538D1*
X115401Y34350D1*
X115640Y34143D1*
X115841Y33897D1*
X115996Y33620D1*
X116102Y33321D1*
X116160Y32860D1*
X116133Y32544D1*
X116052Y32237D1*
X115914Y31941D1*
X117399Y33424D1*
X117644Y33627D1*
X117921Y33780D1*
X118366Y33904D1*
X118505Y33921D1*
X118806Y34020D1*
X119120Y34067D1*
X119437Y34059D1*
X119748Y33997D1*
X120043Y33882D1*
X120315Y33718D1*
X120554Y33510D1*
X120755Y33265D1*
X120910Y32988D1*
X121016Y32689D1*
X121074Y32227D1*
X121047Y31911D1*
X120966Y31605D1*
X120834Y31317D1*
X120654Y31055D1*
X120432Y30829D1*
X120174Y30644D1*
X119889Y30506D1*
X119584Y30418D1*
X119160Y30392D1*
X118636Y29866D1*
X118932Y29752D1*
X119161Y29613D1*
X125591Y29619D1*
X132606Y36635D1*
X132852Y36834D1*
X133135Y36978D1*
X133358Y37045D1*
X133679Y37079D1*
X172747Y37084D1*
X172806Y37149D1*
Y40235D1*
X172616Y40585D1*
X172522Y40888D1*
X172482Y41202D1*
X172497Y41519D1*
X172565Y41829D1*
X172686Y42122D1*
X172855Y42390D1*
X173067Y42626D1*
X173317Y42821D1*
X173597Y42971D1*
X173898Y43070D1*
X174212Y43117D1*
X174529Y43108D1*
X174840Y43046D1*
X175135Y42932D1*
X175407Y42768D1*
X175646Y42560D1*
X175847Y42314D1*
X176002Y42038D1*
X176108Y41739D1*
X176166Y41277D1*
X176139Y40961D1*
X176058Y40655D1*
X175926Y40366D1*
X175841Y40244D1*
Y36514D1*
X175808Y36199D1*
X175711Y35897D1*
X175600Y35692D1*
X175397Y35441D1*
X174444Y34488D1*
X174198Y34289D1*
X173916Y34145D1*
X173692Y34078D1*
X173371Y34044D1*
X134304Y34039D1*
X127288Y27024D1*
X127042Y26824D1*
X126760Y26680D1*
X126536Y26614D1*
X126215Y26579D1*
X119160D1*
X118905Y26396D1*
X118658Y26284D1*
X118560Y26077D1*
X118535Y25716D1*
X118460Y25408D1*
X118336Y25116D1*
X118225Y24940D1*
X118216Y21849D1*
X118226Y21792D1*
Y19649D1*
X118125D1*
X118315Y19368D1*
X118445Y19079D1*
X118528Y18772D1*
X118561Y18412D1*
X118535Y18096D1*
X118460Y17788D1*
X118299Y17437D1*
X118776Y17430D1*
Y13044D1*
X114390D1*
Y13074D1*
X113995Y13045D1*
X113679Y13074D1*
X113371Y13150D1*
X113077Y13268D1*
X112780Y13447D1*
X112382Y13228D1*
X112083Y13122D1*
X111772Y13061D1*
X111455Y13045D1*
X111139Y13074D1*
X110831Y13150D1*
X110537Y13268D1*
X110240Y13447D1*
X109842Y13228D1*
X109543Y13122D1*
X109232Y13061D1*
X108915Y13045D1*
X108599Y13074D1*
X108291Y13150D1*
X107997Y13268D1*
X107700Y13447D1*
X107302Y13228D1*
X107003Y13122D1*
X106692Y13061D1*
X106375Y13045D1*
X106059Y13074D1*
X105751Y13150D1*
X105457Y13268D1*
X105160Y13447D1*
X104762Y13228D1*
X104463Y13122D1*
X104152Y13061D1*
X103835Y13045D1*
X103519Y13074D1*
X103211Y13150D1*
X102917Y13268D1*
X102620Y13447D1*
X102222Y13228D1*
X101923Y13122D1*
X101612Y13061D1*
X101295Y13045D1*
X100979Y13074D1*
X100671Y13150D1*
X100377Y13268D1*
X100080Y13447D1*
X99682Y13228D1*
X99383Y13122D1*
X99072Y13061D1*
X98755Y13045D1*
X98439Y13074D1*
X98131Y13150D1*
X97837Y13268D1*
X97540Y13447D1*
X97142Y13228D1*
X96843Y13122D1*
X96532Y13061D1*
X96215Y13045D1*
X95899Y13074D1*
X95591Y13150D1*
X95297Y13268D1*
X95000Y13447D1*
X94602Y13228D1*
X94303Y13122D1*
X93992Y13061D1*
X93675Y13045D1*
X93359Y13074D1*
X93051Y13150D1*
X92757Y13268D1*
X92460Y13447D1*
X92062Y13228D1*
X91763Y13122D1*
X91452Y13061D1*
X91135Y13045D1*
X90819Y13074D1*
X90511Y13150D1*
X90217Y13268D1*
X89920Y13447D1*
X89522Y13228D1*
X89223Y13122D1*
X88912Y13061D1*
X88595Y13045D1*
X88279Y13074D1*
X87971Y13150D1*
X87677Y13268D1*
X87380Y13447D1*
X86982Y13228D1*
X86683Y13122D1*
X86372Y13061D1*
X86055Y13045D1*
X85739Y13074D1*
X85431Y13150D1*
X85137Y13268D1*
X84840Y13447D1*
X84442Y13228D1*
X84143Y13122D1*
X83832Y13061D1*
X83515Y13045D1*
X83199Y13074D1*
X82891Y13150D1*
X82597Y13268D1*
X82300Y13447D1*
X81902Y13228D1*
X81603Y13122D1*
X81292Y13061D1*
X80975Y13045D1*
X80659Y13074D1*
X80351Y13150D1*
X80057Y13268D1*
X79760Y13447D1*
X79362Y13228D1*
X79063Y13122D1*
X78752Y13061D1*
X78435Y13045D1*
X78119Y13074D1*
X77811Y13150D1*
X77517Y13268D1*
X77243Y13428D1*
X76995Y13626D1*
X76778Y13858D1*
X76597Y14118D1*
X76455Y14402D1*
X76356Y14703D1*
X76301Y15016D1*
X76292Y15333D1*
X76329Y15648D1*
X76411Y15954D1*
X76536Y16246D1*
X76702Y16516D1*
X76886Y16737D1*
X76890Y17231D1*
X76671Y17619D1*
X76568Y17918D1*
X76513Y18231D1*
X76510Y18548D1*
X76557Y18862D1*
X76654Y19164D1*
X76797Y19446D1*
X76943Y19647D1*
X75570Y19649D1*
Y20353D1*
X75120Y20779D1*
X74268Y21631D1*
X74063Y21874D1*
X73904Y22148D1*
X73794Y22445D1*
X73729Y22860D1*
X73728Y25559D1*
X73755Y25875D1*
X73836Y26182D1*
X73968Y26470D1*
X74216Y26808D1*
X74695Y27290D1*
X74689Y30648D1*
Y44449D1*
X74509Y44901D1*
X74449Y45263D1*
X73809Y45907D1*
X73608Y46153D1*
X73460Y46433D1*
X73371Y46737D1*
X73343Y47034D1*
Y50009D1*
X73374Y50325D1*
X73496Y50688D1*
X73432Y51011D1*
X67855Y56588D1*
X67475Y56608D1*
X67169Y56689D1*
X66880Y56822D1*
X66542Y57069D1*
X65934Y57675D1*
X65830Y57398D1*
X66231Y57252D1*
X66502Y57089D1*
X66742Y56881D1*
X66942Y56635D1*
X67098Y56359D1*
X67203Y56060D1*
X67262Y55598D1*
X67235Y55282D1*
X67154Y54975D1*
X67021Y54687D1*
X66841Y54426D1*
X66619Y54199D1*
X66362Y54014D1*
X66077Y53876D1*
X65772Y53789D1*
X65456Y53755D1*
X65140Y53776D1*
X64832Y53851D1*
X64541Y53977D1*
X64276Y54152D1*
X64045Y54369D1*
X63855Y54623D1*
X63743Y54844D1*
X63651Y54467D1*
X63519Y54179D1*
X63390Y53991D1*
X63385Y48273D1*
X63595Y47912D1*
X63701Y47613D1*
X63760Y47151D1*
X63732Y46835D1*
X63651Y46529D1*
X63519Y46241D1*
X63339Y45980D1*
X63117Y45753D1*
X62860Y45568D1*
X62574Y45430D1*
X62269Y45343D1*
X61954Y45309D1*
X61638Y45330D1*
X61329Y45405D1*
X61039Y45531D1*
X60774Y45706D1*
X60543Y45923D1*
X60353Y46177D1*
X60188Y46525D1*
X59927Y46642D1*
X59663Y46817D1*
X59432Y47034D1*
X59241Y47288D1*
X59097Y47571D1*
X59054Y47713D1*
X58710Y47928D1*
X58479Y48146D1*
X58289Y48399D1*
X58124Y48748D1*
X57863Y48865D1*
X57599Y49040D1*
X57368Y49257D1*
X57177Y49511D1*
X57033Y49793D1*
X56940Y50096D1*
X56900Y50411D1*
X56914Y50728D1*
X56983Y51037D1*
X57104Y51331D1*
X57279Y51606D1*
X57273Y53909D1*
X56882Y53789D1*
X56566Y53755D1*
X56250Y53776D1*
X55942Y53851D1*
X55651Y53977D1*
X55411Y54136D1*
X54416Y54130D1*
X54244Y54014D1*
X53959Y53876D1*
X53654Y53789D1*
X53339Y53755D1*
X53022Y53776D1*
X52714Y53851D1*
X52424Y53977D1*
X52159Y54152D1*
X51928Y54369D1*
X51738Y54623D1*
X51594Y54905D1*
X51500Y55209D1*
X51476Y55395D1*
X51047Y55565D1*
X50783Y55739D1*
X50552Y55957D1*
X50361Y56210D1*
X50217Y56493D1*
X50124Y56796D1*
X50084Y57111D1*
X50098Y57427D1*
X50135Y57592D1*
X49965Y58066D1*
X49925Y58381D1*
X49938Y58668D1*
X49741Y59033D1*
X49648Y59336D1*
X49608Y59651D1*
X49622Y59967D1*
X49740Y60396D1*
X49675Y60611D1*
X40991Y60608D1*
X41185Y60313D1*
X41333Y60032D1*
X41451Y59738D1*
X41538Y59432D1*
X41593Y59120D1*
X41617Y58738D1*
X41601Y58421D1*
X41552Y58107D1*
X41471Y57800D1*
X41360Y57503D1*
X41218Y57219D1*
X41049Y56951D1*
X40852Y56702D1*
X40631Y56474D1*
X40388Y56270D1*
X40125Y56092D1*
X39846Y55942D1*
X39552Y55821D1*
X39248Y55731D1*
X38936Y55672D1*
X38620Y55646D1*
X38303Y55653D1*
X37988Y55692D1*
X37678Y55763D1*
X37378Y55865D1*
X37090Y55998D1*
X36816Y56159D1*
X36561Y56348D1*
X36326Y56561D1*
X36115Y56798D1*
X35929Y57055D1*
X35770Y57330D1*
X35640Y57619D1*
X35541Y57921D1*
X35473Y58231D1*
X35437Y58546D1*
X35434Y58864D1*
X35463Y59180D1*
X35524Y59491D1*
X35617Y59794D1*
X35741Y60087D1*
X36057Y60601D1*
X32071Y60608D1*
X29528D1*
X29213Y60642D1*
X28913Y60743D1*
X28615Y60927D1*
X27592Y61936D1*
X22140Y67388D1*
X21941Y67635D1*
X21800Y67919D1*
X21719Y68260D1*
X21710Y69696D1*
Y92685D1*
X21232Y92621D1*
X20916Y92642D1*
X20608Y92717D1*
X20317Y92844D1*
X20052Y93018D1*
X19821Y93235D1*
X19631Y93489D1*
X19487Y93772D1*
X19394Y94075D1*
X19354Y94389D1*
X19368Y94706D1*
X19437Y95016D1*
X19539Y95263D1*
X19552Y96145D1*
X19562Y97708D1*
X19552Y97766D1*
Y98553D1*
X11321Y98551D1*
X11317Y43311D1*
Y15182D1*
X11557Y15543D1*
X11764Y15784D1*
X11997Y16000D1*
X12252Y16188D1*
X12527Y16347D1*
X12817Y16474D1*
X13121Y16568D1*
X13432Y16628D1*
X13749Y16653D1*
X14066Y16642D1*
X14380Y16596D1*
X14687Y16515D1*
X14983Y16400D1*
X15264Y16254D1*
X15527Y16076D1*
X15769Y15871D1*
X15986Y15640D1*
X16177Y15386D1*
X16338Y15112D1*
X16467Y14823D1*
X16563Y14520D1*
X16625Y14209D1*
X16653Y13810D1*
X16636Y13494D1*
X16583Y13181D1*
X16495Y12876D1*
X16374Y12582D1*
X16221Y12304D1*
X16039Y12045D1*
X15828Y11807D1*
X15592Y11595D1*
X15170Y11318D1*
X19821Y11317D1*
X19815Y12103D1*
Y16909D1*
X19983D1*
X19884Y17103D1*
X19785Y17405D1*
X19730Y17717D1*
X19721Y18034D1*
X19757Y18349D1*
X19839Y18656D1*
X19964Y18947D1*
X20130Y19218D1*
X20264Y19377D1*
X20275Y21668D1*
X20265Y21535D1*
Y23868D1*
X20552D1*
X20781Y24145D1*
X21051Y24405D1*
X21298Y24573D1*
X21572Y24692D1*
X21864Y24758D1*
X22701Y24771D1*
X40215D1*
X40417Y24871D1*
X40718Y24971D1*
X41032Y25017D1*
X41349Y25009D1*
X41660Y24947D1*
X42066Y24766D1*
X44135Y24771D1*
X59694D1*
X60009Y24739D1*
X60312Y24646D1*
X60591Y24494D1*
X60926Y24198D1*
X61172Y23911D1*
X61226Y23868D1*
X61654D1*
X61644Y20582D1*
X61654Y20715D1*
Y20130D1*
X62204Y20131D1*
Y15745D1*
X62095D1*
X62104Y14369D1*
X62094Y12924D1*
X115085Y68522D2*
X115122Y68827D1*
X115207Y69132D1*
X115337Y69422D1*
X115517Y69695D1*
X115405Y69843D1*
X115256Y70123D1*
X115152Y70423D1*
X115094Y70735D1*
X115084Y71052D1*
X115122Y71367D1*
X115207Y71672D1*
X115337Y71962D1*
X115517Y72235D1*
X115405Y72383D1*
X115256Y72663D1*
X115152Y72963D1*
X115094Y73275D1*
X115084Y73592D1*
X115122Y73907D1*
X115207Y74212D1*
X115337Y74502D1*
X115517Y74775D1*
X115405Y74923D1*
X115256Y75203D1*
X115152Y75503D1*
X115094Y75815D1*
X115084Y76132D1*
X115122Y76447D1*
X115207Y76752D1*
X115337Y77042D1*
X115517Y77315D1*
X115405Y77463D1*
X115256Y77743D1*
X115152Y78043D1*
X115094Y78355D1*
X115084Y78672D1*
X115122Y78987D1*
X115207Y79292D1*
X115337Y79582D1*
X115517Y79855D1*
X115405Y80003D1*
X115256Y80283D1*
X115152Y80583D1*
X115094Y80895D1*
X115084Y81212D1*
X115122Y81527D1*
X115207Y81832D1*
X115337Y82122D1*
X115510Y82388D1*
X115721Y82625D1*
X115965Y82827D1*
X116237Y82990D1*
X116530Y83111D1*
X116839Y83185D1*
X117155Y83212D1*
X117471Y83191D1*
X117781Y83123D1*
X118077Y83008D1*
X118352Y82850D1*
X118530Y82708D1*
X124249Y82712D1*
X125744Y84203D1*
X125739Y87953D1*
X122108Y84316D1*
X121863Y84116D1*
X121582Y83967D1*
X121278Y83878D1*
X120982Y83850D1*
X116566D1*
X115245Y82533D1*
X114999Y82332D1*
X114719Y82184D1*
X114415Y82095D1*
X114118Y82067D1*
X108890D1*
X109060Y81566D1*
X109108Y81120D1*
X109084Y80803D1*
X109012Y80494D1*
X108895Y80200D1*
X108678Y79857D1*
X108833Y79617D1*
X108969Y79330D1*
X109060Y79026D1*
X109108Y78580D1*
X109084Y78263D1*
X109012Y77954D1*
X108895Y77660D1*
X108678Y77317D1*
X108833Y77077D1*
X108969Y76790D1*
X109060Y76486D1*
X109108Y76040D1*
X109084Y75723D1*
X109012Y75414D1*
X108895Y75120D1*
X108678Y74777D1*
X108833Y74537D1*
X108969Y74250D1*
X109060Y73946D1*
X109108Y73500D1*
X109084Y73183D1*
X109012Y72874D1*
X108895Y72580D1*
X108734Y72306D1*
X108534Y72060D1*
X108299Y71847D1*
X108035Y71672D1*
X107747Y71539D1*
X107442Y71451D1*
X107127Y71410D1*
X106810Y71417D1*
X106498Y71472D1*
X106197Y71573D1*
X105916Y71719D1*
X105747Y71841D1*
X105418Y71599D1*
X105132Y71460D1*
X104894Y71392D1*
X104989Y71104D1*
X105048Y70642D1*
X105021Y70326D1*
X104939Y70020D1*
X104807Y69731D1*
X104678Y69544D1*
X104845Y69385D1*
X105050Y69131D1*
X105177Y69422D1*
X105350Y69688D1*
X105561Y69925D1*
X105805Y70127D1*
X106077Y70290D1*
X106370Y70411D1*
X106679Y70485D1*
X106995Y70512D1*
X107311Y70491D1*
X107621Y70423D1*
X107917Y70308D1*
X108192Y70150D1*
X108440Y69952D1*
X108655Y69719D1*
X108833Y69457D1*
X108969Y69170D1*
X109060Y68866D1*
X109108Y68420D1*
X109084Y68103D1*
X109012Y67794D1*
X108840Y67406D1*
X110190Y67397D1*
X113838Y67402D1*
X114665Y68229D1*
X114851Y68386D1*
X276880Y111725D2*
X276624Y111555D1*
X276336Y111422D1*
X276031Y111334D1*
X275716Y111293D1*
X275399Y111300D1*
X275087Y111355D1*
X274786Y111456D1*
X274505Y111602D1*
X274248Y111788D1*
X274023Y112012D1*
X273834Y112266D1*
X273685Y112547D1*
X273581Y112846D1*
X273523Y113158D1*
X273513Y113475D1*
X273551Y113790D1*
X273636Y114096D1*
X273767Y114385D1*
X273939Y114651D1*
X274091Y114821D1*
X274086Y115923D1*
X274119Y116238D1*
X274217Y116539D1*
X274328Y116745D1*
X274531Y116996D1*
X275356Y117828D1*
Y123374D1*
X275087Y123420D1*
X274786Y123521D1*
X274505Y123667D1*
X274336Y123789D1*
X274084Y123620D1*
X273796Y123487D1*
X273491Y123399D1*
X273176Y123358D1*
X272859Y123365D1*
X272547Y123420D1*
X272246Y123521D1*
X271965Y123667D1*
X271708Y123853D1*
X271483Y124077D1*
X271294Y124331D1*
X271145Y124612D1*
X271041Y124911D1*
X270983Y125223D1*
X270973Y125540D1*
X271011Y125855D1*
X271096Y126161D1*
X271227Y126450D1*
X271399Y126716D1*
X271610Y126953D1*
X271854Y127155D1*
X272126Y127319D1*
X272420Y127439D1*
X272728Y127513D1*
X273044Y127541D1*
X273360Y127519D1*
X273670Y127451D1*
X273966Y127336D1*
X274326Y127110D1*
X274666Y127319D1*
X274960Y127439D1*
X275268Y127513D1*
X275584Y127541D1*
X275900Y127519D1*
X276210Y127451D1*
X276506Y127336D1*
X276866Y127110D1*
X274531Y129454D1*
X274331Y129701D1*
X274187Y129983D1*
X274121Y130207D1*
X274086Y130528D1*
Y131629D1*
X273834Y131951D1*
X273685Y132232D1*
X273581Y132531D1*
X273523Y132843D1*
X273513Y133160D1*
X273551Y133475D1*
X273636Y133781D1*
X273767Y134070D1*
X273939Y134336D1*
X274150Y134573D1*
X274394Y134775D1*
X274666Y134939D1*
X274960Y135059D1*
X275268Y135133D1*
X275584Y135161D1*
X275900Y135139D1*
X276210Y135071D1*
X276506Y134956D1*
X276866Y134730D1*
X277206Y134939D1*
X277500Y135059D1*
X277808Y135133D1*
X278124Y135161D1*
X278440Y135139D1*
X278750Y135071D1*
X279046Y134956D1*
X279406Y134730D1*
X279746Y134939D1*
X280040Y135059D1*
X280348Y135133D1*
X280664Y135161D1*
X280980Y135139D1*
X281290Y135071D1*
X281586Y134956D1*
X281946Y134730D1*
X282286Y134939D1*
X282580Y135059D1*
X282888Y135133D1*
X283204Y135161D1*
X283520Y135139D1*
X283830Y135071D1*
X284126Y134956D1*
X284486Y134730D1*
X284826Y134939D1*
X285120Y135059D1*
X285428Y135133D1*
X285744Y135161D1*
X286060Y135139D1*
X286370Y135071D1*
X286666Y134956D1*
X287026Y134730D1*
X287366Y134939D1*
X287660Y135059D1*
X287968Y135133D1*
X288284Y135161D1*
X288746Y135107D1*
X288751Y135161D1*
X289535D1*
X289174Y135361D1*
X268391Y135360D1*
X268015Y135160D1*
X269442Y135161D1*
Y130975D1*
X267606D1*
X267597Y129575D1*
Y127521D1*
X267955Y127451D1*
X268251Y127336D1*
X268526Y127178D1*
X268774Y126981D1*
X268989Y126748D1*
X269167Y126485D1*
X269303Y126198D1*
X269394Y125894D1*
X269442Y125448D1*
X269419Y125141D1*
X271086Y123470D1*
X271288Y123226D1*
X271441Y122948D1*
X271540Y122647D1*
X271582Y122273D1*
Y115923D1*
X271552Y115607D1*
X271464Y115302D1*
X271321Y115020D1*
X271086Y114726D1*
X269409Y113049D1*
X269346Y112757D1*
X269229Y112463D1*
X269068Y112189D1*
X268868Y111943D1*
X268633Y111730D1*
X268369Y111555D1*
X268081Y111422D1*
X267776Y111334D1*
X267461Y111293D1*
X267144Y111300D1*
X266832Y111355D1*
X266531Y111456D1*
X266250Y111602D1*
X266081Y111724D1*
X265829Y111555D1*
X265541Y111422D1*
X265236Y111334D1*
X264812Y111295D1*
X264612Y111039D1*
X259259Y105686D1*
X262269Y105693D1*
X274662Y105698D1*
X277896Y108938D1*
Y110436D1*
X277706Y110785D1*
X277613Y111089D1*
X277576Y111374D1*
X277326Y111456D1*
X277045Y111602D1*
X276876Y111724D1*
X253385Y111725D2*
X253129Y111555D1*
X252841Y111422D1*
X252536Y111334D1*
X252221Y111293D1*
X251904Y111300D1*
X251592Y111355D1*
X251291Y111456D1*
X251010Y111602D1*
X250753Y111788D1*
X250528Y112012D1*
X250339Y112266D1*
X250190Y112547D1*
X250086Y112846D1*
X250028Y113158D1*
X250018Y113475D1*
X250056Y113790D1*
X250141Y114096D1*
X250272Y114385D1*
X250444Y114651D1*
X250596Y114821D1*
X250690Y115192D1*
X250833Y115475D1*
X251036Y115726D1*
X251861Y116558D1*
Y123374D1*
X251592Y123420D1*
X251291Y123521D1*
X251010Y123667D1*
X250841Y123789D1*
X250589Y123620D1*
X250301Y123487D1*
X249996Y123399D1*
X249681Y123358D1*
X249364Y123365D1*
X249052Y123420D1*
X248751Y123521D1*
X248470Y123667D1*
X248213Y123853D1*
X247988Y124077D1*
X247799Y124331D1*
X247650Y124612D1*
X247546Y124911D1*
X247488Y125223D1*
X247478Y125540D1*
X247516Y125855D1*
X247601Y126161D1*
X247732Y126450D1*
X247904Y126716D1*
X248115Y126953D1*
X248359Y127155D1*
X248631Y127319D1*
X248925Y127439D1*
X249233Y127513D1*
X249549Y127541D1*
X249865Y127519D1*
X250175Y127451D1*
X250471Y127336D1*
X250831Y127110D1*
X251171Y127319D1*
X251465Y127439D1*
X251773Y127513D1*
X252089Y127541D1*
X252336Y127524D1*
X251036Y128819D1*
X250836Y129066D1*
X250692Y129348D1*
X250626Y129572D1*
X250591Y129893D1*
Y131629D1*
X250339Y131951D1*
X250190Y132232D1*
X250086Y132531D1*
X250028Y132843D1*
X250018Y133160D1*
X250056Y133475D1*
X250141Y133781D1*
X250272Y134070D1*
X250444Y134336D1*
X250655Y134573D1*
X250899Y134775D1*
X251171Y134939D1*
X251465Y135059D1*
X251773Y135133D1*
X252089Y135161D1*
X252405Y135139D1*
X252715Y135071D1*
X253011Y134956D1*
X253371Y134730D1*
X253711Y134939D1*
X254005Y135059D1*
X254313Y135133D1*
X254629Y135161D1*
X254945Y135139D1*
X255255Y135071D1*
X255551Y134956D1*
X255911Y134730D1*
X256251Y134939D1*
X256545Y135059D1*
X256853Y135133D1*
X257169Y135161D1*
X257485Y135139D1*
X257795Y135071D1*
X258091Y134956D1*
X258451Y134730D1*
X258791Y134939D1*
X259085Y135059D1*
X259393Y135133D1*
X259709Y135161D1*
X260025Y135139D1*
X260335Y135071D1*
X260631Y134956D1*
X260991Y134730D1*
X261331Y134939D1*
X261625Y135059D1*
X261933Y135133D1*
X262249Y135161D1*
X262565Y135139D1*
X262875Y135071D1*
X263171Y134956D1*
X263531Y134730D1*
X263871Y134939D1*
X264165Y135059D1*
X264473Y135133D1*
X264789Y135161D1*
X265251Y135107D1*
X265256Y135161D1*
X266675D1*
X266314Y135361D1*
X244896Y135360D1*
X244520Y135160D1*
X245947Y135161D1*
Y130975D1*
X244111D1*
X244102Y129575D1*
Y127521D1*
X244460Y127451D1*
X244756Y127336D1*
X245031Y127178D1*
X245279Y126981D1*
X245494Y126748D1*
X245672Y126485D1*
X245808Y126198D1*
X245899Y125894D1*
X245949Y125429D1*
X247274Y124105D1*
X247476Y123861D1*
X247629Y123583D1*
X247728Y123282D1*
X247769Y122908D1*
Y115605D1*
X247740Y115290D1*
X247652Y114985D1*
X247508Y114702D1*
X247274Y114408D1*
X245920Y113054D1*
X245851Y112757D1*
X245734Y112463D1*
X245573Y112189D1*
X245373Y111943D1*
X245138Y111730D1*
X244874Y111555D1*
X244586Y111422D1*
X244281Y111334D1*
X243966Y111293D1*
X243649Y111300D1*
X243337Y111355D1*
X243036Y111456D1*
X242755Y111602D1*
X242586Y111724D1*
X242334Y111555D1*
X242046Y111422D1*
X241741Y111334D1*
X241317Y111295D1*
X241117Y111039D1*
X239483Y109405D1*
X254400Y109403D1*
X254401Y110436D1*
X254211Y110785D1*
X254118Y111089D1*
X254081Y111374D1*
X253831Y111456D1*
X253550Y111602D1*
X253381Y111724D1*
X226564Y112992D2*
X226533Y113158D1*
X226523Y113475D1*
X226561Y113790D1*
X226646Y114096D1*
X226777Y114385D1*
X226949Y114651D1*
X227101Y114821D1*
X227195Y115192D1*
X227338Y115475D1*
X227541Y115726D1*
X228366Y116558D1*
Y123374D1*
X228097Y123420D1*
X227796Y123521D1*
X227515Y123667D1*
X227346Y123789D1*
X227094Y123620D1*
X226806Y123487D1*
X226501Y123399D1*
X226186Y123358D1*
X225869Y123365D1*
X225557Y123420D1*
X225256Y123521D1*
X224975Y123667D1*
X224718Y123853D1*
X224493Y124077D1*
X224304Y124331D1*
X224155Y124612D1*
X224051Y124911D1*
X223993Y125223D1*
X223983Y125540D1*
X224021Y125855D1*
X224106Y126161D1*
X224237Y126450D1*
X224409Y126716D1*
X224620Y126953D1*
X224864Y127155D1*
X225136Y127319D1*
X225430Y127439D1*
X225738Y127513D1*
X226054Y127541D1*
X226370Y127519D1*
X226680Y127451D1*
X226976Y127336D1*
X227336Y127110D1*
X227676Y127319D1*
X227970Y127439D1*
X228278Y127513D1*
X228594Y127541D1*
X228841Y127524D1*
X227541Y128819D1*
X227341Y129066D1*
X227197Y129348D1*
X227131Y129572D1*
X227096Y129893D1*
Y131629D1*
X226844Y131951D1*
X226695Y132232D1*
X226591Y132531D1*
X226533Y132843D1*
X226523Y133160D1*
X226561Y133475D1*
X226646Y133781D1*
X226777Y134070D1*
X226949Y134336D1*
X227160Y134573D1*
X227404Y134775D1*
X227676Y134939D1*
X227970Y135059D1*
X228278Y135133D1*
X228594Y135161D1*
X228910Y135139D1*
X229220Y135071D1*
X229516Y134956D1*
X229876Y134730D1*
X230216Y134939D1*
X230510Y135059D1*
X230818Y135133D1*
X231134Y135161D1*
X231450Y135139D1*
X231760Y135071D1*
X232056Y134956D1*
X232416Y134730D1*
X232756Y134939D1*
X233050Y135059D1*
X233358Y135133D1*
X233674Y135161D1*
X233990Y135139D1*
X234300Y135071D1*
X234596Y134956D1*
X234956Y134730D1*
X235296Y134939D1*
X235590Y135059D1*
X235898Y135133D1*
X236214Y135161D1*
X236530Y135139D1*
X236840Y135071D1*
X237136Y134956D1*
X237496Y134730D1*
X237836Y134939D1*
X238130Y135059D1*
X238438Y135133D1*
X238754Y135161D1*
X239070Y135139D1*
X239380Y135071D1*
X239676Y134956D1*
X240036Y134730D1*
X240376Y134939D1*
X240670Y135059D1*
X240978Y135133D1*
X241294Y135161D1*
X241756Y135107D1*
X241761Y135161D1*
X243180D1*
X242819Y135361D1*
X221401Y135360D1*
X221025Y135160D1*
X222452Y135161D1*
Y130975D1*
X219346D1*
X219337Y129575D1*
X219341Y128612D1*
X220162Y127791D1*
X220319Y127605D1*
X220965Y127451D1*
X221261Y127336D1*
X221536Y127178D1*
X221784Y126981D1*
X221999Y126748D1*
X222177Y126485D1*
X222313Y126198D1*
X222404Y125894D1*
X222452Y125448D1*
X222428Y125131D1*
X222368Y124871D1*
X224026Y123223D1*
X224731Y122517D1*
X224933Y122273D1*
X225086Y121995D1*
X225185Y121694D1*
X225227Y121320D1*
Y116558D1*
X225197Y116242D1*
X225109Y115937D1*
X224966Y115655D1*
X224731Y115361D1*
X222423Y113052D1*
X222582Y112996D1*
X226560D1*
X218584Y135161D2*
X219685D1*
X219481Y135257D1*
X219216Y135432D1*
X218985Y135649D1*
X218795Y135903D1*
X218651Y136185D1*
X218558Y136489D1*
X218518Y136803D1*
X218532Y137120D1*
X218601Y137429D1*
X218721Y137723D1*
X218890Y137991D1*
X219030Y138145D1*
X199116Y138142D1*
X197817Y136848D1*
X197822Y126400D1*
X197833Y125999D1*
X197954Y126293D1*
X198123Y126561D1*
X198336Y126796D1*
X198585Y126992D1*
X198865Y127141D1*
X199166Y127241D1*
X199480Y127287D1*
X199797Y127279D1*
X200108Y127217D1*
X200403Y127102D1*
X200675Y126939D1*
X200921Y126723D1*
X201125Y126953D1*
X201369Y127155D1*
X201641Y127319D1*
X201935Y127439D1*
X202243Y127513D1*
X202559Y127541D1*
X202875Y127519D1*
X203185Y127451D1*
X203481Y127336D1*
X203841Y127110D1*
X204181Y127319D1*
X204475Y127439D1*
X204783Y127513D1*
X205099Y127541D1*
X205346Y127524D1*
X204046Y128819D1*
X203846Y129066D1*
X203702Y129348D1*
X203636Y129572D1*
X203601Y129893D1*
Y131629D1*
X203349Y131951D1*
X203200Y132232D1*
X203096Y132531D1*
X203038Y132843D1*
X203028Y133160D1*
X203066Y133475D1*
X203151Y133781D1*
X203282Y134070D1*
X203454Y134336D1*
X203665Y134573D1*
X203909Y134775D1*
X204181Y134939D1*
X204475Y135059D1*
X204783Y135133D1*
X205099Y135161D1*
X205415Y135139D1*
X205725Y135071D1*
X206021Y134956D1*
X206381Y134730D1*
X206721Y134939D1*
X207015Y135059D1*
X207323Y135133D1*
X207639Y135161D1*
X207955Y135139D1*
X208265Y135071D1*
X208561Y134956D1*
X208921Y134730D1*
X209261Y134939D1*
X209555Y135059D1*
X209863Y135133D1*
X210179Y135161D1*
X210495Y135139D1*
X210805Y135071D1*
X211101Y134956D1*
X211461Y134730D1*
X211801Y134939D1*
X212095Y135059D1*
X212403Y135133D1*
X212719Y135161D1*
X213035Y135139D1*
X213345Y135071D1*
X213641Y134956D1*
X214001Y134730D1*
X214341Y134939D1*
X214635Y135059D1*
X214943Y135133D1*
X215259Y135161D1*
X215575Y135139D1*
X215885Y135071D1*
X216181Y134956D1*
X216541Y134730D1*
X216881Y134939D1*
X217175Y135059D1*
X217483Y135133D1*
X217799Y135161D1*
X218261Y135107D1*
X218266Y135161D1*
X218584D1*
X129634Y170403D2*
X132599D1*
Y166217D1*
X128414D1*
Y166267D1*
X128079Y166220D1*
X127762Y166227D1*
X127449Y166282D1*
X127149Y166384D1*
X126867Y166529D1*
X126699Y166652D1*
X126446Y166482D1*
X126158Y166349D1*
X125854Y166261D1*
X125539Y166220D1*
X125222Y166227D1*
X124909Y166282D1*
X124609Y166384D1*
X124327Y166529D1*
X124159Y166652D1*
X123906Y166482D1*
X123618Y166349D1*
X123314Y166261D1*
X122999Y166220D1*
X122682Y166227D1*
X122369Y166282D1*
X122069Y166384D1*
X121787Y166529D1*
X121619Y166652D1*
X121366Y166482D1*
X121078Y166349D1*
X120774Y166261D1*
X120459Y166220D1*
X120142Y166227D1*
X119829Y166282D1*
X119529Y166384D1*
X119247Y166529D1*
X119079Y166652D1*
X118826Y166482D1*
X118538Y166349D1*
X118234Y166261D1*
X117919Y166220D1*
X117602Y166227D1*
X117289Y166282D1*
X116989Y166384D1*
X116707Y166529D1*
X116539Y166652D1*
X116286Y166482D1*
X115998Y166349D1*
X115694Y166261D1*
X115510Y166227D1*
Y162764D1*
X115873Y162693D1*
X116168Y162579D1*
X116529Y162353D1*
X116869Y162561D1*
X117162Y162681D1*
X117470Y162756D1*
X117786Y162783D1*
X118103Y162762D1*
X118413Y162693D1*
X118708Y162579D1*
X119069Y162353D1*
X119409Y162561D1*
X119702Y162681D1*
X120010Y162756D1*
X120326Y162783D1*
X120643Y162762D1*
X120953Y162693D1*
X121248Y162579D1*
X121609Y162353D1*
X121949Y162561D1*
X122242Y162681D1*
X122550Y162756D1*
X122866Y162783D1*
X123183Y162762D1*
X123493Y162693D1*
X123788Y162579D1*
X124149Y162353D1*
X124489Y162561D1*
X124782Y162681D1*
X125090Y162756D1*
X125406Y162783D1*
X125723Y162762D1*
X126033Y162693D1*
X126328Y162579D1*
X126689Y162353D1*
X127029Y162561D1*
X127322Y162681D1*
X127630Y162756D1*
X127946Y162783D1*
X128263Y162762D1*
X128573Y162693D1*
X128868Y162579D1*
X129229Y162353D1*
X129569Y162561D1*
X129862Y162681D1*
X130170Y162756D1*
X130486Y162783D1*
X130803Y162762D1*
X131113Y162693D1*
X131408Y162579D1*
X131683Y162421D1*
X131931Y162223D1*
X132147Y161990D1*
X132324Y161727D1*
X132460Y161441D1*
X132551Y161137D1*
X132599Y160690D1*
X132575Y160374D1*
X132504Y160065D1*
X132351Y159710D1*
X132356Y157812D1*
X132326Y157496D1*
X132238Y157192D1*
X132095Y156909D1*
X131901Y156658D1*
X131664Y156447D1*
X131392Y156284D1*
X131095Y156175D1*
X130663Y156119D1*
X115353D1*
X115331Y155908D1*
X115250Y155602D1*
X115118Y155313D1*
X114938Y155052D1*
X114716Y154826D1*
X114459Y154641D1*
X114173Y154502D1*
X113868Y154415D1*
X113553Y154382D1*
X113237Y154402D1*
X112929Y154477D1*
X112638Y154604D1*
X112481Y154707D1*
X95270Y154706D1*
X94874Y154502D1*
X94569Y154415D1*
X94254Y154382D1*
X93937Y154402D1*
X93629Y154477D1*
X93338Y154604D1*
X93181Y154707D1*
X72239Y154706D1*
X71851Y154502D1*
X71546Y154415D1*
X71231Y154382D1*
X70915Y154402D1*
X70606Y154477D1*
X70316Y154604D1*
X70158Y154707D1*
X48422Y154706D1*
X48106Y154739D1*
X47805Y154837D1*
X47600Y154948D1*
X47348Y155151D1*
X44343Y158156D1*
X44144Y158402D1*
X44000Y158684D1*
X43933Y158908D1*
X43899Y159259D1*
X43646Y159574D1*
X43498Y159854D1*
X43394Y160154D1*
X43336Y160466D1*
X43326Y160783D1*
X43364Y161098D1*
X43449Y161403D1*
X43579Y161692D1*
X43752Y161958D1*
X43962Y162195D1*
X44138Y162341D1*
X43518Y162950D1*
X43193Y163012D1*
X42903Y163140D1*
X42646Y163326D1*
X42433Y163561D1*
X42274Y163835D1*
X42175Y164136D1*
X42141Y164457D1*
Y169878D1*
X42174Y170193D1*
X42272Y170495D1*
X42382Y170700D1*
X42585Y170951D1*
X51635Y180001D1*
X51881Y180201D1*
X52164Y180345D1*
X52387Y180411D1*
X52708Y180446D1*
X64150Y180450D1*
X64971Y181271D1*
X64719Y181501D1*
X64517Y181746D1*
X64350Y182016D1*
X64221Y182305D1*
X64130Y182610D1*
X64081Y182923D1*
X64073Y183240D1*
X64108Y183556D1*
X64184Y183864D1*
X64300Y184159D1*
X64454Y184436D1*
X64644Y184691D1*
X64865Y184918D1*
X65115Y185114D1*
X65388Y185275D1*
X65680Y185399D1*
X65986Y185482D1*
X66300Y185525D1*
X66618Y185526D1*
X66932Y185484D1*
X67239Y185402D1*
X67531Y185279D1*
X67728Y185164D1*
X68220Y185399D1*
X68526Y185482D1*
X68840Y185525D1*
X69158Y185526D1*
X69472Y185484D1*
X69779Y185402D1*
X70071Y185279D1*
X70268Y185164D1*
X70760Y185399D1*
X71066Y185482D1*
X71380Y185525D1*
X71698Y185526D1*
X72012Y185484D1*
X72319Y185402D1*
X72611Y185279D1*
X72808Y185164D1*
X73300Y185399D1*
X73606Y185482D1*
X73920Y185525D1*
X74238Y185526D1*
X74552Y185484D1*
X74859Y185402D1*
X75151Y185279D1*
X75348Y185164D1*
X75840Y185399D1*
X76146Y185482D1*
X76460Y185525D1*
X76778Y185526D1*
X77092Y185484D1*
X77399Y185402D1*
X77691Y185279D1*
X77888Y185164D1*
X78380Y185399D1*
X78686Y185482D1*
X79000Y185525D1*
X79318Y185526D1*
X79632Y185484D1*
X79939Y185402D1*
X80231Y185279D1*
X80428Y185164D1*
X80920Y185399D1*
X81226Y185482D1*
X81540Y185525D1*
X81858Y185526D1*
X82172Y185484D1*
X82479Y185402D1*
X82771Y185279D1*
X82968Y185164D1*
X83460Y185399D1*
X83766Y185482D1*
X84080Y185525D1*
X84398Y185526D1*
X84712Y185484D1*
X85019Y185402D1*
X85311Y185279D1*
X85508Y185164D1*
X86000Y185399D1*
X86306Y185482D1*
X86620Y185525D1*
X86938Y185526D1*
X87252Y185484D1*
X87559Y185402D1*
X87851Y185279D1*
X88048Y185164D1*
X88540Y185399D1*
X88846Y185482D1*
X89160Y185525D1*
X89478Y185526D1*
X89792Y185484D1*
X90099Y185402D1*
X90391Y185279D1*
X90588Y185164D1*
X91080Y185399D1*
X91386Y185482D1*
X91700Y185525D1*
X92018Y185526D1*
X92332Y185484D1*
X92639Y185402D1*
X92931Y185279D1*
X93128Y185164D1*
X93620Y185399D1*
X93926Y185482D1*
X94240Y185525D1*
X94558Y185526D1*
X94872Y185484D1*
X95179Y185402D1*
X95471Y185279D1*
X95668Y185164D1*
X96160Y185399D1*
X96466Y185482D1*
X96780Y185525D1*
X97098Y185526D1*
X97412Y185484D1*
X97719Y185402D1*
X98011Y185279D1*
X98208Y185164D1*
X98700Y185399D1*
X99006Y185482D1*
X99320Y185525D1*
X99638Y185526D1*
X99952Y185484D1*
X100259Y185402D1*
X100551Y185279D1*
X100748Y185164D1*
X101240Y185399D1*
X101546Y185482D1*
X101860Y185525D1*
X105029Y185531D1*
X106957D1*
Y180745D1*
X106074D1*
X106082Y179020D1*
X120502Y179017D1*
X120817Y178984D1*
X121118Y178886D1*
X121324Y178775D1*
X121575Y178572D1*
X129354Y170793D1*
X129511Y170607D1*
X112342Y162744D2*
X112479Y162764D1*
X112474Y169902D1*
X112470Y172588D1*
X111611Y173441D1*
X109239D1*
X111890Y170793D1*
X112090Y170546D1*
X112234Y170264D1*
X112300Y170040D1*
X112335Y169719D1*
Y162744D1*
X272249Y168532D2*
X272243Y168720D1*
X272281Y169035D1*
X272366Y169341D1*
X272497Y169630D1*
X272669Y169896D1*
X272834Y170081D1*
X272829Y173055D1*
X271171Y174711D1*
X270705D1*
X270754Y174500D1*
X271292Y173968D1*
X271491Y173722D1*
X271635Y173439D1*
X271702Y173216D1*
X271736Y172895D1*
Y168539D1*
X272253Y168538D1*
X27896Y161656D2*
Y157633D1*
X27176D1*
X27186Y155416D1*
Y150167D1*
X27549Y149801D1*
X27855Y150118D1*
X28102Y150316D1*
X28386Y150457D1*
X28727Y150538D1*
X30163Y150548D1*
X32678Y150555D1*
X31841Y151392D1*
X31632Y151631D1*
X31458Y151896D1*
X31321Y152182D1*
X31224Y152484D1*
X31185Y152675D1*
X31155Y153049D1*
Y161651D1*
X27892Y161655D1*
X109293Y166217D2*
X106189D1*
Y166267D1*
X105854Y166220D1*
X105537Y166227D1*
X105224Y166282D1*
X104924Y166384D1*
X104642Y166529D1*
X104474Y166652D1*
X104221Y166482D1*
X103933Y166349D1*
X103629Y166261D1*
X103314Y166220D1*
X102997Y166227D1*
X102684Y166282D1*
X102384Y166384D1*
X102102Y166529D1*
X101934Y166652D1*
X101681Y166482D1*
X101393Y166349D1*
X101089Y166261D1*
X100774Y166220D1*
X100457Y166227D1*
X100144Y166282D1*
X99844Y166384D1*
X99562Y166529D1*
X99394Y166652D1*
X99141Y166482D1*
X98853Y166349D1*
X98549Y166261D1*
X98234Y166220D1*
X97917Y166227D1*
X97604Y166282D1*
X97304Y166384D1*
X97022Y166529D1*
X96854Y166652D1*
X96601Y166482D1*
X96313Y166349D1*
X96009Y166261D1*
X95694Y166220D1*
X95377Y166227D1*
X95064Y166282D1*
X94764Y166384D1*
X94482Y166529D1*
X94314Y166652D1*
X94061Y166482D1*
X93773Y166349D1*
X93469Y166261D1*
X93154Y166220D1*
X92837Y166227D1*
X92524Y166282D1*
X92224Y166384D1*
X91942Y166529D1*
X91686Y166716D1*
X91460Y166939D1*
X91271Y167194D1*
X91123Y167474D1*
X91019Y167774D1*
X90961Y168086D1*
X90955Y168254D1*
X90842Y168215D1*
X90846Y166275D1*
X94267Y162854D1*
X94424Y162669D1*
X94644Y162561D1*
X94937Y162681D1*
X95245Y162756D1*
X95561Y162783D1*
X95878Y162762D1*
X96188Y162693D1*
X96483Y162579D1*
X96844Y162353D1*
X97184Y162561D1*
X97477Y162681D1*
X97785Y162756D1*
X98101Y162783D1*
X98418Y162762D1*
X98728Y162693D1*
X99023Y162579D1*
X99384Y162353D1*
X99724Y162561D1*
X100017Y162681D1*
X100325Y162756D1*
X100641Y162783D1*
X100958Y162762D1*
X101268Y162693D1*
X101563Y162579D1*
X101924Y162353D1*
X102264Y162561D1*
X102557Y162681D1*
X102865Y162756D1*
X103181Y162783D1*
X103498Y162762D1*
X103808Y162693D1*
X104103Y162579D1*
X104464Y162353D1*
X104804Y162561D1*
X105097Y162681D1*
X105405Y162756D1*
X105721Y162783D1*
X106038Y162762D1*
X106348Y162693D1*
X106643Y162579D1*
X107004Y162353D1*
X107344Y162561D1*
X107637Y162681D1*
X107945Y162756D1*
X108261Y162783D1*
X108578Y162762D1*
X108888Y162693D1*
X109295Y162515D1*
X109299Y166216D1*
X225557Y169786D2*
Y167107D1*
X227200Y165468D1*
X227401Y165222D1*
X227549Y164942D1*
X227639Y164638D1*
X227667Y164341D1*
Y163081D1*
X227739Y163222D1*
Y170821D1*
X227155Y170234D1*
X226908Y170034D1*
X226626Y169890D1*
X226403Y169823D1*
X226081Y169789D1*
X225556D1*
X140601Y58421D2*
X140552Y58107D1*
X140471Y57800D1*
X140360Y57503D1*
X140218Y57219D1*
X140049Y56951D1*
X139852Y56702D1*
X139631Y56474D1*
X139388Y56270D1*
X139125Y56092D1*
X138846Y55942D1*
X138552Y55821D1*
X138248Y55731D1*
X137936Y55672D1*
X137620Y55646D1*
X137303Y55653D1*
X136988Y55692D1*
X136678Y55763D1*
X136378Y55865D1*
X136090Y55998D1*
X135816Y56159D1*
X135561Y56348D1*
X135326Y56561D1*
X135115Y56798D1*
X134929Y57055D1*
X134770Y57330D1*
X134640Y57619D1*
X134541Y57921D1*
X134473Y58231D1*
X134437Y58546D1*
X134434Y58864D1*
X134463Y59180D1*
X134524Y59491D1*
X134617Y59794D1*
X134741Y60087D1*
X134894Y60365D1*
X135074Y60626D1*
X135281Y60867D1*
X135511Y61086D1*
X135762Y61279D1*
X136032Y61447D1*
X136317Y61585D1*
X136615Y61694D1*
X136923Y61772D1*
X137237Y61817D1*
X137554Y61830D1*
X137871Y61811D1*
X138184Y61759D1*
X138490Y61676D1*
X138786Y61561D1*
X139069Y61417D1*
X139335Y61245D1*
X139583Y61046D1*
X139808Y60823D1*
X140010Y60578D1*
X140185Y60313D1*
X140333Y60032D1*
X140451Y59738D1*
X140538Y59432D1*
X140593Y59120D1*
X140617Y58738D1*
X140601Y58421D1*
Y157421D2*
X140552Y157107D1*
X140471Y156800D1*
X140360Y156503D1*
X140218Y156219D1*
X140049Y155951D1*
X139852Y155702D1*
X139631Y155474D1*
X139388Y155270D1*
X139125Y155092D1*
X138846Y154942D1*
X138552Y154821D1*
X138248Y154731D1*
X137936Y154672D1*
X137620Y154646D1*
X137303Y154653D1*
X136988Y154692D1*
X136678Y154763D1*
X136378Y154865D1*
X136090Y154998D1*
X135816Y155159D1*
X135561Y155348D1*
X135326Y155561D1*
X135115Y155798D1*
X134929Y156055D1*
X134770Y156330D1*
X134640Y156619D1*
X134541Y156921D1*
X134473Y157231D1*
X134437Y157546D1*
X134434Y157864D1*
X134463Y158180D1*
X134524Y158491D1*
X134617Y158794D1*
X134741Y159087D1*
X134894Y159365D1*
X135074Y159626D1*
X135281Y159867D1*
X135511Y160086D1*
X135762Y160279D1*
X136032Y160447D1*
X136317Y160585D1*
X136615Y160694D1*
X136923Y160772D1*
X137237Y160817D1*
X137554Y160830D1*
X137871Y160811D1*
X138184Y160759D1*
X138490Y160676D1*
X138786Y160561D1*
X139069Y160417D1*
X139335Y160245D1*
X139583Y160046D1*
X139808Y159823D1*
X140010Y159578D1*
X140185Y159313D1*
X140333Y159032D1*
X140451Y158738D1*
X140538Y158432D1*
X140593Y158120D1*
X140617Y157738D1*
X140601Y157421D1*
X299668Y58421D2*
X299619Y58107D1*
X299539Y57800D1*
X299427Y57503D1*
X299286Y57219D1*
X299116Y56951D1*
X298920Y56702D1*
X298699Y56474D1*
X298456Y56270D1*
X298193Y56092D1*
X297913Y55942D1*
X297620Y55821D1*
X297316Y55731D1*
X297004Y55672D1*
X296687Y55646D1*
X296370Y55653D1*
X296055Y55692D1*
X295746Y55763D1*
X295445Y55865D1*
X295157Y55998D1*
X294884Y56159D1*
X294629Y56348D1*
X294394Y56561D1*
X294182Y56798D1*
X293996Y57055D1*
X293838Y57330D1*
X293708Y57619D1*
X293608Y57921D1*
X293540Y58231D1*
X293505Y58546D1*
X293501Y58864D1*
X293530Y59180D1*
X293592Y59491D1*
X293685Y59794D1*
X293808Y60087D1*
X293961Y60365D1*
X294142Y60626D1*
X294348Y60867D1*
X294578Y61086D1*
X294829Y61279D1*
X295099Y61447D1*
X295385Y61585D1*
X295683Y61694D1*
X295990Y61772D1*
X296304Y61817D1*
X296622Y61830D1*
X296938Y61811D1*
X297251Y61759D1*
X297558Y61676D1*
X297854Y61561D1*
X298136Y61417D1*
X298403Y61245D1*
X298650Y61046D1*
X298876Y60823D1*
X299078Y60578D1*
X299253Y60313D1*
X299400Y60032D1*
X299518Y59738D1*
X299605Y59432D1*
X299661Y59120D1*
X299684Y58738D1*
X299668Y58421D1*
X158891Y205284D2*
X158838Y204971D1*
X158750Y204666D1*
X158629Y204372D1*
X158476Y204094D1*
X158294Y203835D1*
X158083Y203598D1*
X157847Y203385D1*
X157589Y203200D1*
X157312Y203046D1*
X157020Y202923D1*
X156715Y202833D1*
X156403Y202778D1*
X156086Y202758D1*
X155769Y202773D1*
X155456Y202824D1*
X155150Y202909D1*
X154856Y203028D1*
X154577Y203179D1*
X154316Y203360D1*
X154077Y203569D1*
X153863Y203803D1*
X153676Y204059D1*
X153520Y204335D1*
X153394Y204627D1*
X153302Y204931D1*
X153245Y205243D1*
X153223Y205559D1*
X153236Y205876D1*
X153284Y206190D1*
X153367Y206496D1*
X153484Y206791D1*
X153633Y207072D1*
X153812Y207334D1*
X154019Y207574D1*
X154252Y207790D1*
X154507Y207978D1*
X154782Y208137D1*
X155072Y208264D1*
X155375Y208358D1*
X155687Y208418D1*
X156003Y208443D1*
X156321Y208432D1*
X156635Y208386D1*
X156941Y208305D1*
X157237Y208191D1*
X157519Y208044D1*
X157782Y207867D1*
X158024Y207661D1*
X158241Y207430D1*
X158432Y207176D1*
X158593Y206903D1*
X158722Y206613D1*
X158818Y206310D1*
X158880Y205999D1*
X158908Y205601D1*
X158891Y205284D1*
X37329Y73508D2*
X37253Y73200D1*
X37127Y72909D1*
X36956Y72642D1*
X36745Y72406D1*
X36497Y72207D1*
X36221Y72051D1*
X35923Y71942D1*
X35612Y71883D1*
X35295Y71875D1*
X34980Y71918D1*
X34677Y72011D1*
X34394Y72153D1*
X34136Y72338D1*
X33912Y72563D1*
X33728Y72821D1*
X33587Y73105D1*
X33495Y73408D1*
X33453Y73723D1*
X33462Y74040D1*
X33523Y74351D1*
X33633Y74649D1*
X33790Y74924D1*
X33989Y75171D1*
X34226Y75382D1*
X34493Y75552D1*
X34785Y75676D1*
X35093Y75752D1*
X35409Y75777D1*
X35725Y75750D1*
X36033Y75672D1*
X36324Y75546D1*
X36590Y75374D1*
X36825Y75161D1*
X37023Y74913D1*
X37178Y74637D1*
X37286Y74338D1*
X37345Y74027D1*
X37355Y73824D1*
X37329Y73508D1*
X40742Y76921D2*
X40665Y76613D1*
X40540Y76322D1*
X40369Y76054D1*
X40157Y75818D1*
X39910Y75620D1*
X39634Y75464D1*
X39336Y75355D1*
X39024Y75295D1*
X38707Y75287D1*
X38393Y75330D1*
X38090Y75424D1*
X37806Y75565D1*
X37549Y75751D1*
X37325Y75975D1*
X37140Y76233D1*
X37000Y76518D1*
X36907Y76821D1*
X36865Y77135D1*
X36875Y77452D1*
X36935Y77764D1*
X37045Y78061D1*
X37202Y78337D1*
X37401Y78583D1*
X37638Y78794D1*
X37906Y78964D1*
X38198Y79089D1*
X38506Y79164D1*
X38822Y79189D1*
X39138Y79162D1*
X39445Y79085D1*
X39736Y78958D1*
X40003Y78787D1*
X40238Y78574D1*
X40436Y78326D1*
X40591Y78049D1*
X40699Y77751D1*
X40757Y77439D1*
X40768Y77237D1*
X40742Y76921D1*
X155829Y170832D2*
X155759Y170522D1*
X155646Y170226D1*
X155490Y169950D1*
X155296Y169699D1*
X155067Y169479D1*
X154809Y169295D1*
X154526Y169151D1*
X154226Y169049D1*
X153914Y168992D1*
X153597Y168982D1*
X153282Y169018D1*
X152975Y169099D1*
X152684Y169225D1*
X152414Y169391D1*
X152171Y169596D1*
X151960Y169833D1*
X151787Y170099D1*
X151654Y170387D1*
X151565Y170691D1*
X151521Y171005D1*
X151523Y171322D1*
X151571Y171636D1*
X151665Y171939D1*
X151802Y172225D1*
X151980Y172488D1*
X152193Y172722D1*
X152439Y172923D1*
X152711Y173086D1*
X153004Y173207D1*
X153312Y173284D1*
X153628Y173315D1*
X153945Y173300D1*
X154256Y173239D1*
X154555Y173133D1*
X154835Y172985D1*
X155091Y172797D1*
X155317Y172574D1*
X155507Y172321D1*
X155659Y172042D1*
X155768Y171744D1*
X155833Y171434D1*
X155852Y171148D1*
X155829Y170832D1*
X44457Y201156D2*
X44386Y200847D1*
X44268Y200553D1*
X44108Y200279D1*
X43908Y200033D1*
X43673Y199820D1*
X43408Y199645D1*
X43120Y199512D1*
X42815Y199424D1*
X42501Y199383D1*
X42184Y199390D1*
X41871Y199445D1*
X41571Y199546D1*
X41289Y199692D1*
X41137Y199802D1*
X40908Y199645D1*
X40620Y199512D1*
X40315Y199424D1*
X40001Y199383D1*
X39684Y199390D1*
X39371Y199445D1*
X39071Y199546D1*
X38789Y199692D1*
X38533Y199878D1*
X38307Y200102D1*
X38118Y200356D1*
X37970Y200637D1*
X37865Y200936D1*
X37808Y201248D1*
X37798Y201565D1*
X37836Y201880D1*
X37921Y202186D1*
X38051Y202475D1*
X38224Y202741D1*
X38434Y202978D1*
X38678Y203180D1*
X38950Y203344D1*
X39244Y203464D1*
X39552Y203538D1*
X39868Y203565D1*
X40291Y203521D1*
X40336Y203880D1*
X40421Y204186D1*
X40551Y204475D1*
X40724Y204741D1*
X40934Y204978D1*
X41179Y205180D1*
X41451Y205344D1*
X41744Y205464D1*
X42052Y205538D1*
X42368Y205565D1*
X42685Y205544D1*
X42995Y205476D1*
X43290Y205361D1*
X43565Y205203D1*
X43813Y205005D1*
X44029Y204773D1*
X44206Y204510D1*
X44342Y204223D1*
X44433Y203919D1*
X44481Y203473D1*
X44457Y203156D1*
X44386Y202847D1*
X44223Y202476D1*
X44342Y202223D1*
X44433Y201919D1*
X44481Y201473D1*
X44457Y201156D1*
X161334Y21085D2*
X165402D1*
Y16699D1*
X161016D1*
Y16729D1*
X160621Y16699D1*
X160305Y16729D1*
X159997Y16804D1*
X159703Y16923D1*
X159406Y17102D1*
X159008Y16883D1*
X158709Y16777D1*
X158398Y16715D1*
X158081Y16699D1*
X157765Y16729D1*
X157457Y16804D1*
X157163Y16923D1*
X156866Y17102D1*
X156468Y16883D1*
X156169Y16777D1*
X155858Y16715D1*
X155541Y16699D1*
X155225Y16729D1*
X154917Y16804D1*
X154623Y16923D1*
X154326Y17102D1*
X153928Y16883D1*
X153629Y16777D1*
X153318Y16715D1*
X153001Y16699D1*
X152685Y16729D1*
X152377Y16804D1*
X152083Y16923D1*
X151786Y17102D1*
X151388Y16883D1*
X151089Y16777D1*
X150778Y16715D1*
X150461Y16699D1*
X150145Y16729D1*
X149837Y16804D1*
X149543Y16923D1*
X149246Y17102D1*
X148848Y16883D1*
X148549Y16777D1*
X148238Y16715D1*
X147921Y16699D1*
X147605Y16729D1*
X147297Y16804D1*
X147003Y16923D1*
X146706Y17102D1*
X146308Y16883D1*
X146009Y16777D1*
X145698Y16715D1*
X145381Y16699D1*
X145065Y16729D1*
X144757Y16804D1*
X144463Y16923D1*
X144166Y17102D1*
X143768Y16883D1*
X143469Y16777D1*
X143158Y16715D1*
X142841Y16699D1*
X142525Y16729D1*
X142217Y16804D1*
X141923Y16923D1*
X141626Y17102D1*
X141228Y16883D1*
X140929Y16777D1*
X140618Y16715D1*
X140301Y16699D1*
X139985Y16729D1*
X139677Y16804D1*
X139383Y16923D1*
X139086Y17102D1*
X138688Y16883D1*
X138389Y16777D1*
X138078Y16715D1*
X137761Y16699D1*
X137445Y16729D1*
X137137Y16804D1*
X136843Y16923D1*
X136546Y17102D1*
X136148Y16883D1*
X135849Y16777D1*
X135538Y16715D1*
X135221Y16699D1*
X134905Y16729D1*
X134597Y16804D1*
X134303Y16923D1*
X134006Y17102D1*
X133608Y16883D1*
X133309Y16777D1*
X132998Y16715D1*
X132681Y16699D1*
X132365Y16729D1*
X132057Y16804D1*
X131763Y16923D1*
X131466Y17102D1*
X131068Y16883D1*
X130769Y16777D1*
X130458Y16715D1*
X130141Y16699D1*
X129825Y16729D1*
X129517Y16804D1*
X129223Y16923D1*
X128926Y17102D1*
X128528Y16883D1*
X128229Y16777D1*
X127918Y16715D1*
X127601Y16699D1*
X127285Y16729D1*
X126977Y16804D1*
X126683Y16923D1*
X126386Y17102D1*
X125988Y16883D1*
X125689Y16777D1*
X125378Y16715D1*
X125061Y16699D1*
X124745Y16729D1*
X124437Y16804D1*
X124143Y16923D1*
X123869Y17083D1*
X123621Y17281D1*
X123404Y17513D1*
X123223Y17773D1*
X123081Y18057D1*
X122982Y18358D1*
X122927Y18670D1*
X122918Y18988D1*
X122955Y19303D1*
X123037Y19609D1*
X123162Y19901D1*
X123328Y20171D1*
X123531Y20415D1*
X123767Y20626D1*
X124031Y20802D1*
X124318Y20937D1*
X124622Y21030D1*
X124935Y21078D1*
X125252Y21080D1*
X125567Y21036D1*
X125871Y20948D1*
X126160Y20816D1*
X126368Y20682D1*
X126858Y20937D1*
X127162Y21030D1*
X127475Y21078D1*
X127792Y21080D1*
X128107Y21036D1*
X128411Y20948D1*
X128700Y20816D1*
X128908Y20682D1*
X129398Y20937D1*
X129702Y21030D1*
X130015Y21078D1*
X130332Y21080D1*
X130647Y21036D1*
X130951Y20948D1*
X131240Y20816D1*
X131448Y20682D1*
X131938Y20937D1*
X132242Y21030D1*
X132555Y21078D1*
X132872Y21080D1*
X133187Y21036D1*
X133491Y20948D1*
X133780Y20816D1*
X133988Y20682D1*
X134478Y20937D1*
X134782Y21030D1*
X135095Y21078D1*
X135412Y21080D1*
X135727Y21036D1*
X136031Y20948D1*
X136320Y20816D1*
X136528Y20682D1*
X137018Y20937D1*
X137322Y21030D1*
X137635Y21078D1*
X137952Y21080D1*
X138267Y21036D1*
X138571Y20948D1*
X138860Y20816D1*
X139068Y20682D1*
X139558Y20937D1*
X139862Y21030D1*
X140175Y21078D1*
X140492Y21080D1*
X140807Y21036D1*
X141111Y20948D1*
X141400Y20816D1*
X141608Y20682D1*
X142098Y20937D1*
X142402Y21030D1*
X142715Y21078D1*
X143032Y21080D1*
X143347Y21036D1*
X143651Y20948D1*
X143940Y20816D1*
X144148Y20682D1*
X144638Y20937D1*
X144942Y21030D1*
X145255Y21078D1*
X145572Y21080D1*
X145887Y21036D1*
X146191Y20948D1*
X146480Y20816D1*
X146688Y20682D1*
X147178Y20937D1*
X147482Y21030D1*
X147795Y21078D1*
X148112Y21080D1*
X148427Y21036D1*
X148731Y20948D1*
X149020Y20816D1*
X149228Y20682D1*
X149718Y20937D1*
X150022Y21030D1*
X150335Y21078D1*
X150652Y21080D1*
X150967Y21036D1*
X151271Y20948D1*
X151560Y20816D1*
X151768Y20682D1*
X152258Y20937D1*
X152562Y21030D1*
X152875Y21078D1*
X153192Y21080D1*
X153507Y21036D1*
X153811Y20948D1*
X154100Y20816D1*
X154308Y20682D1*
X154798Y20937D1*
X155102Y21030D1*
X155415Y21078D1*
X155732Y21080D1*
X156047Y21036D1*
X156351Y20948D1*
X156640Y20816D1*
X156848Y20682D1*
X157338Y20937D1*
X157642Y21030D1*
X157955Y21078D1*
X158272Y21080D1*
X158587Y21036D1*
X158891Y20948D1*
X159180Y20816D1*
X159388Y20682D1*
X159878Y20937D1*
X160182Y21030D1*
X160495Y21078D1*
X160812Y21080D1*
X161019Y21051D1*
X161016Y21085D1*
X161334D1*
X67563Y173540D2*
X67576Y167175D1*
X67679Y167487D1*
X67702Y167973D1*
Y170513D1*
X67735Y170828D1*
X67833Y171130D1*
X67944Y171335D1*
X68147Y171586D1*
X69258Y172698D1*
X69504Y172897D1*
X69787Y173041D1*
X70010Y173108D1*
X70331Y173142D1*
X73994Y173147D1*
X74758Y173912D1*
X69221Y173917D1*
X67939Y173913D1*
X67567Y173541D1*
X47113Y114715D2*
Y114169D1*
X47332Y113950D1*
X62234Y113954D1*
X62551Y113932D1*
X62861Y113868D1*
X63161Y113763D1*
X63443Y113618D1*
X63703Y113436D1*
X63936Y113221D1*
X64138Y112976D1*
X64305Y112706D1*
X64434Y112417D1*
X64523Y112112D1*
X64570Y111798D1*
X64574Y111481D1*
X64535Y111166D1*
X64453Y110859D1*
X64332Y110566D1*
X64171Y110293D1*
X63975Y110043D1*
X63748Y109822D1*
X63492Y109634D1*
X63214Y109482D1*
X62917Y109369D1*
X62608Y109298D1*
X62234Y109268D1*
X46358D1*
X46041Y109289D1*
X45730Y109353D1*
X45431Y109459D1*
X45149Y109604D1*
X44986Y109711D1*
X44701Y109954D1*
X43113Y111542D1*
X42905Y111781D1*
X42730Y112046D1*
X42593Y112332D1*
X42496Y112634D1*
X42457Y112825D1*
X42427Y113198D1*
Y115032D1*
X42448Y115349D1*
X42513Y115660D1*
X42618Y115959D1*
X42763Y116241D1*
X42928Y116477D1*
X42954Y116848D1*
X43035Y117155D1*
X43168Y117443D1*
X43348Y117704D1*
X43569Y117931D1*
X43827Y118116D1*
X44112Y118254D1*
X44417Y118341D1*
X44733Y118375D1*
X45049Y118354D1*
X45357Y118279D1*
X45648Y118153D1*
X45913Y117978D1*
X46144Y117761D1*
X46334Y117507D1*
X46478Y117225D1*
X46571Y116922D1*
X46613Y116483D1*
X46612Y116523D1*
X46898Y116012D1*
X47011Y115715D1*
X47083Y115406D1*
X47113Y115032D1*
Y114715D1*
X34768Y95893D2*
D27*
X36759D1*
X55415Y67824D2*
X57407D1*
X49834Y72901D2*
X51925D1*
X173131Y71601D2*
X175123D1*
X60012Y13017D2*
X62103D1*
X19816D2*
X21908D1*
X19554Y98516D2*
X21195D1*
X36590Y102819D2*
X38432D1*
X26907Y95810D2*
X28548D1*
X26353Y159876D2*
X27895D1*
X34768Y98279D2*
X36859D1*
X228614Y18949D2*
X230256D1*
X116583Y21292D2*
X118225D1*
D29*
X67632Y107006D3*
X62552D3*
D32*
X34768Y95893D3*
X32868D3*
D30*
X61917Y72237D3*
Y74137D3*
D32*
X55415Y67824D3*
X53515D3*
D30*
X51925Y72901D3*
Y74801D3*
D32*
X55577Y75918D3*
X57477D3*
X59545Y70520D3*
X57645D3*
D30*
X276093Y165433D3*
Y163533D3*
X232188Y165430D3*
Y163530D3*
D32*
X209416Y164956D3*
X211316D3*
X175123Y71601D3*
X177023D3*
D30*
X60012Y13017D3*
Y14917D3*
X49850Y13017D3*
Y14917D3*
X39689Y13017D3*
Y14917D3*
X29528Y13017D3*
Y14917D3*
X57471Y13017D3*
Y14917D3*
X47310Y13017D3*
Y14917D3*
X37149Y13017D3*
Y14917D3*
X26988Y13017D3*
Y14917D3*
X54931Y13017D3*
Y14917D3*
X44770Y13017D3*
Y14917D3*
X34609Y13017D3*
Y14917D3*
X24448Y13017D3*
Y14917D3*
X52391Y12992D3*
Y14892D3*
X42230Y13017D3*
Y14917D3*
X32069Y13017D3*
Y14917D3*
X21908Y13017D3*
Y14917D3*
D23*
X35561Y141935D3*
Y139395D3*
D36*
X160511Y75253D3*
D37*
X157971D3*
X155431D3*
X152891D3*
X150351D3*
X147811D3*
X145271D3*
Y67633D3*
X147811D3*
X150351D3*
X152891D3*
X155431D3*
X157971D3*
X160511D3*
D36*
Y60805D3*
D37*
X157971D3*
X155431D3*
X152891D3*
X150351D3*
X147811D3*
X145271D3*
Y53185D3*
X147811D3*
X150351D3*
X152891D3*
X155431D3*
X157971D3*
X160511D3*
D36*
X183850Y60805D3*
D37*
X181309D3*
X178769D3*
X176230D3*
X173690D3*
X171149D3*
X168609D3*
Y53185D3*
X171149D3*
X173690D3*
X176230D3*
X178769D3*
X181309D3*
X183850D3*
D43*
X21195Y98516D3*
X22145D3*
X23095D3*
Y95816D3*
X21195D3*
D44*
X36590Y102819D3*
X34590D3*
X32590D3*
X30590D3*
X28590D3*
X26590D3*
X24590D3*
X22590D3*
X36590Y119819D3*
X34590D3*
X32590D3*
X30590D3*
X28590D3*
X26590D3*
X24590D3*
X22590D3*
D45*
X38090Y112319D3*
Y110319D3*
Y108319D3*
Y106319D3*
Y114319D3*
Y116319D3*
D43*
X26907Y95810D3*
X25957D3*
X25007D3*
Y98510D3*
X26907D3*
D36*
X117175Y45560D3*
D37*
Y48100D3*
Y50640D3*
Y53180D3*
Y55720D3*
Y58260D3*
Y60800D3*
Y63340D3*
Y65880D3*
Y68420D3*
Y70960D3*
Y73500D3*
Y76040D3*
Y78580D3*
Y81120D3*
Y83660D3*
X107015D3*
Y81120D3*
Y78580D3*
Y76040D3*
Y73500D3*
Y70960D3*
Y68420D3*
Y65880D3*
Y63340D3*
Y60800D3*
Y58260D3*
Y55720D3*
Y53180D3*
Y50640D3*
Y48100D3*
Y45560D3*
D36*
X86692Y45438D3*
D37*
Y47978D3*
Y50518D3*
Y53058D3*
Y55598D3*
Y58138D3*
Y60678D3*
Y63218D3*
Y65758D3*
Y68298D3*
Y70838D3*
Y73378D3*
Y75918D3*
Y78458D3*
Y80998D3*
Y83538D3*
X76532D3*
Y80998D3*
Y78458D3*
Y75918D3*
Y73378D3*
Y70838D3*
Y68298D3*
Y65758D3*
Y63218D3*
Y60678D3*
Y58138D3*
Y55598D3*
Y53058D3*
Y50518D3*
Y47978D3*
Y45438D3*
D36*
X290844Y121003D3*
D37*
X288304D3*
X285764D3*
X283224D3*
X280684D3*
X278144D3*
X275604D3*
Y113383D3*
X278144D3*
X280684D3*
X283224D3*
X285764D3*
X288304D3*
X290844D3*
D36*
Y133068D3*
D37*
X288304D3*
X285764D3*
X283224D3*
X280684D3*
X278144D3*
X275604D3*
X273064D3*
Y125448D3*
X275604D3*
X278144D3*
X280684D3*
X283224D3*
X285764D3*
X288304D3*
X290844D3*
D36*
X267349Y121003D3*
D37*
X264809D3*
X262269D3*
X259729D3*
X257189D3*
X254649D3*
X252109D3*
Y113383D3*
X254649D3*
X257189D3*
X259729D3*
X262269D3*
X264809D3*
X267349D3*
D36*
Y133068D3*
D37*
X264809D3*
X262269D3*
X259729D3*
X257189D3*
X254649D3*
X252109D3*
X249569D3*
Y125448D3*
X252109D3*
X254649D3*
X257189D3*
X259729D3*
X262269D3*
X264809D3*
X267349D3*
D36*
X243854Y121003D3*
D37*
X241314D3*
X238774D3*
X236234D3*
X233694D3*
X231154D3*
X228614D3*
Y113383D3*
X231154D3*
X233694D3*
X236234D3*
X238774D3*
X241314D3*
X243854D3*
D36*
Y133068D3*
D37*
X241314D3*
X238774D3*
X236234D3*
X233694D3*
X231154D3*
X228614D3*
X226074D3*
Y125448D3*
X228614D3*
X231154D3*
X233694D3*
X236234D3*
X238774D3*
X241314D3*
X243854D3*
D36*
X220359Y121003D3*
D37*
X217819D3*
X215279D3*
X212739D3*
X210199D3*
X207659D3*
X205119D3*
Y113383D3*
X207659D3*
X210199D3*
X212739D3*
X215279D3*
X217819D3*
X220359D3*
D36*
Y133068D3*
D37*
X217819D3*
X215279D3*
X212739D3*
X210199D3*
X207659D3*
X205119D3*
X202579D3*
Y125448D3*
X205119D3*
X207659D3*
X210199D3*
X212739D3*
X215279D3*
X217819D3*
X220359D3*
D36*
X183372Y75254D3*
D37*
X180832D3*
X178292D3*
X175752D3*
X173212D3*
X170672D3*
X168132D3*
Y67634D3*
X170672D3*
X173212D3*
X175752D3*
X178292D3*
X180832D3*
X183372D3*
D36*
X130507Y168310D3*
D37*
X127967D3*
X125427D3*
X122887D3*
X120347D3*
X117807D3*
X115267D3*
X112727D3*
Y160690D3*
X115267D3*
X117807D3*
X120347D3*
X122887D3*
X125427D3*
X127967D3*
X130507D3*
D36*
X289574Y168628D3*
D37*
X287034D3*
X284494D3*
X281954D3*
X279414D3*
X276874D3*
X274334D3*
X271794D3*
Y161008D3*
X274334D3*
X276874D3*
X279414D3*
X281954D3*
X284494D3*
X287034D3*
X289574D3*
D47*
X26353Y159876D3*
X25703D3*
X25053D3*
X24403D3*
X23753D3*
X23103D3*
X22453D3*
X21803D3*
X21153D3*
X20503D3*
X19853D3*
X19203D3*
X18553D3*
X17903D3*
Y167076D3*
X18553D3*
X19203D3*
X19853D3*
X20503D3*
X21153D3*
X21803D3*
X22453D3*
X23103D3*
X23753D3*
X24403D3*
X25053D3*
X25703D3*
X26353D3*
D36*
X108282Y168310D3*
D37*
X105742D3*
X103202D3*
X100662D3*
X98122D3*
X95582D3*
X93042D3*
X90502D3*
Y160690D3*
X93042D3*
X95582D3*
X98122D3*
X100662D3*
X103202D3*
X105742D3*
X108282D3*
D36*
X267667Y168628D3*
D37*
X265127D3*
X262587D3*
X260047D3*
X257507D3*
X254967D3*
X252427D3*
X249887D3*
Y161008D3*
X252427D3*
X254967D3*
X257507D3*
X260047D3*
X262587D3*
X265127D3*
X267667D3*
D36*
X85739Y168310D3*
D37*
X83199D3*
X80659D3*
X78119D3*
X75579D3*
X73039D3*
X70499D3*
X67959D3*
Y160690D3*
X70499D3*
X73039D3*
X75579D3*
X78119D3*
X80659D3*
X83199D3*
X85739D3*
D36*
X245759Y168628D3*
D37*
X243219D3*
X240679D3*
X238139D3*
X235599D3*
X233059D3*
X230519D3*
X227979D3*
Y161008D3*
X230519D3*
X233059D3*
X235599D3*
X238139D3*
X240679D3*
X243219D3*
X245759D3*
D36*
X63197Y168310D3*
D37*
X60657D3*
X58117D3*
X55577D3*
X53037D3*
X50497D3*
X47957D3*
X45417D3*
Y160690D3*
X47957D3*
X50497D3*
X53037D3*
X55577D3*
X58117D3*
X60657D3*
X63197D3*
D36*
X223464Y168576D3*
D37*
X220924D3*
X218384D3*
X215844D3*
X213304D3*
X210764D3*
X208224D3*
X205684D3*
Y160956D3*
X208224D3*
X210764D3*
X213304D3*
X215844D3*
X218384D3*
X220924D3*
X223464D3*
D23*
X35721Y174644D3*
Y172104D3*
D48*
X13124Y145038D3*
D49*
Y147578D3*
Y150118D3*
Y152658D3*
Y155198D3*
Y157738D3*
Y160278D3*
Y162818D3*
Y165358D3*
Y167898D3*
Y170438D3*
Y172978D3*
Y175518D3*
Y178058D3*
Y180598D3*
Y183138D3*
D48*
X104564D3*
D49*
X102024D3*
X99484D3*
X96944D3*
X94404D3*
X91864D3*
X89324D3*
X86784D3*
X84244D3*
X81704D3*
X79164D3*
X76624D3*
X74084D3*
X71544D3*
X69004D3*
X66464D3*
D48*
X172192Y145038D3*
D49*
Y147578D3*
Y150118D3*
Y152658D3*
Y155198D3*
Y157738D3*
Y160278D3*
Y162818D3*
Y165358D3*
Y167898D3*
Y170438D3*
Y172978D3*
Y175518D3*
Y178058D3*
Y180598D3*
Y183138D3*
D48*
X263632D3*
D49*
X261092D3*
X258552D3*
X256012D3*
X253472D3*
X250932D3*
X248392D3*
X245852D3*
X243312D3*
X240772D3*
X238232D3*
X235692D3*
X233152D3*
X230612D3*
X228072D3*
X225532D3*
D23*
X53979Y142583D3*
Y140043D3*
Y137503D3*
X56519D3*
Y140043D3*
Y142583D3*
X38260Y141935D3*
Y139395D3*
X32704Y141935D3*
Y139395D3*
D52*
X35403Y73824D3*
X38815Y77237D3*
D32*
X33177Y63819D3*
X31277D3*
X33180Y65886D3*
X31280D3*
X225759Y27025D3*
X227659D3*
X225757Y29563D3*
X227657D3*
X225757Y32103D3*
X227657D3*
X225757Y34643D3*
X227657D3*
X212104Y29563D3*
X214004D3*
X212104Y32103D3*
X214004D3*
X212104Y34643D3*
X214004D3*
X212104Y37183D3*
X214004D3*
X198452Y27023D3*
X200352D3*
X198452Y29563D3*
X200352D3*
X198452Y32103D3*
X200352D3*
X198452Y34643D3*
X200352D3*
X184484Y29565D3*
X186384D3*
X184484Y32105D3*
X186384D3*
X184484Y34645D3*
X186384D3*
X184484Y37185D3*
X186384D3*
D30*
X22545Y122727D3*
Y124627D3*
X26671Y122730D3*
Y124630D3*
X30481Y100179D3*
Y98279D3*
X34768D3*
Y100179D3*
X32706Y100177D3*
Y98277D3*
D53*
X30481Y168608D3*
Y158058D3*
X153684Y171148D3*
Y160598D3*
D54*
X228614Y23689D3*
D55*
Y16069D3*
D54*
X116583Y26032D3*
D55*
Y18412D3*
D54*
X226074Y23689D3*
D55*
Y16069D3*
D54*
X114043Y26032D3*
D55*
Y18412D3*
D54*
X223534Y23689D3*
D55*
Y16069D3*
D54*
X111503Y26032D3*
D55*
Y18412D3*
D54*
X220994Y23689D3*
D55*
Y16069D3*
D54*
X108963Y26032D3*
D55*
Y18412D3*
D54*
X218603Y23654D3*
D55*
Y16034D3*
D54*
X106572Y25997D3*
D55*
Y18377D3*
D54*
X215914Y23689D3*
D55*
Y16069D3*
D54*
X103883Y26032D3*
D55*
Y18412D3*
D54*
X213374Y23689D3*
D55*
Y16069D3*
D54*
X101343Y26032D3*
D55*
Y18412D3*
D54*
X210834Y23689D3*
D55*
Y16069D3*
D54*
X98803Y26032D3*
D55*
Y18412D3*
D54*
X208294Y23689D3*
D55*
Y16069D3*
D54*
X96263Y26032D3*
D55*
Y18412D3*
D54*
X205754Y23689D3*
D55*
Y16069D3*
D54*
X93723Y26032D3*
D55*
Y18412D3*
D54*
X203214Y23689D3*
D55*
Y16069D3*
D54*
X91183Y26032D3*
D55*
Y18412D3*
D54*
X200674Y23689D3*
D55*
Y16069D3*
D54*
X88643Y26032D3*
D55*
Y18412D3*
D54*
X198134Y23689D3*
D55*
Y16069D3*
D54*
X86103Y26032D3*
D55*
Y18412D3*
D54*
X195594Y23689D3*
D55*
Y16069D3*
D54*
X83563Y26032D3*
D55*
Y18412D3*
D54*
X193054Y23689D3*
D55*
Y16069D3*
D54*
X81023Y26032D3*
D55*
Y18412D3*
D54*
X190514Y23689D3*
D55*
Y16069D3*
D54*
X78483Y26032D3*
D55*
Y18412D3*
D56*
X60647Y133203D3*
Y137703D3*
X67147D3*
Y133203D3*
D21*
X42388Y201473D3*
X39888D3*
X42388Y203473D3*
X39888D3*
D57*
X47164Y206124D3*
X35099D3*
D61*
X230202Y27023D3*
Y28293D3*
Y29563D3*
Y30833D3*
Y32103D3*
Y33373D3*
Y34643D3*
Y35913D3*
X235790D3*
Y34643D3*
Y33373D3*
Y32103D3*
Y30833D3*
Y29563D3*
Y28293D3*
Y27023D3*
X216549Y29563D3*
Y30833D3*
Y32103D3*
Y33373D3*
Y34643D3*
Y35913D3*
Y37183D3*
Y38453D3*
X222137D3*
Y37183D3*
Y35913D3*
Y34643D3*
Y33373D3*
Y32103D3*
Y30833D3*
Y29563D3*
X202897Y27023D3*
Y28293D3*
Y29563D3*
Y30833D3*
Y32103D3*
Y33373D3*
Y34643D3*
Y35913D3*
X208485D3*
Y34643D3*
Y33373D3*
Y32103D3*
Y30833D3*
Y29563D3*
Y28293D3*
Y27023D3*
X189244Y29563D3*
Y30833D3*
Y32103D3*
Y33373D3*
Y34643D3*
Y35913D3*
Y37183D3*
Y38453D3*
X194832D3*
Y37183D3*
Y35913D3*
Y34643D3*
Y33373D3*
Y32103D3*
Y30833D3*
Y29563D3*
D59*
X57471Y22225D3*
Y20025D3*
X47310Y22225D3*
Y20025D3*
X37149Y22225D3*
Y20025D3*
X26988Y22225D3*
Y20025D3*
X54931Y22225D3*
Y20025D3*
X44770Y22225D3*
Y20025D3*
X34609Y22225D3*
Y20025D3*
X24448Y22225D3*
Y20025D3*
X52391Y22225D3*
Y20025D3*
X42230Y22225D3*
Y20025D3*
X32069Y22225D3*
Y20025D3*
X21908Y22225D3*
Y20025D3*
X224804Y18926D3*
Y21126D3*
X112773Y21269D3*
Y23469D3*
X219724Y18926D3*
Y21126D3*
X107693Y21269D3*
Y23469D3*
X214644Y18926D3*
Y21126D3*
X102613Y21269D3*
Y23469D3*
X209564Y18926D3*
Y21126D3*
X97533Y21269D3*
Y23469D3*
X204484Y18926D3*
Y21126D3*
X92453Y21269D3*
Y23469D3*
X199404Y18926D3*
Y21126D3*
X87373Y21269D3*
Y23469D3*
X194324Y18949D3*
Y21149D3*
X82293Y21292D3*
Y23492D3*
X189244Y18949D3*
Y21149D3*
X77213Y21292D3*
Y23492D3*
X227344Y18926D3*
Y21126D3*
X115313Y21269D3*
Y23469D3*
X221947Y18926D3*
Y21126D3*
X109915Y21269D3*
Y23469D3*
X217184Y18926D3*
Y21126D3*
X105153Y21269D3*
Y23469D3*
X212104Y18926D3*
Y21126D3*
X100073Y21269D3*
Y23469D3*
X207024Y18926D3*
Y21126D3*
X94993Y21269D3*
Y23469D3*
X201944Y18926D3*
Y21126D3*
X89913Y21269D3*
Y23469D3*
X196864Y18926D3*
Y21126D3*
X84833Y21269D3*
Y23469D3*
X191784Y18926D3*
Y21126D3*
X79753Y21269D3*
Y23469D3*
X226074Y21149D3*
Y18949D3*
X114043Y23492D3*
Y21292D3*
X220994Y21149D3*
Y18949D3*
X108963Y23492D3*
Y21292D3*
X215914Y21149D3*
Y18949D3*
X103883Y23492D3*
Y21292D3*
X210834Y21149D3*
Y18949D3*
X98803Y23492D3*
Y21292D3*
X205754Y21149D3*
Y18949D3*
X93723Y23492D3*
Y21292D3*
X200674Y21149D3*
Y18949D3*
X88643Y23492D3*
Y21292D3*
X195594Y21149D3*
Y18949D3*
X83563Y23492D3*
Y21292D3*
X190514Y21149D3*
Y18949D3*
X78483Y23492D3*
Y21292D3*
X228614Y21149D3*
Y18949D3*
X116583Y23492D3*
Y21292D3*
X223534Y21149D3*
Y18949D3*
X111503Y23492D3*
Y21292D3*
X218454Y21149D3*
Y18949D3*
X106423Y23492D3*
Y21292D3*
X213374Y21149D3*
Y18949D3*
X101343Y23492D3*
Y21292D3*
X208294Y21149D3*
Y18949D3*
X96263Y23492D3*
Y21292D3*
X203214Y21149D3*
Y18949D3*
X91183Y23492D3*
Y21292D3*
X198134Y21149D3*
Y18949D3*
X86103Y23492D3*
Y21292D3*
X193054Y21149D3*
Y18949D3*
X81023Y23492D3*
Y21292D3*
X60012Y22225D3*
Y20025D3*
X49850Y22225D3*
Y20025D3*
X39689Y22225D3*
Y20025D3*
X29528Y22225D3*
Y20025D3*
D65*
X163209Y18892D3*
D66*
X160669D3*
X158129D3*
X155589D3*
X153049D3*
X150509D3*
X147969D3*
X145429D3*
X142889D3*
X140349D3*
X137809D3*
X135269D3*
X132729D3*
X130189D3*
X127649D3*
X125109D3*
D65*
X60011Y17938D3*
D66*
X57471D3*
X54931D3*
X52392D3*
X49852D3*
X47312D3*
X44772D3*
X42232D3*
X39691D3*
X37151D3*
X34611D3*
X32071D3*
X29531D3*
X26992D3*
X24452D3*
X21912D3*
D65*
X13175Y130345D3*
D66*
Y132885D3*
Y135425D3*
Y137965D3*
D65*
X228614Y12894D3*
D66*
X226074D3*
X223534D3*
X220994D3*
X218454D3*
X215914D3*
X213374D3*
X210834D3*
X208294D3*
X205754D3*
X203214D3*
X200674D3*
X198134D3*
X195594D3*
X193054D3*
X190514D3*
D65*
X116583Y15237D3*
D66*
X114043D3*
X111503D3*
X108963D3*
X106423D3*
X103883D3*
X101343D3*
X98803D3*
X96263D3*
X93723D3*
X91183D3*
X88643D3*
X86103D3*
X83563D3*
X81023D3*
X78483D3*
M02*
