G04 DipTrace 2.4.0.2*
%INMemoryBrd-BottomMark.gbr*%
%MOMM*%
%ADD10C,0.25*%
%ADD28C,0.4*%
%ADD42O,0.391X0.391*%
%ADD58O,0.24X0.24*%
%ADD136C,0.196*%
%ADD137C,0.314*%
%ADD138C,0.863*%
%FSLAX53Y53*%
G04*
G71*
G90*
G75*
G01*
%LNBotSilk*%
%LPD*%
X35818Y95243D2*
D10*
Y96542D1*
X35722Y96845D2*
X31913D1*
Y94940D1*
X35722D1*
Y96845D1*
X61267Y71186D2*
X62566D1*
X62869Y71282D2*
X60964D1*
Y75092D1*
X62869D1*
Y71282D1*
X56466Y67175D2*
Y68473D1*
X56370Y68776D2*
X52560D1*
Y66871D1*
X56370D1*
Y68776D1*
X51276Y71851D2*
X52575D1*
X52878Y71947D2*
X50973D1*
Y75756D1*
X52878D1*
Y71947D1*
X54526Y76567D2*
Y75268D1*
X54622Y74965D2*
X58432D1*
Y76870D1*
X54622D1*
Y74965D1*
X60596Y69871D2*
Y71170D1*
X60500Y71473D2*
X56690D1*
Y69568D1*
X60500D1*
Y71473D1*
X276742Y166483D2*
X275444D1*
X275140Y166387D2*
X277045D1*
Y162578D1*
X275140D1*
Y166387D1*
X232837Y166481D2*
X231538D1*
X231235Y166385D2*
X233140D1*
Y162575D1*
X231235D1*
Y166385D1*
X208366Y165606D2*
Y164307D1*
X208461Y164004D2*
X212271D1*
Y165909D1*
X208461D1*
Y164004D1*
X174072Y72251D2*
Y70952D1*
X174168Y70649D2*
X177978D1*
Y72554D1*
X174168D1*
Y70649D1*
X59362Y11966D2*
X60661D1*
X60964Y12062D2*
X59059D1*
Y15872D1*
X60964D1*
Y12062D1*
X49201Y11966D2*
X50500D1*
X50803Y12062D2*
X48898D1*
Y15872D1*
X50803D1*
Y12062D1*
X39040Y11966D2*
X40339D1*
X40642Y12062D2*
X38737D1*
Y15872D1*
X40642D1*
Y12062D1*
X28879Y11966D2*
X30178D1*
X30481Y12062D2*
X28576D1*
Y15872D1*
X30481D1*
Y12062D1*
X56822Y11966D2*
X58121D1*
X58424Y12062D2*
X56519D1*
Y15872D1*
X58424D1*
Y12062D1*
X46661Y11966D2*
X47960D1*
X48263Y12062D2*
X46358D1*
Y15872D1*
X48263D1*
Y12062D1*
X36500Y11966D2*
X37799D1*
X38102Y12062D2*
X36197D1*
Y15872D1*
X38102D1*
Y12062D1*
X26339Y11966D2*
X27637D1*
X27941Y12062D2*
X26036D1*
Y15872D1*
X27941D1*
Y12062D1*
X54282Y11966D2*
X55580D1*
X55883Y12062D2*
X53978D1*
Y15872D1*
X55883D1*
Y12062D1*
X44120Y11966D2*
X45419D1*
X45722Y12062D2*
X43817D1*
Y15872D1*
X45722D1*
Y12062D1*
X33959Y11966D2*
X35258D1*
X35561Y12062D2*
X33656D1*
Y15872D1*
X35561D1*
Y12062D1*
X23798Y11966D2*
X25097D1*
X25400Y12062D2*
X23495D1*
Y15872D1*
X25400D1*
Y12062D1*
X51741Y11942D2*
X53040D1*
X53343Y12037D2*
X51438D1*
Y15847D1*
X53343D1*
Y12037D1*
X41580Y11966D2*
X42879D1*
X43182Y12062D2*
X41277D1*
Y15872D1*
X43182D1*
Y12062D1*
X31419Y11966D2*
X32718D1*
X33021Y12062D2*
X31116D1*
Y15872D1*
X33021D1*
Y12062D1*
X21258Y11966D2*
X22557D1*
X22860Y12062D2*
X20955D1*
Y15872D1*
X22860D1*
Y12062D1*
D42*
X20512Y98938D3*
X20645Y97565D2*
D10*
X23645D1*
X20645Y96765D2*
X23645D1*
Y97565D2*
Y96765D1*
X20645Y97565D2*
Y96765D1*
X38090Y119320D2*
X14090D1*
Y103318D1*
X38090D1*
Y119320D1*
D42*
X27590Y95388D3*
X27456Y96761D2*
D10*
X24457D1*
X27456Y97561D2*
X24457D1*
Y96761D2*
Y97561D1*
X27456Y96761D2*
Y97561D1*
X27328Y161075D2*
X16928D1*
X27328Y165876D2*
X16928D1*
Y161075D2*
Y165876D1*
X27328Y161075D2*
Y162776D1*
Y164176D2*
Y165876D1*
Y162776D2*
G02X27328Y164176I-94J700D01*
G01*
X34132Y64772D2*
X30322D1*
Y62867D1*
X34132D1*
Y64772D1*
X34135Y66838D2*
X30325D1*
Y64933D1*
X34135D1*
Y66838D1*
X224804Y26073D2*
X228614D1*
Y27978D1*
X224804D1*
Y26073D1*
X224802Y28610D2*
X228612D1*
Y30515D1*
X224802D1*
Y28610D1*
Y31150D2*
X228612D1*
Y33055D1*
X224802D1*
Y31150D1*
Y33690D2*
X228612D1*
Y35595D1*
X224802D1*
Y33690D1*
X211149Y28610D2*
X214959D1*
Y30515D1*
X211149D1*
Y28610D1*
Y31150D2*
X214959D1*
Y33055D1*
X211149D1*
Y31150D1*
Y33690D2*
X214959D1*
Y35595D1*
X211149D1*
Y33690D1*
Y36230D2*
X214959D1*
Y38135D1*
X211149D1*
Y36230D1*
X197497Y26070D2*
X201307D1*
Y27975D1*
X197497D1*
Y26070D1*
Y28610D2*
X201307D1*
Y30515D1*
X197497D1*
Y28610D1*
Y31150D2*
X201307D1*
Y33055D1*
X197497D1*
Y31150D1*
Y33690D2*
X201307D1*
Y35595D1*
X197497D1*
Y33690D1*
X183529Y28613D2*
X187339D1*
Y30518D1*
X183529D1*
Y28613D1*
Y31153D2*
X187339D1*
Y33058D1*
X183529D1*
Y31153D1*
Y33693D2*
X187339D1*
Y35598D1*
X183529D1*
Y33693D1*
Y36233D2*
X187339D1*
Y38138D1*
X183529D1*
Y36233D1*
X60563Y132120D2*
X67230D1*
Y138786D1*
X60563D1*
Y132120D1*
X62151Y135373D2*
X62156Y135523D1*
X62171Y135672D1*
X62196Y135819D1*
X62231Y135964D1*
X62275Y136106D1*
X62329Y136245D1*
X62392Y136380D1*
X62464Y136509D1*
X62545Y136633D1*
X62633Y136751D1*
X62730Y136862D1*
X62833Y136966D1*
X62944Y137062D1*
X63060Y137150D1*
X63182Y137229D1*
X63310Y137300D1*
X63441Y137360D1*
X63577Y137412D1*
X63715Y137453D1*
X63856Y137484D1*
X63999Y137505D1*
X64142Y137515D1*
X64286D1*
X64430Y137505D1*
X64573Y137484D1*
X64714Y137453D1*
X64852Y137412D1*
X64987Y137360D1*
X65119Y137300D1*
X65246Y137229D1*
X65368Y137150D1*
X65485Y137062D1*
X65595Y136966D1*
X65699Y136862D1*
X65795Y136751D1*
X65884Y136633D1*
X65964Y136509D1*
X66036Y136380D1*
X66100Y136245D1*
X66154Y136106D1*
X66198Y135964D1*
X66233Y135819D1*
X66258Y135672D1*
X66273Y135523D1*
X66278Y135373D1*
X66273Y135224D1*
X66258Y135075D1*
X66233Y134928D1*
X66198Y134783D1*
X66154Y134641D1*
X66100Y134502D1*
X66036Y134367D1*
X65964Y134238D1*
X65884Y134114D1*
X65795Y133996D1*
X65699Y133885D1*
X65595Y133781D1*
X65485Y133685D1*
X65368Y133597D1*
X65246Y133518D1*
X65119Y133447D1*
X64987Y133386D1*
X64852Y133335D1*
X64714Y133294D1*
X64573Y133263D1*
X64430Y133242D1*
X64286Y133232D1*
X64142D1*
X63999Y133242D1*
X63856Y133263D1*
X63715Y133294D1*
X63577Y133335D1*
X63441Y133386D1*
X63310Y133447D1*
X63182Y133518D1*
X63060Y133597D1*
X62944Y133685D1*
X62833Y133781D1*
X62730Y133885D1*
X62633Y133996D1*
X62545Y134114D1*
X62464Y134238D1*
X62392Y134367D1*
X62329Y134502D1*
X62275Y134641D1*
X62231Y134783D1*
X62196Y134928D1*
X62171Y135075D1*
X62156Y135224D1*
X62151Y135373D1*
X234564Y26189D2*
X231427D1*
Y36746D1*
X234564D1*
Y26189D1*
X233519D2*
X232548D1*
Y27656D1*
X233519D1*
Y26189D1*
X220912Y28729D2*
X217775D1*
Y39286D1*
X220912D1*
Y28729D1*
X219866D2*
X218895D1*
Y30196D1*
X219866D1*
Y28729D1*
X207259Y26189D2*
X204122D1*
Y36746D1*
X207259D1*
Y26189D1*
X206214D2*
X205243D1*
Y27656D1*
X206214D1*
Y26189D1*
X193607Y28729D2*
X190470D1*
Y39286D1*
X193607D1*
Y28729D1*
X192561D2*
X191590D1*
Y30196D1*
X192561D1*
Y28729D1*
X56871Y21925D2*
Y20325D1*
X58071Y21925D2*
Y20325D1*
D58*
X57471Y22865D3*
X46710Y21925D2*
D10*
Y20325D1*
X47910Y21925D2*
Y20325D1*
D58*
X47310Y22865D3*
X36549Y21925D2*
D10*
Y20325D1*
X37749Y21925D2*
Y20325D1*
D58*
X37149Y22865D3*
X26388Y21925D2*
D10*
Y20325D1*
X27588Y21925D2*
Y20325D1*
D58*
X26988Y22865D3*
X54331Y21925D2*
D10*
Y20325D1*
X55531Y21925D2*
Y20325D1*
D58*
X54931Y22865D3*
X44170Y21925D2*
D10*
Y20325D1*
X45370Y21925D2*
Y20325D1*
D58*
X44770Y22865D3*
X34009Y21925D2*
D10*
Y20325D1*
X35209Y21925D2*
Y20325D1*
D58*
X34609Y22865D3*
X23848Y21925D2*
D10*
Y20325D1*
X25048Y21925D2*
Y20325D1*
D58*
X24448Y22865D3*
X51791Y21925D2*
D10*
Y20325D1*
X52991Y21925D2*
Y20325D1*
D58*
X52391Y22865D3*
X41630Y21925D2*
D10*
Y20325D1*
X42830Y21925D2*
Y20325D1*
D58*
X42230Y22865D3*
X31469Y21925D2*
D10*
Y20325D1*
X32669Y21925D2*
Y20325D1*
D58*
X32069Y22865D3*
X21308Y21925D2*
D10*
Y20325D1*
X22507Y21925D2*
Y20325D1*
D58*
X21908Y22865D3*
X225404Y19226D2*
D10*
Y20826D1*
X224204Y19226D2*
Y20826D1*
D58*
X224804Y18286D3*
X113373Y21569D2*
D10*
Y23169D1*
X112173Y21569D2*
Y23169D1*
D58*
X112773Y20629D3*
X220324Y19226D2*
D10*
Y20826D1*
X219124Y19226D2*
Y20826D1*
D58*
X219724Y18286D3*
X108293Y21569D2*
D10*
Y23169D1*
X107093Y21569D2*
Y23169D1*
D58*
X107693Y20629D3*
X215244Y19226D2*
D10*
Y20826D1*
X214044Y19226D2*
Y20826D1*
D58*
X214644Y18286D3*
X103213Y21569D2*
D10*
Y23169D1*
X102013Y21569D2*
Y23169D1*
D58*
X102613Y20629D3*
X210164Y19226D2*
D10*
Y20826D1*
X208964Y19226D2*
Y20826D1*
D58*
X209564Y18286D3*
X98133Y21569D2*
D10*
Y23169D1*
X96933Y21569D2*
Y23169D1*
D58*
X97533Y20629D3*
X205084Y19226D2*
D10*
Y20826D1*
X203884Y19226D2*
Y20826D1*
D58*
X204484Y18286D3*
X93053Y21569D2*
D10*
Y23169D1*
X91853Y21569D2*
Y23169D1*
D58*
X92453Y20629D3*
X200004Y19226D2*
D10*
Y20826D1*
X198804Y19226D2*
Y20826D1*
D58*
X199404Y18286D3*
X87973Y21569D2*
D10*
Y23169D1*
X86773Y21569D2*
Y23169D1*
D58*
X87373Y20629D3*
X194924Y19249D2*
D10*
Y20849D1*
X193724Y19249D2*
Y20849D1*
D58*
X194324Y18309D3*
X82893Y21592D2*
D10*
Y23192D1*
X81693Y21592D2*
Y23192D1*
D58*
X82293Y20652D3*
X189844Y19249D2*
D10*
Y20849D1*
X188644Y19249D2*
Y20849D1*
D58*
X189244Y18309D3*
X77813Y21592D2*
D10*
Y23192D1*
X76613Y21592D2*
Y23192D1*
D58*
X77213Y20652D3*
X227944Y19226D2*
D10*
Y20826D1*
X226744Y19226D2*
Y20826D1*
D58*
X227344Y18286D3*
X115913Y21569D2*
D10*
Y23169D1*
X114713Y21569D2*
Y23169D1*
D58*
X115313Y20629D3*
X222547Y19226D2*
D10*
Y20826D1*
X221347Y19226D2*
Y20826D1*
D58*
X221947Y18286D3*
X110515Y21569D2*
D10*
Y23169D1*
X109315Y21569D2*
Y23169D1*
D58*
X109915Y20629D3*
X217784Y19226D2*
D10*
Y20826D1*
X216584Y19226D2*
Y20826D1*
D58*
X217184Y18286D3*
X105753Y21569D2*
D10*
Y23169D1*
X104553Y21569D2*
Y23169D1*
D58*
X105153Y20629D3*
X212704Y19226D2*
D10*
Y20826D1*
X211504Y19226D2*
Y20826D1*
D58*
X212104Y18286D3*
X100673Y21569D2*
D10*
Y23169D1*
X99473Y21569D2*
Y23169D1*
D58*
X100073Y20629D3*
X207624Y19226D2*
D10*
Y20826D1*
X206424Y19226D2*
Y20826D1*
D58*
X207024Y18286D3*
X95593Y21569D2*
D10*
Y23169D1*
X94393Y21569D2*
Y23169D1*
D58*
X94993Y20629D3*
X202544Y19226D2*
D10*
Y20826D1*
X201344Y19226D2*
Y20826D1*
D58*
X201944Y18286D3*
X90513Y21569D2*
D10*
Y23169D1*
X89313Y21569D2*
Y23169D1*
D58*
X89913Y20629D3*
X197464Y19226D2*
D10*
Y20826D1*
X196264Y19226D2*
Y20826D1*
D58*
X196864Y18286D3*
X85433Y21569D2*
D10*
Y23169D1*
X84233Y21569D2*
Y23169D1*
D58*
X84833Y20629D3*
X192384Y19226D2*
D10*
Y20826D1*
X191184Y19226D2*
Y20826D1*
D58*
X191784Y18286D3*
X80353Y21569D2*
D10*
Y23169D1*
X79153Y21569D2*
Y23169D1*
D58*
X79753Y20629D3*
X225474Y20849D2*
D10*
Y19249D1*
X226674Y20849D2*
Y19249D1*
D58*
X226074Y21789D3*
X113443Y23192D2*
D10*
Y21592D1*
X114643Y23192D2*
Y21592D1*
D58*
X114043Y24132D3*
X220394Y20849D2*
D10*
Y19249D1*
X221594Y20849D2*
Y19249D1*
D58*
X220994Y21789D3*
X108363Y23192D2*
D10*
Y21592D1*
X109563Y23192D2*
Y21592D1*
D58*
X108963Y24132D3*
X215314Y20849D2*
D10*
Y19249D1*
X216514Y20849D2*
Y19249D1*
D58*
X215914Y21789D3*
X103283Y23192D2*
D10*
Y21592D1*
X104483Y23192D2*
Y21592D1*
D58*
X103883Y24132D3*
X210234Y20849D2*
D10*
Y19249D1*
X211434Y20849D2*
Y19249D1*
D58*
X210834Y21789D3*
X98203Y23192D2*
D10*
Y21592D1*
X99403Y23192D2*
Y21592D1*
D58*
X98803Y24132D3*
X205154Y20849D2*
D10*
Y19249D1*
X206354Y20849D2*
Y19249D1*
D58*
X205754Y21789D3*
X93123Y23192D2*
D10*
Y21592D1*
X94323Y23192D2*
Y21592D1*
D58*
X93723Y24132D3*
X200074Y20849D2*
D10*
Y19249D1*
X201274Y20849D2*
Y19249D1*
D58*
X200674Y21789D3*
X88043Y23192D2*
D10*
Y21592D1*
X89243Y23192D2*
Y21592D1*
D58*
X88643Y24132D3*
X194994Y20849D2*
D10*
Y19249D1*
X196194Y20849D2*
Y19249D1*
D58*
X195594Y21789D3*
X82963Y23192D2*
D10*
Y21592D1*
X84163Y23192D2*
Y21592D1*
D58*
X83563Y24132D3*
X189914Y20849D2*
D10*
Y19249D1*
X191114Y20849D2*
Y19249D1*
D58*
X190514Y21789D3*
X77883Y23192D2*
D10*
Y21592D1*
X79083Y23192D2*
Y21592D1*
D58*
X78483Y24132D3*
X228014Y20849D2*
D10*
Y19249D1*
X229214Y20849D2*
Y19249D1*
D58*
X228614Y21789D3*
X115983Y23192D2*
D10*
Y21592D1*
X117183Y23192D2*
Y21592D1*
D58*
X116583Y24132D3*
X222934Y20849D2*
D10*
Y19249D1*
X224134Y20849D2*
Y19249D1*
D58*
X223534Y21789D3*
X110903Y23192D2*
D10*
Y21592D1*
X112103Y23192D2*
Y21592D1*
D58*
X111503Y24132D3*
X217854Y20849D2*
D10*
Y19249D1*
X219054Y20849D2*
Y19249D1*
D58*
X218454Y21789D3*
X105823Y23192D2*
D10*
Y21592D1*
X107023Y23192D2*
Y21592D1*
D58*
X106423Y24132D3*
X212774Y20849D2*
D10*
Y19249D1*
X213974Y20849D2*
Y19249D1*
D58*
X213374Y21789D3*
X100743Y23192D2*
D10*
Y21592D1*
X101943Y23192D2*
Y21592D1*
D58*
X101343Y24132D3*
X207694Y20849D2*
D10*
Y19249D1*
X208894Y20849D2*
Y19249D1*
D58*
X208294Y21789D3*
X95663Y23192D2*
D10*
Y21592D1*
X96863Y23192D2*
Y21592D1*
D58*
X96263Y24132D3*
X202614Y20849D2*
D10*
Y19249D1*
X203814Y20849D2*
Y19249D1*
D58*
X203214Y21789D3*
X90583Y23192D2*
D10*
Y21592D1*
X91783Y23192D2*
Y21592D1*
D58*
X91183Y24132D3*
X197534Y20849D2*
D10*
Y19249D1*
X198734Y20849D2*
Y19249D1*
D58*
X198134Y21789D3*
X85503Y23192D2*
D10*
Y21592D1*
X86703Y23192D2*
Y21592D1*
D58*
X86103Y24132D3*
X192454Y20849D2*
D10*
Y19249D1*
X193654Y20849D2*
Y19249D1*
D58*
X193054Y21789D3*
X80423Y23192D2*
D10*
Y21592D1*
X81623Y23192D2*
Y21592D1*
D58*
X81023Y24132D3*
X59412Y21925D2*
D10*
Y20325D1*
X60611Y21925D2*
Y20325D1*
D58*
X60012Y22865D3*
X49250Y21925D2*
D10*
Y20325D1*
X50450Y21925D2*
Y20325D1*
D58*
X49850Y22865D3*
X39089Y21925D2*
D10*
Y20325D1*
X40289Y21925D2*
Y20325D1*
D58*
X39689Y22865D3*
X28928Y21925D2*
D10*
Y20325D1*
X30128Y21925D2*
Y20325D1*
D58*
X29528Y22865D3*
X58583Y110499D2*
D28*
X71601D1*
Y103990D1*
X58583D1*
Y110499D1*
G36*
D2*
X64933D1*
Y103990D1*
X58583D1*
Y110499D1*
G37*
G36*
X10476Y124312D2*
X21749D1*
Y99386D1*
X10476D1*
Y124312D1*
G37*
X34538Y93956D2*
D136*
X34599Y94077D1*
X34721Y94199D1*
X34842Y94260D1*
X35085D1*
X35207Y94199D1*
X35327Y94077D1*
X35389Y93956D1*
X35450Y93774D1*
Y93469D1*
X35389Y93288D1*
X35327Y93166D1*
X35207Y93045D1*
X35085Y92984D1*
X34842D1*
X34721Y93045D1*
X34599Y93166D1*
X34538Y93288D1*
X34146Y94015D2*
X34024Y94077D1*
X33842Y94258D1*
Y92984D1*
X33084Y94258D2*
X33267Y94198D1*
X33389Y94015D1*
X33449Y93712D1*
Y93530D1*
X33389Y93226D1*
X33267Y93044D1*
X33084Y92984D1*
X32964D1*
X32781Y93044D1*
X32661Y93226D1*
X32599Y93530D1*
Y93712D1*
X32661Y94015D1*
X32781Y94198D1*
X32964Y94258D1*
X33084D1*
X32661Y94015D2*
X33389Y93226D1*
X63853Y73812D2*
X63732Y73872D1*
X63610Y73994D1*
X63550Y74115D1*
Y74358D1*
X63610Y74480D1*
X63732Y74601D1*
X63853Y74663D1*
X64036Y74723D1*
X64340D1*
X64521Y74663D1*
X64643Y74601D1*
X64764Y74480D1*
X64826Y74358D1*
Y74115D1*
X64764Y73994D1*
X64643Y73872D1*
X64521Y73812D1*
X63794Y73420D2*
X63732Y73298D1*
X63551Y73115D1*
X64826D1*
X63854Y72661D2*
X63794D1*
X63672Y72601D1*
X63612Y72540D1*
X63551Y72418D1*
Y72175D1*
X63612Y72055D1*
X63672Y71994D1*
X63794Y71933D1*
X63915D1*
X64037Y71994D1*
X64218Y72115D1*
X64826Y72723D1*
Y71872D1*
X58838Y68110D2*
X58898Y68231D1*
X59020Y68353D1*
X59141Y68414D1*
X59384D1*
X59506Y68353D1*
X59627Y68231D1*
X59688Y68110D1*
X59749Y67928D1*
Y67623D1*
X59688Y67442D1*
X59627Y67320D1*
X59506Y67199D1*
X59384Y67138D1*
X59141D1*
X59020Y67199D1*
X58898Y67320D1*
X58838Y67442D1*
X58446Y68169D2*
X58323Y68231D1*
X58141Y68412D1*
Y67138D1*
X57627Y68412D2*
X56960D1*
X57323Y67926D1*
X57141D1*
X57020Y67866D1*
X56960Y67806D1*
X56898Y67623D1*
Y67503D1*
X56960Y67320D1*
X57081Y67198D1*
X57263Y67138D1*
X57446D1*
X57627Y67198D1*
X57687Y67260D1*
X57749Y67380D1*
X49099Y72889D2*
X48978Y72949D1*
X48856Y73072D1*
X48795Y73192D1*
Y73435D1*
X48856Y73557D1*
X48978Y73678D1*
X49099Y73740D1*
X49281Y73800D1*
X49586D1*
X49767Y73740D1*
X49889Y73678D1*
X50010Y73557D1*
X50071Y73435D1*
Y73192D1*
X50010Y73072D1*
X49889Y72949D1*
X49767Y72889D1*
X49040Y72497D2*
X48978Y72375D1*
X48797Y72192D1*
X50071D1*
X48797Y71072D2*
Y71678D1*
X49343Y71738D1*
X49283Y71678D1*
X49221Y71495D1*
Y71314D1*
X49283Y71132D1*
X49403Y71010D1*
X49586Y70949D1*
X49706D1*
X49889Y71010D1*
X50011Y71132D1*
X50071Y71314D1*
Y71495D1*
X50011Y71678D1*
X49949Y71738D1*
X49829Y71800D1*
X58709Y78427D2*
X58769Y78548D1*
X58891Y78670D1*
X59012Y78730D1*
X59255D1*
X59377Y78670D1*
X59498Y78548D1*
X59559Y78427D1*
X59620Y78244D1*
Y77940D1*
X59559Y77759D1*
X59498Y77636D1*
X59377Y77516D1*
X59255Y77454D1*
X59012D1*
X58891Y77516D1*
X58769Y77636D1*
X58709Y77759D1*
X58316Y78486D2*
X58194Y78548D1*
X58012Y78729D1*
Y77454D1*
X56891Y78548D2*
X56951Y78668D1*
X57134Y78729D1*
X57255D1*
X57437Y78668D1*
X57559Y78486D1*
X57620Y78183D1*
Y77879D1*
X57559Y77636D1*
X57437Y77514D1*
X57255Y77454D1*
X57194D1*
X57013Y77514D1*
X56891Y77636D1*
X56831Y77819D1*
Y77879D1*
X56891Y78062D1*
X57013Y78183D1*
X57194Y78243D1*
X57255D1*
X57437Y78183D1*
X57559Y78062D1*
X57620Y77879D1*
X62968Y70489D2*
X63028Y70610D1*
X63150Y70732D1*
X63271Y70792D1*
X63514D1*
X63636Y70732D1*
X63757Y70610D1*
X63818Y70489D1*
X63879Y70307D1*
Y70002D1*
X63818Y69821D1*
X63757Y69699D1*
X63636Y69578D1*
X63514Y69516D1*
X63271D1*
X63150Y69578D1*
X63028Y69699D1*
X62968Y69821D1*
X62576Y70548D2*
X62453Y70610D1*
X62271Y70791D1*
Y69516D1*
X61636D2*
X61028Y70791D1*
X61879D1*
X273584Y165318D2*
X273463Y165378D1*
X273341Y165500D1*
X273281Y165621D1*
Y165864D1*
X273341Y165986D1*
X273463Y166107D1*
X273584Y166168D1*
X273766Y166229D1*
X274071D1*
X274252Y166168D1*
X274374Y166107D1*
X274495Y165986D1*
X274557Y165864D1*
Y165621D1*
X274495Y165500D1*
X274374Y165378D1*
X274252Y165318D1*
X273282Y164197D2*
Y164803D1*
X273828Y164864D1*
X273768Y164803D1*
X273706Y164621D1*
Y164440D1*
X273768Y164257D1*
X273888Y164135D1*
X274071Y164075D1*
X274192D1*
X274374Y164135D1*
X274496Y164257D1*
X274557Y164440D1*
Y164621D1*
X274496Y164803D1*
X274435Y164864D1*
X274314Y164926D1*
X273282Y163318D2*
X273342Y163500D1*
X273525Y163622D1*
X273828Y163683D1*
X274011D1*
X274314Y163622D1*
X274496Y163500D1*
X274557Y163318D1*
Y163197D1*
X274496Y163014D1*
X274314Y162894D1*
X274011Y162832D1*
X273828D1*
X273525Y162894D1*
X273342Y163014D1*
X273282Y163197D1*
Y163318D1*
X273525Y162894D2*
X274314Y163622D1*
X234124Y165633D2*
X234003Y165693D1*
X233881Y165815D1*
X233821Y165936D1*
Y166179D1*
X233881Y166301D1*
X234003Y166422D1*
X234124Y166483D1*
X234307Y166544D1*
X234611D1*
X234792Y166483D1*
X234914Y166422D1*
X235035Y166301D1*
X235097Y166179D1*
Y165936D1*
X235035Y165815D1*
X234914Y165693D1*
X234792Y165633D1*
X233822Y164512D2*
Y165118D1*
X234368Y165179D1*
X234308Y165118D1*
X234246Y164936D1*
Y164755D1*
X234308Y164572D1*
X234429Y164450D1*
X234611Y164390D1*
X234732D1*
X234914Y164450D1*
X235037Y164572D1*
X235097Y164755D1*
Y164936D1*
X235037Y165118D1*
X234975Y165179D1*
X234854Y165240D1*
X234125Y163936D2*
X234065D1*
X233943Y163875D1*
X233883Y163815D1*
X233822Y163693D1*
Y163450D1*
X233883Y163329D1*
X233943Y163269D1*
X234065Y163207D1*
X234186D1*
X234308Y163269D1*
X234489Y163390D1*
X235097Y163998D1*
Y163147D1*
X215075Y165401D2*
X215135Y165522D1*
X215257Y165644D1*
X215378Y165705D1*
X215621D1*
X215743Y165644D1*
X215864Y165522D1*
X215926Y165401D1*
X215986Y165219D1*
Y164914D1*
X215926Y164733D1*
X215864Y164611D1*
X215743Y164490D1*
X215621Y164429D1*
X215378D1*
X215257Y164490D1*
X215135Y164611D1*
X215075Y164733D1*
X213954Y165703D2*
X214561D1*
X214621Y165157D1*
X214561Y165218D1*
X214378Y165279D1*
X214197D1*
X214014Y165218D1*
X213892Y165097D1*
X213832Y164914D1*
Y164794D1*
X213892Y164611D1*
X214014Y164489D1*
X214197Y164429D1*
X214378D1*
X214561Y164489D1*
X214621Y164551D1*
X214683Y164671D1*
X213318Y165703D2*
X212651D1*
X213014Y165218D1*
X212832D1*
X212711Y165157D1*
X212651Y165097D1*
X212589Y164914D1*
Y164794D1*
X212651Y164611D1*
X212772Y164489D1*
X212954Y164429D1*
X213137D1*
X213318Y164489D1*
X213378Y164551D1*
X213440Y164671D1*
X176811Y74111D2*
X176872Y74231D1*
X176994Y74353D1*
X177115Y74414D1*
X177358D1*
X177480Y74353D1*
X177600Y74231D1*
X177662Y74111D1*
X177723Y73928D1*
Y73623D1*
X177662Y73442D1*
X177600Y73320D1*
X177480Y73200D1*
X177358Y73138D1*
X177115D1*
X176994Y73200D1*
X176872Y73320D1*
X176811Y73442D1*
X175691Y74412D2*
X176297D1*
X176357Y73866D1*
X176297Y73927D1*
X176115Y73988D1*
X175934D1*
X175751Y73927D1*
X175629Y73806D1*
X175569Y73623D1*
Y73503D1*
X175629Y73320D1*
X175751Y73198D1*
X175934Y73138D1*
X176115D1*
X176297Y73198D1*
X176357Y73260D1*
X176419Y73381D1*
X174873Y74412D2*
X175054Y74352D1*
X175116Y74231D1*
Y74109D1*
X175054Y73988D1*
X174933Y73927D1*
X174691Y73866D1*
X174508Y73806D1*
X174387Y73684D1*
X174327Y73563D1*
Y73381D1*
X174387Y73260D1*
X174448Y73198D1*
X174630Y73138D1*
X174873D1*
X175054Y73198D1*
X175116Y73260D1*
X175176Y73381D1*
Y73563D1*
X175116Y73684D1*
X174994Y73806D1*
X174813Y73866D1*
X174570Y73927D1*
X174448Y73988D1*
X174387Y74109D1*
Y74231D1*
X174448Y74352D1*
X174630Y74412D1*
X174873D1*
X62900Y16114D2*
X62780Y16175D1*
X62658Y16297D1*
X62597Y16417D1*
Y16660D1*
X62658Y16782D1*
X62780Y16903D1*
X62900Y16965D1*
X63083Y17025D1*
X63388D1*
X63569Y16965D1*
X63691Y16903D1*
X63812Y16782D1*
X63873Y16660D1*
Y16417D1*
X63812Y16297D1*
X63691Y16175D1*
X63569Y16114D1*
X62902Y15660D2*
X62841D1*
X62719Y15600D1*
X62659Y15540D1*
X62599Y15417D1*
Y15175D1*
X62659Y15054D1*
X62719Y14993D1*
X62841Y14932D1*
X62962D1*
X63084Y14993D1*
X63265Y15114D1*
X63873Y15722D1*
Y14871D1*
X62780Y13751D2*
X62659Y13811D1*
X62599Y13993D1*
Y14114D1*
X62659Y14297D1*
X62841Y14419D1*
X63145Y14479D1*
X63448D1*
X63691Y14419D1*
X63813Y14297D1*
X63873Y14114D1*
Y14054D1*
X63813Y13873D1*
X63691Y13751D1*
X63508Y13690D1*
X63448D1*
X63265Y13751D1*
X63145Y13873D1*
X63084Y14054D1*
Y14114D1*
X63145Y14297D1*
X63265Y14419D1*
X63448Y14479D1*
X64084Y13298D2*
Y12144D1*
X62841Y11752D2*
X62780Y11630D1*
X62599Y11447D1*
X63873D1*
X19081Y16101D2*
X18960Y16161D1*
X18838Y16283D1*
X18778Y16404D1*
Y16647D1*
X18838Y16769D1*
X18960Y16890D1*
X19081Y16951D1*
X19263Y17012D1*
X19568D1*
X19749Y16951D1*
X19871Y16890D1*
X19992Y16769D1*
X20054Y16647D1*
Y16404D1*
X19992Y16283D1*
X19871Y16161D1*
X19749Y16101D1*
X19082Y15647D2*
X19022D1*
X18900Y15586D1*
X18839Y15526D1*
X18779Y15404D1*
Y15161D1*
X18839Y15040D1*
X18900Y14980D1*
X19022Y14918D1*
X19143D1*
X19265Y14980D1*
X19446Y15101D1*
X20054Y15708D1*
Y14858D1*
X19203Y13675D2*
X19385Y13737D1*
X19508Y13858D1*
X19568Y14040D1*
Y14101D1*
X19508Y14283D1*
X19385Y14404D1*
X19203Y14466D1*
X19143D1*
X18960Y14404D1*
X18839Y14283D1*
X18779Y14101D1*
Y14040D1*
X18839Y13858D1*
X18960Y13737D1*
X19203Y13675D1*
X19508D1*
X19811Y13737D1*
X19993Y13858D1*
X20054Y14040D1*
Y14161D1*
X19993Y14343D1*
X19871Y14404D1*
X20264Y13283D2*
Y12129D1*
X20054Y11129D2*
X18779D1*
X19628Y11737D1*
Y10826D1*
X23700Y93820D2*
Y92544D1*
X23274D1*
X23092Y92606D1*
X22970Y92726D1*
X22909Y92849D1*
X22849Y93030D1*
Y93334D1*
X22909Y93517D1*
X22970Y93637D1*
X23092Y93760D1*
X23274Y93820D1*
X23700D1*
X22457D2*
Y92544D1*
X22032D1*
X21849Y92606D1*
X21727Y92726D1*
X21667Y92849D1*
X21606Y93030D1*
Y93334D1*
X21667Y93517D1*
X21727Y93637D1*
X21849Y93760D1*
X22032Y93820D1*
X22457D1*
X20485Y93637D2*
X20546Y93758D1*
X20728Y93819D1*
X20849D1*
X21031Y93758D1*
X21154Y93576D1*
X21214Y93272D1*
Y92969D1*
X21154Y92726D1*
X21031Y92604D1*
X20849Y92544D1*
X20789D1*
X20608Y92604D1*
X20485Y92726D1*
X20425Y92909D1*
Y92969D1*
X20485Y93152D1*
X20608Y93272D1*
X20789Y93333D1*
X20849D1*
X21031Y93272D1*
X21154Y93152D1*
X21214Y92969D1*
X35528Y122929D2*
Y121653D1*
X35102D1*
X34920Y121715D1*
X34798Y121835D1*
X34737Y121958D1*
X34677Y122139D1*
Y122443D1*
X34737Y122626D1*
X34798Y122746D1*
X34920Y122869D1*
X35102Y122929D1*
X35528D1*
X34285D2*
Y121653D1*
X33859D1*
X33677Y121715D1*
X33555Y121835D1*
X33494Y121958D1*
X33434Y122139D1*
Y122443D1*
X33494Y122626D1*
X33555Y122746D1*
X33677Y122869D1*
X33859Y122929D1*
X34285D1*
X32799Y121653D2*
X32191Y122928D1*
X33042D1*
X28000Y93906D2*
Y92630D1*
X27574D1*
X27392Y92691D1*
X27270Y92812D1*
X27209Y92934D1*
X27149Y93115D1*
Y93420D1*
X27209Y93603D1*
X27270Y93723D1*
X27392Y93845D1*
X27574Y93906D1*
X28000D1*
X26757D2*
Y92630D1*
X26332D1*
X26149Y92691D1*
X26027Y92812D1*
X25967Y92934D1*
X25906Y93115D1*
Y93420D1*
X25967Y93603D1*
X26027Y93723D1*
X26149Y93845D1*
X26332Y93906D1*
X26757D1*
X24724Y93480D2*
X24785Y93298D1*
X24906Y93176D1*
X25089Y93115D1*
X25149D1*
X25332Y93176D1*
X25452Y93298D1*
X25514Y93480D1*
Y93541D1*
X25452Y93723D1*
X25332Y93844D1*
X25149Y93904D1*
X25089D1*
X24906Y93844D1*
X24785Y93723D1*
X24724Y93480D1*
Y93176D1*
X24785Y92873D1*
X24906Y92690D1*
X25089Y92630D1*
X25209D1*
X25392Y92690D1*
X25452Y92812D1*
X25311Y158405D2*
Y157129D1*
X24885D1*
X24703Y157190D1*
X24581Y157311D1*
X24520Y157433D1*
X24460Y157614D1*
Y157919D1*
X24520Y158101D1*
X24581Y158222D1*
X24703Y158344D1*
X24885Y158405D1*
X25311D1*
X24068D2*
Y157129D1*
X23642D1*
X23460Y157190D1*
X23338Y157311D1*
X23277Y157433D1*
X23217Y157614D1*
Y157919D1*
X23277Y158101D1*
X23338Y158222D1*
X23460Y158344D1*
X23642Y158405D1*
X24068D1*
X22825Y158160D2*
X22703Y158222D1*
X22520Y158403D1*
Y157129D1*
X22128Y158160D2*
X22006Y158222D1*
X21823Y158403D1*
Y157129D1*
X21431Y156918D2*
X20277D1*
X19885Y158160D2*
X19763Y158222D1*
X19580Y158403D1*
Y157129D1*
X30099Y63960D2*
X29553D1*
X29370Y64022D1*
X29308Y64082D1*
X29248Y64203D1*
Y64325D1*
X29308Y64446D1*
X29370Y64507D1*
X29553Y64568D1*
X30099D1*
Y63292D1*
X29673Y63960D2*
X29248Y63292D1*
X28613D2*
X28005Y64566D1*
X28856D1*
X29783Y66026D2*
X29237D1*
X29055Y66088D1*
X28993Y66149D1*
X28932Y66269D1*
Y66391D1*
X28993Y66512D1*
X29055Y66574D1*
X29237Y66634D1*
X29783D1*
Y65358D1*
X29358Y66026D2*
X28932Y65358D1*
X28237Y66633D2*
X28418Y66572D1*
X28480Y66452D1*
Y66330D1*
X28418Y66209D1*
X28297Y66147D1*
X28055Y66087D1*
X27872Y66026D1*
X27751Y65904D1*
X27691Y65784D1*
Y65601D1*
X27751Y65480D1*
X27812Y65419D1*
X27994Y65358D1*
X28237D1*
X28418Y65419D1*
X28480Y65480D1*
X28540Y65601D1*
Y65784D1*
X28480Y65904D1*
X28358Y66026D1*
X28177Y66087D1*
X27934Y66147D1*
X27812Y66209D1*
X27751Y66330D1*
Y66452D1*
X27812Y66572D1*
X27994Y66633D1*
X28237D1*
X227931Y36692D2*
X227385D1*
X227203Y36754D1*
X227141Y36814D1*
X227080Y36935D1*
Y37057D1*
X227141Y37177D1*
X227203Y37239D1*
X227385Y37300D1*
X227931D1*
Y36024D1*
X227506Y36692D2*
X227080Y36024D1*
X226566Y37298D2*
X225899D1*
X226263Y36812D1*
X226080D1*
X225960Y36752D1*
X225899Y36692D1*
X225838Y36509D1*
Y36389D1*
X225899Y36206D1*
X226020Y36084D1*
X226203Y36024D1*
X226385D1*
X226566Y36084D1*
X226627Y36146D1*
X226688Y36266D1*
X224838Y36024D2*
Y37298D1*
X225445Y36449D1*
X224534D1*
X227898Y38277D2*
X227352D1*
X227170Y38338D1*
X227108Y38399D1*
X227048Y38519D1*
Y38642D1*
X227108Y38762D1*
X227170Y38824D1*
X227352Y38884D1*
X227898D1*
Y37608D1*
X227473Y38277D2*
X227048Y37608D1*
X226533Y38883D2*
X225867D1*
X226230Y38397D1*
X226048D1*
X225927Y38337D1*
X225867Y38277D1*
X225805Y38094D1*
Y37973D1*
X225867Y37791D1*
X225987Y37669D1*
X226170Y37608D1*
X226352D1*
X226533Y37669D1*
X226594Y37731D1*
X226656Y37851D1*
X224684Y38883D2*
X225291D1*
X225351Y38337D1*
X225291Y38397D1*
X225108Y38459D1*
X224927D1*
X224744Y38397D1*
X224622Y38277D1*
X224562Y38094D1*
Y37973D1*
X224622Y37791D1*
X224744Y37669D1*
X224927Y37608D1*
X225108D1*
X225291Y37669D1*
X225351Y37731D1*
X225413Y37851D1*
X228026Y40023D2*
X227480D1*
X227298Y40085D1*
X227236Y40145D1*
X227176Y40266D1*
Y40388D1*
X227236Y40509D1*
X227298Y40570D1*
X227480Y40631D1*
X228026D1*
Y39355D1*
X227601Y40023D2*
X227176Y39355D1*
X226661Y40629D2*
X225995D1*
X226358Y40144D1*
X226176D1*
X226055Y40083D1*
X225995Y40023D1*
X225933Y39840D1*
Y39720D1*
X225995Y39537D1*
X226115Y39415D1*
X226298Y39355D1*
X226480D1*
X226661Y39415D1*
X226722Y39477D1*
X226783Y39597D1*
X224812Y40448D2*
X224872Y40569D1*
X225055Y40629D1*
X225176D1*
X225358Y40569D1*
X225480Y40386D1*
X225541Y40083D1*
Y39780D1*
X225480Y39537D1*
X225358Y39415D1*
X225176Y39355D1*
X225115D1*
X224934Y39415D1*
X224812Y39537D1*
X224752Y39720D1*
Y39780D1*
X224812Y39962D1*
X224934Y40083D1*
X225115Y40144D1*
X225176D1*
X225358Y40083D1*
X225480Y39962D1*
X225541Y39780D1*
X227263Y41928D2*
X226717D1*
X226535Y41990D1*
X226473Y42050D1*
X226413Y42171D1*
Y42293D1*
X226473Y42413D1*
X226535Y42475D1*
X226717Y42536D1*
X227263D1*
Y41260D1*
X226838Y41928D2*
X226413Y41260D1*
X225898Y42534D2*
X225232D1*
X225595Y42048D1*
X225413D1*
X225292Y41988D1*
X225232Y41928D1*
X225170Y41745D1*
Y41625D1*
X225232Y41442D1*
X225352Y41320D1*
X225535Y41260D1*
X225717D1*
X225898Y41320D1*
X225959Y41382D1*
X226021Y41502D1*
X224535Y41260D2*
X223927Y42534D1*
X224778D1*
X213134Y39388D2*
X212588D1*
X212405Y39450D1*
X212344Y39510D1*
X212283Y39631D1*
Y39753D1*
X212344Y39874D1*
X212405Y39936D1*
X212588Y39996D1*
X213134D1*
Y38720D1*
X212709Y39388D2*
X212283Y38720D1*
X211769Y39994D2*
X211102D1*
X211466Y39509D1*
X211283D1*
X211162Y39448D1*
X211102Y39388D1*
X211040Y39206D1*
Y39085D1*
X211102Y38902D1*
X211223Y38780D1*
X211405Y38720D1*
X211588D1*
X211769Y38780D1*
X211829Y38842D1*
X211891Y38963D1*
X210345Y39994D2*
X210526Y39934D1*
X210588Y39813D1*
Y39691D1*
X210526Y39571D1*
X210405Y39509D1*
X210162Y39448D1*
X209980Y39388D1*
X209859Y39266D1*
X209799Y39145D1*
Y38963D1*
X209859Y38842D1*
X209920Y38780D1*
X210102Y38720D1*
X210345D1*
X210526Y38780D1*
X210588Y38842D1*
X210648Y38963D1*
Y39145D1*
X210588Y39266D1*
X210466Y39388D1*
X210285Y39448D1*
X210042Y39509D1*
X209920Y39571D1*
X209859Y39691D1*
Y39813D1*
X209920Y39934D1*
X210102Y39994D1*
X210345D1*
X213104Y40975D2*
X212558D1*
X212376Y41037D1*
X212314Y41098D1*
X212254Y41218D1*
Y41340D1*
X212314Y41461D1*
X212376Y41523D1*
X212558Y41583D1*
X213104D1*
Y40307D1*
X212679Y40975D2*
X212254Y40307D1*
X211739Y41582D2*
X211073D1*
X211436Y41096D1*
X211254D1*
X211133Y41036D1*
X211073Y40975D1*
X211011Y40793D1*
Y40672D1*
X211073Y40490D1*
X211193Y40368D1*
X211376Y40307D1*
X211558D1*
X211739Y40368D1*
X211800Y40429D1*
X211862Y40550D1*
X209828Y41158D2*
X209890Y40975D1*
X210011Y40853D1*
X210193Y40793D1*
X210254D1*
X210436Y40853D1*
X210557Y40975D1*
X210619Y41158D1*
Y41218D1*
X210557Y41401D1*
X210436Y41521D1*
X210254Y41582D1*
X210193D1*
X210011Y41521D1*
X209890Y41401D1*
X209828Y41158D1*
Y40853D1*
X209890Y40550D1*
X210011Y40368D1*
X210193Y40307D1*
X210314D1*
X210497Y40368D1*
X210557Y40490D1*
X213165Y42563D2*
X212619D1*
X212436Y42625D1*
X212374Y42685D1*
X212314Y42806D1*
Y42928D1*
X212374Y43049D1*
X212436Y43110D1*
X212619Y43171D1*
X213165D1*
Y41895D1*
X212739Y42563D2*
X212314Y41895D1*
X211314D2*
Y43169D1*
X211922Y42320D1*
X211011D1*
X210254Y43169D2*
X210436Y43109D1*
X210558Y42926D1*
X210619Y42623D1*
Y42441D1*
X210558Y42137D1*
X210436Y41955D1*
X210254Y41895D1*
X210133D1*
X209950Y41955D1*
X209830Y42137D1*
X209768Y42441D1*
Y42623D1*
X209830Y42926D1*
X209950Y43109D1*
X210133Y43169D1*
X210254D1*
X209830Y42926D2*
X210558Y42137D1*
X212892Y44150D2*
X212346D1*
X212163Y44212D1*
X212101Y44272D1*
X212041Y44393D1*
Y44515D1*
X212101Y44636D1*
X212163Y44698D1*
X212346Y44758D1*
X212892D1*
Y43482D1*
X212466Y44150D2*
X212041Y43482D1*
X211041D2*
Y44757D1*
X211649Y43907D1*
X210738D1*
X210346Y44514D2*
X210223Y44576D1*
X210041Y44757D1*
Y43482D1*
X200941Y36689D2*
X200395D1*
X200213Y36751D1*
X200151Y36811D1*
X200090Y36932D1*
Y37054D1*
X200151Y37175D1*
X200213Y37237D1*
X200395Y37297D1*
X200941D1*
Y36021D1*
X200516Y36689D2*
X200090Y36021D1*
X199090D2*
Y37296D1*
X199698Y36446D1*
X198787D1*
X198333Y36992D2*
Y37053D1*
X198273Y37175D1*
X198213Y37235D1*
X198090Y37296D1*
X197848D1*
X197727Y37235D1*
X197666Y37175D1*
X197605Y37053D1*
Y36932D1*
X197666Y36810D1*
X197787Y36629D1*
X198395Y36021D1*
X197544D1*
X201259Y38435D2*
X200713D1*
X200530Y38497D1*
X200468Y38558D1*
X200408Y38678D1*
Y38800D1*
X200468Y38921D1*
X200530Y38983D1*
X200713Y39043D1*
X201259D1*
Y37767D1*
X200833Y38435D2*
X200408Y37767D1*
X199408D2*
Y39042D1*
X200016Y38193D1*
X199105D1*
X198590Y39042D2*
X197924D1*
X198287Y38556D1*
X198105D1*
X197984Y38496D1*
X197924Y38435D1*
X197862Y38253D1*
Y38132D1*
X197924Y37950D1*
X198044Y37828D1*
X198227Y37767D1*
X198409D1*
X198590Y37828D1*
X198651Y37889D1*
X198713Y38010D1*
X201448Y40182D2*
X200902D1*
X200719Y40243D1*
X200657Y40304D1*
X200597Y40424D1*
Y40547D1*
X200657Y40667D1*
X200719Y40729D1*
X200902Y40789D1*
X201448D1*
Y39513D1*
X201022Y40182D2*
X200597Y39513D1*
X199597D2*
Y40788D1*
X200205Y39939D1*
X199294D1*
X198294Y39513D2*
Y40788D1*
X198902Y39939D1*
X197990D1*
X201418Y41928D2*
X200871D1*
X200689Y41990D1*
X200627Y42050D1*
X200567Y42171D1*
Y42293D1*
X200627Y42413D1*
X200689Y42475D1*
X200871Y42536D1*
X201418D1*
Y41260D1*
X200992Y41928D2*
X200567Y41260D1*
X199567D2*
Y42534D1*
X200175Y41685D1*
X199264D1*
X198143Y42534D2*
X198749D1*
X198810Y41988D1*
X198749Y42048D1*
X198567Y42110D1*
X198386D1*
X198203Y42048D1*
X198081Y41928D1*
X198021Y41745D1*
Y41625D1*
X198081Y41442D1*
X198203Y41320D1*
X198386Y41260D1*
X198567D1*
X198749Y41320D1*
X198810Y41382D1*
X198871Y41502D1*
X186625Y39232D2*
X186079D1*
X185897Y39294D1*
X185835Y39354D1*
X185775Y39475D1*
Y39597D1*
X185835Y39717D1*
X185897Y39779D1*
X186079Y39840D1*
X186625D1*
Y38564D1*
X186200Y39232D2*
X185775Y38564D1*
X184775D2*
Y39838D1*
X185382Y38989D1*
X184471D1*
X183351Y39657D2*
X183411Y39778D1*
X183593Y39838D1*
X183714D1*
X183897Y39778D1*
X184019Y39595D1*
X184079Y39292D1*
Y38989D1*
X184019Y38746D1*
X183897Y38624D1*
X183714Y38564D1*
X183654D1*
X183473Y38624D1*
X183351Y38746D1*
X183290Y38929D1*
Y38989D1*
X183351Y39171D1*
X183473Y39292D1*
X183654Y39352D1*
X183714D1*
X183897Y39292D1*
X184019Y39171D1*
X184079Y38989D1*
X186656Y40978D2*
X186110D1*
X185928Y41040D1*
X185866Y41100D1*
X185805Y41221D1*
Y41343D1*
X185866Y41464D1*
X185928Y41525D1*
X186110Y41586D1*
X186656D1*
Y40310D1*
X186231Y40978D2*
X185805Y40310D1*
X184805D2*
Y41584D1*
X185413Y40735D1*
X184502D1*
X183867Y40310D2*
X183259Y41584D1*
X184110D1*
X186655Y42724D2*
X186109D1*
X185927Y42786D1*
X185865Y42846D1*
X185805Y42967D1*
Y43089D1*
X185865Y43210D1*
X185927Y43272D1*
X186109Y43332D1*
X186655D1*
Y42056D1*
X186230Y42724D2*
X185805Y42056D1*
X184805D2*
Y43331D1*
X185413Y42481D1*
X184501D1*
X183806Y43331D2*
X183987Y43270D1*
X184049Y43149D1*
Y43027D1*
X183987Y42907D1*
X183866Y42845D1*
X183624Y42784D1*
X183441Y42724D1*
X183320Y42602D1*
X183260Y42481D1*
Y42299D1*
X183320Y42178D1*
X183381Y42116D1*
X183563Y42056D1*
X183806D1*
X183987Y42116D1*
X184049Y42178D1*
X184109Y42299D1*
Y42481D1*
X184049Y42602D1*
X183927Y42724D1*
X183746Y42784D1*
X183503Y42845D1*
X183381Y42907D1*
X183320Y43027D1*
Y43149D1*
X183381Y43270D1*
X183563Y43331D1*
X183806D1*
X186626Y44470D2*
X186080D1*
X185897Y44532D1*
X185836Y44592D1*
X185775Y44713D1*
Y44835D1*
X185836Y44956D1*
X185897Y45018D1*
X186080Y45078D1*
X186626D1*
Y43802D1*
X186201Y44470D2*
X185775Y43802D1*
X184775D2*
Y45077D1*
X185383Y44227D1*
X184472D1*
X183289Y44653D2*
X183351Y44470D1*
X183472Y44348D1*
X183654Y44288D1*
X183715D1*
X183897Y44348D1*
X184018Y44470D1*
X184080Y44653D1*
Y44713D1*
X184018Y44896D1*
X183897Y45016D1*
X183715Y45077D1*
X183654D1*
X183472Y45016D1*
X183351Y44896D1*
X183289Y44653D1*
Y44348D1*
X183351Y44045D1*
X183472Y43862D1*
X183654Y43802D1*
X183775D1*
X183958Y43862D1*
X184018Y43985D1*
X24512Y125186D2*
Y124640D1*
X24451Y124458D1*
X24390Y124396D1*
X24269Y124336D1*
X24147D1*
X24027Y124396D1*
X23965Y124458D1*
X23904Y124640D1*
Y125186D1*
X25181D1*
X24512Y124761D2*
X25181Y124336D1*
X23906Y123215D2*
Y123821D1*
X24452Y123882D1*
X24392Y123821D1*
X24330Y123639D1*
Y123458D1*
X24392Y123275D1*
X24512Y123153D1*
X24695Y123093D1*
X24816D1*
X24998Y123153D1*
X25120Y123275D1*
X25181Y123458D1*
Y123639D1*
X25120Y123821D1*
X25058Y123882D1*
X24938Y123944D1*
X23906Y122336D2*
X23966Y122518D1*
X24149Y122640D1*
X24452Y122701D1*
X24634D1*
X24938Y122640D1*
X25120Y122518D1*
X25181Y122336D1*
Y122215D1*
X25120Y122032D1*
X24938Y121912D1*
X24634Y121850D1*
X24452D1*
X24149Y121912D1*
X23966Y122032D1*
X23906Y122215D1*
Y122336D1*
X24149Y121912D2*
X24938Y122640D1*
X28479Y125075D2*
Y124529D1*
X28417Y124346D1*
X28357Y124284D1*
X28236Y124224D1*
X28114D1*
X27993Y124284D1*
X27931Y124346D1*
X27871Y124529D1*
Y125075D1*
X29147D1*
X28479Y124649D2*
X29147Y124224D1*
X27872Y123103D2*
Y123710D1*
X28419Y123770D1*
X28358Y123710D1*
X28296Y123527D1*
Y123346D1*
X28358Y123164D1*
X28479Y123041D1*
X28661Y122981D1*
X28782D1*
X28965Y123041D1*
X29087Y123164D1*
X29147Y123346D1*
Y123527D1*
X29087Y123710D1*
X29025Y123770D1*
X28904Y123832D1*
X28115Y122589D2*
X28054Y122467D1*
X27872Y122284D1*
X29147D1*
X38164Y101056D2*
Y100510D1*
X38102Y100328D1*
X38042Y100266D1*
X37921Y100206D1*
X37799D1*
X37678Y100266D1*
X37616Y100328D1*
X37556Y100510D1*
Y101056D1*
X38832D1*
X38164Y100631D2*
X38832Y100206D1*
X37557Y99085D2*
Y99691D1*
X38103Y99752D1*
X38043Y99691D1*
X37981Y99509D1*
Y99328D1*
X38043Y99145D1*
X38164Y99023D1*
X38346Y98963D1*
X38467D1*
X38649Y99023D1*
X38772Y99145D1*
X38832Y99328D1*
Y99509D1*
X38772Y99691D1*
X38710Y99752D1*
X38589Y99814D1*
X37860Y98509D2*
X37800D1*
X37678Y98449D1*
X37618Y98388D1*
X37557Y98266D1*
Y98023D1*
X37618Y97902D1*
X37678Y97842D1*
X37800Y97780D1*
X37921D1*
X38043Y97842D1*
X38224Y97963D1*
X38832Y98571D1*
Y97720D1*
X41815Y101056D2*
Y100510D1*
X41754Y100328D1*
X41693Y100266D1*
X41572Y100206D1*
X41450D1*
X41330Y100266D1*
X41268Y100328D1*
X41207Y100510D1*
Y101056D1*
X42484D1*
X41815Y100631D2*
X42484Y100206D1*
X41209Y99085D2*
Y99691D1*
X41755Y99752D1*
X41695Y99691D1*
X41633Y99509D1*
Y99328D1*
X41695Y99145D1*
X41815Y99023D1*
X41998Y98963D1*
X42119D1*
X42301Y99023D1*
X42423Y99145D1*
X42484Y99328D1*
Y99509D1*
X42423Y99691D1*
X42361Y99752D1*
X42241Y99814D1*
X41209Y98449D2*
Y97782D1*
X41695Y98145D1*
Y97963D1*
X41755Y97842D1*
X41815Y97782D1*
X41998Y97720D1*
X42119D1*
X42301Y97782D1*
X42423Y97902D1*
X42484Y98085D1*
Y98267D1*
X42423Y98449D1*
X42361Y98509D1*
X42241Y98571D1*
X40071Y101084D2*
Y100538D1*
X40010Y100355D1*
X39949Y100294D1*
X39829Y100233D1*
X39706D1*
X39586Y100294D1*
X39524Y100355D1*
X39464Y100538D1*
Y101084D1*
X40740D1*
X40071Y100659D2*
X40740Y100233D1*
X39465Y99113D2*
Y99719D1*
X40011Y99779D1*
X39951Y99719D1*
X39889Y99537D1*
Y99355D1*
X39951Y99173D1*
X40071Y99051D1*
X40254Y98990D1*
X40375D1*
X40557Y99051D1*
X40679Y99173D1*
X40740Y99355D1*
Y99537D1*
X40679Y99719D1*
X40618Y99779D1*
X40497Y99841D1*
X40740Y97990D2*
X39465D1*
X40314Y98598D1*
Y97687D1*
X66746Y140205D2*
X66200D1*
X66017Y140267D1*
X65956Y140327D1*
X65895Y140448D1*
Y140570D1*
X65956Y140691D1*
X66017Y140752D1*
X66200Y140813D1*
X66746D1*
Y139537D1*
X66321Y140205D2*
X65895Y139537D1*
X64714Y140813D2*
X65503D1*
Y139537D1*
X64714D1*
X65503Y140205D2*
X65017D1*
X63471Y140630D2*
X63592Y140752D1*
X63774Y140813D1*
X64017D1*
X64200Y140752D1*
X64322Y140630D1*
Y140510D1*
X64260Y140387D1*
X64200Y140327D1*
X64079Y140267D1*
X63714Y140145D1*
X63592Y140084D1*
X63532Y140022D1*
X63471Y139902D1*
Y139719D1*
X63592Y139598D1*
X63774Y139537D1*
X64017D1*
X64200Y139598D1*
X64322Y139719D1*
X62290Y140813D2*
X63079D1*
Y139537D1*
X62290D1*
X63079Y140205D2*
X62593D1*
X61473Y140813D2*
Y139537D1*
X61898Y140813D2*
X61047D1*
X235345Y38606D2*
X234859Y37330D1*
X234373Y38606D1*
X233981D2*
Y37330D1*
X233556D1*
X233373Y37392D1*
X233251Y37512D1*
X233191Y37634D1*
X233131Y37816D1*
Y38120D1*
X233191Y38303D1*
X233251Y38423D1*
X233373Y38546D1*
X233556Y38606D1*
X233981D1*
X232131Y37330D2*
Y38604D1*
X232738Y37755D1*
X231827D1*
X230707Y38423D2*
X230767Y38544D1*
X230949Y38604D1*
X231070D1*
X231253Y38544D1*
X231375Y38362D1*
X231435Y38058D1*
Y37755D1*
X231375Y37512D1*
X231253Y37390D1*
X231070Y37330D1*
X231010D1*
X230829Y37390D1*
X230707Y37512D1*
X230646Y37695D1*
Y37755D1*
X230707Y37938D1*
X230829Y38058D1*
X231010Y38119D1*
X231070D1*
X231253Y38058D1*
X231375Y37938D1*
X231435Y37755D1*
X221723Y41146D2*
X221238Y39870D1*
X220752Y41146D1*
X220360D2*
Y39870D1*
X219934D1*
X219752Y39932D1*
X219630Y40052D1*
X219569Y40174D1*
X219509Y40356D1*
Y40660D1*
X219569Y40843D1*
X219630Y40963D1*
X219752Y41086D1*
X219934Y41146D1*
X220360D1*
X218509Y39870D2*
Y41144D1*
X219117Y40295D1*
X218206D1*
X217571Y39870D2*
X216963Y41144D1*
X217814D1*
X194388Y41146D2*
X193902Y39870D1*
X193417Y41146D1*
X193024D2*
Y39870D1*
X192599D1*
X192417Y39932D1*
X192294Y40052D1*
X192234Y40174D1*
X192174Y40356D1*
Y40660D1*
X192234Y40843D1*
X192294Y40963D1*
X192417Y41086D1*
X192599Y41146D1*
X193024D1*
X191174Y39870D2*
Y41144D1*
X191782Y40295D1*
X190870D1*
X189688Y40721D2*
X189750Y40538D1*
X189870Y40416D1*
X190053Y40356D1*
X190113D1*
X190296Y40416D1*
X190417Y40538D1*
X190478Y40721D1*
Y40781D1*
X190417Y40963D1*
X190296Y41084D1*
X190113Y41144D1*
X190053D1*
X189870Y41084D1*
X189750Y40963D1*
X189688Y40721D1*
Y40416D1*
X189750Y40113D1*
X189870Y39930D1*
X190053Y39870D1*
X190174D1*
X190356Y39930D1*
X190417Y40052D1*
X19130Y26603D2*
X20406Y26117D1*
X19130Y25632D1*
Y25240D2*
X20406D1*
Y24814D1*
X20344Y24632D1*
X20224Y24510D1*
X20102Y24449D1*
X19920Y24389D1*
X19616D1*
X19433Y24449D1*
X19313Y24510D1*
X19190Y24632D1*
X19130Y24814D1*
Y25240D1*
X19374Y23997D2*
X19313Y23874D1*
X19132Y23692D1*
X20406D1*
X19435Y23238D2*
X19374D1*
X19252Y23178D1*
X19192Y23117D1*
X19132Y22995D1*
Y22752D1*
X19192Y22632D1*
X19252Y22571D1*
X19374Y22509D1*
X19495D1*
X19617Y22571D1*
X19798Y22692D1*
X20406Y23300D1*
Y22449D1*
X20617Y22057D2*
Y20903D1*
X20406Y19903D2*
X19132D1*
X19981Y20511D1*
Y19600D1*
X185038Y23335D2*
X186314Y22849D1*
X185038Y22363D1*
Y21971D2*
X186314D1*
Y21546D1*
X186252Y21363D1*
X186131Y21241D1*
X186009Y21181D1*
X185828Y21121D1*
X185523D1*
X185341Y21181D1*
X185220Y21241D1*
X185098Y21363D1*
X185038Y21546D1*
Y21971D1*
X185342Y20667D2*
X185282D1*
X185160Y20606D1*
X185100Y20546D1*
X185039Y20424D1*
Y20181D1*
X185100Y20060D1*
X185160Y20000D1*
X185282Y19938D1*
X185403D1*
X185525Y20000D1*
X185706Y20121D1*
X186314Y20728D1*
Y19878D1*
X185282Y19486D2*
X185220Y19363D1*
X185039Y19181D1*
X186314D1*
X186524Y18789D2*
Y17635D1*
X185282Y17243D2*
X185220Y17121D1*
X185039Y16938D1*
X186314D1*
X73165Y26110D2*
X74442Y25624D1*
X73165Y25138D1*
Y24746D2*
X74442D1*
Y24321D1*
X74380Y24138D1*
X74259Y24016D1*
X74137Y23956D1*
X73956Y23895D1*
X73651D1*
X73469Y23956D1*
X73348Y24016D1*
X73226Y24138D1*
X73165Y24321D1*
Y24746D1*
X73470Y23441D2*
X73410D1*
X73288Y23381D1*
X73227Y23321D1*
X73167Y23199D1*
Y22956D1*
X73227Y22835D1*
X73288Y22775D1*
X73410Y22713D1*
X73530D1*
X73653Y22775D1*
X73834Y22895D1*
X74442Y23503D1*
Y22653D1*
X73410Y22260D2*
X73348Y22138D1*
X73167Y21956D1*
X74442D1*
X74652Y21564D2*
Y20410D1*
X73470Y19956D2*
X73410D1*
X73288Y19895D1*
X73227Y19835D1*
X73167Y19713D1*
Y19470D1*
X73227Y19349D1*
X73288Y19289D1*
X73410Y19227D1*
X73530D1*
X73653Y19289D1*
X73834Y19410D1*
X74442Y20017D1*
Y19167D1*
X230123Y23268D2*
X231400Y22782D1*
X230123Y22296D1*
Y21904D2*
X231400D1*
Y21479D1*
X231338Y21296D1*
X231217Y21174D1*
X231095Y21114D1*
X230914Y21054D1*
X230609D1*
X230427Y21114D1*
X230306Y21174D1*
X230184Y21296D1*
X230123Y21479D1*
Y21904D1*
X230428Y20600D2*
X230368D1*
X230246Y20539D1*
X230185Y20479D1*
X230125Y20357D1*
Y20114D1*
X230185Y19993D1*
X230246Y19933D1*
X230368Y19871D1*
X230488D1*
X230611Y19933D1*
X230792Y20054D1*
X231400Y20661D1*
Y19811D1*
X230428Y19357D2*
X230368D1*
X230246Y19296D1*
X230185Y19236D1*
X230125Y19114D1*
Y18871D1*
X230185Y18750D1*
X230246Y18690D1*
X230368Y18628D1*
X230488D1*
X230611Y18690D1*
X230792Y18811D1*
X231400Y19419D1*
Y18568D1*
X231610Y18176D2*
Y17022D1*
X230368Y16630D2*
X230306Y16507D1*
X230125Y16325D1*
X231400D1*
X118092Y25884D2*
X119368Y25398D1*
X118092Y24913D1*
Y24520D2*
X119368D1*
Y24095D1*
X119307Y23913D1*
X119186Y23790D1*
X119064Y23730D1*
X118883Y23670D1*
X118578D1*
X118396Y23730D1*
X118275Y23790D1*
X118153Y23913D1*
X118092Y24095D1*
Y24520D1*
X118397Y23216D2*
X118337D1*
X118215Y23155D1*
X118154Y23095D1*
X118094Y22973D1*
Y22730D1*
X118154Y22609D1*
X118215Y22549D1*
X118337Y22487D1*
X118457D1*
X118580Y22549D1*
X118761Y22670D1*
X119368Y23277D1*
Y22427D1*
X118397Y21973D2*
X118337D1*
X118215Y21912D1*
X118154Y21852D1*
X118094Y21730D1*
Y21487D1*
X118154Y21366D1*
X118215Y21306D1*
X118337Y21244D1*
X118457D1*
X118580Y21306D1*
X118761Y21427D1*
X119368Y22035D1*
Y21184D1*
X119579Y20792D2*
Y19638D1*
X118397Y19184D2*
X118337D1*
X118215Y19123D1*
X118154Y19063D1*
X118094Y18941D1*
Y18698D1*
X118154Y18577D1*
X118215Y18517D1*
X118337Y18455D1*
X118457D1*
X118580Y18517D1*
X118761Y18638D1*
X119368Y19246D1*
Y18395D1*
X186943Y23750D2*
X188219Y23265D1*
X186943Y22779D1*
Y22387D2*
X188219D1*
Y21961D1*
X188157Y21779D1*
X188036Y21657D1*
X187914Y21596D1*
X187733Y21536D1*
X187429D1*
X187246Y21596D1*
X187125Y21657D1*
X187003Y21779D1*
X186943Y21961D1*
Y22387D1*
X186944Y21022D2*
Y20355D1*
X187430Y20719D1*
Y20536D1*
X187490Y20415D1*
X187551Y20355D1*
X187733Y20293D1*
X187854D1*
X188036Y20355D1*
X188159Y20476D1*
X188219Y20658D1*
Y20841D1*
X188159Y21022D1*
X188097Y21082D1*
X187976Y21144D1*
X188219Y19658D2*
X186944Y19050D1*
Y19901D1*
X188429Y18658D2*
Y17504D1*
X187187Y17112D2*
X187125Y16990D1*
X186944Y16807D1*
X188219D1*
X74912Y26366D2*
X76188Y25881D1*
X74912Y25395D1*
Y25003D2*
X76188D1*
Y24577D1*
X76126Y24395D1*
X76005Y24273D1*
X75883Y24212D1*
X75702Y24152D1*
X75397D1*
X75215Y24212D1*
X75094Y24273D1*
X74972Y24395D1*
X74912Y24577D1*
Y25003D1*
X74913Y23638D2*
Y22971D1*
X75399Y23335D1*
Y23152D1*
X75459Y23031D1*
X75520Y22971D1*
X75702Y22909D1*
X75823D1*
X76005Y22971D1*
X76127Y23092D1*
X76188Y23274D1*
Y23457D1*
X76127Y23638D1*
X76066Y23698D1*
X75945Y23760D1*
X76188Y22274D2*
X74913Y21666D1*
Y22517D1*
X76398Y21274D2*
Y20120D1*
X75216Y19666D2*
X75156D1*
X75034Y19606D1*
X74973Y19546D1*
X74913Y19423D1*
Y19181D1*
X74973Y19060D1*
X75034Y18999D1*
X75156Y18938D1*
X75277D1*
X75399Y18999D1*
X75580Y19120D1*
X76188Y19728D1*
Y18877D1*
X232029Y23432D2*
X233305Y22946D1*
X232029Y22461D1*
Y22069D2*
X233305D1*
Y21643D1*
X233243Y21461D1*
X233122Y21339D1*
X233000Y21278D1*
X232819Y21218D1*
X232514D1*
X232332Y21278D1*
X232211Y21339D1*
X232089Y21461D1*
X232029Y21643D1*
Y22069D1*
X232030Y20704D2*
Y20037D1*
X232516Y20400D1*
Y20218D1*
X232576Y20097D1*
X232636Y20037D1*
X232819Y19975D1*
X232940D1*
X233122Y20037D1*
X233244Y20157D1*
X233305Y20340D1*
Y20522D1*
X233244Y20704D1*
X233183Y20764D1*
X233062Y20826D1*
X232030Y19280D2*
X232090Y19461D1*
X232211Y19522D1*
X232333D1*
X232454Y19461D1*
X232516Y19340D1*
X232576Y19097D1*
X232636Y18915D1*
X232759Y18794D1*
X232879Y18733D1*
X233062D1*
X233183Y18794D1*
X233244Y18854D1*
X233305Y19037D1*
Y19280D1*
X233244Y19461D1*
X233183Y19522D1*
X233062Y19583D1*
X232879D1*
X232759Y19522D1*
X232636Y19400D1*
X232576Y19219D1*
X232516Y18976D1*
X232454Y18854D1*
X232333Y18794D1*
X232211D1*
X232090Y18854D1*
X232030Y19037D1*
Y19280D1*
X233515Y18341D2*
Y17187D1*
X232273Y16795D2*
X232211Y16673D1*
X232030Y16491D1*
X233305D1*
X119997Y25731D2*
X121274Y25245D1*
X119997Y24759D1*
Y24367D2*
X121274D1*
Y23942D1*
X121212Y23759D1*
X121091Y23637D1*
X120969Y23577D1*
X120788Y23516D1*
X120483D1*
X120301Y23577D1*
X120180Y23637D1*
X120058Y23759D1*
X119997Y23942D1*
Y24367D1*
X119999Y23002D2*
Y22335D1*
X120485Y22699D1*
Y22516D1*
X120545Y22396D1*
X120605Y22335D1*
X120788Y22273D1*
X120909D1*
X121091Y22335D1*
X121213Y22456D1*
X121274Y22638D1*
Y22821D1*
X121213Y23002D1*
X121151Y23062D1*
X121031Y23124D1*
X119999Y21578D2*
X120059Y21759D1*
X120180Y21821D1*
X120302D1*
X120423Y21759D1*
X120485Y21638D1*
X120545Y21396D1*
X120605Y21213D1*
X120727Y21092D1*
X120848Y21032D1*
X121031D1*
X121151Y21092D1*
X121213Y21153D1*
X121274Y21335D1*
Y21578D1*
X121213Y21759D1*
X121151Y21821D1*
X121031Y21881D1*
X120848D1*
X120727Y21821D1*
X120605Y21699D1*
X120545Y21518D1*
X120485Y21275D1*
X120423Y21153D1*
X120302Y21092D1*
X120180D1*
X120059Y21153D1*
X119999Y21335D1*
Y21578D1*
X121484Y20640D2*
Y19486D1*
X120302Y19032D2*
X120242D1*
X120120Y18972D1*
X120059Y18911D1*
X119999Y18789D1*
Y18546D1*
X120059Y18425D1*
X120120Y18365D1*
X120242Y18303D1*
X120362D1*
X120485Y18365D1*
X120666Y18486D1*
X121274Y19094D1*
Y18243D1*
X62315Y24969D2*
X63591Y24483D1*
X62315Y23997D1*
Y23605D2*
X63591D1*
Y23180D1*
X63529Y22997D1*
X63408Y22875D1*
X63286Y22815D1*
X63105Y22754D1*
X62800D1*
X62618Y22815D1*
X62497Y22875D1*
X62375Y22997D1*
X62315Y23180D1*
Y23605D1*
X62740Y21572D2*
X62923Y21634D1*
X63045Y21754D1*
X63105Y21937D1*
Y21997D1*
X63045Y22180D1*
X62923Y22300D1*
X62740Y22362D1*
X62680D1*
X62497Y22300D1*
X62376Y22180D1*
X62316Y21997D1*
Y21937D1*
X62376Y21754D1*
X62497Y21634D1*
X62740Y21572D1*
X63045D1*
X63348Y21634D1*
X63530Y21754D1*
X63591Y21937D1*
Y22058D1*
X63530Y22240D1*
X63408Y22300D1*
X63801Y21180D2*
Y20026D1*
X62559Y19634D2*
X62497Y19511D1*
X62316Y19329D1*
X63591D1*
X142665Y14602D2*
D42*
X142786Y14844D1*
X143030Y15088D1*
X143271Y15209D1*
X143757D1*
X144001Y15088D1*
X144243Y14844D1*
X144366Y14602D1*
X144487Y14237D1*
Y13628D1*
X144366Y13266D1*
X144243Y13022D1*
X144001Y12780D1*
X143757Y12657D1*
X143271D1*
X143030Y12780D1*
X142786Y13022D1*
X142665Y13266D1*
Y13628D1*
X143271D1*
X141881Y13872D2*
X140786D1*
X140423Y13993D1*
X140300Y14117D1*
X140179Y14358D1*
Y14723D1*
X140300Y14965D1*
X140423Y15088D1*
X140786Y15209D1*
X141881D1*
Y12657D1*
X139395Y15209D2*
Y12657D1*
X43156Y27621D2*
X43277Y27863D1*
X43521Y28107D1*
X43762Y28228D1*
X44248D1*
X44492Y28107D1*
X44734Y27863D1*
X44857Y27621D1*
X44978Y27256D1*
Y26647D1*
X44857Y26285D1*
X44734Y26041D1*
X44492Y25799D1*
X44248Y25676D1*
X43762D1*
X43521Y25799D1*
X43277Y26041D1*
X43156Y26285D1*
Y26647D1*
X43762D1*
X42372Y26891D2*
X41277D1*
X40914Y27012D1*
X40791Y27136D1*
X40670Y27377D1*
Y27742D1*
X40791Y27984D1*
X40914Y28107D1*
X41277Y28228D1*
X42372D1*
Y25676D1*
X39156Y28228D2*
X39400Y28107D1*
X39642Y27863D1*
X39765Y27621D1*
X39886Y27256D1*
Y26647D1*
X39765Y26285D1*
X39642Y26041D1*
X39400Y25799D1*
X39156Y25676D1*
X38670D1*
X38429Y25799D1*
X38184Y26041D1*
X38064Y26285D1*
X37943Y26647D1*
Y27256D1*
X38064Y27621D1*
X38184Y27863D1*
X38429Y28107D1*
X38670Y28228D1*
X39156D1*
X58361Y35056D2*
X58481Y35300D1*
X58726Y35541D1*
X58967Y35665D1*
X59332Y35786D1*
X59941D1*
X60304Y35665D1*
X60548Y35541D1*
X60789Y35300D1*
X60913Y35056D1*
Y34570D1*
X60789Y34328D1*
X60548Y34084D1*
X60304Y33963D1*
X59941Y33843D1*
X59332D1*
X58967Y33963D1*
X58726Y34084D1*
X58481Y34328D1*
X58361Y34570D1*
Y35056D1*
Y33058D2*
X60183D1*
X60548Y32938D1*
X60789Y32693D1*
X60913Y32328D1*
Y32087D1*
X60789Y31722D1*
X60548Y31478D1*
X60183Y31357D1*
X58361D1*
Y29722D2*
X60913D1*
X58361Y30573D2*
Y28871D1*
X58364Y27357D2*
X58484Y27722D1*
X58849Y27966D1*
X59456Y28087D1*
X59821D1*
X60427Y27966D1*
X60792Y27722D1*
X60913Y27357D1*
Y27115D1*
X60792Y26750D1*
X60427Y26509D1*
X59821Y26385D1*
X59456D1*
X58849Y26509D1*
X58484Y26750D1*
X58364Y27115D1*
Y27357D1*
X58849Y26509D2*
X60427Y27966D1*
X20795Y35276D2*
X20915Y35520D1*
X21160Y35762D1*
X21401Y35885D1*
X21766Y36006D1*
X22375D1*
X22738Y35885D1*
X22982Y35762D1*
X23223Y35520D1*
X23347Y35276D1*
Y34790D1*
X23223Y34549D1*
X22982Y34305D1*
X22738Y34184D1*
X22375Y34063D1*
X21766D1*
X21401Y34184D1*
X21160Y34305D1*
X20916Y34549D1*
X20795Y34790D1*
Y35276D1*
Y33279D2*
X22617D1*
X22982Y33158D1*
X23223Y32914D1*
X23347Y32549D1*
Y32307D1*
X23223Y31942D1*
X22982Y31698D1*
X22617Y31577D1*
X20795D1*
Y29942D2*
X23347D1*
X20795Y30793D2*
Y29092D1*
X21283Y28307D2*
X21160Y28063D1*
X20798Y27698D1*
X23347D1*
X20798Y25456D2*
Y26669D1*
X21890Y26790D1*
X21769Y26669D1*
X21646Y26304D1*
X21645Y25942D1*
X21769Y25577D1*
X22010Y25333D1*
X22375Y25212D1*
X22617D1*
X22982Y25333D1*
X23226Y25577D1*
X23347Y25942D1*
Y26304D1*
X23226Y26669D1*
X23103Y26790D1*
X22861Y26914D1*
X164226Y20965D2*
D137*
X162184Y21453D1*
X164226Y21938D1*
X162184Y22423D1*
X164226Y22911D1*
X162184Y23538D2*
X164224Y24899D1*
X163253Y25527D2*
Y26400D1*
X163352Y26692D1*
X163449Y26791D1*
X163642Y26888D1*
X163837D1*
X164031Y26791D1*
X164129Y26692D1*
X164226Y26400D1*
Y25527D1*
X162184D1*
X163253Y26207D2*
X162184Y26888D1*
X164758Y25527D2*
Y26260D1*
X161276Y22481D2*
X161471Y22288D1*
X161568Y21996D1*
Y21607D1*
X161471Y21315D1*
X161276Y21120D1*
X161083D1*
X160887Y21218D1*
X160791Y21315D1*
X160694Y21508D1*
X160499Y22092D1*
X160402Y22288D1*
X160303Y22384D1*
X160110Y22481D1*
X159818D1*
X159625Y22288D1*
X159526Y21996D1*
Y21607D1*
X159625Y21315D1*
X159818Y21120D1*
X161568Y23108D2*
X160595Y23885D1*
X159526D1*
X161568Y24663D2*
X160595Y23885D1*
X161568Y26651D2*
X159526D1*
X161568Y25290D1*
X159526D1*
X161083Y28736D2*
X161276Y28640D1*
X161471Y28444D1*
X161568Y28251D1*
Y27863D1*
X161471Y27667D1*
X161276Y27474D1*
X161083Y27375D1*
X160791Y27279D1*
X160303D1*
X160014Y27375D1*
X159818Y27474D1*
X159625Y27667D1*
X159526Y27863D1*
Y28251D1*
X159625Y28444D1*
X159818Y28640D1*
X160014Y28736D1*
X158638Y22520D2*
X158833Y22326D1*
X158930Y22034D1*
Y21646D1*
X158833Y21354D1*
X158638Y21158D1*
X158445D1*
X158249Y21257D1*
X158153Y21354D1*
X158056Y21547D1*
X157861Y22131D1*
X157764Y22326D1*
X157665Y22423D1*
X157472Y22520D1*
X157180D1*
X156987Y22326D1*
X156888Y22034D1*
Y21646D1*
X156987Y21354D1*
X157180Y21158D1*
X158930Y23828D2*
X156888D1*
X158930Y23147D2*
Y24508D1*
Y25136D2*
X156888D1*
Y25816D1*
X156987Y26108D1*
X157180Y26304D1*
X157375Y26400D1*
X157665Y26497D1*
X158153D1*
X158445Y26400D1*
X158638Y26304D1*
X158833Y26108D1*
X158930Y25816D1*
Y25136D1*
Y27708D2*
X158833Y27513D1*
X158638Y27320D1*
X158445Y27221D1*
X158153Y27124D1*
X157665D1*
X157375Y27221D1*
X157180Y27320D1*
X156987Y27513D1*
X156888Y27708D1*
Y28097D1*
X156987Y28290D1*
X157180Y28485D1*
X157375Y28582D1*
X157665Y28679D1*
X158153D1*
X158445Y28582D1*
X158638Y28485D1*
X158833Y28290D1*
X158930Y28097D1*
Y27708D1*
Y29306D2*
X157472D1*
X157180Y29403D1*
X156987Y29598D1*
X156888Y29890D1*
Y30083D1*
X156987Y30375D1*
X157180Y30571D1*
X157472Y30667D1*
X158930D1*
Y31975D2*
X156888D1*
X158930Y31295D2*
Y32656D1*
X156551Y33283D2*
Y35130D1*
X158930Y35757D2*
X156888Y36244D1*
X158930Y36730D1*
X156888Y37215D1*
X158930Y37702D1*
X157957Y38330D2*
Y39203D1*
X158056Y39495D1*
X158153Y39594D1*
X158346Y39691D1*
X158541D1*
X158734Y39594D1*
X158833Y39495D1*
X158930Y39203D1*
Y38330D1*
X156888D1*
X157957Y39010D2*
X156888Y39691D1*
X156058Y22638D2*
X156254Y22445D1*
X156350Y22153D1*
Y21765D1*
X156254Y21473D1*
X156058Y21277D1*
X155865D1*
X155670Y21376D1*
X155573Y21473D1*
X155477Y21666D1*
X155281Y22250D1*
X155185Y22445D1*
X155086Y22542D1*
X154893Y22638D1*
X154601D1*
X154407Y22445D1*
X154309Y22153D1*
Y21765D1*
X154407Y21473D1*
X154601Y21277D1*
X156350Y23946D2*
X154309D1*
X156350Y23266D2*
Y24627D1*
Y25254D2*
X154309D1*
Y25935D1*
X154407Y26227D1*
X154601Y26422D1*
X154796Y26519D1*
X155086Y26616D1*
X155573D1*
X155865Y26519D1*
X156058Y26422D1*
X156254Y26227D1*
X156350Y25935D1*
Y25254D1*
Y27243D2*
X154309D1*
X156350Y29232D2*
X154309D1*
X156350Y27870D1*
X154309D1*
X153972Y29859D2*
Y31705D1*
X155378Y32333D2*
Y33207D1*
X155477Y33499D1*
X155573Y33597D1*
X155766Y33694D1*
X155962D1*
X156155Y33597D1*
X156254Y33499D1*
X156350Y33207D1*
Y32333D1*
X154309D1*
X155378Y33013D2*
X154309Y33694D1*
X156350Y34321D2*
X154309D1*
Y35002D1*
X154407Y35294D1*
X154601Y35489D1*
X154796Y35586D1*
X155086Y35683D1*
X155573D1*
X155865Y35586D1*
X156058Y35489D1*
X156254Y35294D1*
X156350Y35002D1*
Y34321D1*
X153485Y22627D2*
X153680Y22433D1*
X153777Y22141D1*
Y21753D1*
X153680Y21461D1*
X153485Y21265D1*
X153291D1*
X153096Y21364D1*
X152999Y21461D1*
X152903Y21654D1*
X152707Y22238D1*
X152611Y22433D1*
X152512Y22530D1*
X152319Y22627D1*
X152027D1*
X151834Y22433D1*
X151735Y22141D1*
Y21753D1*
X151834Y21461D1*
X152027Y21265D1*
X153777Y23935D2*
X151735D1*
X153777Y23254D2*
Y24615D1*
Y25243D2*
X151735D1*
Y25923D1*
X151834Y26215D1*
X152027Y26411D1*
X152222Y26507D1*
X152512Y26604D1*
X152999D1*
X153291Y26507D1*
X153485Y26411D1*
X153680Y26215D1*
X153777Y25923D1*
Y25243D1*
Y27231D2*
X151735D1*
X153777Y29220D2*
X151735D1*
X153777Y27859D1*
X151735D1*
X151398Y29847D2*
Y31694D1*
X151735Y33876D2*
X153777D1*
X151735Y33098D1*
X153777Y32321D1*
X151735D1*
X153777Y35087D2*
X153680Y34892D1*
X153485Y34698D1*
X153291Y34600D1*
X152999Y34503D1*
X152512D1*
X152222Y34600D1*
X152027Y34698D1*
X151834Y34892D1*
X151735Y35087D1*
Y35476D1*
X151834Y35669D1*
X152027Y35864D1*
X152222Y35961D1*
X152512Y36057D1*
X152999D1*
X153291Y35961D1*
X153485Y35864D1*
X153680Y35669D1*
X153777Y35476D1*
Y35087D1*
Y36685D2*
X151735D1*
Y37365D1*
X151834Y37657D1*
X152027Y37853D1*
X152222Y37949D1*
X152512Y38046D1*
X152999D1*
X153291Y37949D1*
X153485Y37853D1*
X153680Y37657D1*
X153777Y37365D1*
Y36685D1*
Y39936D2*
Y38673D1*
X151735D1*
Y39936D1*
X152804Y38673D2*
Y39451D1*
X150862Y21266D2*
X150961Y21461D1*
X151251Y21753D1*
X149211D1*
X150961Y23546D2*
X151154Y23450D1*
X151251Y23158D1*
Y22965D1*
X151154Y22673D1*
X150862Y22477D1*
X150377Y22381D1*
X149892D1*
X149503Y22477D1*
X149308Y22673D1*
X149211Y22965D1*
Y23061D1*
X149308Y23351D1*
X149503Y23546D1*
X149795Y23643D1*
X149892D1*
X150184Y23546D1*
X150377Y23351D1*
X150474Y23061D1*
Y22965D1*
X150377Y22673D1*
X150184Y22477D1*
X149892Y22381D1*
X151253Y24270D2*
X149211D1*
Y25146D1*
X149310Y25438D1*
X149407Y25535D1*
X149600Y25632D1*
X149892D1*
X150087Y25535D1*
X150184Y25438D1*
X150280Y25146D1*
X150379Y25438D1*
X150476Y25535D1*
X150669Y25632D1*
X150864D1*
X151058Y25535D1*
X151156Y25438D1*
X151253Y25146D1*
Y24270D1*
X150280D2*
Y25146D1*
X151253Y26259D2*
X149211D1*
X151253Y27567D2*
X149211D1*
X151253Y26886D2*
Y28248D1*
X148874Y28875D2*
Y30721D1*
X149211Y32903D2*
X151253D1*
X149211Y32126D1*
X151253Y31349D1*
X149211D1*
X151253Y34115D2*
X151156Y33919D1*
X150961Y33726D1*
X150768Y33627D1*
X150476Y33531D1*
X149988D1*
X149699Y33627D1*
X149503Y33726D1*
X149310Y33919D1*
X149211Y34115D1*
Y34503D1*
X149310Y34696D1*
X149503Y34892D1*
X149699Y34988D1*
X149988Y35085D1*
X150476D1*
X150768Y34988D1*
X150961Y34892D1*
X151156Y34696D1*
X151253Y34503D1*
Y34115D1*
Y35712D2*
X149211D1*
Y36393D1*
X149310Y36685D1*
X149503Y36880D1*
X149699Y36977D1*
X149988Y37074D1*
X150476D1*
X150768Y36977D1*
X150961Y36880D1*
X151156Y36685D1*
X151253Y36393D1*
Y35712D1*
Y38963D2*
Y37701D1*
X149211D1*
Y38963D1*
X150280Y37701D2*
Y38478D1*
X125976Y20981D2*
X123934D1*
X125976Y22970D2*
X123934D1*
X125976Y21609D1*
X123934D1*
X125974Y24182D2*
X125877Y23890D1*
X125585Y23694D1*
X125100Y23598D1*
X124808D1*
X124323Y23694D1*
X124031Y23890D1*
X123934Y24182D1*
Y24375D1*
X124031Y24667D1*
X124323Y24860D1*
X124808Y24959D1*
X125100D1*
X125585Y24860D1*
X125877Y24667D1*
X125974Y24375D1*
Y24182D1*
X125585Y24860D2*
X124323Y23694D1*
X148790Y21347D2*
X146748D1*
X148790Y23336D2*
X146748D1*
X148790Y21975D1*
X146748D1*
X148109Y25228D2*
X147817Y25129D1*
X147622Y24936D1*
X147525Y24644D1*
Y24547D1*
X147622Y24255D1*
X147817Y24062D1*
X148109Y23963D1*
X148206D1*
X148498Y24062D1*
X148691Y24255D1*
X148788Y24547D1*
Y24644D1*
X148691Y24936D1*
X148498Y25129D1*
X148109Y25228D1*
X147622D1*
X147137Y25129D1*
X146845Y24936D1*
X146748Y24644D1*
Y24451D1*
X146845Y24159D1*
X147040Y24062D1*
X107020Y10910D2*
D42*
X107995Y13462D1*
X108966Y10910D1*
X108601Y11761D2*
X107385D1*
X106236Y13462D2*
Y10910D1*
X105385D1*
X105020Y11034D1*
X104776Y11275D1*
X104655Y11520D1*
X104535Y11882D1*
Y12491D1*
X104655Y12856D1*
X104776Y13097D1*
X105020Y13342D1*
X105385Y13462D1*
X106236D1*
X103750D2*
Y10910D1*
X102900D1*
X102535Y11034D1*
X102290Y11275D1*
X102170Y11520D1*
X102049Y11882D1*
Y12491D1*
X102170Y12856D1*
X102290Y13097D1*
X102535Y13342D1*
X102900Y13462D1*
X103750D1*
X101265Y12247D2*
X100172D1*
X99807Y12370D1*
X99684Y12491D1*
X99563Y12732D1*
Y12977D1*
X99684Y13218D1*
X99807Y13342D1*
X100172Y13462D1*
X101265D1*
Y10910D1*
X100414Y12247D2*
X99563Y10910D1*
X96310Y13462D2*
Y10910D1*
X93824Y13462D2*
Y10910D1*
X95526Y13462D1*
Y10910D1*
X93040Y12126D2*
X91945D1*
X91583Y12247D1*
X91459Y12370D1*
X91338Y12612D1*
Y12977D1*
X91459Y13218D1*
X91583Y13342D1*
X91945Y13462D1*
X93040D1*
Y10910D1*
X90554Y13462D2*
Y11640D1*
X90433Y11275D1*
X90189Y11034D1*
X89824Y10910D1*
X89583D1*
X89218Y11034D1*
X88973Y11275D1*
X88853Y11640D1*
Y13462D1*
X87218D2*
Y10910D1*
X88068Y13462D2*
X86367D1*
X256896Y14415D2*
Y11863D1*
X256046D1*
X255681Y11986D1*
X255436Y12228D1*
X255316Y12472D1*
X255195Y12834D1*
Y13444D1*
X255316Y13809D1*
X255436Y14050D1*
X255681Y14294D1*
X256046Y14415D1*
X256896D1*
X252465Y11863D2*
X253439Y14415D1*
X254411Y11863D1*
X254046Y12714D2*
X252830D1*
X250830Y14415D2*
Y11863D1*
X251681Y14415D2*
X249979D1*
X247249Y11863D2*
X248223Y14415D1*
X249195Y11863D1*
X248830Y12714D2*
X247614D1*
X243996Y14415D2*
Y11863D1*
X243211D2*
X241510Y14412D1*
X239996Y14415D2*
X240240Y14294D1*
X240481Y14050D1*
X240605Y13809D1*
X240726Y13444D1*
Y12834D1*
X240605Y12472D1*
X240481Y12228D1*
X240240Y11986D1*
X239996Y11863D1*
X239510D1*
X239269Y11986D1*
X239024Y12228D1*
X238904Y12472D1*
X238783Y12834D1*
Y13444D1*
X238904Y13809D1*
X239024Y14050D1*
X239269Y14294D1*
X239510Y14415D1*
X239996D1*
X235032Y14574D2*
Y12022D1*
X234181D1*
X233816Y12145D1*
X233572Y12387D1*
X233451Y12631D1*
X233330Y12993D1*
Y13602D1*
X233451Y13967D1*
X233572Y14209D1*
X233816Y14453D1*
X234181Y14574D1*
X235032D1*
X231816Y14571D2*
X232181Y14450D1*
X232425Y14085D1*
X232546Y13479D1*
Y13114D1*
X232425Y12507D1*
X232181Y12142D1*
X231816Y12022D1*
X231574D1*
X231209Y12142D1*
X230968Y12507D1*
X230844Y13114D1*
Y13479D1*
X230968Y14085D1*
X231209Y14450D1*
X231574Y14571D1*
X231816D1*
X230968Y14085D2*
X232425Y12507D1*
X188478Y14256D2*
Y11704D1*
X187627D1*
X187262Y11828D1*
X187018Y12069D1*
X186897Y12313D1*
X186776Y12676D1*
Y13285D1*
X186897Y13650D1*
X187018Y13891D1*
X187262Y14136D1*
X187627Y14256D1*
X188478D1*
X185992Y13768D2*
X185748Y13891D1*
X185383Y14254D1*
Y11704D1*
X183141Y14254D2*
X184354D1*
X184475Y13161D1*
X184354Y13282D1*
X183989Y13406D1*
X183627D1*
X183262Y13282D1*
X183018Y13041D1*
X182897Y12676D1*
Y12434D1*
X183018Y12069D1*
X183262Y11825D1*
X183627Y11704D1*
X183989D1*
X184354Y11825D1*
X184475Y11948D1*
X184598Y12190D1*
X121241Y14086D2*
X122215Y16638D1*
X123187Y14086D1*
X122822Y14936D2*
X121606D1*
X119727Y16635D2*
X120092Y16514D1*
X120336Y16149D1*
X120457Y15543D1*
Y15178D1*
X120336Y14571D1*
X120092Y14206D1*
X119727Y14086D1*
X119485D1*
X119120Y14206D1*
X118879Y14571D1*
X118755Y15178D1*
Y15543D1*
X118879Y16149D1*
X119120Y16514D1*
X119485Y16635D1*
X119727D1*
X118879Y16149D2*
X120336Y14571D1*
X74687Y13768D2*
X75661Y16320D1*
X76633Y13768D1*
X76268Y14619D2*
X75052D1*
X73903Y15832D2*
X73658Y15955D1*
X73293Y16317D1*
Y13768D1*
X71052Y16317D2*
X72265D1*
X72386Y15225D1*
X72265Y15346D1*
X71900Y15470D1*
X71538D1*
X71173Y15346D1*
X70928Y15105D1*
X70808Y14740D1*
Y14498D1*
X70928Y14133D1*
X71173Y13889D1*
X71538Y13768D1*
X71900D1*
X72265Y13889D1*
X72386Y14012D1*
X72509Y14254D1*
X98053Y189217D2*
Y186665D1*
X96596D1*
X94234Y189217D2*
X95812D1*
Y186665D1*
X94234D1*
X95812Y188001D2*
X94840D1*
X93449Y189217D2*
Y186665D1*
X92599D1*
X92234Y186789D1*
X91989Y187030D1*
X91869Y187274D1*
X91748Y187636D1*
Y188246D1*
X91869Y188611D1*
X91989Y188852D1*
X92234Y189096D1*
X92599Y189217D1*
X93449D1*
X90964Y188729D2*
X90719Y188852D1*
X90354Y189214D1*
Y186665D1*
X85155D2*
X86130Y189217D1*
X87101Y186665D1*
X86736Y187516D2*
X85520D1*
X82670Y189217D2*
Y186665D1*
X84371Y189217D1*
Y186665D1*
X81155Y189217D2*
X81400Y189096D1*
X81641Y188852D1*
X81765Y188611D1*
X81885Y188246D1*
Y187636D1*
X81765Y187274D1*
X81641Y187030D1*
X81400Y186789D1*
X81155Y186665D1*
X80670D1*
X80428Y186789D1*
X80184Y187030D1*
X80063Y187274D1*
X79942Y187636D1*
Y188246D1*
X80063Y188611D1*
X80184Y188852D1*
X80428Y189096D1*
X80670Y189217D1*
X81155D1*
X79158D2*
Y186665D1*
X78307D1*
X77942Y186789D1*
X77698Y187030D1*
X77577Y187274D1*
X77457Y187636D1*
Y188246D1*
X77577Y188611D1*
X77698Y188852D1*
X77942Y189096D1*
X78307Y189217D1*
X79158D1*
X75094D2*
X76672D1*
Y186665D1*
X75094D1*
X76672Y188001D2*
X75701D1*
X257277Y189217D2*
Y186665D1*
X255820D1*
X253457Y189217D2*
X255035D1*
Y186665D1*
X253457D1*
X255035Y188001D2*
X254064D1*
X252673Y189217D2*
Y186665D1*
X251822D1*
X251457Y186789D1*
X251213Y187030D1*
X251092Y187274D1*
X250972Y187636D1*
Y188246D1*
X251092Y188611D1*
X251213Y188852D1*
X251457Y189096D1*
X251822Y189217D1*
X252673D1*
X250064Y188608D2*
Y188729D1*
X249943Y188973D1*
X249822Y189094D1*
X249578Y189214D1*
X249092D1*
X248851Y189094D1*
X248730Y188973D1*
X248607Y188729D1*
Y188487D1*
X248730Y188243D1*
X248972Y187881D1*
X250187Y186665D1*
X248486D1*
X243287D2*
X244261Y189217D1*
X245233Y186665D1*
X244868Y187516D2*
X243652D1*
X240801Y189217D2*
Y186665D1*
X242503Y189217D1*
Y186665D1*
X239287Y189217D2*
X239531Y189096D1*
X239773Y188852D1*
X239896Y188611D1*
X240017Y188246D1*
Y187636D1*
X239896Y187274D1*
X239773Y187030D1*
X239531Y186789D1*
X239287Y186665D1*
X238801D1*
X238560Y186789D1*
X238315Y187030D1*
X238195Y187274D1*
X238074Y187636D1*
Y188246D1*
X238195Y188611D1*
X238315Y188852D1*
X238560Y189096D1*
X238801Y189217D1*
X239287D1*
X237290D2*
Y186665D1*
X236439D1*
X236074Y186789D1*
X235830Y187030D1*
X235709Y187274D1*
X235588Y187636D1*
Y188246D1*
X235709Y188611D1*
X235830Y188852D1*
X236074Y189096D1*
X236439Y189217D1*
X237290D1*
X233226D2*
X234804D1*
Y186665D1*
X233226D1*
X234804Y188001D2*
X233832D1*
X19422Y169000D2*
X16869D1*
Y170457D1*
X19422Y172819D2*
Y171241D1*
X16869D1*
Y172819D1*
X18206Y171241D2*
Y172213D1*
X19422Y173603D2*
X16869D1*
Y174454D1*
X16993Y174819D1*
X17234Y175063D1*
X17479Y175184D1*
X17841Y175305D1*
X18450D1*
X18815Y175184D1*
X19057Y175063D1*
X19301Y174819D1*
X19422Y174454D1*
Y173603D1*
X18933Y176089D2*
X19057Y176333D1*
X19419Y176698D1*
X16869D1*
X18815Y181774D2*
X19057Y181653D1*
X19301Y181409D1*
X19422Y181167D1*
Y180682D1*
X19301Y180437D1*
X19057Y180196D1*
X18815Y180072D1*
X18450Y179952D1*
X17841D1*
X17479Y180072D1*
X17234Y180196D1*
X16993Y180437D1*
X16869Y180682D1*
Y181167D1*
X16993Y181409D1*
X17234Y181653D1*
X17479Y181774D1*
X16869Y184504D2*
X19422Y183530D1*
X16869Y182558D1*
X17720Y182923D2*
Y184139D1*
X19422Y186139D2*
X16869D1*
X19422Y185288D2*
Y186990D1*
Y187774D2*
X16869D1*
X19422Y189475D2*
X16869D1*
X18206Y187774D2*
Y189475D1*
X19422Y190990D2*
X19301Y190745D1*
X19057Y190504D1*
X18815Y190380D1*
X18450Y190260D1*
X17841D1*
X17479Y190380D1*
X17234Y190504D1*
X16993Y190745D1*
X16869Y190990D1*
Y191475D1*
X16993Y191717D1*
X17234Y191961D1*
X17479Y192082D1*
X17841Y192203D1*
X18450D1*
X18815Y192082D1*
X19057Y191961D1*
X19301Y191717D1*
X19422Y191475D1*
Y190990D1*
Y192987D2*
X16869D1*
Y193838D1*
X16993Y194203D1*
X17234Y194447D1*
X17479Y194568D1*
X17841Y194688D1*
X18450D1*
X18815Y194568D1*
X19057Y194447D1*
X19301Y194203D1*
X19422Y193838D1*
Y192987D1*
Y197051D2*
Y195473D1*
X16869D1*
Y197051D1*
X18206Y195473D2*
Y196444D1*
X179369Y152259D2*
X176817D1*
Y153716D1*
X179369Y156079D2*
Y154501D1*
X176817D1*
Y156079D1*
X178154Y154501D2*
Y155472D1*
X179369Y156863D2*
X176817D1*
Y157714D1*
X176941Y158079D1*
X177182Y158323D1*
X177426Y158444D1*
X177789Y158564D1*
X178398D1*
X178763Y158444D1*
X179004Y158323D1*
X179249Y158079D1*
X179369Y157714D1*
Y156863D1*
X178760Y159472D2*
X178881D1*
X179125Y159593D1*
X179246Y159714D1*
X179367Y159958D1*
Y160444D1*
X179246Y160685D1*
X179125Y160806D1*
X178881Y160930D1*
X178639D1*
X178395Y160806D1*
X178033Y160565D1*
X176817Y159349D1*
Y161050D1*
X178763Y166126D2*
X179004Y166005D1*
X179249Y165761D1*
X179369Y165519D1*
Y165033D1*
X179249Y164789D1*
X179004Y164548D1*
X178763Y164424D1*
X178398Y164303D1*
X177789D1*
X177426Y164424D1*
X177182Y164548D1*
X176941Y164789D1*
X176817Y165033D1*
Y165519D1*
X176941Y165761D1*
X177182Y166005D1*
X177426Y166126D1*
X176817Y168856D2*
X179369Y167881D1*
X176817Y166910D1*
X177668Y167275D2*
Y168491D1*
X179369Y170491D2*
X176817D1*
X179369Y169640D2*
Y171341D1*
Y172126D2*
X176817D1*
X179369Y173827D2*
X176817D1*
X178154Y172126D2*
Y173827D1*
X179369Y175342D2*
X179249Y175097D1*
X179004Y174856D1*
X178763Y174732D1*
X178398Y174612D1*
X177789D1*
X177426Y174732D1*
X177182Y174856D1*
X176941Y175097D1*
X176817Y175342D1*
Y175827D1*
X176941Y176069D1*
X177182Y176313D1*
X177426Y176434D1*
X177789Y176555D1*
X178398D1*
X178763Y176434D1*
X179004Y176313D1*
X179249Y176069D1*
X179369Y175827D1*
Y175342D1*
Y177339D2*
X176817D1*
Y178190D1*
X176941Y178555D1*
X177182Y178799D1*
X177426Y178920D1*
X177789Y179040D1*
X178398D1*
X178763Y178920D1*
X179004Y178799D1*
X179249Y178555D1*
X179369Y178190D1*
Y177339D1*
Y181403D2*
Y179825D1*
X176817D1*
Y181403D1*
X178154Y179825D2*
Y180796D1*
X27287Y142699D2*
Y140876D1*
X27166Y140511D1*
X26922Y140270D1*
X26557Y140146D1*
X26315D1*
X25950Y140270D1*
X25706Y140511D1*
X25585Y140876D1*
Y142699D1*
X22855Y140146D2*
X23830Y142699D1*
X24801Y140146D1*
X24436Y140997D2*
X23220D1*
X22071Y141483D2*
X20979D1*
X20614Y141606D1*
X20490Y141727D1*
X20370Y141969D1*
Y142213D1*
X20490Y142454D1*
X20614Y142578D1*
X20979Y142699D1*
X22071D1*
Y140146D1*
X21220Y141483D2*
X20370Y140146D1*
X18735Y142699D2*
Y140146D1*
X19585Y142699D2*
X17884D1*
X16976Y142089D2*
Y142210D1*
X16855Y142454D1*
X16735Y142575D1*
X16490Y142696D1*
X16005D1*
X15763Y142575D1*
X15642Y142454D1*
X15519Y142210D1*
Y141969D1*
X15642Y141724D1*
X15884Y141362D1*
X17100Y140146D1*
X15398D1*
X20447Y138575D2*
D137*
X20544Y138768D1*
X20739Y138964D1*
X20933Y139060D1*
X21321D1*
X21517Y138964D1*
X21710Y138768D1*
X21809Y138575D1*
X21905Y138283D1*
Y137796D1*
X21809Y137506D1*
X21710Y137311D1*
X21517Y137118D1*
X21321Y137019D1*
X20933D1*
X20739Y137118D1*
X20544Y137311D1*
X20447Y137506D1*
Y137796D1*
X20933D1*
X18459Y139060D2*
Y137019D1*
X19820Y139060D1*
Y137019D1*
X17831Y139060D2*
Y137019D1*
X17151D1*
X16859Y137118D1*
X16663Y137311D1*
X16567Y137506D1*
X16470Y137796D1*
Y138283D1*
X16567Y138575D1*
X16663Y138768D1*
X16859Y138964D1*
X17151Y139060D1*
X17831D1*
X21725Y133007D2*
X20851D1*
X20559Y133106D1*
X20461Y133203D1*
X20364Y133396D1*
Y133591D1*
X20461Y133785D1*
X20559Y133883D1*
X20851Y133980D1*
X21725D1*
Y131938D1*
X21045Y133007D2*
X20364Y131938D1*
X19737Y133980D2*
X18375Y131938D1*
Y133980D2*
X19737Y131938D1*
X21203Y136520D2*
Y134478D1*
X21884Y136520D2*
X20523D1*
X19895D2*
X18534Y134478D1*
Y136520D2*
X19895Y134478D1*
X21719Y131281D2*
X20942Y129239D1*
X20164Y131281D1*
X18079Y130796D2*
X18176Y130989D1*
X18371Y131184D1*
X18564Y131281D1*
X18953D1*
X19148Y131184D1*
X19341Y130989D1*
X19440Y130796D1*
X19537Y130504D1*
Y130016D1*
X19440Y129727D1*
X19341Y129531D1*
X19148Y129338D1*
X18953Y129239D1*
X18564D1*
X18371Y129338D1*
X18176Y129531D1*
X18079Y129727D1*
X15994Y130796D2*
X16091Y130989D1*
X16286Y131184D1*
X16479Y131281D1*
X16868D1*
X17063Y131184D1*
X17256Y130989D1*
X17355Y130796D1*
X17452Y130504D1*
Y130016D1*
X17355Y129727D1*
X17256Y129531D1*
X17063Y129338D1*
X16868Y129239D1*
X16479D1*
X16286Y129338D1*
X16091Y129531D1*
X15994Y129727D1*
X72186Y102147D2*
D42*
X71091D1*
X70729Y102267D1*
X70606Y102391D1*
X70485Y102632D1*
Y102997D1*
X70606Y103239D1*
X70729Y103362D1*
X71091Y103483D1*
X72186D1*
Y100931D1*
X68971Y103483D2*
X69215Y103362D1*
X69456Y103118D1*
X69580Y102877D1*
X69701Y102512D1*
Y101902D1*
X69580Y101540D1*
X69456Y101296D1*
X69215Y101055D1*
X68971Y100931D1*
X68485D1*
X68243Y101055D1*
X67999Y101296D1*
X67878Y101540D1*
X67758Y101902D1*
Y102512D1*
X67878Y102877D1*
X67999Y103118D1*
X68243Y103362D1*
X68485Y103483D1*
X68971D1*
X66973D2*
X66364Y100931D1*
X65758Y103483D1*
X65151Y100931D1*
X64542Y103483D1*
X62180D2*
X63758D1*
Y100931D1*
X62180D1*
X63758Y102267D2*
X62786D1*
X61395D2*
X60303D1*
X59938Y102391D1*
X59815Y102512D1*
X59694Y102753D1*
Y102997D1*
X59815Y103239D1*
X59938Y103362D1*
X60303Y103483D1*
X61395D1*
Y100931D1*
X60545Y102267D2*
X59694Y100931D1*
X78386Y108380D2*
Y106193D1*
X79478Y107285D2*
X77291D1*
X75049Y108561D2*
X76262D1*
X76383Y107469D1*
X76262Y107589D1*
X75897Y107713D1*
X75535D1*
X75170Y107589D1*
X74926Y107348D1*
X74805Y106983D1*
Y106742D1*
X74926Y106377D1*
X75170Y106132D1*
X75535Y106012D1*
X75897D1*
X76262Y106132D1*
X76383Y106256D1*
X76506Y106497D1*
X74021Y108564D2*
X73049Y106012D1*
X72078Y108564D1*
X320173Y100068D2*
D138*
Y94453D1*
X317764D1*
X316961Y94725D1*
X316695Y94990D1*
X316430Y95522D1*
Y96325D1*
X316695Y96862D1*
X316961Y97128D1*
X317764Y97393D1*
X316961Y97665D1*
X316695Y97931D1*
X316430Y98462D1*
Y98999D1*
X316695Y99531D1*
X316961Y99802D1*
X317764Y100068D1*
X320173D1*
Y97393D2*
X317764D1*
X314704Y98196D2*
Y94453D1*
Y96590D2*
X314432Y97393D1*
X313901Y97931D1*
X313364Y98196D1*
X312561D1*
X307630D2*
Y94453D1*
Y97393D2*
X308161Y97931D1*
X308698Y98196D1*
X309495D1*
X310032Y97931D1*
X310564Y97393D1*
X310835Y96590D1*
Y96059D1*
X310564Y95256D1*
X310032Y94725D1*
X309495Y94453D1*
X308698D1*
X308161Y94725D1*
X307630Y95256D1*
X305904Y98196D2*
Y94453D1*
Y97128D2*
X305101Y97931D1*
X304564Y98196D1*
X303767D1*
X303229Y97931D1*
X302964Y97128D1*
Y94453D1*
X299101Y100068D2*
X299632D1*
X300170Y99802D1*
X300435Y98999D1*
Y94453D1*
X301238Y98196D2*
X299367D1*
X297376D2*
Y95522D1*
X297110Y94725D1*
X296573Y94453D1*
X295770D1*
X295238Y94725D1*
X294435Y95522D1*
Y98196D2*
Y94453D1*
X289498Y97393D2*
X290035Y97931D1*
X290573Y98196D1*
X291370D1*
X291907Y97931D1*
X292438Y97393D1*
X292710Y96590D1*
Y96059D1*
X292438Y95256D1*
X291907Y94725D1*
X291370Y94453D1*
X290573D1*
X290035Y94725D1*
X289498Y95256D1*
X287772Y100068D2*
Y94453D1*
X285098Y98196D2*
X287772Y95522D1*
X286704Y96590D2*
X284832Y94453D1*
X283107Y97128D2*
X280698D1*
X279901Y97393D1*
X279629Y97665D1*
X279364Y98196D1*
Y98999D1*
X279629Y99531D1*
X279901Y99802D1*
X280698Y100068D1*
X283107D1*
Y94453D1*
X273629Y98734D2*
X273895Y99265D1*
X274432Y99802D1*
X274963Y100068D1*
X276032D1*
X276569Y99802D1*
X277101Y99265D1*
X277372Y98734D1*
X277638Y97931D1*
Y96590D1*
X277372Y95793D1*
X277101Y95256D1*
X276569Y94725D1*
X276032Y94453D1*
X274963D1*
X274432Y94725D1*
X273895Y95256D1*
X273629Y95793D1*
X316084Y76036D2*
Y81651D1*
X318221Y76036D1*
X320358Y81651D1*
Y76036D1*
X314358Y78173D2*
X311152D1*
Y78711D1*
X311418Y79248D1*
X311684Y79514D1*
X312221Y79779D1*
X313024D1*
X313555Y79514D1*
X314093Y78976D1*
X314358Y78173D1*
Y77642D1*
X314093Y76839D1*
X313555Y76308D1*
X313024Y76036D1*
X312221D1*
X311684Y76308D1*
X311152Y76839D1*
X309427Y79779D2*
Y76036D1*
Y78711D2*
X308624Y79514D1*
X308087Y79779D1*
X307290D1*
X306752Y79514D1*
X306487Y78711D1*
Y76036D1*
Y78711D2*
X305684Y79514D1*
X305146Y79779D1*
X304350D1*
X303812Y79514D1*
X303540Y78711D1*
Y76036D1*
X300481Y79779D2*
X301012Y79514D1*
X301549Y78976D1*
X301815Y78173D1*
Y77642D1*
X301549Y76839D1*
X301012Y76308D1*
X300481Y76036D1*
X299678D1*
X299140Y76308D1*
X298609Y76839D1*
X298337Y77642D1*
Y78173D1*
X298609Y78976D1*
X299140Y79514D1*
X299678Y79779D1*
X300481D1*
X296612D2*
Y76036D1*
Y78173D2*
X296340Y78976D1*
X295809Y79514D1*
X295271Y79779D1*
X294468D1*
X292471D2*
X290871Y76036D1*
X291402Y74968D1*
X291940Y74430D1*
X292471Y74165D1*
X292743D1*
X289265Y79779D2*
X290871Y76036D1*
X282462Y79779D2*
X282734D1*
X283000Y79508D1*
X283265Y78976D1*
X283803Y77642D1*
X284334Y76839D1*
X284865Y76302D1*
X285403Y76036D1*
X286471D1*
X287002Y76302D1*
X287274Y76574D1*
X287540Y77105D1*
Y77642D1*
X287274Y78173D1*
X287002Y78439D1*
X285137Y79508D1*
X284865Y79779D1*
X284600Y80311D1*
Y80848D1*
X284865Y81379D1*
X285403Y81645D1*
X285934Y81379D1*
X286206Y80848D1*
Y80311D1*
X285934Y79508D1*
X285403Y78711D1*
X284068Y76839D1*
X283531Y76302D1*
X283000Y76036D1*
X282462D1*
X280737Y81651D2*
Y76036D1*
X279011D2*
X275268Y81645D1*
X271937Y81651D2*
X272474Y81385D1*
X273005Y80848D1*
X273277Y80317D1*
X273543Y79514D1*
Y78173D1*
X273277Y77377D1*
X273005Y76839D1*
X272474Y76308D1*
X271937Y76036D1*
X270868D1*
X270337Y76308D1*
X269799Y76839D1*
X269534Y77377D1*
X269268Y78173D1*
Y79514D1*
X269534Y80317D1*
X269799Y80848D1*
X270337Y81385D1*
X270868Y81651D1*
X271937D1*
X262111D2*
Y76036D1*
Y78976D2*
X261574Y79514D1*
X261042Y79779D1*
X260239D1*
X259708Y79514D1*
X259171Y78976D1*
X258905Y78173D1*
Y77642D1*
X259171Y76839D1*
X259708Y76308D1*
X260239Y76036D1*
X261042D1*
X261574Y76308D1*
X262111Y76839D1*
X255846Y79779D2*
X256377Y79514D1*
X256914Y78976D1*
X257180Y78173D1*
Y77642D1*
X256914Y76839D1*
X256377Y76308D1*
X255846Y76036D1*
X255043D1*
X254505Y76308D1*
X253974Y76839D1*
X253702Y77642D1*
Y78173D1*
X253974Y78976D1*
X254505Y79514D1*
X255043Y79779D1*
X255846D1*
X248771D2*
Y76036D1*
Y78976D2*
X249302Y79514D1*
X249839Y79779D1*
X250636D1*
X251174Y79514D1*
X251705Y78976D1*
X251977Y78173D1*
Y77642D1*
X251705Y76839D1*
X251174Y76308D1*
X250636Y76036D1*
X249839D1*
X249302Y76308D1*
X248771Y76839D1*
X247045Y79779D2*
Y76036D1*
Y78173D2*
X246774Y78976D1*
X246242Y79514D1*
X245705Y79779D1*
X244902D1*
X239971Y81651D2*
Y76036D1*
Y78976D2*
X240502Y79514D1*
X241039Y79779D1*
X241842D1*
X242373Y79514D1*
X242911Y78976D1*
X243176Y78173D1*
Y77642D1*
X242911Y76839D1*
X242373Y76308D1*
X241842Y76036D1*
X241039D1*
X240502Y76308D1*
X239971Y76839D1*
X316452Y66193D2*
X318595Y71807D1*
X320732Y66193D1*
X319929Y68064D2*
X317255D1*
X314461Y66730D2*
X314726Y66458D1*
X314461Y66193D1*
X314189Y66458D1*
X314461Y66730D1*
X312463Y71807D2*
Y66193D1*
X308720Y71807D2*
X312463Y68064D1*
X311129Y69405D2*
X308720Y66193D1*
X303789Y69936D2*
Y66193D1*
Y69133D2*
X304320Y69670D1*
X304858Y69936D1*
X305654D1*
X306192Y69670D1*
X306723Y69133D1*
X306995Y68330D1*
Y67799D1*
X306723Y66996D1*
X306192Y66464D1*
X305654Y66193D1*
X304858D1*
X304320Y66464D1*
X303789Y66996D1*
X299123Y69133D2*
X299389Y69670D1*
X300192Y69936D1*
X300995D1*
X301798Y69670D1*
X302063Y69133D1*
X301798Y68602D1*
X301260Y68330D1*
X299926Y68064D1*
X299389Y67799D1*
X299123Y67261D1*
Y66996D1*
X299389Y66464D1*
X300192Y66193D1*
X300995D1*
X301798Y66464D1*
X302063Y66996D1*
X297398Y71807D2*
Y66193D1*
Y68867D2*
X296595Y69670D1*
X296057Y69936D1*
X295254D1*
X294723Y69670D1*
X294458Y68867D1*
Y66193D1*
X292732Y71807D2*
Y66193D1*
X290057Y69936D2*
X292732Y67261D1*
X291663Y68330D2*
X289792Y66193D1*
X284861Y69936D2*
Y66193D1*
Y69133D2*
X285392Y69670D1*
X285929Y69936D1*
X286726D1*
X287263Y69670D1*
X287795Y69133D1*
X288066Y68330D1*
Y67799D1*
X287795Y66996D1*
X287263Y66464D1*
X286726Y66193D1*
X285929D1*
X285392Y66464D1*
X284861Y66996D1*
X283135Y69936D2*
Y66193D1*
Y68867D2*
X282332Y69670D1*
X281795Y69936D1*
X280998D1*
X280460Y69670D1*
X280195Y68867D1*
Y66193D1*
X277135Y69936D2*
X277666Y69670D1*
X278204Y69133D1*
X278469Y68330D1*
Y67799D1*
X278204Y66996D1*
X277666Y66464D1*
X277135Y66193D1*
X276332D1*
X275795Y66464D1*
X275264Y66996D1*
X274992Y67799D1*
Y68330D1*
X275264Y69133D1*
X275795Y69670D1*
X276332Y69936D1*
X277135D1*
X273266D2*
X271660Y66193D1*
X270060Y69936D1*
X267798Y66458D2*
X268069Y66193D1*
X268335Y66458D1*
X268069Y66730D1*
X267798Y66458D1*
Y65927D1*
X268069Y65390D1*
X268335Y65124D1*
X260369Y70467D2*
Y70733D1*
X260103Y71270D1*
X259837Y71536D1*
X259300Y71801D1*
X258231D1*
X257700Y71536D1*
X257435Y71270D1*
X257163Y70733D1*
Y70201D1*
X257435Y69664D1*
X257966Y68867D1*
X260640Y66193D1*
X256897D1*
X253566Y71801D2*
X254369Y71536D1*
X254906Y70733D1*
X255172Y69398D1*
Y68595D1*
X254906Y67261D1*
X254369Y66458D1*
X253566Y66193D1*
X253034D1*
X252231Y66458D1*
X251700Y67261D1*
X251428Y68595D1*
Y69398D1*
X251700Y70733D1*
X252231Y71536D1*
X253034Y71801D1*
X253566D1*
X251700Y70733D2*
X254906Y67261D1*
X249703Y70733D2*
X249166Y71004D1*
X248363Y71801D1*
Y66193D1*
X245568D2*
X242894Y71801D1*
X246637D1*
X239297Y73271D2*
X239834Y72740D1*
X240365Y71937D1*
X240903Y70869D1*
X241168Y69528D1*
Y68460D1*
X240903Y67125D1*
X240365Y66057D1*
X239834Y65254D1*
X239297Y64723D1*
X234359Y69133D2*
X234897Y69670D1*
X235434Y69936D1*
X236231D1*
X236768Y69670D1*
X237300Y69133D1*
X237571Y68330D1*
Y67799D1*
X237300Y66996D1*
X236768Y66464D1*
X236231Y66193D1*
X235434D1*
X234897Y66464D1*
X234359Y66996D1*
X232634Y73271D2*
X232096Y72740D1*
X231565Y71937D1*
X231028Y70869D1*
X230762Y69528D1*
Y68460D1*
X231028Y67125D1*
X231565Y66057D1*
X232096Y65254D1*
X232634Y64723D1*
X320380Y87867D2*
X317978D1*
X317175Y88139D1*
X316903Y88405D1*
X316637Y88936D1*
Y89473D1*
X316903Y90005D1*
X317175Y90276D1*
X317978Y90542D1*
X320380D1*
Y84927D1*
X318509Y87867D2*
X316637Y84927D1*
X314912Y87064D2*
X311706D1*
Y87602D1*
X311971Y88139D1*
X312237Y88405D1*
X312774Y88670D1*
X313577D1*
X314109Y88405D1*
X314646Y87867D1*
X314912Y87064D1*
Y86533D1*
X314646Y85730D1*
X314109Y85199D1*
X313577Y84927D1*
X312774D1*
X312237Y85199D1*
X311706Y85730D1*
X309980Y87064D2*
X306775D1*
Y87602D1*
X307040Y88139D1*
X307306Y88405D1*
X307843Y88670D1*
X308646D1*
X309177Y88405D1*
X309715Y87867D1*
X309980Y87064D1*
Y86533D1*
X309715Y85730D1*
X309177Y85199D1*
X308646Y84927D1*
X307843D1*
X307306Y85199D1*
X306775Y85730D1*
X301843Y90542D2*
Y84927D1*
Y87867D2*
X302374Y88405D1*
X302912Y88670D1*
X303715D1*
X304246Y88405D1*
X304783Y87867D1*
X305049Y87064D1*
Y86533D1*
X304783Y85730D1*
X304246Y85199D1*
X303715Y84927D1*
X302912D1*
X302374Y85199D1*
X301843Y85730D1*
X294686Y87867D2*
X292283D1*
X291480Y88139D1*
X291208Y88405D1*
X290943Y88936D1*
Y89473D1*
X291208Y90005D1*
X291480Y90276D1*
X292283Y90542D1*
X294686D1*
Y84927D1*
X292814Y87867D2*
X290943Y84927D1*
X289217Y87064D2*
X286012D1*
Y87602D1*
X286277Y88139D1*
X286543Y88405D1*
X287080Y88670D1*
X287883D1*
X288414Y88405D1*
X288952Y87867D1*
X289217Y87064D1*
Y86533D1*
X288952Y85730D1*
X288414Y85199D1*
X287883Y84927D1*
X287080D1*
X286543Y85199D1*
X286012Y85730D1*
X284286Y90542D2*
Y84927D1*
X279355Y88670D2*
Y84927D1*
Y87867D2*
X279886Y88405D1*
X280423Y88670D1*
X281220D1*
X281758Y88405D1*
X282289Y87867D1*
X282561Y87064D1*
Y86533D1*
X282289Y85730D1*
X281758Y85199D1*
X281220Y84927D1*
X280423D1*
X279886Y85199D1*
X279355Y85730D1*
X277357Y88670D2*
X275758Y84927D1*
X276289Y83858D1*
X276826Y83321D1*
X277357Y83055D1*
X277629D1*
X274152Y88670D2*
X275758Y84927D1*
X262986Y89208D2*
X263251Y89739D1*
X263789Y90276D1*
X264320Y90542D1*
X265389D1*
X265926Y90276D1*
X266457Y89739D1*
X266729Y89208D1*
X266995Y88405D1*
Y87064D1*
X266729Y86267D1*
X266457Y85730D1*
X265926Y85199D1*
X265389Y84927D1*
X264320D1*
X263789Y85199D1*
X263251Y85730D1*
X262986Y86267D1*
X259926Y88670D2*
X260457Y88405D1*
X260995Y87867D1*
X261260Y87064D1*
Y86533D1*
X260995Y85730D1*
X260457Y85199D1*
X259926Y84927D1*
X259123D1*
X258586Y85199D1*
X258054Y85730D1*
X257783Y86533D1*
Y87064D1*
X258054Y87867D1*
X258586Y88405D1*
X259123Y88670D1*
X259926D1*
X256057D2*
Y84927D1*
Y87602D2*
X255254Y88405D1*
X254717Y88670D1*
X253920D1*
X253383Y88405D1*
X253117Y87602D1*
Y84927D1*
Y87602D2*
X252314Y88405D1*
X251777Y88670D1*
X250980D1*
X250442Y88405D1*
X250171Y87602D1*
Y84927D1*
X248445Y88670D2*
Y83055D1*
Y87867D2*
X247908Y88399D1*
X247376Y88670D1*
X246573D1*
X246036Y88399D1*
X245505Y87867D1*
X245233Y87064D1*
Y86527D1*
X245505Y85730D1*
X246036Y85193D1*
X246573Y84927D1*
X247376D1*
X247908Y85193D1*
X248445Y85730D1*
X243508Y88670D2*
Y85996D1*
X243242Y85199D1*
X242705Y84927D1*
X241902D1*
X241370Y85199D1*
X240567Y85996D1*
Y88670D2*
Y84927D1*
X238039Y90542D2*
Y85996D1*
X237773Y85199D1*
X237236Y84927D1*
X236705D1*
X238842Y88670D2*
X236970D1*
X234979Y87064D2*
X231773D1*
Y87602D1*
X232039Y88139D1*
X232305Y88405D1*
X232842Y88670D1*
X233645D1*
X234176Y88405D1*
X234714Y87867D1*
X234979Y87064D1*
Y86533D1*
X234714Y85730D1*
X234176Y85199D1*
X233645Y84927D1*
X232842D1*
X232305Y85199D1*
X231773Y85730D1*
X230048Y88670D2*
Y84927D1*
Y87064D2*
X229776Y87867D1*
X229245Y88405D1*
X228707Y88670D1*
X227904D1*
M02*
