M48
METRIC,0000.00
T01C0.4
T02C0.559
T03C0.6
T04C0.8
T05C0.813
T06C0.9
T07C1.0
T08C1.1
T09C1.2
T10C1.27
T11C2.3
T12C3.0
T13C3.5
%
T01
X+014892Y+015035
X+014892Y+015162
X+014892Y+015305
X+015718Y+014908
X+015734Y+014765
X+015892Y+014781
X+015988Y+014908
X+016289Y+014432
X+018004Y+014228
X+018131Y+014164
X+018194Y+014037
X+018321Y+013974
X+018020Y+012942
X+018131Y+012862
X+018226Y+012735
X+018321Y+012608
X+018797Y+012735
X+018893Y+012640
X+019020Y+012577
X+019115Y+012481
X+019719Y+012304
X+019959Y+012545
X+020893Y+012926
X+021147Y+012926
X+021401Y+013116
X+022036Y+013688
X+023179Y+012926
X+024068Y+012926
X+024385Y+013688
X+025528Y+012926
X+026417Y+012926
X+026735Y+013688
X+025973Y+014831
X+025909Y+014958
X+025655Y+015466
X+025655Y+015656
X+024004Y+015085
X+023941Y+015212
X+023560Y+015593
X+023529Y+015781
X+023055Y+016291
X+023053Y+016609
X+024196Y+017813
X+024958Y+017623
X+026895Y+017416
X+027800Y+016609
X+027816Y+016291
X+027941Y+015720
X+027941Y+015529
X+028322Y+015148
X+028322Y+014958
X+029021Y+013688
X+027941Y+011148
X+025592Y+011148
X+023242Y+011148
X+020893Y+011148
X+019623Y+009923
X+019083Y+011338
X+018988Y+011434
X+018893Y+011529
X+018797Y+011624
X+017623Y+008954
X+017369Y+008192
X+015797Y+007319
X+015273Y+007335
X+015527Y+007986
X+014495Y+007335
X+014511Y+007192
X+013416Y+007430
X+013289Y+007430
X+013162Y+007430
X+012971Y+007430
X+012844Y+007430
X+012717Y+007430
X+012590Y+007430
X+012463Y+007430
X+012336Y+007430
X+012098Y+006620
X+010384Y+006556
X+010352Y+006810
X+010320Y+007064
X+010447Y+007318
X+009193Y+007497
X+009241Y+007719
X+009257Y+007973
X+009700Y+008430
X+007764Y+008227
X+007764Y+007973
X+007764Y+007719
X+007209Y+007973
X+007367Y+008227
X+006875Y+008370
X+006350Y+008383
X+006366Y+008240
X+006478Y+007862
X+006590Y+007703
X+007113Y+007608
X+007335Y+007081
X+007479Y+006830
X+006510Y+006322
X+006382Y+006049
X+006415Y+005814
X+006542Y+005560
X+006192Y+005509
X+006096Y+005382
X+005985Y+005509
X+005874Y+005620
X+005653Y+005560
X+005330Y+005560
X+005193Y+005719
X+005177Y+005846
X+005145Y+005973
X+005144Y+006112
X+005477Y+006160
X+005572Y+006081
X+005490Y+005846
X+005240Y+006512
X+005050Y+006608
X+005335Y+006957
X+005558Y+006973
X+005716Y+007227
X+005875Y+007227
X+005716Y+007449
X+005542Y+007719
X+005271Y+007700
X+005049Y+007729
X+004954Y+007479
X+005081Y+007324
X+005383Y+007243
X+006064Y+007541
X+005636Y+008065
X+005572Y+008176
X+005271Y+008605
X+005287Y+008954
X+005334Y+009097
X+004731Y+008795
X+004779Y+008668
X+004509Y+009208
X+004286Y+009669
X+003651Y+010068
X+003445Y+009208
X+002691Y+009986
X+002120Y+009446
X+004699Y+007843
X+003636Y+006763
X+003493Y+006636
X+003620Y+006509
X+004048Y+006430
X+005874Y+005049
X+005985Y+004937
X+006081Y+004826
X+006192Y+004715
X+007971Y+003540
X+008447Y+003572
X+008511Y+003318
X+008860Y+003064
X+008859Y+002937
X+009463Y+003032
X+009400Y+003286
X+009781Y+003572
X+009781Y+003826
X+010384Y+003762
X+010447Y+003508
X+010479Y+003254
X+010860Y+003064
X+010859Y+002937
X+011431Y+003032
X+011432Y+003286
X+011368Y+003572
X+011432Y+003826
X+011558Y+004128
X+012018Y+004144
X+012336Y+004144
X+012655Y+004144
X+012971Y+004144
X+013298Y+004144
X+013606Y+004144
X+013929Y+004144
X+014225Y+004144
X+014562Y+004144
X+014892Y+004144
X+015245Y+004144
X+015622Y+004144
X+015972Y+004144
X+016289Y+004144
X+016702Y+004144
X+017099Y+004144
X+017432Y+004128
X+018401Y+004969
X+018877Y+004255
X+018877Y+003991
X+019655Y+004128
X+019686Y+003845
X+019686Y+003591
X+019686Y+003337
X+019655Y+003083
X+019909Y+002575
X+019941Y+002445
X+019687Y+001782
X+020438Y+001782
X+021208Y+001782
X+020957Y+002477
X+021020Y+002829
X+021020Y+003083
X+021020Y+003337
X+021020Y+003591
X+020782Y+004159
X+020322Y+003858
X+021417Y+004159
X+022132Y+004144
X+022353Y+003845
X+022353Y+003591
X+022353Y+003337
X+022353Y+003083
X+021894Y+002575
X+022005Y+002477
X+021973Y+001782
X+022744Y+001782
X+023021Y+002477
X+023750Y+002829
X+023750Y+003083
X+023750Y+003337
X+023750Y+003591
X+022846Y+004144
X+018925Y+002492
X+016924Y+001797
X+016353Y+005525
X+016702Y+005636
X+015924Y+005779
X+015670Y+005652
X+015257Y+005525
X+016242Y+006462
X+018861Y+005715
X+014686Y+009367
X+014003Y+009129
X+013908Y+009018
X+013812Y+009129
X+013717Y+009018
X+013622Y+009129
X+013511Y+009018
X+013416Y+009129
X+013320Y+009018
X+013146Y+009018
X+012526Y+008366
X+015289Y+010637
X+015194Y+010764
X+015083Y+010923
X+015400Y+010510
X+014718Y+011545
X+014606Y+011656
X+014495Y+011783
X+014400Y+011910
X+014289Y+012545
X+014178Y+012688
X+013940Y+012815
X+014067Y+012942
X+013829Y+013577
X+013717Y+013704
X+013495Y+013862
X+013606Y+014021
X+011352Y+015622
X+011145Y+017385
X+009050Y+017385
X+009422Y+015622
X+007119Y+015622
X+005652Y+015019
X+004683Y+013622
X+004795Y+013527
X+004318Y+013765
X+004080Y+013717
X+003937Y+013685
X+004318Y+013098
X+004668Y+012749
X+004795Y+012638
X+004477Y+011653
X+004477Y+011510
X+004477Y+011383
X+003223Y+012368
X+002461Y+012749
X+002540Y+014559
X+002778Y+014797
X+002985Y+014654
X+003133Y+014728
X+003276Y+014791
X+002381Y+016496
X+002667Y+016988
X+004238Y+017655
X+006795Y+017385
X+006223Y+011161
X+009400Y+005667
X+009558Y+004905
X+009034Y+004668
X+009034Y+003846
X+009859Y+002937
X+010005Y+002016
X+009250Y+002016
X+008476Y+002016
X+006335Y+001270
X+004114Y+002318
X+010766Y+002016
X+011812Y+002810
X+011923Y+003223
X+012479Y+003000
X+011082Y+003953
X+010939Y+003806
X+010796Y+004080
X+015809Y+016404
X+015876Y+016893
X+014733Y+019338
X+021084Y+015797
X+021337Y+015783
X+021274Y+015529
X+021401Y+015466
X+021464Y+015339
X+030481Y+016799
T02
X+022861Y+002369
X+022607Y+002369
X+022353Y+002369
X+022099Y+002369
X+021860Y+002365
X+021591Y+002369
X+021337Y+002369
X+021083Y+002369
X+020829Y+002369
X+020575Y+002369
X+020321Y+002369
X+020067Y+002369
X+019813Y+002369
X+019559Y+002369
X+019305Y+002369
X+019051Y+002369
X+019051Y+001607
X+019305Y+001607
X+019559Y+001607
X+019813Y+001607
X+020067Y+001607
X+020321Y+001607
X+020575Y+001607
X+020829Y+001607
X+021083Y+001607
X+021337Y+001607
X+021591Y+001607
X+021860Y+001603
X+022099Y+001607
X+022353Y+001607
X+022607Y+001607
X+022861Y+001607
X+011658Y+001841
X+011404Y+001841
X+011150Y+001841
X+010896Y+001841
X+010657Y+001838
X+010388Y+001841
X+010134Y+001841
X+009880Y+001841
X+009626Y+001841
X+009372Y+001841
X+009118Y+001841
X+008864Y+001841
X+008610Y+001841
X+008356Y+001841
X+008102Y+001841
X+007848Y+001841
X+007848Y+002603
X+008102Y+002603
X+008356Y+002603
X+008610Y+002603
X+008864Y+002603
X+009118Y+002603
X+009372Y+002603
X+009626Y+002603
X+009880Y+002603
X+010134Y+002603
X+010388Y+002603
X+010657Y+002600
X+010896Y+002603
X+011150Y+002603
X+011404Y+002603
X+011658Y+002603
T03
X+004239Y+020147
X+004239Y+020347
X+003989Y+020347
X+003989Y+020147
T04
X+003556Y+014194
X+003556Y+013940
X+003826Y+013940
X+003826Y+014194
X+003270Y+014194
X+003270Y+013940
X+003572Y+017210
X+003572Y+017464
T05
X+003540Y+007382
X+003882Y+007724
T06
X+016051Y+007525
X+015797Y+007525
X+015543Y+007525
X+015289Y+007525
X+015035Y+007525
X+014781Y+007525
X+014527Y+007525
X+014527Y+006763
X+014781Y+006763
X+015035Y+006763
X+015289Y+006763
X+015543Y+006763
X+015797Y+006763
X+016051Y+006763
X+016051Y+006081
X+015797Y+006081
X+015543Y+006081
X+015289Y+006081
X+015035Y+006081
X+014781Y+006081
X+014527Y+006081
X+014527Y+005319
X+014781Y+005319
X+015035Y+005319
X+015289Y+005319
X+015543Y+005319
X+015797Y+005319
X+016051Y+005319
X+016861Y+005319
X+017115Y+005319
X+017369Y+005319
X+017623Y+005319
X+017877Y+005319
X+018131Y+005319
X+018385Y+005319
X+018385Y+006081
X+018131Y+006081
X+017877Y+006081
X+017623Y+006081
X+017369Y+006081
X+017115Y+006081
X+016861Y+006081
X+016813Y+006763
X+017067Y+006763
X+017321Y+006763
X+017575Y+006763
X+017829Y+006763
X+018083Y+006763
X+018337Y+006763
X+018337Y+007525
X+018083Y+007525
X+017829Y+007525
X+017575Y+007525
X+017321Y+007525
X+017067Y+007525
X+016813Y+007525
X+011717Y+007604
X+011717Y+007350
X+011717Y+007096
X+011717Y+006842
X+011717Y+006588
X+011717Y+006334
X+011717Y+006080
X+011717Y+005826
X+011717Y+005572
X+011717Y+005318
X+011717Y+005064
X+011717Y+004810
X+011717Y+004556
X+010701Y+004556
X+010701Y+004810
X+010701Y+005064
X+010701Y+005318
X+010701Y+005572
X+010701Y+005826
X+010701Y+006080
X+010701Y+006334
X+010701Y+006588
X+010701Y+006842
X+010701Y+007096
X+010701Y+007350
X+010701Y+007604
X+010701Y+007858
X+010701Y+008112
X+010701Y+008366
X+011717Y+008366
X+011717Y+008112
X+011717Y+007858
X+008669Y+007846
X+008669Y+007592
X+008669Y+007338
X+008669Y+007084
X+008669Y+006830
X+008669Y+006576
X+008669Y+006322
X+008669Y+006068
X+008669Y+005814
X+008669Y+005560
X+008669Y+005306
X+008669Y+005052
X+008669Y+004798
X+008669Y+004544
X+007653Y+004544
X+007653Y+004798
X+007653Y+005052
X+007653Y+005306
X+007653Y+005560
X+007653Y+005814
X+007653Y+006068
X+007653Y+006322
X+007653Y+006576
X+007653Y+006830
X+007653Y+007084
X+007653Y+007338
X+007653Y+007592
X+007653Y+007846
X+007653Y+008100
X+007653Y+008354
X+008669Y+008354
X+008669Y+008100
X+005652Y+013750
X+005398Y+013750
X+005398Y+014004
X+005398Y+014258
X+005652Y+014258
X+005652Y+014004
X+005558Y+016069
X+005304Y+016069
X+005050Y+016069
X+004796Y+016069
X+004542Y+016069
X+004542Y+016831
X+004796Y+016831
X+005050Y+016831
X+005304Y+016831
X+005558Y+016831
X+005812Y+016831
X+006066Y+016831
X+006320Y+016831
X+006796Y+016831
X+007050Y+016831
X+007304Y+016831
X+007558Y+016831
X+007812Y+016831
X+008066Y+016831
X+008320Y+016831
X+008574Y+016831
X+009050Y+016831
X+009304Y+016831
X+009558Y+016831
X+009812Y+016831
X+010066Y+016831
X+010320Y+016831
X+010574Y+016831
X+010828Y+016831
X+011273Y+016831
X+011527Y+016831
X+011781Y+016831
X+012035Y+016831
X+012289Y+016831
X+012543Y+016831
X+012797Y+016831
X+013051Y+016831
X+013051Y+016069
X+012797Y+016069
X+012543Y+016069
X+012289Y+016069
X+012035Y+016069
X+011781Y+016069
X+011527Y+016069
X+011273Y+016069
X+010828Y+016069
X+010574Y+016069
X+010320Y+016069
X+010066Y+016069
X+009812Y+016069
X+009558Y+016069
X+009304Y+016069
X+009050Y+016069
X+008574Y+016069
X+008320Y+016069
X+008066Y+016069
X+007812Y+016069
X+007558Y+016069
X+007304Y+016069
X+007050Y+016069
X+006796Y+016069
X+006320Y+016069
X+006066Y+016069
X+005812Y+016069
X+006646Y+018314
X+006900Y+018314
X+007154Y+018314
X+007408Y+018314
X+007662Y+018314
X+007916Y+018314
X+008170Y+018314
X+008424Y+018314
X+008678Y+018314
X+008932Y+018314
X+009186Y+018314
X+009440Y+018314
X+009694Y+018314
X+009948Y+018314
X+010202Y+018314
X+010456Y+018314
X+017219Y+018314
X+017219Y+018060
X+017219Y+017806
X+017219Y+017552
X+017219Y+017298
X+017219Y+017044
X+017219Y+016790
X+017219Y+016536
X+017219Y+016282
X+017219Y+016028
X+017219Y+015774
X+017219Y+015520
X+017219Y+015266
X+017219Y+015012
X+017219Y+014758
X+017219Y+014504
X+020258Y+013307
X+020512Y+013307
X+020766Y+013307
X+021020Y+013307
X+021274Y+013307
X+021528Y+013307
X+021782Y+013307
X+022036Y+013307
X+022607Y+013307
X+022861Y+013307
X+023115Y+013307
X+023369Y+013307
X+023623Y+013307
X+023877Y+013307
X+024131Y+013307
X+024385Y+013307
X+024957Y+013307
X+025211Y+013307
X+025465Y+013307
X+025719Y+013307
X+025973Y+013307
X+026227Y+013307
X+026481Y+013307
X+026735Y+013307
X+027306Y+013307
X+027560Y+013307
X+027814Y+013307
X+028068Y+013307
X+028322Y+013307
X+028576Y+013307
X+028830Y+013307
X+029084Y+013307
X+029084Y+012545
X+028830Y+012545
X+028576Y+012545
X+028322Y+012545
X+028068Y+012545
X+027814Y+012545
X+027560Y+012545
X+027306Y+012545
X+027560Y+012100
X+027814Y+012100
X+028068Y+012100
X+028322Y+012100
X+028576Y+012100
X+028830Y+012100
X+029084Y+012100
X+029084Y+011338
X+028830Y+011338
X+028576Y+011338
X+028322Y+011338
X+028068Y+011338
X+027814Y+011338
X+027560Y+011338
X+026735Y+011338
X+026481Y+011338
X+026227Y+011338
X+025973Y+011338
X+025719Y+011338
X+025465Y+011338
X+025211Y+011338
X+025211Y+012100
X+025465Y+012100
X+025719Y+012100
X+025973Y+012100
X+026227Y+012100
X+026481Y+012100
X+026735Y+012100
X+026735Y+012545
X+026481Y+012545
X+026227Y+012545
X+025973Y+012545
X+025719Y+012545
X+025465Y+012545
X+025211Y+012545
X+024957Y+012545
X+024385Y+012545
X+024131Y+012545
X+023877Y+012545
X+023623Y+012545
X+023369Y+012545
X+023115Y+012545
X+022861Y+012545
X+022607Y+012545
X+022861Y+012100
X+023115Y+012100
X+023369Y+012100
X+023623Y+012100
X+023877Y+012100
X+024131Y+012100
X+024385Y+012100
X+024385Y+011338
X+024131Y+011338
X+023877Y+011338
X+023623Y+011338
X+023369Y+011338
X+023115Y+011338
X+022861Y+011338
X+022036Y+011338
X+021782Y+011338
X+021528Y+011338
X+021274Y+011338
X+021020Y+011338
X+020766Y+011338
X+020512Y+011338
X+020512Y+012100
X+020766Y+012100
X+021020Y+012100
X+021274Y+012100
X+021528Y+012100
X+021782Y+012100
X+022036Y+012100
X+022036Y+012545
X+021782Y+012545
X+021528Y+012545
X+021274Y+012545
X+021020Y+012545
X+020766Y+012545
X+020512Y+012545
X+020258Y+012545
X+020568Y+016096
X+020822Y+016096
X+021076Y+016096
X+021330Y+016096
X+021584Y+016096
X+021838Y+016096
X+022092Y+016096
X+022346Y+016096
X+022798Y+016101
X+023052Y+016101
X+023306Y+016101
X+023560Y+016101
X+023814Y+016101
X+024068Y+016101
X+024322Y+016101
X+024576Y+016101
X+024989Y+016101
X+025243Y+016101
X+025497Y+016101
X+025751Y+016101
X+026005Y+016101
X+026259Y+016101
X+026513Y+016101
X+026767Y+016101
X+027179Y+016101
X+027433Y+016101
X+027687Y+016101
X+027941Y+016101
X+028195Y+016101
X+028449Y+016101
X+028703Y+016101
X+028957Y+016101
X+028957Y+016863
X+028703Y+016863
X+028449Y+016863
X+028195Y+016863
X+027941Y+016863
X+027687Y+016863
X+027433Y+016863
X+027179Y+016863
X+026767Y+016863
X+026513Y+016863
X+026259Y+016863
X+026005Y+016863
X+025751Y+016863
X+025497Y+016863
X+025243Y+016863
X+024989Y+016863
X+024576Y+016863
X+024322Y+016863
X+024068Y+016863
X+023814Y+016863
X+023560Y+016863
X+023306Y+016863
X+023052Y+016863
X+022798Y+016863
X+022346Y+016858
X+022092Y+016858
X+021838Y+016858
X+021584Y+016858
X+021330Y+016858
X+021076Y+016858
X+020822Y+016858
X+020568Y+016858
X+022553Y+018314
X+022807Y+018314
X+023061Y+018314
X+023315Y+018314
X+023569Y+018314
X+023823Y+018314
X+024077Y+018314
X+024331Y+018314
X+024585Y+018314
X+024839Y+018314
X+025093Y+018314
X+025347Y+018314
X+025601Y+018314
X+025855Y+018314
X+026109Y+018314
X+026363Y+018314
X+001312Y+018314
X+001312Y+018060
X+001312Y+017806
X+001312Y+017552
X+001312Y+017298
X+001312Y+017044
X+001312Y+016790
X+001312Y+016536
X+001312Y+016282
X+001312Y+016028
X+001312Y+015774
X+001312Y+015520
X+001312Y+015266
X+001312Y+015012
X+001312Y+014758
X+001312Y+014504
T07
X+003048Y+016861
X+003048Y+015806
X+015368Y+016060
X+015368Y+017115
T08
X+016321Y+001889
X+016067Y+001889
X+015813Y+001889
X+015559Y+001889
X+015305Y+001889
X+015051Y+001889
X+014797Y+001889
X+014543Y+001889
X+014289Y+001889
X+014035Y+001889
X+013781Y+001889
X+013527Y+001889
X+013273Y+001889
X+013019Y+001889
X+012765Y+001889
X+012511Y+001889
X+011658Y+001524
X+011404Y+001524
X+011150Y+001524
X+010896Y+001524
X+010642Y+001524
X+010388Y+001524
X+010134Y+001524
X+009880Y+001524
X+009626Y+001524
X+009372Y+001524
X+009118Y+001524
X+008864Y+001524
X+008610Y+001524
X+008356Y+001524
X+008102Y+001524
X+007848Y+001524
X+006001Y+001794
X+005747Y+001794
X+005493Y+001794
X+005239Y+001794
X+004985Y+001794
X+004731Y+001794
X+004477Y+001794
X+004223Y+001794
X+003969Y+001794
X+003715Y+001794
X+003461Y+001794
X+003207Y+001794
X+002953Y+001794
X+002699Y+001794
X+002445Y+001794
X+002191Y+001794
X+001318Y+013035
X+001318Y+013289
X+001318Y+013543
X+001318Y+013797
X+019051Y+001289
X+019305Y+001289
X+019559Y+001289
X+019813Y+001289
X+020067Y+001289
X+020321Y+001289
X+020575Y+001289
X+020829Y+001289
X+021083Y+001289
X+021337Y+001289
X+021591Y+001289
X+021845Y+001289
X+022099Y+001289
X+022353Y+001289
X+022607Y+001289
X+022861Y+001289
T09
X+006065Y+013320
X+006065Y+013770
X+006715Y+013770
X+006715Y+013320
T10
X+006763Y+010701
X+006255Y+010701
T11
X+004716Y+020612
X+003510Y+020612
T12
X+001381Y+020560
X+015607Y+020560
X+032118Y+020560
X+032118Y+001381
X+015607Y+001381
X+001381Y+001381
T13
X+003852Y+005874
X+003852Y+015774
X+013752Y+015774
X+019759Y+015774
X+019759Y+005874
X+013752Y+005874
X+029659Y+005874
X+029659Y+015774
T00
M30
